<svg width="791" height="259" viewBox="0 0 791 259" fill="none" xmlns="http://www.w3.org/2000/svg">
<path d="M491.577 104.829C491.577 162.719 444.642 209.639 386.755 209.639C328.868 209.639 281.933 162.709 281.933 104.829C281.933 46.9493 328.868 0.0195312 386.755 0.0195312C444.642 0.0195312 491.577 46.9493 491.577 104.829ZM310.496 104.829C310.496 146.939 344.64 181.07 386.745 181.07C428.85 181.07 462.994 146.929 462.994 104.829C462.994 62.7293 428.85 28.5894 386.745 28.5894C344.64 28.5894 310.496 62.7293 310.496 104.829Z" fill="white"/>
<path d="M491.577 104.829C491.577 118.589 488.867 132.219 483.596 144.939C478.326 157.659 470.605 169.209 460.874 178.939C451.143 188.669 439.581 196.389 426.87 201.659C414.148 206.929 400.517 209.639 386.755 209.639V181.069C396.767 181.069 406.687 179.099 415.939 175.269C425.19 171.439 433.601 165.819 440.682 158.739C447.762 151.659 453.383 143.259 457.213 133.999C461.044 124.749 463.014 114.839 463.014 104.819H491.588L491.577 104.829Z" fill="#7BCDCD"/>
<path d="M386.755 209.65C364.623 209.65 343.05 202.64 325.138 189.63C307.226 176.62 293.894 158.27 287.053 137.22L314.227 128.39C319.207 143.7 328.898 157.05 341.93 166.51C354.961 175.97 370.643 181.07 386.745 181.07V209.64L386.755 209.65Z" fill="#FBDD59"/>
<path d="M525.741 164.599C526.542 165.739 526.942 167.01 526.942 168.28V197.49H526.842C526.742 198.44 526.341 199.329 525.741 200.219C525.041 201.359 523.942 202.379 522.541 203.209C521.641 203.839 520.751 204.229 520.451 204.349C518.951 205.049 516.36 206.319 511.67 208.669C511.47 208.799 511.17 208.92 510.97 209.24C510.97 209.24 510.77 209.49 510.77 209.81C510.77 209.81 510.67 210.509 510.67 243.209H513.27L513.17 210.199H526.842V251.209H497.098L496.998 211.089H497.098V209.82C497.098 208.49 497.498 207.279 498.298 206.079C498.598 205.569 498.999 205.059 499.499 204.619C499.499 204.619 500.299 203.859 501.499 203.099C502.889 202.149 507.089 199.929 512.78 197.199C512.88 197.139 512.98 197.069 513.08 196.949C513.18 196.819 513.28 196.63 513.28 196.57V168.32C513.28 167.88 512.78 167.5 512.08 167.5C511.38 167.5 510.78 167.88 510.78 168.32V195.3H497.108V168.32C497.108 167.05 497.508 165.779 498.309 164.639C499.109 163.499 500.108 162.479 501.509 161.649C502.899 160.759 504.499 160.059 506.299 159.619C508.099 159.109 510.09 158.859 512.09 158.859C514.09 158.859 515.98 159.109 517.881 159.619C519.671 160.059 521.271 160.759 522.571 161.649C523.971 162.479 525.072 163.489 525.772 164.639L525.741 164.599Z" fill="#7BCDCD"/>
<path d="M575.107 206.64V244.54C575.107 245.81 574.708 247.08 573.907 248.22C573.207 249.36 572.107 250.38 570.717 251.27C569.417 252.16 567.817 252.79 566.027 253.3C564.126 253.81 562.236 254.06 560.236 254.06C558.236 254.06 556.245 253.81 554.445 253.3C552.655 252.79 551.055 252.16 549.655 251.27C548.254 250.38 547.254 249.36 546.464 248.22C546.264 247.9 545.864 247.33 545.664 246.63C545.364 245.68 545.264 244.85 545.264 244.53V209.48H558.946V244.53C558.946 244.97 559.546 245.36 560.246 245.36C560.946 245.36 561.546 244.98 561.546 244.53V208.03C561.446 207.27 560.446 206.7 559.546 206.7H559.446C558.746 206.76 558.146 207.14 557.845 207.59H545.264V162.01C555.245 162.01 565.136 162.01 575.107 162.07V197.11H561.436V170H558.935V203.97H559.636V203.33C560.436 200.98 562.536 199.2 565.426 198.76C565.927 198.7 566.427 198.63 566.927 198.63C568.127 198.63 569.027 198.88 569.327 198.95C572.817 199.84 575.118 202.89 575.118 206.63L575.107 206.64Z" fill="#7BCDCD"/>
<path d="M608.291 202.64C606.591 203.08 604.801 203.34 603.001 203.34C601.2 203.34 599.41 203.09 597.71 202.64C596.11 202.2 594.62 201.62 593.419 200.8C592.119 200.04 591.23 199.09 590.529 198.07C589.829 196.99 589.429 195.85 589.429 194.7V169.43C589.429 168.29 589.829 167.14 590.529 166.06C591.23 165.04 592.129 164.15 593.419 163.33C594.62 162.57 596.12 161.93 597.71 161.49C599.41 161.05 601.2 160.85 603.001 160.85C604.801 160.85 606.591 161.04 608.291 161.49C609.891 161.93 611.282 162.57 612.582 163.33C613.782 164.15 614.772 165.04 615.472 166.06C616.172 167.14 616.573 168.28 616.573 169.43V194.7C616.573 195.84 616.172 196.99 615.472 198.07C614.772 199.09 613.772 200.04 612.582 200.8C611.282 201.63 609.881 202.2 608.291 202.64ZM604.111 169.44C604.111 169.06 603.611 168.74 603.011 168.74C602.311 168.74 601.811 169.06 601.811 169.44V194.71C601.811 195.09 602.311 195.47 603.011 195.47C603.611 195.47 604.111 195.09 604.111 194.71V169.44ZM635.245 161.95L615.682 253.18H606.301L625.863 161.95H635.245ZM651.017 217.18C651.717 218.26 652.116 219.4 652.116 220.55V245.82C652.116 246.96 651.717 248.1 651.017 249.18C650.316 250.2 649.416 251.09 648.126 251.91C646.926 252.67 645.436 253.31 643.836 253.75C642.135 254.19 640.345 254.45 638.545 254.45C636.745 254.45 634.954 254.2 633.254 253.75C631.654 253.31 630.164 252.67 628.964 251.91C627.764 251.08 626.763 250.19 626.063 249.18C625.363 248.1 624.963 246.96 624.963 245.82V220.55C624.963 219.41 625.363 218.26 626.063 217.18C626.763 216.17 627.764 215.28 628.964 214.45C630.164 213.69 631.654 213.05 633.254 212.61C634.954 212.17 636.745 211.91 638.545 211.91C640.345 211.91 642.135 212.16 643.836 212.61C645.436 213.05 646.936 213.69 648.126 214.45C649.426 215.28 650.326 216.17 651.017 217.18ZM639.735 220.55C639.735 220.17 639.135 219.85 638.535 219.85C637.935 219.85 637.335 220.17 637.335 220.55V245.82C637.335 246.2 637.935 246.52 638.535 246.52C639.135 246.52 639.735 246.2 639.735 245.82V220.55Z" fill="#7BCDCD"/>
<path d="M183.811 170.159C184.611 171.309 185.011 172.579 185.011 173.859V203.199H184.911C184.811 204.159 184.411 205.049 183.811 205.939C183.111 207.089 182.001 208.109 180.601 208.939C179.701 209.579 178.791 209.959 178.491 210.089C176.99 210.789 174.38 212.069 169.659 214.429C169.459 214.559 169.16 214.68 168.96 215C168.96 215 168.759 215.25 168.759 215.57C168.759 215.57 168.659 216.269 168.659 249.119H171.27L171.17 215.949H184.911V257.149H155.018L154.918 216.839H155.018V215.57C155.018 214.23 155.418 213.02 156.218 211.81C156.518 211.3 156.918 210.789 157.418 210.339C157.418 210.339 158.218 209.57 159.428 208.81C160.828 207.85 165.049 205.619 170.76 202.879C170.86 202.819 170.96 202.749 171.06 202.629C171.16 202.499 171.26 202.31 171.26 202.25V173.859C171.26 173.409 170.759 173.03 170.059 173.03C169.359 173.03 168.759 173.409 168.759 173.859V200.969H155.018V173.859C155.018 172.589 155.418 171.309 156.218 170.159C157.018 169.009 158.028 167.989 159.428 167.159C160.828 166.269 162.439 165.569 164.239 165.119C166.049 164.609 168.049 164.359 170.059 164.359C172.07 164.359 173.97 164.619 175.88 165.119C177.681 165.569 179.291 166.269 180.591 167.159C181.991 167.989 183.101 169.009 183.801 170.159H183.811Z" fill="#FBDD59"/>
<path d="M228.896 170.23C229.697 171.44 230.097 172.66 230.097 173.93V248.5C230.097 249.78 229.697 251.05 228.896 252.2C228.096 253.35 227.086 254.37 225.686 255.26C224.286 256.09 222.676 256.79 220.976 257.3C219.065 257.75 217.065 258 215.055 258C213.045 258 211.145 257.75 209.234 257.3C207.424 256.79 205.824 256.09 204.524 255.26C203.124 254.37 202.013 253.35 201.313 252.2C200.513 251.05 200.113 249.78 200.113 248.5V173.93C200.113 172.66 200.513 171.44 201.313 170.23C202.013 169.08 203.124 168.06 204.524 167.23C205.824 166.34 207.434 165.64 209.234 165.19C211.135 164.68 213.045 164.43 215.055 164.43C217.065 164.43 219.065 164.68 220.976 165.19C222.676 165.64 224.286 166.34 225.686 167.23C227.086 168.06 228.096 169.08 228.896 170.23ZM216.355 175.01C216.355 174.56 215.755 174.18 215.055 174.18C214.355 174.18 213.855 174.56 213.855 175.01V247.53C213.855 248.04 214.355 248.36 215.055 248.36C215.755 248.36 216.355 248.04 216.355 247.53V175.01Z" fill="#FBDD59"/>
<path d="M262.05 206.39C260.34 206.84 258.54 207.09 256.73 207.09C254.92 207.09 253.12 206.84 251.409 206.39C249.799 205.94 248.299 205.37 247.099 204.54C245.799 203.78 244.888 202.82 244.188 201.8C243.488 200.72 243.088 199.57 243.088 198.42V173.03C243.088 171.88 243.488 170.73 244.188 169.65C244.888 168.63 245.799 167.73 247.099 166.91C248.299 166.14 249.809 165.51 251.409 165.06C253.11 164.61 254.92 164.42 256.73 164.42C258.54 164.42 260.34 164.61 262.05 165.06C263.651 165.51 265.061 166.14 266.361 166.91C267.561 167.74 268.571 168.63 269.271 169.65C269.971 170.73 270.372 171.88 270.372 173.03V198.42C270.372 199.57 269.971 200.72 269.271 201.8C268.571 202.82 267.571 203.78 266.361 204.54C265.061 205.37 263.651 205.94 262.05 206.39ZM257.83 173.03C257.83 172.65 257.33 172.33 256.73 172.33C256.03 172.33 255.53 172.65 255.53 173.03V198.42C255.53 198.8 256.03 199.19 256.73 199.19C257.33 199.19 257.83 198.81 257.83 198.42V173.03ZM289.124 165.51L269.461 257.17H260.031L279.693 165.51H289.124ZM304.976 221C305.676 222.08 306.076 223.23 306.076 224.38V249.77C306.076 250.92 305.676 252.07 304.976 253.15C304.276 254.17 303.365 255.06 302.065 255.89C300.865 256.65 299.355 257.29 297.755 257.74C296.055 258.19 294.245 258.44 292.434 258.44C290.624 258.44 288.824 258.18 287.113 257.74C285.513 257.29 284.003 256.66 282.803 255.89C281.603 255.06 280.593 254.17 279.893 253.15C279.193 252.07 278.793 250.92 278.793 249.77V224.38C278.793 223.23 279.193 222.08 279.893 221C280.593 219.98 281.593 219.09 282.803 218.26C284.003 217.5 285.513 216.86 287.113 216.41C288.824 215.96 290.624 215.71 292.434 215.71C294.245 215.71 296.045 215.97 297.755 216.41C299.365 216.86 300.865 217.49 302.065 218.26C303.365 219.09 304.276 219.98 304.976 221ZM293.634 224.38C293.634 224 293.034 223.68 292.434 223.68C291.834 223.68 291.234 224 291.234 224.38V249.77C291.234 250.15 291.834 250.47 292.434 250.47C293.034 250.47 293.634 250.15 293.634 249.77V224.38Z" fill="#FBDD59"/>
<path d="M329.919 112.789V92.6689C329.919 92.0389 330.629 91.5391 331.429 91.5391H340.86C341.71 91.5391 342.37 92.0289 342.37 92.6689C342.37 93.3089 341.71 93.7991 340.86 93.7991H332.939V101.259H339.92C340.77 101.259 341.43 101.749 341.43 102.389C341.43 103.029 340.77 103.519 339.92 103.519H332.939V112.799C332.939 113.429 332.279 113.929 331.429 113.929C330.629 113.929 329.919 113.439 329.919 112.799V112.789Z" fill="white"/>
<path d="M346.521 112.929V98.9993C346.521 98.3993 347.131 97.9492 347.941 97.9492H352.661C353.741 97.9492 354.782 98.1593 355.732 98.5493C356.392 98.8693 356.632 99.4993 356.252 99.9893C355.872 100.519 354.982 100.689 354.321 100.379C353.801 100.169 353.231 100.059 352.671 100.059H349.371V112.929C349.371 113.529 348.761 113.979 347.951 113.979C347.141 113.979 346.531 113.519 346.531 112.929H346.521Z" fill="white"/>
<path d="M367.703 104.709V102.319C367.703 101.339 366.903 100.489 365.723 100.099C364.492 99.7487 363.133 99.9187 362.232 100.629C361.662 101.049 360.772 101.049 360.202 100.629C359.632 100.209 359.632 99.5387 360.202 99.1487C361.952 97.8487 364.542 97.4587 366.803 98.1687C369.063 98.8787 370.533 100.489 370.533 102.319V112.799C370.533 113.399 369.873 113.859 369.113 113.859H364.392C360.992 113.859 358.262 111.819 358.262 109.289C358.262 106.759 361.002 104.719 364.392 104.719H367.703V104.709ZM364.403 111.739H367.703V106.819H364.403C362.562 106.819 361.102 107.909 361.102 109.279C361.102 110.649 362.562 111.739 364.403 111.739Z" fill="white"/>
<path d="M376.764 112.929V98.9993C376.764 98.3993 377.374 97.9492 378.174 97.9492H382.895C386.245 97.9492 389.026 99.9893 389.026 102.519V112.929C389.026 113.529 388.365 113.979 387.615 113.979C386.815 113.979 386.195 113.519 386.195 112.929V102.519C386.195 101.149 384.685 100.059 382.895 100.059H379.594V112.929C379.594 113.529 378.934 113.979 378.174 113.979C377.374 113.979 376.764 113.519 376.764 112.929Z" fill="white"/>
<path d="M405.157 99.1489C405.728 99.5689 405.728 100.239 405.157 100.659C404.587 101.049 403.697 101.049 403.177 100.659C402.237 99.9189 400.817 99.7489 399.547 100.099C398.317 100.489 397.516 101.399 397.516 102.389V109.419C397.516 110.399 398.317 111.319 399.547 111.709C399.967 111.819 400.397 111.889 400.777 111.889H400.867C401.717 111.889 402.517 111.639 403.177 111.189C403.697 110.769 404.597 110.769 405.157 111.189C405.728 111.579 405.728 112.239 405.157 112.669C404.357 113.269 403.317 113.689 402.237 113.899V115.099C402.237 116.469 401.247 117.769 399.647 118.479C398.987 118.759 398.087 118.589 397.717 118.089C397.337 117.559 397.577 116.929 398.237 116.649C398.987 116.329 399.417 115.739 399.417 115.099V113.899C399.087 113.829 398.807 113.759 398.477 113.649C396.216 112.949 394.706 111.289 394.706 109.429V102.399C394.706 100.539 396.216 98.8789 398.477 98.1789C400.787 97.4789 403.427 97.8589 405.178 99.1589H405.157V99.1489Z" fill="white"/>
<path d="M418.419 104.709V102.319C418.419 101.339 417.619 100.489 416.439 100.099C415.208 99.7487 413.849 99.9187 412.948 100.629C412.378 101.049 411.488 101.049 410.918 100.629C410.348 100.209 410.348 99.5387 410.918 99.1487C412.668 97.8487 415.259 97.4587 417.519 98.1687C419.779 98.8687 421.249 100.489 421.249 102.319V112.799C421.249 113.399 420.589 113.859 419.829 113.859H415.108C411.708 113.859 408.978 111.819 408.978 109.289C408.978 106.759 411.718 104.719 415.108 104.719H418.419V104.709ZM415.119 111.739H418.419V106.819H415.119C413.278 106.819 411.818 107.909 411.818 109.279C411.818 110.649 413.278 111.739 415.119 111.739Z" fill="white"/>
<path d="M427 93.5886C427 92.8186 427.85 92.1787 428.89 92.1787C429.93 92.1787 430.78 92.8086 430.78 93.5886C430.78 94.3686 429.93 94.9988 428.89 94.9988C427.85 94.9988 427 94.3686 427 93.5886ZM428.89 113.989C428.14 113.989 427.47 113.529 427.47 112.939V98.8687C427.47 98.2687 428.13 97.8188 428.89 97.8188C429.69 97.8188 430.31 98.2787 430.31 98.8687V112.939C430.31 113.539 429.7 113.989 428.89 113.989Z" fill="white"/>
<path d="M444.092 109.489C444.042 108.789 443.572 108.189 442.822 107.799L438.432 105.479C437.012 104.739 436.171 103.579 436.021 102.319C435.931 101.019 436.591 99.7887 437.861 98.9387C439.131 98.0587 440.832 97.6686 442.532 97.8486C444.232 98.0586 445.742 98.7987 446.592 99.9187C446.972 100.409 446.732 101.079 446.072 101.359C445.412 101.639 444.512 101.469 444.142 100.969C443.722 100.409 442.962 100.059 442.112 99.9487C441.262 99.8387 440.412 100.019 439.752 100.479C439.142 100.899 438.812 101.539 438.852 102.169C438.892 102.799 439.372 103.399 440.082 103.749L444.472 106.039C445.933 106.809 446.832 108.009 446.922 109.349C447.062 110.689 446.353 111.949 445.033 112.829C443.712 113.739 441.962 114.129 440.222 113.959C438.432 113.749 436.921 112.979 436.021 111.809C435.641 111.319 435.881 110.649 436.541 110.369C437.201 110.089 438.102 110.259 438.472 110.759C438.942 111.359 439.702 111.739 440.642 111.849C441.542 111.959 442.432 111.739 443.142 111.289C443.802 110.829 444.182 110.159 444.082 109.499H444.092V109.489Z" fill="white"/>
<path d="M0.349121 143.839V131.3C0.349121 128.2 2.85977 125.689 5.96014 125.689C9.0605 125.689 11.5707 128.2 11.5707 131.3V143.839C11.5707 146.939 9.0605 149.449 5.96014 149.449C2.85977 149.449 0.349121 146.939 0.349121 143.839ZM2.70975 131.3V143.839C2.70975 145.649 4.14992 147.089 5.96014 147.089C7.77035 147.089 9.21052 145.649 9.21052 143.839V131.3C9.21052 129.53 7.73034 128.05 5.96014 128.05C4.18993 128.05 2.70975 129.53 2.70975 131.3Z" fill="#FBDD59"/>
<path d="M18.0613 148.27V133.66C18.0613 133.03 18.5417 132.55 19.1718 132.55H22.8621C25.4824 132.55 27.6625 134.69 27.6625 137.35V148.27C27.6625 148.9 27.1426 149.38 26.5525 149.38C25.9224 149.38 25.4425 148.9 25.4425 148.27V137.35C25.4425 135.91 24.3023 134.77 22.8621 134.77H20.2818V148.27C20.2818 148.9 19.7618 149.38 19.1718 149.38C18.5417 149.38 18.0613 148.9 18.0613 148.27Z" fill="#FBDD59"/>
<path d="M32.7534 133.659C32.7534 133.029 33.2333 132.55 33.8634 132.55H35.7035V126.129C35.7035 125.499 36.1834 125.02 36.8135 125.02C37.4435 125.02 37.924 125.499 37.924 126.129V132.55H40.5043C41.1344 132.55 41.6143 133.029 41.6143 133.659C41.6143 134.289 41.1344 134.77 40.5043 134.77H37.924V144.579C37.924 146.019 39.0642 147.159 40.5043 147.159C41.1344 147.159 41.6143 147.64 41.6143 148.27C41.6143 148.9 41.1344 149.379 40.5043 149.379C37.844 149.379 35.7035 147.239 35.7035 144.579V134.77H33.8634C33.2333 134.77 32.7534 134.289 32.7534 133.659Z" fill="#FBDD59"/>
<path d="M55.6257 144.429V137.349C55.6257 134.689 57.7663 132.55 60.4266 132.55H63.007V126.129C63.007 125.499 63.4869 125.02 64.117 125.02C64.707 125.02 65.227 125.499 65.227 126.129V148.119C65.227 148.749 64.707 149.229 64.117 149.229H60.4266C57.7663 149.229 55.6257 147.089 55.6257 144.429ZM57.8462 137.349V144.429C57.8462 145.869 58.9864 147.01 60.4266 147.01H63.007V134.76H60.4266C58.9864 134.76 57.8462 135.899 57.8462 137.339V137.349Z" fill="#FBDD59"/>
<path d="M71.7976 144.579V137.199C71.7976 134.539 73.9782 132.399 76.5985 132.399C79.2188 132.399 81.3988 134.539 81.3988 137.199V140.889C81.3988 141.519 80.9189 141.999 80.2888 141.999H74.0181V144.579C74.0181 145.609 74.608 146.569 75.6081 146.979C76.6082 147.389 77.7087 147.159 78.4488 146.429C78.6288 146.209 78.8886 146.099 79.1886 146.099C79.5187 146.099 79.7787 146.209 79.9988 146.429C80.2188 146.609 80.3289 146.869 80.3289 147.199C80.3289 147.489 80.2188 147.749 79.9988 147.969C78.6286 149.339 76.5682 149.739 74.798 148.999C72.9877 148.259 71.8079 146.529 71.8079 144.569L71.7976 144.579ZM79.2785 125.389C79.6885 125.829 79.6487 126.529 79.1686 126.939L75.4782 130.259C75.0382 130.669 74.3383 130.629 73.9282 130.189C73.5182 129.749 73.558 129.049 73.9981 128.639L77.6884 125.319C78.1685 124.909 78.8284 124.949 79.2785 125.389ZM74.0083 137.199V139.779H79.1789V137.199C79.1789 135.759 78.0386 134.619 76.5985 134.619C75.1583 134.619 74.0181 135.759 74.0181 137.199H74.0083Z" fill="#FBDD59"/>
<path d="M84.2791 155.65C84.2791 155.02 84.7994 154.54 85.3894 154.54C86.8294 154.54 87.9695 153.4 87.9695 151.96V133.51C87.9695 132.88 88.4893 132.4 89.0793 132.4C89.7093 132.4 90.1892 132.88 90.1892 133.51V151.96C90.1892 154.62 88.0494 156.76 85.3894 156.76C84.7994 156.76 84.2791 156.28 84.2791 155.65ZM87.5891 127.98C87.5891 127.13 88.2191 126.5 89.0691 126.5C89.9191 126.5 90.5491 127.13 90.5491 127.98C90.5491 128.83 89.9191 129.46 89.0691 129.46C88.2191 129.46 87.5891 128.83 87.5891 127.98Z" fill="#FBDD59"/>
<path d="M95.7007 144.429C95.7007 141.769 97.8407 139.629 100.501 139.629H103.081V137.119C103.081 136.089 102.451 135.199 101.531 134.799C100.531 134.389 99.5007 134.619 98.8007 135.349C98.5806 135.569 98.321 135.679 97.991 135.679C97.701 135.679 97.4407 135.569 97.2106 135.349C96.9906 135.129 96.8805 134.869 96.8805 134.579C96.8805 134.249 96.9906 133.989 97.2106 133.809C98.5808 132.439 100.601 132.039 102.381 132.779C104.151 133.519 105.301 135.219 105.301 137.129V148.129C105.301 148.759 104.782 149.239 104.191 149.239H100.501C97.8407 149.239 95.7007 147.099 95.7007 144.439V144.429ZM97.9207 144.429C97.9207 145.869 99.0609 147.009 100.501 147.009H103.081V141.839H100.501C99.0609 141.839 97.9207 142.979 97.9207 144.419V144.429ZM103.901 130.189C103.491 130.629 102.791 130.669 102.351 130.259L98.661 126.939C98.1809 126.529 98.1406 125.829 98.5506 125.389C98.9607 124.949 99.6611 124.909 100.141 125.319L103.832 128.639C104.272 129.049 104.311 129.749 103.901 130.189Z" fill="#FBDD59"/>
<path d="M120.833 145.719V126.129C120.833 125.499 121.353 125.02 121.943 125.02C122.573 125.02 123.053 125.499 123.053 126.129V145.719C123.053 146.419 123.424 146.97 123.974 147.31C124.524 147.6 124.713 148.27 124.383 148.82C124.093 149.37 123.424 149.519 122.874 149.229C121.654 148.489 120.843 147.159 120.843 145.719H120.833Z" fill="#FBDD59"/>
<path d="M129.875 144.429V133.51C129.875 132.88 130.355 132.399 130.985 132.399C131.615 132.399 132.095 132.88 132.095 133.51V144.429C132.095 145.869 133.235 147.01 134.675 147.01H137.256V133.51C137.256 132.88 137.735 132.399 138.366 132.399C138.996 132.399 139.476 132.88 139.476 133.51V148.119C139.476 148.749 138.996 149.229 138.366 149.229H134.675C132.015 149.229 129.875 147.089 129.875 144.429Z" fill="#FBDD59"/>
<path d="M155.117 144.429V133.51C155.117 132.88 155.598 132.399 156.228 132.399C156.858 132.399 157.338 132.88 157.338 133.51V144.429C157.338 145.869 158.478 147.01 159.918 147.01H162.499V133.51C162.499 132.88 162.979 132.399 163.609 132.399C164.239 132.399 164.719 132.88 164.719 133.51V148.119C164.719 148.749 164.239 149.229 163.609 149.229H159.918C157.258 149.229 155.117 147.089 155.117 144.429Z" fill="#FBDD59"/>
<path d="M171.73 148.27V133.66C171.73 133.03 172.21 132.55 172.84 132.55H176.53C179.15 132.55 181.33 134.69 181.33 137.35V148.27C181.33 148.9 180.811 149.38 180.22 149.38C179.59 149.38 179.11 148.9 179.11 148.27V137.35C179.11 135.91 177.97 134.77 176.53 134.77H173.95V148.27C173.95 148.9 173.43 149.38 172.84 149.38C172.21 149.38 171.73 148.9 171.73 148.27Z" fill="#FBDD59"/>
<path d="M196.852 145.719V126.129C196.852 125.499 197.373 125.02 197.963 125.02C198.593 125.02 199.073 125.499 199.073 126.129V145.719C199.073 146.419 199.442 146.97 199.992 147.31C200.542 147.6 200.733 148.27 200.403 148.82C200.113 149.37 199.442 149.519 198.892 149.229C197.672 148.489 196.863 147.159 196.863 145.719H196.852Z" fill="#FBDD59"/>
<path d="M205.823 127.98C205.823 127.13 206.453 126.5 207.303 126.5C208.153 126.5 208.783 127.13 208.783 127.98C208.783 128.83 208.153 129.46 207.303 129.46C206.453 129.46 205.823 128.83 205.823 127.98ZM207.313 149.37C206.723 149.37 206.203 148.89 206.203 148.26V133.5C206.203 132.87 206.723 132.39 207.313 132.39C207.943 132.39 208.424 132.87 208.424 133.5V148.26C208.424 148.89 207.943 149.37 207.313 149.37Z" fill="#FBDD59"/>
<path d="M214.945 132.439C215.495 132.289 216.125 132.619 216.305 133.179L217.525 137.28C218.225 139.6 219.035 142.369 219.665 144.439C220.255 142.369 221.105 139.61 221.805 137.28L223.026 133.179C223.206 132.629 223.836 132.289 224.426 132.439C225.016 132.619 225.345 133.249 225.165 133.839L220.735 148.599C220.585 149.039 220.145 149.369 219.665 149.369C219.185 149.369 218.745 149.039 218.595 148.599L214.164 133.839C214.014 133.249 214.344 132.619 214.945 132.439Z" fill="#FBDD59"/>
<path d="M230.917 148.27V133.66C230.917 133.03 231.397 132.55 232.027 132.55H235.717C236.567 132.55 237.337 132.77 238.117 133.18C238.667 133.51 238.817 134.14 238.527 134.69C238.227 135.24 237.567 135.43 237.017 135.1C236.607 134.88 236.167 134.77 235.727 134.77H233.146V148.27C233.146 148.9 232.667 149.38 232.037 149.38C231.407 149.38 230.927 148.9 230.927 148.27H230.917Z" fill="#FBDD59"/>
<path d="M243.358 144.579V137.199C243.358 134.539 245.498 132.399 248.159 132.399C250.819 132.399 252.959 134.539 252.959 137.199V140.889C252.959 141.519 252.479 142 251.849 142H245.578V144.579C245.578 145.609 246.168 146.569 247.168 146.979C248.169 147.389 249.239 147.159 249.969 146.429C250.189 146.209 250.449 146.099 250.749 146.099C251.079 146.099 251.339 146.209 251.559 146.429C251.779 146.609 251.889 146.869 251.889 147.199C251.889 147.489 251.779 147.749 251.559 147.969C250.189 149.339 248.128 149.74 246.318 149C244.508 148.26 243.368 146.53 243.368 144.57L243.358 144.579ZM245.568 137.199V139.78H250.739V137.199C250.739 135.759 249.599 134.619 248.159 134.619C246.719 134.619 245.578 135.759 245.578 137.199H245.568Z" fill="#FBDD59"/>
<path d="M0.869141 192.549V177.939C0.869141 177.309 1.34955 176.829 1.97962 176.829H5.67C8.29031 176.829 10.4704 178.969 10.4704 181.629V192.549C10.4704 193.179 9.95045 193.659 9.36038 193.659C8.7303 193.659 8.25038 193.179 8.25038 192.549V181.629C8.25038 180.189 7.11017 179.049 5.67 179.049H3.08962V192.549C3.08962 193.179 2.56969 193.659 1.97962 193.659C1.34955 193.659 0.869141 193.179 0.869141 192.549Z" fill="#FBDD59"/>
<path d="M16.8813 188.71V177.79C16.8813 177.16 17.3613 176.68 17.9913 176.68C18.6214 176.68 19.1013 177.16 19.1013 177.79V188.71C19.1013 190.15 20.2415 191.29 21.6817 191.29H24.2621V177.79C24.2621 177.16 24.742 176.68 25.3721 176.68C26.0022 176.68 26.4826 177.16 26.4826 177.79V192.4C26.4826 193.03 26.0022 193.51 25.3721 193.51H21.6817C19.0214 193.51 16.8813 191.37 16.8813 188.71Z" fill="#FBDD59"/>
<path d="M35.7034 192.549C35.7034 193.179 35.1835 193.659 34.5934 193.659C33.9633 193.659 33.4834 193.179 33.4834 192.549V177.939C33.4834 177.309 33.9633 176.829 34.5934 176.829H45.6645C48.2848 176.829 50.4654 178.969 50.4654 181.629V192.549C50.4654 193.179 49.945 193.659 49.3549 193.659C48.7248 193.659 48.2449 193.179 48.2449 192.549V181.629C48.2449 180.189 47.1047 179.049 45.6645 179.049H43.0841V192.549C43.0841 193.179 42.5642 193.659 41.9741 193.659C41.3441 193.659 40.8642 193.179 40.8642 192.549V179.049H35.6936V192.549H35.7034Z" fill="#FBDD59"/>
<path d="M56.7361 188.86V181.48C56.7361 178.82 58.9161 176.68 61.5365 176.68C64.1568 176.68 66.3368 178.82 66.3368 181.48V185.17C66.3368 185.8 65.8569 186.28 65.2268 186.28H58.9561V188.86C58.9561 189.89 59.546 190.85 60.5461 191.26C61.5462 191.67 62.6467 191.44 63.3868 190.71C63.5668 190.49 63.8266 190.38 64.1266 190.38C64.4566 190.38 64.7167 190.49 64.9368 190.71C65.1568 190.89 65.2669 191.15 65.2669 191.48C65.2669 191.77 65.1568 192.03 64.9368 192.25C63.5666 193.62 61.5066 194.02 59.7364 193.28C57.9262 192.54 56.7459 190.81 56.7459 188.85L56.7361 188.86ZM64.2267 169.67C64.6368 170.11 64.5969 170.81 64.1168 171.22L60.4265 174.54C59.9864 174.95 59.286 174.91 58.876 174.47C58.4659 174.03 58.5063 173.33 58.9463 172.92L62.6367 169.6C63.1167 169.19 63.7767 169.23 64.2267 169.67ZM58.9561 181.48V184.06H64.1266V181.48C64.1266 180.04 62.9864 178.9 61.5462 178.9C60.1061 178.9 58.9663 180.04 58.9663 181.48H58.9561Z" fill="#FBDD59"/>
<path d="M72.6077 192.549V177.939C72.6077 177.309 73.088 176.829 73.718 176.829H77.408C78.258 176.829 79.0279 177.049 79.8079 177.459C80.3579 177.789 80.508 178.419 80.218 178.969C79.918 179.519 79.2578 179.709 78.7078 179.379C78.2978 179.159 77.8577 179.049 77.4177 179.049H74.8376V192.549C74.8376 193.179 74.3578 193.659 73.7278 193.659C73.0978 193.659 72.6179 193.179 72.6179 192.549H72.6077Z" fill="#FBDD59"/>
<path d="M85.1194 172.259C85.1194 171.409 85.7494 170.779 86.5994 170.779C87.4494 170.779 88.0793 171.409 88.0793 172.259C88.0793 173.109 87.4494 173.739 86.5994 173.739C85.7494 173.739 85.1194 173.109 85.1194 172.259ZM86.5891 193.649C85.9991 193.649 85.4792 193.169 85.4792 192.539V177.779C85.4792 177.149 85.9991 176.669 86.5891 176.669C87.2191 176.669 87.6995 177.149 87.6995 177.779V192.539C87.6995 193.169 87.2191 193.649 86.5891 193.649Z" fill="#FBDD59"/>
<path d="M94.28 188.709V181.629C94.28 178.969 96.4206 176.829 99.0809 176.829H102.771C103.361 176.829 103.881 177.309 103.881 177.939V199.929C103.881 200.559 103.361 201.039 102.771 201.039C102.141 201.039 101.661 200.559 101.661 199.929V193.509H99.0809C96.4206 193.509 94.28 191.369 94.28 188.709ZM96.4805 181.629V188.709C96.4805 190.149 97.6207 191.289 99.0609 191.289H101.641V179.039H99.0609C97.6207 179.039 96.4805 180.179 96.4805 181.619V181.629Z" fill="#FBDD59"/>
<path d="M110.582 188.71V177.79C110.582 177.16 111.062 176.68 111.692 176.68C112.322 176.68 112.802 177.16 112.802 177.79V188.71C112.802 190.15 113.942 191.29 115.383 191.29H117.963V177.79C117.963 177.16 118.443 176.68 119.073 176.68C119.703 176.68 120.184 177.16 120.184 177.79V192.4C120.184 193.03 119.703 193.51 119.073 193.51H115.383C112.722 193.51 110.582 191.37 110.582 188.71Z" fill="#FBDD59"/>
<path d="M126.744 188.86V181.48C126.744 178.82 128.884 176.68 131.545 176.68C134.205 176.68 136.345 178.82 136.345 181.48V185.17C136.345 185.8 135.865 186.28 135.235 186.28H128.964V188.86C128.964 189.89 129.554 190.85 130.554 191.26C131.555 191.67 132.625 191.44 133.355 190.71C133.575 190.49 133.835 190.38 134.135 190.38C134.465 190.38 134.725 190.49 134.945 190.71C135.165 190.89 135.275 191.15 135.275 191.48C135.275 191.77 135.165 192.03 134.945 192.25C133.575 193.62 131.515 194.02 129.705 193.28C127.894 192.54 126.754 190.81 126.754 188.85L126.744 188.86ZM128.955 181.48V184.06H134.125V181.48C134.125 180.04 132.985 178.9 131.545 178.9C130.105 178.9 128.964 180.04 128.964 181.48H128.955Z" fill="#FBDD59"/>
<path d="M544.103 140.279V127.739C544.103 124.639 546.613 122.129 549.714 122.129C552.814 122.129 555.324 124.639 555.324 127.739V140.279C555.324 143.379 552.814 145.889 549.714 145.889C546.613 145.889 544.103 143.379 544.103 140.279ZM546.463 127.739V140.279C546.463 142.089 547.903 143.529 549.714 143.529C551.524 143.529 552.964 142.089 552.964 140.279V127.739C552.964 125.969 551.484 124.489 549.714 124.489C547.943 124.489 546.463 125.969 546.463 127.739Z" fill="#7BCDCD"/>
<path d="M561.815 144.709V130.099C561.815 129.469 562.295 128.989 562.925 128.989H566.616C569.236 128.989 571.416 131.129 571.416 133.789V144.709C571.416 145.339 570.896 145.819 570.306 145.819C569.676 145.819 569.196 145.339 569.196 144.709V133.789C569.196 132.349 568.056 131.209 566.616 131.209H564.035V144.709C564.035 145.339 563.515 145.819 562.925 145.819C562.295 145.819 561.815 145.339 561.815 144.709Z" fill="#7BCDCD"/>
<path d="M576.507 130.099C576.507 129.469 576.987 128.989 577.617 128.989H579.457V122.569C579.457 121.939 579.937 121.459 580.567 121.459C581.197 121.459 581.677 121.939 581.677 122.569V128.989H584.258C584.888 128.989 585.368 129.469 585.368 130.099C585.368 130.729 584.888 131.209 584.258 131.209H581.677V141.019C581.677 142.459 582.818 143.599 584.258 143.599C584.888 143.599 585.368 144.079 585.368 144.709C585.368 145.339 584.888 145.819 584.258 145.819C581.597 145.819 579.457 143.679 579.457 141.019V131.209H577.617C576.987 131.209 576.507 130.729 576.507 130.099Z" fill="#7BCDCD"/>
<path d="M599.389 140.869V133.789C599.389 131.129 601.529 128.989 604.19 128.989H606.77V122.569C606.77 121.939 607.25 121.459 607.88 121.459C608.47 121.459 608.991 121.939 608.991 122.569V144.559C608.991 145.189 608.47 145.669 607.88 145.669H604.19C601.529 145.669 599.389 143.529 599.389 140.869ZM601.609 133.789V140.869C601.609 142.309 602.75 143.449 604.19 143.449H606.77V131.199H604.19C602.75 131.199 601.609 132.339 601.609 133.779V133.789Z" fill="#7BCDCD"/>
<path d="M615.552 141.019V133.639C615.552 130.979 617.732 128.839 620.352 128.839C622.972 128.839 625.152 130.979 625.152 133.639V137.329C625.152 137.959 624.672 138.439 624.042 138.439H617.772V141.019C617.772 142.049 618.361 143.009 619.362 143.419C620.362 143.829 621.462 143.599 622.202 142.869C622.382 142.649 622.642 142.539 622.942 142.539C623.272 142.539 623.532 142.649 623.752 142.869C623.972 143.049 624.082 143.309 624.082 143.639C624.082 143.929 623.972 144.189 623.752 144.409C622.382 145.779 620.322 146.179 618.552 145.439C616.742 144.699 615.561 142.969 615.561 141.009L615.552 141.019ZM623.042 121.829C623.452 122.269 623.412 122.969 622.932 123.379L619.242 126.699C618.802 127.109 618.101 127.069 617.691 126.629C617.281 126.189 617.322 125.489 617.762 125.079L621.452 121.759C621.932 121.349 622.592 121.389 623.042 121.829ZM617.762 133.639V136.219H622.932V133.639C622.932 132.199 621.792 131.059 620.352 131.059C618.912 131.059 617.772 132.199 617.772 133.639H617.762Z" fill="#7BCDCD"/>
<path d="M628.023 152.089C628.023 151.459 628.543 150.979 629.133 150.979C630.573 150.979 631.713 149.839 631.713 148.399V129.949C631.713 129.319 632.233 128.839 632.823 128.839C633.453 128.839 633.933 129.319 633.933 129.949V148.399C633.933 151.059 631.793 153.199 629.133 153.199C628.543 153.199 628.023 152.719 628.023 152.089ZM631.343 124.419C631.343 123.569 631.973 122.939 632.823 122.939C633.673 122.939 634.303 123.569 634.303 124.419C634.303 125.269 633.673 125.899 632.823 125.899C631.973 125.899 631.343 125.269 631.343 124.419Z" fill="#7BCDCD"/>
<path d="M639.464 140.869C639.464 138.209 641.604 136.069 644.265 136.069H646.845V133.559C646.845 132.529 646.215 131.639 645.295 131.239C644.295 130.829 643.264 131.059 642.564 131.789C642.344 132.009 642.084 132.119 641.754 132.119C641.464 132.119 641.204 132.009 640.974 131.789C640.754 131.569 640.644 131.309 640.644 131.019C640.644 130.689 640.754 130.429 640.974 130.249C642.344 128.879 644.365 128.479 646.145 129.219C647.915 129.959 649.065 131.659 649.065 133.569V144.569C649.065 145.199 648.545 145.679 647.955 145.679H644.265C641.604 145.679 639.464 143.539 639.464 140.879V140.869ZM641.674 140.869C641.674 142.309 642.814 143.449 644.254 143.449H646.835V138.279H644.254C642.814 138.279 641.674 139.419 641.674 140.859V140.869ZM647.655 126.629C647.245 127.069 646.545 127.109 646.105 126.699L642.414 123.379C641.934 122.969 641.894 122.269 642.305 121.829C642.715 121.389 643.415 121.349 643.895 121.759L647.585 125.079C648.025 125.489 648.065 126.189 647.655 126.629Z" fill="#7BCDCD"/>
<path d="M664.257 141.019V133.639C664.257 130.979 666.437 128.839 669.058 128.839C671.678 128.839 673.858 130.979 673.858 133.639V137.329C673.858 137.959 673.378 138.439 672.748 138.439H666.477V141.019C666.477 142.049 667.067 143.009 668.067 143.419C669.067 143.829 670.167 143.599 670.908 142.869C671.088 142.649 671.348 142.539 671.648 142.539C671.978 142.539 672.238 142.649 672.458 142.869C672.678 143.049 672.788 143.309 672.788 143.639C672.788 143.929 672.678 144.189 672.458 144.409C671.088 145.779 669.027 146.179 667.257 145.439C665.447 144.699 664.267 142.969 664.267 141.009L664.257 141.019ZM671.748 121.829C672.158 122.269 672.118 122.969 671.638 123.379L667.947 126.699C667.507 127.109 666.807 127.069 666.397 126.629C665.987 126.189 666.027 125.489 666.467 125.079L670.157 121.759C670.637 121.349 671.298 121.389 671.748 121.829ZM666.477 133.639V136.219H671.648V133.639C671.648 132.199 670.508 131.059 669.067 131.059C667.627 131.059 666.487 132.199 666.487 133.639H666.477Z" fill="#7BCDCD"/>
<path d="M679.689 141.019V133.639C679.689 131.679 680.829 129.949 682.639 129.209C684.449 128.469 686.44 128.879 687.88 130.239C688.06 130.459 688.17 130.719 688.17 131.049C688.17 131.349 688.06 131.599 687.88 131.819C687.66 131.999 687.4 132.109 687.07 132.109C686.77 132.109 686.52 131.999 686.29 131.819C685.55 131.049 684.479 130.819 683.489 131.229C682.499 131.639 681.899 132.599 681.899 133.629V141.009C681.899 142.039 682.489 142.999 683.489 143.409C684.489 143.819 685.56 143.589 686.29 142.859C686.51 142.639 686.77 142.529 687.07 142.529C687.4 142.529 687.66 142.639 687.88 142.859C688.06 143.039 688.17 143.299 688.17 143.629C688.17 143.919 688.06 144.179 687.88 144.399C686.44 145.769 684.449 146.169 682.639 145.429C680.829 144.689 679.689 142.959 679.689 140.999V141.019Z" fill="#7BCDCD"/>
<path d="M693.64 141.019V133.639C693.64 130.979 695.781 128.839 698.441 128.839C701.101 128.839 703.241 130.979 703.241 133.639V141.019C703.241 143.679 701.061 145.819 698.441 145.819C695.821 145.819 693.64 143.679 693.64 141.019ZM695.85 133.639V141.019C695.85 142.459 696.991 143.599 698.431 143.599C699.871 143.599 701.011 142.459 701.011 141.019V133.639C701.011 132.199 699.871 131.059 698.431 131.059C696.991 131.059 695.85 132.199 695.85 133.639Z" fill="#7BCDCD"/>
<path d="M709.502 140.869V129.949C709.502 129.319 709.982 128.839 710.612 128.839C711.243 128.839 711.722 129.319 711.722 129.949V140.869C711.722 142.309 712.863 143.449 714.303 143.449H716.883V129.949C716.883 129.319 717.363 128.839 717.993 128.839C718.623 128.839 719.103 129.319 719.103 129.949V144.559C719.103 145.189 718.623 145.669 717.993 145.669H714.303C711.642 145.669 709.502 143.529 709.502 140.869Z" fill="#7BCDCD"/>
<path d="M724.484 130.099C724.484 129.469 724.964 128.989 725.594 128.989H727.434V122.569C727.434 121.939 727.915 121.459 728.545 121.459C729.175 121.459 729.655 121.939 729.655 122.569V128.989H732.235C732.865 128.989 733.345 129.469 733.345 130.099C733.345 130.729 732.865 131.209 732.235 131.209H729.655V141.019C729.655 142.459 730.795 143.599 732.235 143.599C732.865 143.599 733.345 144.079 733.345 144.709C733.345 145.339 732.865 145.819 732.235 145.819C729.575 145.819 727.434 143.679 727.434 141.019V131.209H725.594C724.964 131.209 724.484 130.729 724.484 130.099Z" fill="#7BCDCD"/>
<path d="M738.436 141.019V133.639C738.436 130.979 740.616 128.839 743.236 128.839C745.857 128.839 748.037 130.979 748.037 133.639V137.329C748.037 137.959 747.557 138.439 746.927 138.439H740.656V141.019C740.656 142.049 741.246 143.009 742.246 143.419C743.246 143.829 744.347 143.599 745.087 142.869C745.267 142.649 745.527 142.539 745.827 142.539C746.157 142.539 746.417 142.649 746.637 142.869C746.857 143.049 746.967 143.309 746.967 143.639C746.967 143.929 746.857 144.189 746.637 144.409C745.267 145.779 743.206 146.179 741.436 145.439C739.626 144.699 738.446 142.969 738.446 141.009L738.436 141.019ZM745.927 121.829C746.337 122.269 746.297 122.969 745.817 123.379L742.126 126.699C741.686 127.109 740.986 127.069 740.576 126.629C740.166 126.189 740.206 125.489 740.646 125.079L744.337 121.759C744.817 121.349 745.477 121.389 745.927 121.829ZM740.656 133.639V136.219H745.827V133.639C745.827 132.199 744.686 131.059 743.246 131.059C741.806 131.059 740.666 132.199 740.666 133.639H740.656Z" fill="#7BCDCD"/>
<path d="M762.938 140.869V129.949C762.938 129.319 763.419 128.839 764.049 128.839C764.679 128.839 765.159 129.319 765.159 129.949V140.869C765.159 142.309 766.299 143.449 767.739 143.449H770.32V129.949C770.32 129.319 770.8 128.839 771.43 128.839C772.06 128.839 772.54 129.319 772.54 129.949V144.559C772.54 145.189 772.06 145.669 771.43 145.669H767.739C765.079 145.669 762.938 143.529 762.938 140.869Z" fill="#7BCDCD"/>
<path d="M779.551 144.709V130.099C779.551 129.469 780.031 128.989 780.661 128.989H784.351C786.971 128.989 789.152 131.129 789.152 133.789V144.709C789.152 145.339 788.632 145.819 788.042 145.819C787.411 145.819 786.932 145.339 786.932 144.709V133.789C786.932 132.349 785.791 131.209 784.351 131.209H781.771V144.709C781.771 145.339 781.251 145.819 780.661 145.819C780.031 145.819 779.551 145.339 779.551 144.709Z" fill="#7BCDCD"/>
<path d="M653.526 178.439V158.849C653.526 158.219 654.045 157.739 654.635 157.739C655.265 157.739 655.746 158.219 655.746 158.849V178.439C655.746 179.139 656.116 179.689 656.666 180.029C657.216 180.319 657.406 180.989 657.076 181.539C656.786 182.089 656.116 182.239 655.566 181.949C654.346 181.209 653.536 179.879 653.536 178.439H653.526Z" fill="#7BCDCD"/>
<path d="M662.497 160.699C662.497 159.849 663.127 159.219 663.977 159.219C664.827 159.219 665.457 159.849 665.457 160.699C665.457 161.549 664.827 162.179 663.977 162.179C663.127 162.179 662.497 161.549 662.497 160.699ZM663.967 182.099C663.377 182.099 662.857 181.619 662.857 180.989V166.229C662.857 165.599 663.377 165.119 663.967 165.119C664.597 165.119 665.077 165.599 665.077 166.229V180.989C665.077 181.619 664.597 182.099 663.967 182.099Z" fill="#7BCDCD"/>
<path d="M671.617 165.159C672.167 165.009 672.798 165.339 672.978 165.899L674.198 169.999C674.898 172.319 675.708 175.089 676.338 177.159C676.928 175.089 677.778 172.329 678.479 169.999L679.698 165.899C679.878 165.349 680.508 165.009 681.099 165.159C681.689 165.339 682.019 165.969 681.839 166.559L677.408 181.319C677.258 181.759 676.818 182.089 676.338 182.089C675.858 182.089 675.418 181.759 675.268 181.319L670.838 166.559C670.688 165.969 671.017 165.339 671.617 165.159Z" fill="#7BCDCD"/>
<path d="M687.599 180.99V166.379C687.599 165.749 688.08 165.27 688.71 165.27H692.4C693.25 165.27 694.02 165.489 694.8 165.899C695.35 166.229 695.5 166.859 695.21 167.409C694.91 167.959 694.249 168.15 693.699 167.82C693.289 167.6 692.849 167.49 692.409 167.49H689.83V180.99C689.83 181.62 689.349 182.099 688.719 182.099C688.089 182.099 687.61 181.62 687.61 180.99H687.599Z" fill="#7BCDCD"/>
<path d="M700.021 177.299V169.919C700.021 167.259 702.161 165.119 704.822 165.119C707.482 165.119 709.622 167.259 709.622 169.919V173.609C709.622 174.239 709.142 174.719 708.512 174.719H702.241V177.299C702.241 178.329 702.832 179.289 703.832 179.699C704.832 180.109 705.902 179.879 706.632 179.149C706.852 178.929 707.112 178.819 707.412 178.819C707.742 178.819 708.002 178.929 708.222 179.149C708.442 179.329 708.552 179.589 708.552 179.919C708.552 180.209 708.442 180.469 708.222 180.689C706.852 182.059 704.792 182.459 702.982 181.719C701.171 180.979 700.031 179.249 700.031 177.289L700.021 177.299ZM702.241 169.919V172.499H707.412V169.919C707.412 168.479 706.272 167.339 704.832 167.339C703.392 167.339 702.251 168.479 702.251 169.919H702.241Z" fill="#7BCDCD"/>
<path d="M730.725 169.849C730.725 168.819 730.095 167.929 729.175 167.529C728.174 167.119 727.144 167.349 726.444 168.079C726.224 168.299 725.964 168.409 725.634 168.409C725.344 168.409 725.084 168.299 724.854 168.079C724.634 167.859 724.524 167.599 724.524 167.309C724.524 166.979 724.634 166.719 724.854 166.539C726.224 165.169 728.245 164.769 730.025 165.509C731.795 166.249 732.945 167.949 732.945 169.859V180.859C732.945 181.489 732.425 181.969 731.835 181.969H728.144C725.484 181.969 723.344 179.829 723.344 177.169C723.344 174.509 725.484 172.369 728.144 172.369H730.725V169.859V169.849ZM728.144 179.739H730.725V174.569H728.144C726.704 174.569 725.564 175.709 725.564 177.149C725.564 178.589 726.704 179.729 728.144 179.729V179.739Z" fill="#7BCDCD"/>
<path d="M739.375 177.149V166.229C739.375 165.599 739.856 165.119 740.486 165.119C741.116 165.119 741.596 165.599 741.596 166.229V177.149C741.596 178.589 742.736 179.729 744.176 179.729H746.757V166.229C746.757 165.599 747.237 165.119 747.867 165.119C748.497 165.119 748.977 165.599 748.977 166.229V180.839C748.977 181.469 748.497 181.949 747.867 181.949H744.176C741.516 181.949 739.375 179.809 739.375 177.149Z" fill="#7BCDCD"/>
<path d="M755.528 177.149V170.069C755.528 167.409 757.668 165.269 760.328 165.269H762.909V158.849C762.909 158.219 763.389 157.739 764.019 157.739C764.609 157.739 765.129 158.219 765.129 158.849V180.839C765.129 181.469 764.609 181.949 764.019 181.949H760.328C757.668 181.949 755.528 179.809 755.528 177.149ZM757.738 170.069V177.149C757.738 178.589 758.878 179.729 760.318 179.729H762.898V167.479H760.318C758.878 167.479 757.738 168.619 757.738 170.059V170.069Z" fill="#7BCDCD"/>
<path d="M771.76 160.699C771.76 159.849 772.39 159.219 773.24 159.219C774.09 159.219 774.72 159.849 774.72 160.699C774.72 161.549 774.09 162.179 773.24 162.179C772.39 162.179 771.76 161.549 771.76 160.699ZM773.24 182.099C772.65 182.099 772.129 181.619 772.129 180.989V166.229C772.129 165.599 772.65 165.119 773.24 165.119C773.87 165.119 774.35 165.599 774.35 166.229V180.989C774.35 181.619 773.87 182.099 773.24 182.099Z" fill="#7BCDCD"/>
<path d="M780.911 177.299V169.919C780.911 167.259 783.051 165.119 785.711 165.119C788.371 165.119 790.512 167.259 790.512 169.919V177.299C790.512 179.959 788.331 182.099 785.711 182.099C783.091 182.099 780.911 179.959 780.911 177.299ZM783.131 169.919V177.299C783.131 178.739 784.271 179.879 785.711 179.879C787.151 179.879 788.291 178.739 788.291 177.299V169.919C788.291 168.479 787.151 167.339 785.711 167.339C784.271 167.339 783.131 168.479 783.131 169.919Z" fill="#7BCDCD"/>
</svg>
