<svg width="1921" height="1081" viewBox="0 0 1921 1081" fill="none" xmlns="http://www.w3.org/2000/svg">
<path d="M1920.38 0H0V803H1920.38V0Z" fill="#9794BF"/>
<path d="M1920.39 766H0V802H1920.39V766Z" fill="white"/>
<path d="M1920.39 793.62H0V1080.12H1920.39V793.62Z" fill="#7F5B4F"/>
<path d="M1604.52 650.839L1476.08 661.829C1472.7 662.119 1469.8 659.459 1469.8 656.069V470.149C1469.8 466.959 1472.39 464.369 1475.58 464.369H1604.02C1607.21 464.369 1609.8 466.959 1609.8 470.149V645.069C1609.8 648.069 1607.5 650.579 1604.51 650.829H1604.52V650.839Z" fill="#EF8989"/>
<path d="M1615.4 651.109L1743.2 662.06C1746.77 662.37 1749.83 659.549 1749.83 655.969V470.469C1749.83 467.099 1747.09 464.359 1743.72 464.359H1615.92C1612.55 464.359 1609.81 467.099 1609.81 470.469V645.02C1609.81 648.19 1612.24 650.839 1615.4 651.109Z" fill="#EF8989"/>
<path d="M1604.33 642.199L1483.42 652.029C1479.31 652.359 1475.8 649.119 1475.8 644.999V478.429C1475.8 474.539 1478.96 471.379 1482.85 471.379H1590.82C1601.86 471.379 1610.81 480.329 1610.81 491.369V635.179C1610.81 638.849 1607.99 641.909 1604.33 642.209V642.199Z" fill="#EDEDED"/>
<path d="M1615.86 642.089L1737.17 652.099C1740.76 652.399 1743.83 649.559 1743.83 645.959V471.369H1625.46C1617.37 471.369 1610.81 477.919 1610.81 486.009V636.619C1610.81 639.479 1613 641.859 1615.86 642.089Z" fill="#EDEDED"/>
<path d="M1596.42 495.679C1597 496.509 1597.29 497.419 1597.29 498.339V519.459H1597.22C1597.15 520.149 1596.86 520.789 1596.43 521.429C1595.93 522.259 1595.13 522.989 1594.12 523.589C1593.47 524.049 1592.82 524.319 1592.6 524.419C1591.52 524.929 1589.64 525.84 1586.25 527.54C1586.11 527.63 1585.89 527.719 1585.75 527.949C1585.75 527.949 1585.61 528.129 1585.61 528.359C1585.61 528.359 1585.54 528.86 1585.54 552.51H1587.42L1587.35 528.629H1597.24V558.29H1575.73L1575.66 529.27H1575.73V528.349C1575.73 527.389 1576.02 526.509 1576.6 525.639C1576.82 525.269 1577.1 524.909 1577.47 524.579C1577.47 524.579 1578.05 524.029 1578.91 523.479C1579.92 522.789 1582.95 521.179 1587.07 519.209C1587.14 519.159 1587.21 519.12 1587.29 519.03C1587.37 518.94 1587.43 518.8 1587.43 518.75V498.32C1587.43 498 1587.07 497.719 1586.56 497.719C1586.05 497.719 1585.62 498 1585.62 498.32V517.829H1575.73V498.32C1575.73 497.4 1576.02 496.479 1576.6 495.659C1577.18 494.829 1577.9 494.1 1578.91 493.5C1579.92 492.86 1581.08 492.35 1582.38 492.03C1583.68 491.66 1585.12 491.479 1586.57 491.479C1588.02 491.479 1589.39 491.66 1590.76 492.03C1592.06 492.35 1593.22 492.86 1594.15 493.5C1595.16 494.1 1595.95 494.829 1596.46 495.659L1596.42 495.679Z" fill="#A85858"/>
<path d="M1619.74 495.719C1620.32 496.589 1620.61 497.459 1620.61 498.379V552.049C1620.61 552.969 1620.32 553.889 1619.74 554.709C1619.16 555.539 1618.44 556.269 1617.43 556.909C1616.42 557.509 1615.26 558.009 1614.04 558.379C1612.67 558.699 1611.22 558.879 1609.78 558.879C1608.34 558.879 1606.96 558.699 1605.59 558.379C1604.29 558.009 1603.13 557.509 1602.2 556.909C1601.19 556.269 1600.4 555.529 1599.89 554.709C1599.31 553.879 1599.02 552.959 1599.02 552.049V498.379C1599.02 497.459 1599.31 496.589 1599.89 495.719C1600.39 494.889 1601.19 494.159 1602.2 493.559C1603.14 492.919 1604.29 492.409 1605.59 492.089C1606.96 491.719 1608.33 491.539 1609.78 491.539C1611.23 491.539 1612.67 491.719 1614.04 492.089C1615.27 492.409 1616.42 492.919 1617.43 493.559C1618.44 494.159 1619.16 494.889 1619.74 495.719ZM1610.71 499.169C1610.71 498.849 1610.28 498.569 1609.77 498.569C1609.26 498.569 1608.9 498.849 1608.9 499.169V551.369C1608.9 551.739 1609.26 551.969 1609.77 551.969C1610.28 551.969 1610.71 551.739 1610.71 551.369V499.169Z" fill="#A85858"/>
<path d="M1639.53 522.58V522.76C1640.47 522.9 1641.98 523.26 1642.99 524.27C1643.93 525.14 1643.93 526.06 1643.93 526.43V552.05C1643.93 552.97 1643.64 553.89 1643.06 554.71C1642.77 555.17 1642.41 555.63 1641.98 556.04C1641.62 556.36 1641.19 556.64 1640.75 556.91C1639.74 557.55 1638.58 558.06 1637.36 558.38C1636.49 558.61 1635.84 558.7 1635.48 558.79C1635.19 558.84 1634.4 558.93 1633.24 558.93C1632.52 558.93 1631.64 558.88 1630.7 558.75C1629.91 558.61 1629.26 558.47 1628.97 558.38C1627.67 558.01 1626.52 557.55 1625.51 556.91C1624.5 556.27 1623.78 555.53 1623.2 554.71C1622.62 553.88 1622.33 552.96 1622.33 552.05V526.43C1622.33 526.06 1622.33 525.14 1623.27 524.27C1624.35 523.21 1626.01 522.85 1626.95 522.76V522.62C1626.08 522.48 1624.71 522.16 1623.63 521.29C1622.4 520.33 1622.33 519.32 1622.33 518.95L1622.47 498.38C1622.47 497.46 1622.76 496.54 1623.26 495.72C1623.84 494.89 1624.63 494.16 1625.57 493.52C1626.58 492.88 1627.74 492.42 1629.03 492.05C1629.39 491.96 1630.04 491.82 1630.76 491.68C1630.76 491.68 1631.85 491.5 1633.3 491.5C1634.02 491.5 1634.82 491.55 1635.61 491.68C1636.48 491.82 1637.34 492.05 1637.41 492.05C1637.55 492.1 1637.7 492.14 1637.91 492.19C1638.99 492.51 1640 492.97 1640.87 493.52C1641.81 494.16 1642.6 494.9 1643.18 495.72C1643.68 496.55 1643.97 497.46 1643.97 498.38L1643.9 518.95C1643.9 519.32 1643.83 520.33 1642.6 521.29C1641.59 522.12 1640.29 522.44 1639.5 522.58H1639.53ZM1634.11 526.12C1634.04 525.8 1633.82 525.48 1633.39 525.34C1633.39 525.34 1633.24 525.34 1633.16 525.29H1633.1C1632.96 525.34 1632.87 525.34 1632.8 525.34C1632.44 525.48 1632.15 525.8 1632.15 526.12C1632.15 526.35 1632.15 526.53 1632.22 552.06C1632.22 552.38 1632.65 552.66 1633.16 552.66C1633.45 552.66 1633.75 552.57 1633.89 552.43C1633.96 552.34 1634.03 552.2 1634.03 552.11L1634.1 526.12H1634.11ZM1634.11 498.34C1634.11 498.11 1633.89 497.93 1633.6 497.83C1633.46 497.78 1633.38 497.78 1633.24 497.78C1632.73 497.78 1632.3 498.06 1632.3 498.38L1632.22 518.95C1632.22 519.23 1632.44 519.41 1632.72 519.5H1633.51C1633.66 519.45 1633.8 519.36 1633.87 519.27C1634.01 519.13 1634.02 519.04 1634.02 518.95L1634.09 498.33H1634.11V498.34Z" fill="#A85858"/>
<path d="M1534.38 596.25V571.86C1534.38 571.23 1535.04 570.68 1536.03 570.56C1536.96 570.43 1537.95 570.73 1538.41 571.27C1538.41 571.27 1544.49 579.51 1547.08 583C1549.66 579.51 1555.74 571.27 1555.74 571.27C1556.14 570.72 1557.13 570.43 1558.12 570.56C1559.05 570.69 1559.77 571.23 1559.77 571.86V596.25C1559.77 597.01 1558.78 597.6 1557.65 597.6C1556.46 597.6 1555.53 597.01 1555.53 596.25V577.87C1552.42 582.03 1548.98 586.74 1548.98 586.74C1548.58 587.2 1547.86 587.5 1547.06 587.5C1546.2 587.5 1545.46 587.21 1545.13 586.74C1545.13 586.74 1541.63 582.03 1538.58 577.87V596.25C1538.58 597.01 1537.59 597.6 1536.46 597.6C1535.27 597.6 1534.34 597.01 1534.34 596.25H1534.38Z" fill="#A85858"/>
<path d="M1568.25 573.119C1568.25 572.199 1569.44 571.439 1570.9 571.439C1572.36 571.439 1573.55 572.199 1573.55 573.119C1573.55 574.039 1572.36 574.8 1570.9 574.8C1569.44 574.8 1568.25 574.039 1568.25 573.119ZM1570.89 597.51C1569.83 597.51 1568.91 596.96 1568.91 596.25V579.429C1568.91 578.719 1569.84 578.169 1570.89 578.169C1572.01 578.169 1572.87 578.719 1572.87 579.429V596.25C1572.87 596.96 1572.01 597.51 1570.89 597.51Z" fill="#A85858"/>
<path d="M1581.94 593.35V571.02C1581.94 570.31 1582.87 569.76 1583.92 569.76C1585.04 569.76 1585.9 570.31 1585.9 571.02V593.35C1585.9 594.11 1586.56 594.78 1587.55 595.16C1588.54 595.5 1588.87 596.29 1588.28 596.88C1587.75 597.47 1586.56 597.68 1585.57 597.34C1583.39 596.5 1581.93 594.98 1581.93 593.34H1581.94V593.35Z" fill="#A85858"/>
<path d="M1595.16 593.35V571.02C1595.16 570.31 1596.09 569.76 1597.14 569.76C1598.26 569.76 1599.12 570.31 1599.12 571.02V593.35C1599.12 594.11 1599.78 594.78 1600.77 595.16C1601.76 595.5 1602.09 596.29 1601.5 596.88C1600.97 597.47 1599.78 597.68 1598.79 597.34C1596.61 596.5 1595.15 594.98 1595.15 593.34H1595.16V593.35Z" fill="#A85858"/>
<path d="M1607.93 573.119C1607.93 572.199 1609.12 571.439 1610.58 571.439C1612.04 571.439 1613.23 572.199 1613.23 573.119C1613.23 574.039 1612.04 574.8 1610.58 574.8C1609.12 574.8 1607.93 574.039 1607.93 573.119ZM1610.57 597.51C1609.51 597.51 1608.59 596.96 1608.59 596.25V579.429C1608.59 578.719 1609.52 578.169 1610.57 578.169C1611.69 578.169 1612.55 578.719 1612.55 579.429V596.25C1612.55 596.96 1611.69 597.51 1610.57 597.51Z" fill="#A85858"/>
<path d="M1621.02 592.04V583.63C1621.02 580.6 1624.86 578.16 1629.62 578.16C1634.38 578.16 1638.23 580.6 1638.23 583.63V592.04C1638.23 595.07 1634.32 597.51 1629.62 597.51C1624.92 597.51 1621.02 595.07 1621.02 592.04ZM1624.99 583.63V592.04C1624.99 593.68 1627.04 594.98 1629.62 594.98C1632.2 594.98 1634.25 593.68 1634.25 592.04V583.63C1634.25 581.99 1632.13 580.69 1629.62 580.69C1627.11 580.69 1624.99 581.99 1624.99 583.63Z" fill="#A85858"/>
<path d="M1646.69 596.25V579.6C1646.69 578.89 1647.55 578.34 1648.67 578.34H1655.28C1659.98 578.34 1663.88 580.78 1663.88 583.81V596.26C1663.88 596.97 1662.95 597.52 1661.9 597.52C1660.78 597.52 1659.92 596.97 1659.92 596.26V583.81C1659.92 582.17 1657.8 580.87 1655.29 580.87H1650.66V596.26C1650.66 596.97 1649.73 597.52 1648.68 597.52C1647.56 597.52 1646.7 596.97 1646.7 596.26H1646.69V596.25Z" fill="#A85858"/>
<path d="M1682.66 592.13C1682.59 591.29 1681.93 590.57 1680.87 590.11L1674.72 587.33C1672.74 586.45 1671.55 585.06 1671.35 583.54C1671.22 581.98 1672.14 580.51 1673.93 579.5C1675.72 578.45 1678.1 577.99 1680.48 578.2C1682.86 578.45 1684.98 579.34 1686.17 580.68C1686.7 581.27 1686.37 582.07 1685.44 582.4C1684.51 582.74 1683.26 582.53 1682.73 581.94C1682.13 581.27 1681.08 580.85 1679.89 580.72C1678.7 580.59 1677.51 580.8 1676.58 581.35C1675.72 581.85 1675.26 582.61 1675.32 583.37C1675.39 584.13 1676.05 584.84 1677.04 585.26L1683.19 587.99C1685.24 588.91 1686.5 590.34 1686.63 591.94C1686.83 593.54 1685.84 595.05 1683.98 596.1C1682.13 597.19 1679.68 597.66 1677.23 597.45C1674.72 597.2 1672.6 596.27 1671.34 594.88C1670.81 594.29 1671.14 593.49 1672.07 593.16C1673 592.82 1674.25 593.03 1674.78 593.62C1675.44 594.33 1676.5 594.8 1677.82 594.92C1679.08 595.05 1680.33 594.79 1681.32 594.25C1682.25 593.7 1682.78 592.9 1682.64 592.11L1682.66 592.13Z" fill="#A85858"/>
<path d="M1498.98 605C1503.07 605 1506.38 607.11 1506.38 609.71V619.99C1506.38 622.59 1503.07 624.7 1498.98 624.7H1493.14C1492.26 624.7 1491.58 624.27 1491.58 623.71V606C1491.58 605.44 1492.26 605.01 1493.14 605.01H1498.98V605ZM1498.98 606.98H1494.7V622.71H1498.98C1501.36 622.71 1503.26 621.5 1503.26 619.99V609.71C1503.26 608.22 1501.36 606.99 1498.98 606.99V606.98Z" fill="#A85858"/>
<path d="M1511.93 620.729V614.54C1511.93 612.31 1514.75 610.52 1518.26 610.52C1521.77 610.52 1524.6 612.32 1524.6 614.54V617.639C1524.6 618.169 1523.96 618.57 1523.13 618.57H1514.86V620.74C1514.86 621.61 1515.69 622.41 1516.95 622.75C1518.22 623.09 1519.68 622.9 1520.65 622.29C1521.23 621.92 1522.16 621.92 1522.74 622.29C1523.32 622.63 1523.32 623.219 1522.74 623.589C1520.94 624.739 1518.21 625.079 1515.83 624.459C1513.44 623.839 1511.94 622.39 1511.94 620.75V620.729H1511.93ZM1514.85 614.54V616.709H1521.66V614.54C1521.66 613.33 1520.15 612.369 1518.25 612.369C1516.35 612.369 1514.84 613.33 1514.84 614.54H1514.85Z" fill="#A85858"/>
<path d="M1539.62 621.689V605.249C1539.62 604.719 1540.3 604.319 1541.08 604.319C1541.91 604.319 1542.54 604.719 1542.54 605.249V621.689C1542.54 622.249 1543.04 622.739 1543.77 623.019C1544.5 623.269 1544.74 623.859 1544.31 624.289C1543.92 624.719 1543.04 624.879 1542.31 624.629C1540.7 624.009 1539.62 622.899 1539.62 621.689Z" fill="#A85858"/>
<path d="M1549.02 606.8C1549.02 606.12 1549.9 605.56 1550.97 605.56C1552.04 605.56 1552.92 606.12 1552.92 606.8C1552.92 607.48 1552.04 608.04 1550.97 608.04C1549.9 608.04 1549.02 607.48 1549.02 606.8ZM1550.97 624.75C1550.19 624.75 1549.51 624.35 1549.51 623.82V611.439C1549.51 610.909 1550.19 610.51 1550.97 610.51C1551.8 610.51 1552.43 610.909 1552.43 611.439V623.82C1552.43 624.35 1551.8 624.75 1550.97 624.75Z" fill="#A85858"/>
<path d="M1557.59 611.72C1557.39 611.22 1557.83 610.7 1558.61 610.54C1559.34 610.42 1560.17 610.69 1560.41 611.16C1560.41 611.16 1563.23 617.17 1564.84 620.6C1566.45 617.16 1569.27 611.16 1569.27 611.16C1569.51 610.7 1570.34 610.42 1571.12 610.54C1571.9 610.69 1572.34 611.22 1572.09 611.72L1566.25 624.1C1566.05 624.47 1565.47 624.75 1564.84 624.75C1564.21 624.75 1563.62 624.47 1563.43 624.1L1557.59 611.72Z" fill="#A85858"/>
<path d="M1577.25 623.819V611.559C1577.25 611.029 1577.88 610.629 1578.71 610.629H1583.58C1584.7 610.629 1585.77 610.819 1586.74 611.159C1587.42 611.439 1587.66 611.999 1587.28 612.429C1586.89 612.889 1585.97 613.049 1585.28 612.769C1584.74 612.579 1584.16 612.489 1583.58 612.489H1580.17V623.819C1580.17 624.349 1579.54 624.749 1578.71 624.749C1577.88 624.749 1577.25 624.349 1577.25 623.819Z" fill="#A85858"/>
<path d="M1591.22 620.729V614.54C1591.22 612.31 1594.04 610.52 1597.55 610.52C1601.06 610.52 1603.88 612.32 1603.88 614.54V617.639C1603.88 618.169 1603.25 618.57 1602.42 618.57H1594.15V620.74C1594.15 621.61 1594.98 622.41 1596.24 622.75C1597.51 623.09 1598.97 622.9 1599.94 622.29C1600.52 621.92 1601.45 621.92 1602.03 622.29C1602.61 622.63 1602.61 623.219 1602.03 623.589C1600.23 624.739 1597.5 625.079 1595.12 624.459C1592.73 623.839 1591.23 622.39 1591.23 620.75V620.729H1591.22ZM1594.14 614.54V616.709H1600.95V614.54C1600.95 613.33 1599.44 612.369 1597.54 612.369C1595.64 612.369 1594.13 613.33 1594.13 614.54H1594.14Z" fill="#A85858"/>
<path d="M1617.11 620.79C1617.06 620.17 1616.57 619.64 1615.8 619.3L1611.27 617.26C1609.81 616.61 1608.93 615.589 1608.79 614.469C1608.69 613.319 1609.37 612.24 1610.69 611.5C1612 610.73 1613.76 610.39 1615.51 610.54C1617.26 610.73 1618.82 611.379 1619.7 612.369C1620.09 612.799 1619.85 613.389 1619.16 613.639C1618.47 613.889 1617.55 613.73 1617.16 613.3C1616.72 612.8 1615.94 612.499 1615.07 612.399C1614.2 612.299 1613.32 612.459 1612.64 612.859C1612.01 613.229 1611.67 613.789 1611.72 614.349C1611.77 614.909 1612.26 615.429 1612.99 615.739L1617.52 617.75C1619.03 618.43 1619.95 619.479 1620.05 620.659C1620.2 621.839 1619.48 622.949 1618.1 623.719C1616.74 624.519 1614.94 624.869 1613.14 624.709C1611.29 624.519 1609.73 623.84 1608.81 622.82C1608.42 622.39 1608.66 621.8 1609.35 621.55C1610.03 621.3 1610.96 621.459 1611.35 621.889C1611.84 622.419 1612.62 622.759 1613.59 622.849C1614.51 622.939 1615.44 622.759 1616.17 622.349C1616.85 621.949 1617.24 621.36 1617.14 620.77L1617.11 620.79Z" fill="#A85858"/>
<path d="M1642.87 616.579V614.469C1642.87 613.599 1642.04 612.859 1640.83 612.519C1639.56 612.209 1638.15 612.359 1637.23 612.979C1636.65 613.349 1635.72 613.349 1635.14 612.979C1634.56 612.609 1634.56 612.019 1635.14 611.679C1636.94 610.529 1639.62 610.19 1641.95 610.81C1644.29 611.43 1645.8 612.849 1645.8 614.459V623.689C1645.8 624.219 1645.12 624.619 1644.34 624.619H1639.47C1635.97 624.619 1633.14 622.819 1633.14 620.589C1633.14 618.359 1635.96 616.57 1639.47 616.57H1642.88H1642.87V616.579ZM1639.46 622.769H1642.87V618.439H1639.46C1637.56 618.439 1636.05 619.399 1636.05 620.609C1636.05 621.819 1637.56 622.779 1639.46 622.779V622.769Z" fill="#A85858"/>
<path d="M1651.63 620.729V614.539C1651.63 612.899 1653.14 611.439 1655.52 610.829C1657.91 610.209 1660.58 610.549 1662.43 611.699C1662.97 612.069 1662.97 612.659 1662.43 613.029C1661.85 613.369 1660.92 613.369 1660.34 613.029C1659.37 612.379 1657.91 612.229 1656.64 612.529C1655.37 612.869 1654.55 613.679 1654.55 614.539V620.729C1654.55 621.599 1655.38 622.399 1656.64 622.739C1657.91 623.079 1659.37 622.889 1660.34 622.279C1660.92 621.909 1661.85 621.909 1662.43 622.279C1662.97 622.619 1662.97 623.209 1662.43 623.579C1660.58 624.729 1657.9 625.069 1655.52 624.449C1653.14 623.829 1651.63 622.379 1651.63 620.739V620.729Z" fill="#A85858"/>
<path d="M1668.17 623.82V605.24C1668.17 604.71 1668.85 604.31 1669.63 604.31C1670.46 604.31 1671.09 604.71 1671.09 605.24V610.629H1674.5C1678 610.629 1680.83 612.429 1680.83 614.649V623.81C1680.83 624.34 1680.2 624.74 1679.37 624.74C1678.59 624.74 1677.91 624.34 1677.91 623.81V614.649C1677.91 613.439 1676.4 612.479 1674.5 612.479H1671.09V623.81C1671.09 624.34 1670.46 624.74 1669.63 624.74C1668.85 624.74 1668.17 624.34 1668.17 623.81V623.82Z" fill="#A85858"/>
<path d="M1686.67 620.729V614.54C1686.67 612.31 1689.49 610.52 1693 610.52C1696.52 610.52 1699.34 612.32 1699.34 614.54V617.639C1699.34 618.169 1698.71 618.57 1697.88 618.57H1689.6V620.74C1689.6 621.61 1690.43 622.41 1691.69 622.75C1692.96 623.09 1694.42 622.9 1695.4 622.29C1695.98 621.92 1696.91 621.92 1697.49 622.29C1698.07 622.63 1698.07 623.219 1697.49 623.589C1695.68 624.739 1692.95 625.079 1690.57 624.459C1688.18 623.839 1686.68 622.39 1686.68 620.75V620.729H1686.67ZM1689.59 614.54V616.709H1696.4V614.54C1696.4 613.33 1694.9 612.369 1692.99 612.369C1691.09 612.369 1689.58 613.33 1689.58 614.54H1689.59Z" fill="#A85858"/>
<path d="M1703.03 611.56C1703.03 611.03 1703.66 610.629 1704.49 610.629H1706.92V605.24C1706.92 604.71 1707.55 604.31 1708.38 604.31C1709.21 604.31 1709.84 604.71 1709.84 605.24V610.629H1713.25C1714.08 610.629 1714.71 611.03 1714.71 611.56C1714.71 612.09 1714.08 612.49 1713.25 612.49H1709.84V620.729C1709.84 621.939 1711.35 622.899 1713.25 622.899C1714.08 622.899 1714.71 623.299 1714.71 623.829C1714.71 624.359 1714.08 624.76 1713.25 624.76C1709.75 624.76 1706.92 622.97 1706.92 620.74V612.5H1704.49C1703.66 612.5 1703.03 612.1 1703.03 611.57V611.56Z" fill="#A85858"/>
<path d="M1718.99 620.729V614.539C1718.99 612.309 1721.86 610.519 1725.32 610.519C1728.78 610.519 1731.65 612.319 1731.65 614.539V617.639C1731.65 618.169 1731.02 618.569 1730.19 618.569H1721.91V620.739C1721.91 621.609 1722.74 622.409 1724 622.749C1725.31 623.089 1726.77 622.899 1727.75 622.289C1728.29 621.919 1729.21 621.919 1729.79 622.289C1730.37 622.629 1730.37 623.219 1729.79 623.589C1727.99 624.739 1725.26 625.079 1722.93 624.459C1720.55 623.839 1718.99 622.389 1718.99 620.749V620.729ZM1728.87 604.629C1729.41 604.999 1729.36 605.589 1728.72 605.929L1723.85 608.719C1723.27 609.059 1722.34 609.029 1721.81 608.659C1721.27 608.289 1721.32 607.699 1721.91 607.359L1726.78 604.569C1727.41 604.229 1728.29 604.259 1728.87 604.629ZM1721.91 614.539V616.709H1728.72V614.539C1728.72 613.329 1727.21 612.369 1725.31 612.369C1723.41 612.369 1721.9 613.329 1721.9 614.539H1721.91Z" fill="#A85858"/>
<path d="M1605.64 374.688L1478.01 385.608C1475.07 385.858 1472.54 383.538 1472.54 380.588V195.778C1472.54 191.528 1475.99 188.078 1480.24 188.078H1607.21C1610.16 188.078 1612.55 190.468 1612.55 193.418V367.158C1612.55 371.078 1609.55 374.348 1605.64 374.678V374.688Z" fill="#8AED9A"/>
<path d="M1619.08 374.908L1744.42 385.648C1748.8 386.028 1752.57 382.568 1752.57 378.168V195.748C1752.57 191.508 1749.14 188.078 1744.9 188.078H1619.88C1615.83 188.078 1612.55 191.358 1612.55 195.408V367.788C1612.55 371.498 1615.39 374.588 1619.08 374.908Z" fill="#8AED9A"/>
<path d="M1605.23 366.628L1485.84 376.478C1481.91 376.798 1478.54 373.698 1478.54 369.748V200.348C1478.54 196.338 1481.79 193.078 1485.81 193.078H1606.37C1610.33 193.078 1613.55 196.338 1613.55 200.368V357.598C1613.55 362.318 1609.93 366.238 1605.23 366.628Z" fill="#EDEDED"/>
<path d="M1621.51 367.548L1739.92 377.518C1743.5 377.818 1746.56 374.998 1746.56 371.408V199.558C1746.56 195.978 1743.66 193.078 1740.08 193.078H1621.4C1617.05 193.078 1613.54 196.668 1613.54 201.088V358.898C1613.54 363.408 1617.01 367.168 1621.5 367.548H1621.51Z" fill="#EDEDED"/>
<path d="M1599.16 219.388C1599.74 220.218 1600.03 221.129 1600.03 222.049V243.168H1599.96C1599.89 243.858 1599.6 244.498 1599.17 245.138C1598.67 245.968 1597.87 246.699 1596.86 247.299C1596.21 247.759 1595.56 248.028 1595.34 248.128C1594.26 248.638 1592.38 249.549 1588.99 251.249C1588.85 251.339 1588.63 251.428 1588.49 251.658C1588.49 251.658 1588.35 251.839 1588.35 252.069C1588.35 252.069 1588.28 252.569 1588.28 276.219H1590.16L1590.09 252.338H1599.98V281.999H1578.47L1578.4 252.979H1578.47V252.059C1578.47 251.099 1578.76 250.218 1579.34 249.348C1579.56 248.978 1579.84 248.619 1580.21 248.289C1580.21 248.289 1580.79 247.738 1581.65 247.188C1582.66 246.498 1585.69 244.888 1589.81 242.918C1589.88 242.868 1589.95 242.829 1590.03 242.739C1590.11 242.649 1590.17 242.508 1590.17 242.458V222.029C1590.17 221.709 1589.81 221.428 1589.3 221.428C1588.79 221.428 1588.36 221.709 1588.36 222.029V241.539H1578.47V222.029C1578.47 221.109 1578.76 220.188 1579.34 219.368C1579.92 218.538 1580.64 217.808 1581.65 217.208C1582.66 216.568 1583.82 216.059 1585.12 215.739C1586.42 215.369 1587.86 215.188 1589.31 215.188C1590.76 215.188 1592.13 215.369 1593.5 215.739C1594.8 216.059 1595.96 216.568 1596.89 217.208C1597.9 217.808 1598.69 218.538 1599.2 219.368L1599.16 219.388Z" fill="#2E6634"/>
<path d="M1601.32 216.078H1622.9V222.368L1611.21 282.058H1601.32L1613.09 222.368H1601.32V216.078Z" fill="#2E6634"/>
<path d="M1641.83 246.289V246.469C1642.77 246.609 1644.29 246.969 1645.29 247.979C1646.23 248.849 1646.23 249.769 1646.23 250.139V275.759C1646.23 276.679 1645.94 277.599 1645.36 278.419C1645.07 278.879 1644.71 279.339 1644.28 279.749C1643.92 280.069 1643.49 280.349 1643.05 280.619C1642.04 281.259 1640.88 281.769 1639.66 282.089C1638.79 282.319 1638.14 282.409 1637.78 282.499C1637.49 282.549 1636.7 282.639 1635.54 282.639C1634.82 282.639 1633.95 282.589 1633.01 282.459C1632.22 282.319 1631.57 282.179 1631.28 282.089C1629.98 281.719 1628.82 281.259 1627.81 280.619C1626.8 279.979 1626.08 279.239 1625.5 278.419C1624.92 277.589 1624.62 276.669 1624.62 275.759V250.139C1624.62 249.769 1624.63 248.849 1625.57 247.979C1626.65 246.919 1628.31 246.559 1629.25 246.469V246.329C1628.38 246.189 1627.01 245.869 1625.93 244.999C1624.7 244.039 1624.62 243.029 1624.62 242.659L1624.77 222.089C1624.77 221.169 1625.06 220.249 1625.56 219.429C1626.14 218.599 1626.93 217.869 1627.87 217.229C1628.88 216.589 1630.04 216.129 1631.34 215.759C1631.7 215.669 1632.35 215.529 1633.07 215.389C1633.07 215.389 1634.15 215.209 1635.6 215.209C1636.32 215.209 1637.12 215.259 1637.91 215.389C1638.78 215.529 1639.64 215.759 1639.71 215.759C1639.85 215.809 1640 215.849 1640.22 215.899C1641.3 216.219 1642.31 216.679 1643.18 217.229C1644.12 217.869 1644.91 218.609 1645.49 219.429C1646 220.259 1646.28 221.169 1646.28 222.089L1646.21 242.659C1646.21 243.029 1646.14 244.039 1644.91 244.999C1643.9 245.829 1642.6 246.149 1641.81 246.289H1641.83ZM1636.42 249.829C1636.35 249.509 1636.13 249.189 1635.7 249.049C1635.7 249.049 1635.56 249.049 1635.48 248.999H1635.41C1635.27 249.049 1635.19 249.049 1635.12 249.049C1634.76 249.189 1634.47 249.509 1634.47 249.829C1634.47 250.059 1634.47 250.239 1634.54 275.769C1634.54 276.089 1634.97 276.369 1635.48 276.369C1635.77 276.369 1636.06 276.279 1636.2 276.139C1636.27 276.049 1636.34 275.909 1636.34 275.819L1636.41 249.829H1636.42ZM1636.42 222.049C1636.42 221.819 1636.2 221.639 1635.92 221.539C1635.78 221.489 1635.7 221.489 1635.56 221.489C1635.06 221.489 1634.62 221.769 1634.62 222.089L1634.55 242.659C1634.55 242.939 1634.77 243.119 1635.06 243.209H1635.85C1635.99 243.159 1636.14 243.069 1636.21 242.979C1636.35 242.839 1636.35 242.749 1636.35 242.659L1636.42 222.039V222.049Z" fill="#2E6634"/>
<path d="M1537.12 319.959V295.569C1537.12 294.939 1537.78 294.389 1538.77 294.269C1539.7 294.139 1540.69 294.439 1541.15 294.979C1541.15 294.979 1547.24 303.219 1549.82 306.709C1552.4 303.219 1558.48 294.979 1558.48 294.979C1558.88 294.429 1559.87 294.139 1560.86 294.269C1561.79 294.399 1562.51 294.939 1562.51 295.569V319.959C1562.51 320.719 1561.52 321.309 1560.39 321.309C1559.2 321.309 1558.27 320.719 1558.27 319.959V301.579C1555.16 305.739 1551.72 310.449 1551.72 310.449C1551.32 310.909 1550.6 311.209 1549.8 311.209C1548.94 311.209 1548.21 310.919 1547.88 310.449C1547.88 310.449 1544.38 305.739 1541.32 301.579V319.959C1541.32 320.719 1540.33 321.309 1539.2 321.309C1538.01 321.309 1537.08 320.719 1537.08 319.959H1537.12Z" fill="#2E6634"/>
<path d="M1570.99 296.828C1570.99 295.908 1572.18 295.148 1573.64 295.148C1575.1 295.148 1576.29 295.908 1576.29 296.828C1576.29 297.748 1575.1 298.509 1573.64 298.509C1572.18 298.509 1570.99 297.748 1570.99 296.828ZM1573.63 321.219C1572.57 321.219 1571.65 320.668 1571.65 319.958V303.138C1571.65 302.428 1572.58 301.878 1573.63 301.878C1574.75 301.878 1575.61 302.428 1575.61 303.138V319.958C1575.61 320.668 1574.75 321.219 1573.63 321.219Z" fill="#2E6634"/>
<path d="M1584.68 317.059V294.729C1584.68 294.019 1585.61 293.469 1586.66 293.469C1587.78 293.469 1588.64 294.019 1588.64 294.729V317.059C1588.64 317.819 1589.3 318.489 1590.29 318.869C1591.28 319.209 1591.61 319.999 1591.02 320.589C1590.49 321.179 1589.3 321.389 1588.31 321.049C1586.13 320.209 1584.67 318.689 1584.67 317.049H1584.68V317.059Z" fill="#2E6634"/>
<path d="M1597.9 317.059V294.729C1597.9 294.019 1598.83 293.469 1599.88 293.469C1601 293.469 1601.86 294.019 1601.86 294.729V317.059C1601.86 317.819 1602.52 318.489 1603.51 318.869C1604.5 319.209 1604.83 319.999 1604.24 320.589C1603.71 321.179 1602.52 321.389 1601.53 321.049C1599.35 320.209 1597.89 318.689 1597.89 317.049H1597.9V317.059Z" fill="#2E6634"/>
<path d="M1610.67 296.828C1610.67 295.908 1611.86 295.148 1613.32 295.148C1614.78 295.148 1615.97 295.908 1615.97 296.828C1615.97 297.748 1614.78 298.509 1613.32 298.509C1611.86 298.509 1610.67 297.748 1610.67 296.828ZM1613.31 321.219C1612.25 321.219 1611.33 320.668 1611.33 319.958V303.138C1611.33 302.428 1612.26 301.878 1613.31 301.878C1614.43 301.878 1615.29 302.428 1615.29 303.138V319.958C1615.29 320.668 1614.43 321.219 1613.31 321.219Z" fill="#2E6634"/>
<path d="M1623.76 315.749V307.339C1623.76 304.309 1627.6 301.869 1632.36 301.869C1637.13 301.869 1640.97 304.309 1640.97 307.339V315.749C1640.97 318.779 1637.07 321.219 1632.36 321.219C1627.66 321.219 1623.76 318.779 1623.76 315.749ZM1627.73 307.339V315.749C1627.73 317.389 1629.78 318.689 1632.36 318.689C1634.95 318.689 1637 317.389 1637 315.749V307.339C1637 305.699 1634.88 304.399 1632.36 304.399C1629.85 304.399 1627.73 305.699 1627.73 307.339Z" fill="#2E6634"/>
<path d="M1649.43 319.959V303.309C1649.43 302.599 1650.29 302.049 1651.41 302.049H1658.02C1662.72 302.049 1666.62 304.489 1666.62 307.519V319.969C1666.62 320.679 1665.69 321.229 1664.64 321.229C1663.52 321.229 1662.66 320.679 1662.66 319.969V307.519C1662.66 305.879 1660.54 304.579 1658.03 304.579H1653.4V319.969C1653.4 320.679 1652.47 321.229 1651.42 321.229C1650.3 321.229 1649.44 320.679 1649.44 319.969H1649.43V319.959Z" fill="#2E6634"/>
<path d="M1685.4 315.839C1685.33 314.999 1684.67 314.279 1683.61 313.819L1677.46 311.039C1675.48 310.159 1674.29 308.769 1674.09 307.249C1673.96 305.689 1674.88 304.219 1676.67 303.209C1678.46 302.159 1680.84 301.699 1683.22 301.909C1685.6 302.159 1687.72 303.049 1688.91 304.389C1689.44 304.979 1689.11 305.779 1688.18 306.109C1687.25 306.449 1686 306.239 1685.47 305.649C1684.87 304.979 1683.82 304.559 1682.63 304.429C1681.44 304.299 1680.25 304.509 1679.32 305.059C1678.46 305.559 1678 306.319 1678.06 307.079C1678.13 307.839 1678.79 308.549 1679.78 308.969L1685.93 311.699C1687.98 312.619 1689.24 314.049 1689.37 315.649C1689.57 317.249 1688.58 318.759 1686.72 319.809C1684.87 320.899 1682.42 321.369 1679.97 321.159C1677.46 320.909 1675.34 319.979 1674.08 318.589C1673.55 317.999 1673.88 317.199 1674.81 316.869C1675.74 316.529 1676.99 316.739 1677.52 317.329C1678.18 318.039 1679.24 318.509 1680.56 318.629C1681.82 318.759 1683.07 318.499 1684.06 317.959C1684.99 317.409 1685.52 316.609 1685.38 315.819L1685.4 315.839Z" fill="#2E6634"/>
<path d="M1501.72 328.709C1505.81 328.709 1509.12 330.819 1509.12 333.419V343.699C1509.12 346.299 1505.81 348.409 1501.72 348.409H1495.88C1495 348.409 1494.32 347.979 1494.32 347.419V329.709C1494.32 329.149 1495 328.719 1495.88 328.719H1501.72V328.709ZM1501.72 330.689H1497.44V346.419H1501.72C1504.1 346.419 1506 345.209 1506 343.699V333.419C1506 331.929 1504.1 330.699 1501.72 330.699V330.689Z" fill="#2E6634"/>
<path d="M1514.67 344.438V338.249C1514.67 336.019 1517.49 334.229 1521 334.229C1524.51 334.229 1527.33 336.029 1527.33 338.249V341.348C1527.33 341.878 1526.7 342.279 1525.87 342.279H1517.6V344.448C1517.6 345.318 1518.43 346.118 1519.69 346.458C1520.96 346.798 1522.42 346.609 1523.39 345.999C1523.97 345.629 1524.9 345.629 1525.48 345.999C1526.06 346.339 1526.06 346.929 1525.48 347.299C1523.68 348.449 1520.95 348.788 1518.57 348.168C1516.18 347.548 1514.68 346.098 1514.68 344.458V344.438H1514.67ZM1517.59 338.249V340.418H1524.4V338.249C1524.4 337.039 1522.89 336.078 1520.99 336.078C1519.09 336.078 1517.58 337.039 1517.58 338.249H1517.59Z" fill="#2E6634"/>
<path d="M1542.37 345.398V328.958C1542.37 328.428 1543.05 328.028 1543.83 328.028C1544.66 328.028 1545.29 328.428 1545.29 328.958V345.398C1545.29 345.958 1545.78 346.448 1546.51 346.728C1547.24 346.978 1547.48 347.568 1547.05 347.998C1546.66 348.428 1545.78 348.588 1545.05 348.338C1543.44 347.718 1542.37 346.608 1542.37 345.398Z" fill="#2E6634"/>
<path d="M1551.76 330.509C1551.76 329.829 1552.64 329.269 1553.71 329.269C1554.78 329.269 1555.66 329.829 1555.66 330.509C1555.66 331.189 1554.78 331.749 1553.71 331.749C1552.64 331.749 1551.76 331.189 1551.76 330.509ZM1553.71 348.458C1552.93 348.458 1552.25 348.059 1552.25 347.529V335.148C1552.25 334.618 1552.93 334.219 1553.71 334.219C1554.54 334.219 1555.17 334.618 1555.17 335.148V347.529C1555.17 348.059 1554.54 348.458 1553.71 348.458Z" fill="#2E6634"/>
<path d="M1560.33 335.429C1560.13 334.929 1560.57 334.409 1561.35 334.249C1562.08 334.129 1562.91 334.399 1563.15 334.869C1563.15 334.869 1565.97 340.879 1567.58 344.309C1569.19 340.869 1572.01 334.869 1572.01 334.869C1572.25 334.409 1573.08 334.129 1573.86 334.249C1574.64 334.399 1575.08 334.929 1574.83 335.429L1568.99 347.809C1568.79 348.179 1568.21 348.459 1567.58 348.459C1566.95 348.459 1566.36 348.179 1566.17 347.809L1560.33 335.429Z" fill="#2E6634"/>
<path d="M1579.99 347.528V335.268C1579.99 334.738 1580.62 334.338 1581.45 334.338H1586.32C1587.44 334.338 1588.51 334.528 1589.48 334.868C1590.16 335.148 1590.4 335.708 1590.02 336.138C1589.63 336.598 1588.71 336.758 1588.02 336.478C1587.48 336.288 1586.9 336.198 1586.32 336.198H1582.91V347.528C1582.91 348.058 1582.28 348.458 1581.45 348.458C1580.62 348.458 1579.99 348.058 1579.99 347.528Z" fill="#2E6634"/>
<path d="M1593.96 344.438V338.249C1593.96 336.019 1596.78 334.229 1600.29 334.229C1603.8 334.229 1606.62 336.029 1606.62 338.249V341.348C1606.62 341.878 1605.99 342.279 1605.16 342.279H1596.89V344.448C1596.89 345.318 1597.72 346.118 1598.98 346.458C1600.25 346.798 1601.71 346.609 1602.68 345.999C1603.26 345.629 1604.19 345.629 1604.77 345.999C1605.35 346.339 1605.35 346.929 1604.77 347.299C1602.97 348.449 1600.24 348.788 1597.86 348.168C1595.47 347.548 1593.97 346.098 1593.97 344.458V344.438H1593.96ZM1596.88 338.249V340.418H1603.69V338.249C1603.69 337.039 1602.18 336.078 1600.28 336.078C1598.38 336.078 1596.87 337.039 1596.87 338.249H1596.88Z" fill="#2E6634"/>
<path d="M1619.86 344.499C1619.81 343.879 1619.32 343.349 1618.55 343.009L1614.01 340.968C1612.55 340.318 1611.67 339.298 1611.53 338.178C1611.43 337.028 1612.11 335.948 1613.43 335.208C1614.74 334.438 1616.5 334.099 1618.25 334.249C1620.01 334.439 1621.57 335.088 1622.45 336.078C1622.84 336.508 1622.6 337.098 1621.91 337.348C1621.22 337.598 1620.3 337.439 1619.91 337.009C1619.47 336.509 1618.69 336.208 1617.81 336.108C1616.94 336.008 1616.06 336.169 1615.38 336.569C1614.75 336.939 1614.41 337.499 1614.46 338.059C1614.51 338.619 1615 339.138 1615.73 339.448L1620.26 341.458C1621.78 342.138 1622.7 343.188 1622.8 344.368C1622.95 345.548 1622.22 346.658 1620.85 347.428C1619.48 348.228 1617.68 348.578 1615.88 348.418C1614.03 348.228 1612.47 347.549 1611.55 346.529C1611.16 346.099 1611.4 345.509 1612.09 345.259C1612.77 345.009 1613.7 345.168 1614.09 345.598C1614.58 346.128 1615.36 346.469 1616.33 346.559C1617.25 346.649 1618.18 346.469 1618.91 346.059C1619.59 345.659 1619.99 345.069 1619.89 344.479L1619.86 344.499Z" fill="#2E6634"/>
<path d="M1637.82 353.729V335.279C1637.82 334.749 1638.45 334.349 1639.28 334.349H1644.15C1647.61 334.349 1650.48 336.149 1650.48 338.369V344.309C1650.48 346.539 1647.61 348.339 1644.15 348.339H1640.74V353.729C1640.74 354.259 1640.06 354.659 1639.28 354.659C1638.45 354.659 1637.82 354.259 1637.82 353.729ZM1644.15 336.199H1640.74V346.479H1644.15C1646 346.479 1647.56 345.519 1647.56 344.309V338.369C1647.56 337.159 1646 336.199 1644.15 336.199Z" fill="#2E6634"/>
<path d="M1656.7 347.528V335.268C1656.7 334.738 1657.33 334.338 1658.16 334.338H1663.03C1664.15 334.338 1665.22 334.528 1666.19 334.868C1666.87 335.148 1667.11 335.708 1666.73 336.138C1666.34 336.598 1665.42 336.758 1664.73 336.478C1664.19 336.288 1663.61 336.198 1663.03 336.198H1659.62V347.528C1659.62 348.058 1658.99 348.458 1658.16 348.458C1657.33 348.458 1656.7 348.058 1656.7 347.528Z" fill="#2E6634"/>
<path d="M1670.67 344.439V338.249C1670.67 336.019 1673.54 334.229 1677 334.229C1680.46 334.229 1683.33 336.029 1683.33 338.249V341.349C1683.33 341.879 1682.7 342.279 1681.87 342.279H1673.59V344.449C1673.59 345.319 1674.42 346.119 1675.73 346.459C1677 346.799 1678.46 346.609 1679.43 345.999C1680.01 345.629 1680.94 345.629 1681.47 345.999C1682.05 346.339 1682.05 346.929 1681.47 347.299C1679.67 348.449 1676.94 348.789 1674.61 348.169C1672.23 347.549 1670.67 346.099 1670.67 344.459V344.439ZM1671.55 332.299C1671.06 331.899 1671.16 331.339 1671.79 331.059L1676.17 328.889C1676.66 328.639 1677.39 328.639 1677.87 328.889L1682.25 331.059C1682.83 331.339 1682.93 331.899 1682.49 332.299C1682 332.669 1681.13 332.729 1680.54 332.459C1680.54 332.459 1678.11 331.249 1676.99 330.699C1675.92 331.259 1673.49 332.459 1673.49 332.459C1672.86 332.739 1671.98 332.679 1671.54 332.299H1671.55ZM1673.59 338.249V340.419H1680.4V338.249C1680.4 337.039 1678.89 336.079 1676.99 336.079C1675.09 336.079 1673.58 337.039 1673.58 338.249H1673.59Z" fill="#2E6634"/>
<path d="M1687.02 335.269C1687.02 334.739 1687.65 334.338 1688.48 334.338H1690.91V328.948C1690.91 328.418 1691.54 328.019 1692.37 328.019C1693.2 328.019 1693.83 328.418 1693.83 328.948V334.338H1697.24C1698.07 334.338 1698.7 334.739 1698.7 335.269C1698.7 335.799 1698.07 336.198 1697.24 336.198H1693.83V344.438C1693.83 345.648 1695.34 346.608 1697.24 346.608C1698.07 346.608 1698.7 347.009 1698.7 347.539C1698.7 348.069 1698.07 348.469 1697.24 348.469C1693.74 348.469 1690.91 346.678 1690.91 344.448V336.208H1688.48C1687.65 336.208 1687.02 335.809 1687.02 335.279V335.269Z" fill="#2E6634"/>
<path d="M1702.99 344.438V338.248C1702.99 336.018 1705.86 334.228 1709.32 334.228C1712.79 334.228 1715.66 336.028 1715.66 338.248V341.348C1715.66 341.878 1715.03 342.278 1714.2 342.278H1705.92V344.448C1705.92 345.318 1706.75 346.118 1708.01 346.458C1709.32 346.798 1710.79 346.608 1711.77 345.998C1712.31 345.628 1713.23 345.628 1713.81 345.998C1714.39 346.338 1714.39 346.928 1713.81 347.298C1712.01 348.448 1709.27 348.788 1706.94 348.168C1704.55 347.548 1703 346.098 1703 344.458V344.438H1702.99ZM1712.88 328.338C1713.42 328.708 1713.37 329.298 1712.73 329.638L1707.85 332.428C1707.27 332.768 1706.34 332.738 1705.81 332.368C1705.27 331.998 1705.32 331.408 1705.91 331.068L1710.79 328.278C1711.42 327.938 1712.3 327.968 1712.88 328.338ZM1705.91 338.248V340.418H1712.73V338.248C1712.73 337.038 1711.21 336.078 1709.31 336.078C1707.41 336.078 1705.9 337.038 1705.9 338.248H1705.91Z" fill="#2E6634"/>
<path d="M1728.89 344.499C1728.84 343.879 1728.35 343.349 1727.58 343.009L1723.05 340.968C1721.59 340.318 1720.71 339.298 1720.57 338.178C1720.47 337.028 1721.15 335.948 1722.47 335.208C1723.78 334.438 1725.54 334.099 1727.29 334.249C1729.04 334.439 1730.6 335.088 1731.48 336.078C1731.87 336.508 1731.63 337.098 1730.94 337.348C1730.25 337.598 1729.33 337.439 1728.94 337.009C1728.5 336.509 1727.72 336.208 1726.85 336.108C1725.98 336.008 1725.1 336.169 1724.42 336.569C1723.79 336.939 1723.45 337.499 1723.5 338.059C1723.55 338.619 1724.04 339.138 1724.77 339.448L1729.3 341.458C1730.81 342.138 1731.73 343.188 1731.83 344.368C1731.98 345.548 1731.25 346.658 1729.88 347.428C1728.52 348.228 1726.72 348.578 1724.92 348.418C1723.07 348.228 1721.51 347.549 1720.59 346.529C1720.2 346.099 1720.44 345.509 1721.13 345.259C1721.81 345.009 1722.74 345.168 1723.13 345.598C1723.62 346.128 1724.4 346.469 1725.37 346.559C1726.29 346.649 1727.22 346.469 1727.95 346.059C1728.63 345.659 1729.02 345.069 1728.92 344.479L1728.89 344.499Z" fill="#2E6634"/>
<path d="M1134.46 386.43H638.4V859.43H1134.46V386.43Z" fill="#5E4237"/>
<path d="M1018.48 386.689H638.439V504.689H1018.48V386.689Z" stroke="white" stroke-width="2" stroke-miterlimit="10"/>
<path d="M945.665 440.689H933.664V503.689H945.665V440.689Z" fill="#A5825A"/>
<path d="M957.667 440.689H945.666V503.689H957.667V440.689Z" fill="#9A81B4"/>
<path d="M969.667 440.689H957.666V503.689H969.667V440.689Z" fill="#FDC24E"/>
<path d="M993.671 440.689H981.67V503.689H993.671V440.689Z" fill="#C49A6D"/>
<path d="M1005.67 440.689H993.672V503.689H1005.67V440.689Z" fill="#E56567"/>
<path d="M1017.67 440.689H1005.67V503.689H1017.67V440.689Z" fill="#F6E4BD"/>
<path d="M1018.49 623.699H638.449V741.699H1018.49V623.699Z" stroke="white" stroke-width="2" stroke-miterlimit="10"/>
<path d="M759.644 652.699H747.643V740.699H759.644V652.699Z" fill="#F7A9A6"/>
<path d="M770.933 654.937L759.791 659.397L792.504 741.093L803.645 736.632L770.933 654.937Z" fill="#E56567"/>
<path d="M747.642 677.699H735.641V740.699H747.642V677.699Z" fill="#7BCDCD"/>
<path d="M735.64 677.699H723.639V740.699H735.64V677.699Z" fill="#80C07C"/>
<path d="M699.636 652.699H687.635V740.699H699.636V652.699Z" fill="#E56567"/>
<path d="M1045.68 677.689H1033.68V740.689H1045.68V677.689Z" fill="#F7A9A6"/>
<path d="M1081.68 652.689H1069.68V740.689H1081.68V652.689Z" fill="#24BAAD"/>
<path d="M1093.68 652.689H1081.68V740.689H1093.68V652.689Z" fill="#9A81B4"/>
<path d="M662.632 559.689H650.631V622.689H662.632V559.689Z" fill="#24BAAD"/>
<path d="M686.634 534.689H674.633V622.689H686.634V534.689Z" fill="#24BAAD"/>
<path d="M674.632 559.689H662.631V622.689H674.632V559.689Z" fill="#E56567"/>
<path d="M698.636 534.689H686.635V622.689H698.636V534.689Z" fill="#9A81B4"/>
<path d="M712.617 602.689H711.227C709.245 602.689 707.637 604.297 707.637 606.28V608.099C707.637 610.082 709.245 611.689 711.227 611.689H712.617C714.6 611.689 716.208 610.082 716.208 608.099V606.28C716.208 604.297 714.6 602.689 712.617 602.689Z" fill="#8BC985"/>
<path d="M724.049 602.689H722.659C720.676 602.689 719.068 604.297 719.068 606.28V608.099C719.068 610.082 720.676 611.689 722.659 611.689H724.049C726.032 611.689 727.639 610.082 727.639 608.099V606.28C727.639 604.297 726.032 602.689 724.049 602.689Z" fill="#8BC985"/>
<path d="M718.328 596.689H716.938C714.955 596.689 713.348 598.297 713.348 600.28V608.099C713.348 610.082 714.955 611.689 716.938 611.689H718.328C720.311 611.689 721.919 610.082 721.919 608.099V600.28C721.919 598.297 720.311 596.689 718.328 596.689Z" fill="#8BC985"/>
<path d="M707.637 609.689V614.689C707.637 620.209 712.117 624.689 717.638 624.689C723.159 624.689 727.639 620.209 727.639 614.689V609.689H707.637Z" fill="#F6EEDA"/>
<path d="M897.66 652.689H885.658V740.689H897.66V652.689Z" fill="#CDC5B6"/>
<path d="M1135.26 504.949H755.213V622.949H1135.26V504.949Z" stroke="white" stroke-width="2" stroke-miterlimit="10"/>
<path d="M888.658 558.689H876.656V621.689H888.658V558.689Z" fill="#80C07C"/>
<path d="M900.66 558.689H888.658V621.689H900.66V558.689Z" fill="#80C07C"/>
<path d="M912.66 558.689H900.658V621.689H912.66V558.689Z" fill="#7BCDCD"/>
<path d="M924.662 558.689H912.66V621.689H924.662V558.689Z" fill="#F7A9A6"/>
<path d="M936.664 533.689H924.662V621.689H936.664V533.689Z" fill="#E56567"/>
<path d="M948.665 533.689H936.664V621.689H948.665V533.689Z" fill="#E56567"/>
<path d="M960.665 558.689H948.664V621.689H960.665V558.689Z" fill="#F6E4BD"/>
<path d="M972.667 558.689H960.666V621.689H972.667V558.689Z" fill="#4D4A5B"/>
<path d="M1110.69 533.689H1098.68V621.689H1110.69V533.689Z" fill="#CDC5B6"/>
<path d="M1122.69 558.689H1110.69V621.689H1122.69V558.689Z" fill="#C49A6D"/>
<path d="M1134.69 558.689H1122.69V621.689H1134.69V558.689Z" fill="#E56567"/>
<path d="M1065.68 575.689H1053.68V621.689H1065.68V575.689Z" fill="#E56567"/>
<path d="M1135.51 741.699H638.449V859.699H1135.51V741.699Z" stroke="white" stroke-width="2" stroke-miterlimit="10"/>
<path d="M1134.69 794.699H1122.69V857.699H1134.69V794.699Z" fill="#80C07C"/>
<path d="M1110.69 794.699H1098.68V857.699H1110.69V794.699Z" fill="#7BCDCD"/>
<path d="M819.65 795.689H807.648V858.689H819.65V795.689Z" fill="#F7A9A6"/>
<path d="M843.654 770.689H831.652V858.689H843.654V770.689Z" fill="#CDC5B6"/>
<path d="M807.648 785.689H795.646V858.689H807.648V785.689Z" fill="#24BAAD"/>
<path d="M879.658 799.699H867.656V858.699H879.658V799.699Z" fill="#F7A9A6"/>
<path d="M867.656 799.699H855.654V858.699H867.656V799.699Z" fill="#F7A9A6"/>
<path d="M962.668 846.689H899.66V858.689H962.668V846.689Z" fill="#F6E4BD"/>
<path d="M972.668 834.689H909.66V846.689H972.668V834.689Z" fill="#4D4A5B"/>
<path d="M1018.48 386.69L1134.46 386.43L1135.25 504.94" stroke="white" stroke-width="2" stroke-miterlimit="10"/>
<path d="M807.419 489.43H713.408V503.43H807.419V489.43Z" fill="#80C07C"/>
<path d="M1135.25 622.939L1135.5 741.689" stroke="white" stroke-width="2" stroke-miterlimit="10"/>
<path d="M1090.47 474.039C1087.26 470.599 1088.26 458.669 1088.26 458.669H1072.46C1073.59 467.509 1070.36 473.549 1070.36 473.549C1066.17 476.569 1063.45 481.489 1063.45 487.049C1063.45 496.239 1070.9 503.689 1080.09 503.689C1089.28 503.689 1096.74 496.239 1096.74 487.049C1096.74 481.779 1094.29 477.089 1090.46 474.039H1090.47Z" fill="#F6E4BD"/>
<path d="M1067.63 418.629L1048.01 458.349H1057.82L1071.3 418.629H1067.63Z" fill="#EDCC73"/>
<path d="M1074.86 418.629L1066.29 458.669L1057.82 458.349L1071.3 418.629H1074.86Z" fill="#FFF19C"/>
<path d="M1077.87 418.629H1074.86L1066.29 458.669H1073.03L1077.87 418.629Z" fill="#EDCC73"/>
<path d="M1080.96 418.629L1080.5 458.669H1073.03L1077.87 418.629H1080.96Z" fill="#FFF19C"/>
<path d="M1083.55 418.789L1080.96 418.629L1080.5 458.669H1087.71L1083.55 418.789Z" fill="#EDCC73"/>
<path d="M1086.93 418.789H1083.55L1087.72 458.669L1094.66 458.829L1086.93 418.789Z" fill="#FFF19C"/>
<path d="M1090.08 418.789H1086.93L1094.65 458.829H1103.15L1090.08 418.789Z" fill="#EDCC73"/>
<path d="M1093.89 418.789H1090.08L1103.15 458.829L1112.02 459.149L1093.89 418.789Z" fill="#FFF19C"/>
<path d="M1101.58 458.989H1100.45V474.269H1101.58V458.989Z" fill="#F17F66"/>
<path d="M1100.93 480.379C1102.62 480.379 1103.99 479.009 1103.99 477.319C1103.99 475.629 1102.62 474.259 1100.93 474.259C1099.24 474.259 1097.87 475.629 1097.87 477.319C1097.87 479.009 1099.24 480.379 1100.93 480.379Z" fill="#4F6AD0"/>
<path d="M53.0405 696.328H41.0391V784.328H53.0405V696.328Z" fill="#F7A9A6"/>
<path d="M65.0424 721.328H53.041V784.328H65.0424V721.328Z" fill="#7BCDCD"/>
<path d="M77.0424 721.328H65.041V784.328H77.0424V721.328Z" fill="#80C07C"/>
<path d="M89.0444 696.328H77.043V784.328H89.0444V696.328Z" fill="#CDC5B6"/>
<path d="M101.046 721.328H89.0449V784.328H101.046V721.328Z" fill="#C49A6D"/>
<path d="M113.048 696.328H101.047V784.328H113.048V696.328Z" fill="#E56567"/>
<path d="M125.048 674.328H113.047V784.328H125.048V674.328Z" fill="#E56567"/>
<path d="M137.05 721.328H125.049V784.328H137.05V721.328Z" fill="#F4928B"/>
<path d="M149.052 696.328H137.051V784.328H149.052V696.328Z" fill="#CDC5B6"/>
<path d="M283.068 696.328H271.066V784.328H283.068V696.328Z" fill="#F7A9A6"/>
<path d="M271.066 721.328H259.064V784.328H271.066V721.328Z" fill="#7BCDCD"/>
<path d="M259.064 721.328H247.062V784.328H259.064V721.328Z" fill="#80C07C"/>
<path d="M235.062 721.328H223.061V784.328H235.062V721.328Z" fill="#C49A6D"/>
<path d="M223.06 696.328H211.059V784.328H223.06V696.328Z" fill="#E56567"/>
<path d="M199.058 721.328H187.057V784.328H199.058V721.328Z" fill="#F4928B"/>
<path d="M187.056 696.328H175.055V784.328H187.056V696.328Z" fill="#CDC5B6"/>
<path d="M324.072 690.328H312.07V753.328H324.072V690.328Z" fill="#7BCDCD"/>
<path d="M336.074 690.328H324.072V753.328H336.074V690.328Z" fill="#80C07C"/>
<path d="M372.078 690.328H360.076V778.328H372.078V690.328Z" fill="#E56567"/>
<path d="M396.08 690.328H384.078V753.328H396.08V690.328Z" fill="#F4928B"/>
<path d="M119.048 746.328H107.047V792.328H119.048V746.328Z" fill="#24BAAD"/>
<path d="M411.082 734.328H31.0371V852.328H411.082V734.328Z" fill="white" stroke="white" stroke-width="2" stroke-miterlimit="10"/>
<path d="M407.081 739.328H36.0371V847.328H407.081V739.328Z" fill="#CCCCCC" stroke="white" stroke-width="2" stroke-miterlimit="10"/>
<path d="M1136.59 916.198C1176.91 916.198 1209.6 907.486 1209.6 896.738C1209.6 885.991 1176.91 877.278 1136.59 877.278C1096.27 877.278 1063.58 885.991 1063.58 896.738C1063.58 907.486 1096.27 916.198 1136.59 916.198Z" fill="#FBDD59"/>
<path d="M1209.6 784.788V899.018H1063.58V784.788" fill="#FBDD59"/>
<path d="M1136.59 804.248C1176.91 804.248 1209.6 795.536 1209.6 784.788C1209.6 774.041 1176.91 765.328 1136.59 765.328C1096.27 765.328 1063.58 774.041 1063.58 784.788C1063.58 795.536 1096.27 804.248 1136.59 804.248Z" fill="#C1AE4F"/>
<path d="M1280.1 875.04C1307.31 875.04 1329.37 869.157 1329.37 861.9C1329.37 854.643 1307.31 848.76 1280.1 848.76C1252.88 848.76 1230.82 854.643 1230.82 861.9C1230.82 869.157 1252.88 875.04 1280.1 875.04Z" fill="#9A81B4"/>
<path d="M1329.38 786.339V863.439H1230.81V786.339" fill="#9A81B4"/>
<path d="M1280.1 799.479C1307.31 799.479 1329.37 793.596 1329.37 786.339C1329.37 779.082 1307.31 773.199 1280.1 773.199C1252.88 773.199 1230.82 779.082 1230.82 786.339C1230.82 793.596 1252.88 799.479 1280.1 799.479Z" fill="#7C54AF"/>
<path d="M1453.84 916.039C1494.16 916.039 1526.85 907.327 1526.85 896.579C1526.85 885.832 1494.16 877.119 1453.84 877.119C1413.52 877.119 1380.83 885.832 1380.83 896.579C1380.83 907.327 1413.52 916.039 1453.84 916.039Z" fill="#F7A9A6"/>
<path d="M1526.86 784.649V898.889H1380.84V784.649" fill="#F7A9A6"/>
<path d="M1453.84 804.109C1494.16 804.109 1526.85 795.397 1526.85 784.649C1526.85 773.902 1494.16 765.189 1453.84 765.189C1413.52 765.189 1380.83 773.902 1380.83 784.649C1380.83 795.397 1413.52 804.109 1453.84 804.109Z" fill="#D36666"/>
<path d="M638.439 504.689V623.689" stroke="white" stroke-width="2" stroke-miterlimit="10"/>
</svg>
