<svg width="1820" height="1080" viewBox="0 0 1820 1080" fill="none" xmlns="http://www.w3.org/2000/svg">
<g clip-path="url(#clip0_333_1247)">
<path d="M1820 0H0V1080H1820V0Z" fill="#867EA8"/>
<path d="M1820 798H0V1080H1820V798Z" fill="#3D251F"/>
<path d="M1012.38 764H0V798H1012.38V764Z" fill="#775A4D"/>
<path d="M1820 764H1374.48V798H1820V764Z" fill="#775A4D"/>
<path d="M1167.66 114.131H960.562V798.161H1167.66V114.131Z" fill="#5E4237"/>
<path d="M1138.99 173.32H990.449V259.55H1138.99V173.32Z" fill="#7C605B"/>
<path d="M1137.78 535.801H989.246V622.031H1137.78V535.801Z" fill="#7C605B"/>
<path d="M1137.78 652.73H989.246V738.961H1137.78V652.73Z" fill="#7C605B"/>
<path d="M1137.78 290.25H989.246V505.11H1137.78V290.25Z" fill="#7C605B"/>
<path d="M1167.95 798.029H1375.05V113.999H1167.95V798.029Z" fill="#5E4237"/>
<path d="M1196.62 259.436H1345.16V173.206H1196.62V259.436Z" fill="#7C605B"/>
<path d="M1197.83 621.916H1346.37V535.686H1197.83V621.916Z" fill="#7C605B"/>
<path d="M1197.83 738.846H1346.37V652.616H1197.83V738.846Z" fill="#7C605B"/>
<path d="M1197.83 504.984H1346.37V290.124H1197.83V504.984Z" fill="#7C605B"/>
<path d="M1143.78 528.739C1148.62 528.739 1152.53 524.607 1152.53 519.509C1152.53 514.412 1148.62 510.279 1143.78 510.279C1138.95 510.279 1135.04 514.412 1135.04 519.509C1135.04 524.607 1138.95 528.739 1143.78 528.739Z" fill="#3D251F"/>
<path d="M1188.19 528.739C1193.03 528.739 1196.94 524.607 1196.94 519.509C1196.94 514.412 1193.03 510.279 1188.19 510.279C1183.36 510.279 1179.45 514.412 1179.45 519.509C1179.45 524.607 1183.36 528.739 1188.19 528.739Z" fill="#3D251F"/>
<path d="M239.128 609.882C237.496 609.882 236.512 608.91 236.512 607.77C236.512 606.786 237.1 606.09 238.06 605.682L238.048 605.646C237.184 605.238 236.812 604.566 236.812 603.894C236.812 602.658 237.856 601.818 239.224 601.818C240.736 601.818 241.492 602.766 241.492 603.738C241.492 604.398 241.168 605.106 240.208 605.562V605.598C241.18 605.982 241.78 606.666 241.78 607.614C241.78 608.97 240.616 609.882 239.128 609.882ZM239.152 609.114C240.1 609.114 240.712 608.526 240.712 607.722C240.712 606.774 240.052 606.318 238.996 606.018C238.084 606.282 237.592 606.882 237.592 607.626C237.556 608.418 238.156 609.114 239.152 609.114ZM239.164 602.574C238.288 602.574 237.808 603.15 237.808 603.822C237.808 604.602 238.396 605.022 239.296 605.262C239.968 605.034 240.484 604.554 240.484 603.846C240.484 603.222 240.112 602.574 239.164 602.574ZM245.053 609.75V602.934H245.029L243.673 603.666L243.469 602.862L245.173 601.95H246.073V609.75H245.053ZM249.525 609.87V609.006C249.753 609.03 250.017 609.006 250.377 608.97C250.989 608.886 251.565 608.634 252.009 608.214C252.525 607.746 252.897 607.062 253.041 606.138H253.005C252.573 606.666 251.949 606.978 251.169 606.978C249.765 606.978 248.865 605.922 248.865 604.59C248.865 603.114 249.933 601.818 251.529 601.818C253.125 601.818 254.109 603.114 254.109 605.106C254.109 606.822 253.533 608.022 252.765 608.766C252.165 609.354 251.337 609.714 250.497 609.81C250.113 609.87 249.777 609.882 249.525 609.87ZM251.445 602.622C250.545 602.622 249.909 603.414 249.909 604.518C249.909 605.49 250.497 606.174 251.409 606.174C252.117 606.174 252.669 605.826 252.945 605.358C253.005 605.262 253.041 605.142 253.041 604.974C253.041 603.642 252.549 602.622 251.445 602.622ZM257.669 601.818C259.313 601.818 260.249 603.282 260.249 605.766C260.249 608.418 259.265 609.882 257.537 609.882C256.013 609.882 254.981 608.454 254.957 605.874C254.957 603.258 256.085 601.818 257.669 601.818ZM257.609 602.634C256.685 602.634 256.013 603.762 256.013 605.886C256.013 607.914 256.637 609.066 257.597 609.066C258.677 609.066 259.193 607.806 259.193 605.814C259.193 603.894 258.701 602.634 257.609 602.634ZM237.22 623.87V623.006C237.448 623.03 237.712 623.006 238.072 622.97C238.684 622.886 239.26 622.634 239.704 622.214C240.22 621.746 240.592 621.062 240.736 620.138H240.7C240.268 620.666 239.644 620.978 238.864 620.978C237.46 620.978 236.56 619.922 236.56 618.59C236.56 617.114 237.628 615.818 239.224 615.818C240.82 615.818 241.804 617.114 241.804 619.106C241.804 620.822 241.228 622.022 240.46 622.766C239.86 623.354 239.032 623.714 238.192 623.81C237.808 623.87 237.472 623.882 237.22 623.87ZM239.14 616.622C238.24 616.622 237.604 617.414 237.604 618.518C237.604 619.49 238.192 620.174 239.104 620.174C239.812 620.174 240.364 619.826 240.64 619.358C240.7 619.262 240.736 619.142 240.736 618.974C240.736 617.642 240.244 616.622 239.14 616.622ZM243.553 623.882C243.133 623.882 242.845 623.558 242.845 623.126C242.845 622.682 243.145 622.37 243.565 622.37C243.985 622.37 244.273 622.682 244.273 623.126C244.273 623.558 243.997 623.882 243.553 623.882ZM247.849 615.818C249.493 615.818 250.429 617.282 250.429 619.766C250.429 622.418 249.445 623.882 247.717 623.882C246.193 623.882 245.161 622.454 245.137 619.874C245.137 617.258 246.265 615.818 247.849 615.818ZM247.789 616.634C246.865 616.634 246.193 617.762 246.193 619.886C246.193 621.914 246.817 623.066 247.777 623.066C248.857 623.066 249.373 621.806 249.373 619.814C249.373 617.894 248.881 616.634 247.789 616.634Z" fill="black"/>
<path d="M801.936 516.43H189.582V899.18H801.936V516.43Z" fill="white"/>
<path d="M189.582 516.43L218.02 482H783.926L801.936 516.43H189.582Z" fill="#E8E8E8"/>
<path d="M782.977 532.57H208.539V884H782.977V532.57Z" fill="#E8E8E8"/>
<path d="M241.719 521V505.42H304.66V521L327.486 480.56V468.57H270.469L241.719 505.42" fill="#759B5D"/>
<path d="M304.66 505.42H241.719V521H304.66V505.42Z" fill="#EDE4B7"/>
<path d="M241.719 503.669V488.089H304.66V503.669L327.979 466.109V453.109H270.469L241.719 488.089" fill="#45447F"/>
<path d="M304.66 488.09H241.719V503.67H304.66V488.09Z" fill="#EDE4B7"/>
<path d="M327.486 468.57V480.56L304.66 521V505.42L327.486 468.57Z" fill="#6C8750"/>
<path d="M714.728 396H692.926V496H714.728V396Z" fill="#AA3F3F"/>
<path d="M729.222 411.029V440.169H586.286V411.029H574.939V504.609H739.375V411.029H729.222ZM729.592 459.339H586.286V447.229H729.592V459.339Z" fill="white"/>
<path d="M1643.69 1080L1506.24 798V0H1643.69V1080Z" fill="#35211A"/>
<path d="M1506.24 798H1643.69V1080L1506.24 798Z" fill="#261714"/>
<path d="M1570.04 896.78L1570.72 750H1643.69V896.78H1570.04Z" fill="#759B5D"/>
<path d="M1570.05 896.78L1560.55 876.68L1561.22 731L1570.99 750L1570.05 896.78Z" fill="#6C8750"/>
<path d="M1589 938.78L1589.62 786H1643.69V938.78H1589Z" fill="#BA4F4F"/>
<path d="M1589 938.78L1579.51 917.86L1579.23 764L1589.95 786L1589 938.78Z" fill="#AA3F3F"/>
<path d="M1506.24 626H1643.69V889.37L1506.24 626Z" fill="#261714"/>
<path d="M1546.05 651L1546.97 525L1602.93 526V651H1546.05Z" fill="#45447F"/>
<path d="M1546.05 651L1537.52 631V507L1547 525L1546.05 651Z" fill="#333372"/>
<path d="M1578.28 717L1579.2 591L1635.16 592V717H1578.28Z" fill="#BA4F4F"/>
<path d="M1578.28 717L1569.75 697V573L1579.23 591L1578.28 717Z" fill="#AA3F3F"/>
<path d="M1592.5 742L1593.4 616L1643.69 617V742H1592.5Z" fill="#45447F"/>
<path d="M1592.5 742L1583.97 722V598L1593.45 616L1592.5 742Z" fill="#333372"/>
<path d="M1506.24 449H1643.69V712.37L1506.24 449Z" fill="#261714"/>
<path d="M1656.01 552V555.86L1594.4 555C1589.78 533.96 1582.95 520.96 1574.19 513.53C1573.77 513.18 1573.47 512.7 1573.31 512.17C1567.79 492.93 1561.62 480.49 1551.74 473H1623.78L1656.01 539V552Z" fill="#BA4F4F"/>
<path d="M1661.77 510L1574.49 512C1570.48 495.35 1564.85 481.14 1554.58 473.99H1636.09L1661.77 510Z" fill="#EDE4B7"/>
<path d="M1574.49 512C1585.23 519.2 1591.77 533.81 1596.29 552H1695.82L1661.77 510L1574.49 512Z" fill="#EDE4B7"/>
<path d="M1574.49 512H1644.64L1639.9 501.93C1619.05 509.83 1596.28 509.65 1571.73 501.93C1571.73 501.93 1572.59 505 1574.49 512Z" fill="#E2D7AA"/>
<path d="M1574.49 512H1644.65L1649.38 521C1626.74 514.55 1604.61 512.8 1583.53 521C1580.86 517.49 1577.91 514.39 1574.49 512Z" fill="#E2D7AA"/>
<path d="M1574.49 512H1641.2L1640.42 510.49L1574.28 511.24L1574.49 512Z" fill="#BAAE7F"/>
<path d="M1506.24 277H1643.69V540.37L1506.24 277Z" fill="#261714"/>
<path d="M1586.81 381L1587.73 255L1643.69 256V381H1586.81Z" fill="#BA4F4F"/>
<path d="M1586.81 381L1577.32 361.28V237L1587.76 255L1586.81 381Z" fill="#AA3F3F"/>
<path d="M1627.57 458L1627.83 332L1643.69 333V458H1627.57Z" fill="#45447F"/>
<path d="M1627.57 458L1618.08 438.28V314L1628.52 332L1627.57 458Z" fill="#333372"/>
<path d="M1506.24 100.119H1643.69V363.479L1506.24 100.119Z" fill="#261714"/>
<path d="M1541.31 116L1542.26 0H1643.69V116H1541.31Z" fill="#759B5D"/>
<path d="M1541.31 116L1531.82 100.12V0H1542.26L1541.31 116Z" fill="#6C8750"/>
<path d="M1560.27 158L1561.22 0H1643.69V158H1560.27Z" fill="#BA4F4F"/>
<path d="M1560.27 158L1550.78 136.36V0H1561.22L1560.27 158Z" fill="#AA3F3F"/>
<path d="M1820 0H1643.69V1080H1820V0Z" fill="#5E4237"/>
<path d="M507.137 239H114.699V265H507.137V239Z" fill="#7C605B"/>
<path d="M114.699 239L142.189 217H485.335L507.137 239H114.699Z" fill="#5E4237"/>
<path d="M184.959 146H165.887V232H184.959V146Z" fill="#333372"/>
<path d="M165.887 146H184.959L202.855 135H184.959L165.887 146H184.959L202.855 135V217L184.959 232V146" fill="#45447F"/>
<path d="M165.887 146L184.845 135H202.855L184.959 146H165.887Z" fill="#EDE4B7"/>
<path d="M208.658 146H189.586V232H208.658V146Z" fill="#AA3F3F"/>
<path d="M189.586 146H208.658L226.555 135H208.658L189.586 146H208.658L226.555 135V217L208.658 232V146" fill="#BA4F4F"/>
<path d="M189.586 146L208.544 135H226.555L208.658 146H189.586Z" fill="#EDE4B7"/>
<path d="M377.168 194.229H371.518C369.639 194.229 368.115 195.836 368.115 197.819V204.439C368.115 206.421 369.639 208.029 371.518 208.029H377.168C379.047 208.029 380.571 206.421 380.571 204.439V197.819C380.571 195.836 379.047 194.229 377.168 194.229Z" fill="#8BC985"/>
<path d="M393.775 194.229H388.126C386.246 194.229 384.723 195.836 384.723 197.819V204.439C384.723 206.421 386.246 208.029 388.126 208.029H393.775C395.655 208.029 397.178 206.421 397.178 204.439V197.819C397.178 195.836 395.655 194.229 393.775 194.229Z" fill="#8BC985"/>
<path d="M385.473 185.029H379.823C377.944 185.029 376.42 186.637 376.42 188.619V204.439C376.42 206.422 377.944 208.029 379.823 208.029H385.473C387.352 208.029 388.876 206.422 388.876 204.439V188.619C388.876 186.637 387.352 185.029 385.473 185.029Z" fill="#8BC985"/>
<path d="M368.115 204.959V212.629C368.115 221.099 374.618 227.959 382.647 227.959C390.676 227.959 397.178 221.099 397.178 212.629V204.959H368.115Z" fill="#F6EEDA"/>
<path d="M516.074 639.582V610.782C516.074 609.832 516.69 609.182 517.591 609.182C518.397 609.182 519.108 609.832 519.108 610.782V637.982H527.07C527.876 637.982 528.587 638.632 528.587 639.582C528.587 640.532 527.876 641.182 527.07 641.182H517.591C516.69 641.182 516.074 640.532 516.074 639.582Z" fill="#867EA8"/>
<path d="M534.559 612.281C534.559 611.131 535.364 610.281 536.454 610.281C537.545 610.281 538.35 611.131 538.35 612.281C538.35 613.431 537.545 614.281 536.454 614.281C535.364 614.281 534.559 613.431 534.559 612.281ZM536.454 641.281C535.696 641.281 535.033 640.631 535.033 639.781V619.781C535.033 618.931 535.696 618.281 536.454 618.281C537.26 618.281 537.876 618.931 537.876 619.781V639.781C537.876 640.631 537.26 641.281 536.454 641.281Z" fill="#867EA8"/>
<path d="M546.267 618.331C546.978 618.131 547.783 618.581 548.02 619.331L549.584 624.881C550.485 628.031 551.528 631.781 552.333 634.581C553.092 631.781 554.182 628.031 555.082 624.881L556.646 619.331C556.883 618.581 557.689 618.131 558.447 618.331C559.206 618.581 559.632 619.431 559.395 620.231L553.708 640.231C553.518 640.831 552.95 641.281 552.333 641.281C551.717 641.281 551.148 640.831 550.959 640.231L545.271 620.231C545.082 619.431 545.508 618.581 546.267 618.331Z" fill="#867EA8"/>
<path d="M566.789 639.781V619.98C566.789 619.13 567.405 618.48 568.211 618.48H572.951C574.041 618.48 575.036 618.781 576.031 619.331C576.742 619.781 576.932 620.63 576.553 621.38C576.173 622.13 575.32 622.38 574.609 621.93C574.088 621.63 573.519 621.48 572.951 621.48H569.633V639.781C569.633 640.631 569.017 641.281 568.211 641.281C567.405 641.281 566.789 640.631 566.789 639.781Z" fill="#867EA8"/>
<path d="M582.762 634.781V624.781C582.762 621.181 585.511 618.281 588.923 618.281C592.336 618.281 595.085 621.181 595.085 624.781V629.781C595.085 630.631 594.468 631.281 593.663 631.281H585.605V634.781C585.605 636.181 586.364 637.481 587.643 638.031C588.923 638.581 590.298 638.281 591.246 637.281C591.53 636.981 591.862 636.831 592.241 636.831C592.667 636.831 592.999 636.981 593.284 637.281C593.568 637.531 593.71 637.881 593.71 638.331C593.71 638.731 593.568 639.081 593.284 639.381C591.53 641.231 588.876 641.781 586.553 640.781C584.231 639.781 582.762 637.431 582.762 634.781ZM585.605 624.781V628.281H592.241V624.781C592.241 622.831 590.772 621.281 588.923 621.281C587.075 621.281 585.605 622.831 585.605 624.781Z" fill="#867EA8"/>
<path d="M610.347 634.88C610.299 633.88 609.873 633.08 609.067 632.48L604.659 629.18C603.19 628.13 602.384 626.48 602.242 624.68C602.1 622.83 602.811 621.08 604.091 619.88C605.37 618.63 607.077 618.08 608.783 618.33C610.489 618.68 611.958 619.68 612.859 621.28C613.238 622.03 613.048 622.93 612.337 623.33C611.627 623.73 610.773 623.53 610.394 622.78C609.968 621.98 609.257 621.48 608.356 621.33C607.456 621.18 606.65 621.43 605.986 622.08C605.323 622.73 605.039 623.53 605.086 624.48C605.133 625.43 605.56 626.18 606.318 626.73L610.726 629.98C612.195 631.13 613.048 632.73 613.191 634.68C613.333 636.63 612.622 638.38 611.295 639.63C609.968 640.98 608.214 641.48 606.46 641.23C604.612 640.88 603.143 639.83 602.242 638.18C601.863 637.43 602.053 636.53 602.764 636.13C603.474 635.73 604.328 635.93 604.707 636.68C605.228 637.53 605.939 638.08 606.887 638.23C607.787 638.38 608.641 638.13 609.399 637.43C610.11 636.73 610.442 635.88 610.347 634.88Z" fill="#867EA8"/>
<path d="M632.006 634.581V624.981C632.006 621.381 634.755 618.481 638.167 618.481H641.485V609.781C641.485 608.931 642.101 608.281 642.907 608.281C643.665 608.281 644.329 608.931 644.329 609.781V639.581C644.329 640.431 643.665 641.081 642.907 641.081H638.167C634.755 641.081 632.006 638.181 632.006 634.581ZM634.85 624.981V634.581C634.85 636.531 636.319 638.081 638.167 638.081H641.485V621.481H638.167C636.319 621.481 634.85 623.031 634.85 624.981Z" fill="#867EA8"/>
<path d="M652.766 634.782V624.782C652.766 621.182 655.562 618.282 658.927 618.282C662.292 618.282 665.089 621.182 665.089 624.782V629.782C665.089 630.632 664.472 631.282 663.667 631.282H655.609V634.782C655.609 636.182 656.368 637.482 657.647 638.032C658.927 638.582 660.349 638.282 661.297 637.282C661.534 636.982 661.866 636.832 662.245 636.832C662.671 636.832 663.003 636.982 663.287 637.282C663.572 637.532 663.714 637.882 663.714 638.332C663.714 638.732 663.572 639.082 663.287 639.382C661.534 641.232 658.88 641.782 656.605 640.782C654.282 639.782 652.766 637.432 652.766 634.782ZM662.387 608.782C662.908 609.382 662.861 610.332 662.245 610.882L657.505 615.382C656.936 615.932 656.036 615.882 655.515 615.282C654.993 614.682 655.041 613.732 655.609 613.182L660.349 608.682C660.965 608.132 661.818 608.182 662.387 608.782ZM655.609 624.782V628.282H662.245V624.782C662.245 622.832 660.776 621.282 658.927 621.282C657.079 621.282 655.609 622.832 655.609 624.782Z" fill="#867EA8"/>
<path d="M673.145 649.781V619.98C673.145 619.13 673.761 618.48 674.566 618.48H679.306C682.671 618.48 685.467 621.38 685.467 624.98V634.581C685.467 638.181 682.671 641.081 679.306 641.081H675.988V649.781C675.988 650.631 675.325 651.281 674.566 651.281C673.761 651.281 673.145 650.631 673.145 649.781ZM679.306 621.48H675.988V638.081H679.306C681.154 638.081 682.624 636.531 682.624 634.581V624.98C682.624 623.03 681.154 621.48 679.306 621.48Z" fill="#867EA8"/>
<path d="M693.336 634.781V624.781C693.336 621.181 696.085 618.281 699.497 618.281C702.91 618.281 705.659 621.181 705.659 624.781V634.781C705.659 638.381 702.863 641.281 699.497 641.281C696.132 641.281 693.336 638.381 693.336 634.781ZM696.18 624.781V634.781C696.18 636.731 697.649 638.281 699.497 638.281C701.346 638.281 702.815 636.731 702.815 634.781V624.781C702.815 622.831 701.346 621.281 699.497 621.281C697.649 621.281 696.18 622.831 696.18 624.781Z" fill="#867EA8"/>
<path d="M721.3 634.88C721.253 633.88 720.826 633.08 720.02 632.48L715.612 629.18C714.143 628.13 713.337 626.48 713.195 624.68C713.053 622.83 713.764 621.08 715.044 619.88C716.323 618.63 718.03 618.08 719.736 618.33C721.442 618.68 722.911 619.68 723.812 621.28C724.191 622.03 724.002 622.93 723.291 623.33C722.58 623.73 721.727 623.53 721.347 622.78C720.921 621.98 720.21 621.48 719.309 621.33C718.409 621.18 717.603 621.43 716.94 622.08C716.276 622.73 715.992 623.53 716.039 624.48C716.086 625.43 716.513 626.18 717.271 626.73L721.679 629.98C723.148 631.13 724.002 632.73 724.144 634.68C724.286 636.63 723.575 638.38 722.248 639.63C720.921 640.98 719.167 641.48 717.414 641.23C715.565 640.88 714.096 639.83 713.195 638.18C712.816 637.43 713.006 636.53 713.717 636.13C714.428 635.73 715.281 635.93 715.66 636.68C716.181 637.53 716.892 638.08 717.84 638.23C718.741 638.38 719.594 638.13 720.352 637.43C721.063 636.73 721.395 635.88 721.3 634.88Z" fill="#867EA8"/>
<path d="M731.488 634.782V624.782C731.488 621.182 734.285 618.282 737.65 618.282C741.015 618.282 743.811 621.182 743.811 624.782V629.782C743.811 630.632 743.195 631.282 742.389 631.282H734.332V634.782C734.332 636.182 735.09 637.482 736.37 638.032C737.65 638.582 739.072 638.282 740.02 637.282C740.257 636.982 740.588 636.832 740.967 636.832C741.394 636.832 741.726 636.982 742.01 637.282C742.295 637.532 742.437 637.882 742.437 638.332C742.437 638.732 742.295 639.082 742.01 639.382C740.257 641.232 737.602 641.782 735.327 640.782C733.005 639.782 731.488 637.432 731.488 634.782ZM741.11 608.782C741.631 609.382 741.584 610.332 740.967 610.882L736.228 615.382C735.659 615.932 734.759 615.882 734.237 615.282C733.716 614.682 733.763 613.732 734.332 613.182L739.072 608.682C739.688 608.132 740.541 608.182 741.11 608.782ZM734.332 624.782V628.282H740.967V624.782C740.967 622.832 739.498 621.282 737.65 621.282C735.801 621.282 734.332 622.832 734.332 624.782Z" fill="#867EA8"/>
<path d="M759.073 634.88C759.026 633.88 758.599 633.08 757.794 632.48L753.386 629.18C751.917 628.13 751.111 626.48 750.969 624.68C750.827 622.83 751.537 621.08 752.817 619.88C754.097 618.63 755.803 618.08 757.509 618.33C759.216 618.68 760.685 619.68 761.585 621.28C761.965 622.03 761.775 622.93 761.064 623.33C760.353 623.73 759.5 623.53 759.121 622.78C758.694 621.98 757.983 621.48 757.083 621.33C756.182 621.18 755.377 621.43 754.713 622.08C754.049 622.73 753.765 623.53 753.812 624.48C753.86 625.43 754.286 626.18 755.045 626.73L759.453 629.98C760.922 631.13 761.775 632.73 761.917 634.68C762.059 636.63 761.348 638.38 760.021 639.63C758.694 640.98 756.941 641.48 755.187 641.23C753.339 640.88 751.869 639.83 750.969 638.18C750.59 637.43 750.779 636.53 751.49 636.13C752.201 635.73 753.054 635.93 753.433 636.68C753.955 637.53 754.666 638.08 755.614 638.23C756.514 638.38 757.367 638.13 758.126 637.43C758.836 636.73 759.168 635.88 759.073 634.88Z" fill="#867EA8"/>
<path d="M515.602 694.781V684.781C515.602 681.181 518.351 678.281 521.763 678.281C525.176 678.281 527.924 681.181 527.924 684.781V689.781C527.924 690.631 527.308 691.281 526.503 691.281H518.445V694.781C518.445 696.181 519.204 697.481 520.483 698.031C521.763 698.581 523.138 698.281 524.085 697.281C524.37 696.981 524.702 696.831 525.081 696.831C525.507 696.831 525.839 696.981 526.123 697.281C526.408 697.531 526.55 697.881 526.55 698.331C526.55 698.731 526.408 699.081 526.123 699.381C524.37 701.231 521.716 701.781 519.393 700.781C517.071 699.781 515.602 697.431 515.602 694.781ZM518.445 684.781V688.281H525.081V684.781C525.081 682.831 523.611 681.281 521.763 681.281C519.915 681.281 518.445 682.831 518.445 684.781Z" fill="#867EA8"/>
<path d="M535.98 699.781V679.98C535.98 679.13 536.597 678.48 537.402 678.48H542.142C545.507 678.48 548.303 681.38 548.303 684.98V699.781C548.303 700.631 547.64 701.281 546.882 701.281C546.076 701.281 545.46 700.631 545.46 699.781V684.98C545.46 683.03 543.99 681.48 542.142 681.48H538.824V699.781C538.824 700.631 538.161 701.281 537.402 701.281C536.597 701.281 535.98 700.631 535.98 699.781Z" fill="#867EA8"/>
<path d="M568.116 672.981C569.111 671.131 570.533 669.981 572.429 669.481C574.277 668.931 576.173 669.181 577.832 670.131C579.491 671.081 580.723 672.631 581.245 674.581C581.813 676.531 581.624 678.481 580.723 680.331C579.396 682.981 578.164 685.431 577.026 687.781C575.036 691.781 572.855 696.181 571.955 697.981H580.06C580.865 697.981 581.576 698.631 581.576 699.581C581.576 700.531 580.865 701.181 580.06 701.181H569.443C568.827 701.181 568.4 700.931 568.163 700.431C567.832 699.881 567.832 699.331 568.116 698.831L578.069 678.831C578.59 677.781 578.685 676.681 578.353 675.531C578.022 674.381 577.358 673.481 576.363 672.931C575.367 672.381 574.325 672.231 573.235 672.531C572.145 672.881 571.291 673.581 570.77 674.581C570.344 675.331 569.396 675.631 568.685 675.181C567.974 674.731 567.689 673.731 568.116 672.981Z" fill="#867EA8"/>
<path d="M589.824 693.782V676.782C589.824 672.582 593.047 669.182 597.028 669.182C601.01 669.182 604.233 672.582 604.233 676.782V693.782C604.233 697.982 600.962 701.382 597.028 701.382C593.095 701.382 589.824 697.982 589.824 693.782ZM592.858 676.782V693.782C592.858 696.232 594.706 698.182 597.028 698.182C599.351 698.182 601.199 696.232 601.199 693.782V676.782C601.199 674.382 599.303 672.382 597.028 672.382C594.753 672.382 592.858 674.382 592.858 676.782Z" fill="#867EA8"/>
<path d="M612.29 672.981C613.285 671.131 614.707 669.981 616.603 669.481C618.451 668.931 620.347 669.181 622.006 670.131C623.665 671.081 624.897 672.631 625.418 674.581C625.987 676.531 625.798 678.481 624.897 680.331C623.57 682.981 622.338 685.431 621.2 687.781C619.21 691.781 617.029 696.181 616.129 697.981H624.234C625.039 697.981 625.75 698.631 625.75 699.581C625.75 700.531 625.039 701.181 624.234 701.181H613.617C613.001 701.181 612.574 700.931 612.337 700.431C612.005 699.881 612.005 699.331 612.29 698.831L622.243 678.831C622.764 677.781 622.859 676.681 622.527 675.531C622.195 674.381 621.532 673.481 620.537 672.931C619.541 672.381 618.499 672.231 617.409 672.531C616.318 672.881 615.465 673.581 614.944 674.581C614.517 675.331 613.569 675.631 612.859 675.181C612.148 674.731 611.863 673.731 612.29 672.981Z" fill="#867EA8"/>
<path d="M634.376 672.981C635.371 671.131 636.793 669.981 638.689 669.481C640.537 668.931 642.433 669.181 644.092 670.131C645.751 671.081 646.983 672.631 647.504 674.581C648.073 676.531 647.884 678.481 646.983 680.331C645.656 682.981 644.424 685.431 643.286 687.781C641.295 691.781 639.115 696.181 638.215 697.981H646.319C647.125 697.981 647.836 698.631 647.836 699.581C647.836 700.531 647.125 701.181 646.319 701.181H635.703C635.087 701.181 634.66 700.931 634.423 700.431C634.091 699.881 634.091 699.331 634.376 698.831L644.329 678.831C644.85 677.781 644.945 676.681 644.613 675.531C644.281 674.381 643.618 673.481 642.623 672.931C641.627 672.381 640.585 672.231 639.494 672.531C638.404 672.881 637.551 673.581 637.03 674.581C636.603 675.331 635.655 675.631 634.944 675.181C634.233 674.731 633.949 673.731 634.376 672.981Z" fill="#867EA8"/>
<path d="M525.98 744.881C526.122 743.531 525.649 742.231 524.748 741.281L517.165 733.081C515.695 731.531 514.984 729.381 515.174 727.231C515.316 725.031 516.359 723.081 518.018 721.731C519.677 720.381 521.762 719.881 523.8 720.331C525.838 720.781 527.497 722.031 528.587 723.981C529.014 724.731 528.777 725.731 528.018 726.181C527.307 726.631 526.359 726.331 525.98 725.581C525.364 724.431 524.416 723.731 523.184 723.481C521.952 723.231 520.814 723.481 519.819 724.281C518.824 725.031 518.302 726.081 518.207 727.431C518.113 728.731 518.492 729.881 519.345 730.831L526.928 739.081C528.397 740.681 529.156 742.881 529.014 745.131C528.824 747.381 527.781 749.431 526.075 750.781C524.369 752.131 522.189 752.681 520.103 752.231C518.018 751.781 516.217 750.431 515.127 748.481C514.747 747.681 514.984 746.731 515.695 746.281C516.406 745.831 517.354 746.081 517.781 746.881C518.397 748.031 519.44 748.831 520.719 749.081C521.999 749.331 523.184 749.081 524.227 748.231C525.317 747.381 525.886 746.281 525.98 744.881Z" fill="#867EA8"/>
<path d="M536.074 745.781V735.781C536.074 732.181 538.823 729.281 542.236 729.281C545.648 729.281 548.397 732.181 548.397 735.781V745.781C548.397 749.381 545.601 752.281 542.236 752.281C538.871 752.281 536.074 749.381 536.074 745.781ZM538.918 735.781V745.781C538.918 747.731 540.387 749.281 542.236 749.281C544.084 749.281 545.553 747.731 545.553 745.781V735.781C545.553 733.831 544.084 732.281 542.236 732.281C540.387 732.281 538.918 733.831 538.918 735.781Z" fill="#867EA8"/>
<path d="M556.361 723.281C556.361 722.131 557.167 721.281 558.257 721.281C559.347 721.281 560.153 722.131 560.153 723.281C560.153 724.431 559.347 725.281 558.257 725.281C557.167 725.281 556.361 724.431 556.361 723.281ZM558.257 752.281C557.499 752.281 556.835 751.631 556.835 750.781V730.781C556.835 729.931 557.499 729.281 558.257 729.281C559.063 729.281 559.679 729.931 559.679 730.781V750.781C559.679 751.631 559.063 752.281 558.257 752.281Z" fill="#867EA8"/>
<path d="M566.598 730.981C566.598 730.131 567.214 729.481 568.02 729.481H570.389V720.781C570.389 719.931 571.005 719.281 571.811 719.281C572.617 719.281 573.233 719.931 573.233 720.781V729.481H576.551C577.357 729.481 577.973 730.131 577.973 730.981C577.973 731.831 577.357 732.481 576.551 732.481H573.233V745.781C573.233 747.731 574.702 749.281 576.551 749.281C577.357 749.281 577.973 749.931 577.973 750.781C577.973 751.631 577.357 752.281 576.551 752.281C573.138 752.281 570.389 749.381 570.389 745.781V732.481H568.02C567.214 732.481 566.598 731.831 566.598 730.981Z" fill="#867EA8"/>
<path d="M596.174 745.581V730.781C596.174 729.931 596.79 729.281 597.596 729.281C598.401 729.281 599.018 729.931 599.018 730.781V745.581C599.018 747.531 600.487 749.081 602.335 749.081H605.653V730.781C605.653 729.931 606.269 729.281 607.075 729.281C607.881 729.281 608.497 729.931 608.497 730.781V750.581C608.497 751.431 607.881 752.081 607.075 752.081H602.335C598.923 752.081 596.174 749.181 596.174 745.581Z" fill="#867EA8"/>
<path d="M617.502 750.781V730.98C617.502 730.13 618.118 729.48 618.924 729.48H623.663C627.029 729.48 629.825 732.38 629.825 735.98V750.781C629.825 751.631 629.161 752.281 628.403 752.281C627.597 752.281 626.981 751.631 626.981 750.781V735.98C626.981 734.03 625.512 732.48 623.663 732.48H620.346V750.781C620.346 751.631 619.682 752.281 618.924 752.281C618.118 752.281 617.502 751.631 617.502 750.781Z" fill="#867EA8"/>
<path d="M637.881 745.781V735.781C637.881 732.181 640.63 729.281 644.042 729.281C647.455 729.281 650.204 732.181 650.204 735.781V740.781C650.204 741.631 649.588 742.281 648.782 742.281H640.725V745.781C640.725 747.181 641.483 748.481 642.763 749.031C644.042 749.581 645.417 749.281 646.365 748.281C646.649 747.981 646.981 747.831 647.36 747.831C647.787 747.831 648.118 747.981 648.403 748.281C648.687 748.531 648.829 748.881 648.829 749.331C648.829 749.731 648.687 750.081 648.403 750.381C646.649 752.231 643.995 752.781 641.673 751.781C639.35 750.781 637.881 748.431 637.881 745.781ZM640.725 735.781V739.281H647.36V735.781C647.36 733.831 645.891 732.281 644.042 732.281C642.194 732.281 640.725 733.831 640.725 735.781Z" fill="#867EA8"/>
<path d="M669.73 750.581V720.781C669.73 719.931 670.347 719.281 671.152 719.281C671.911 719.281 672.574 719.931 672.574 720.781V729.481H675.892C679.257 729.481 682.053 732.381 682.053 735.981V745.581C682.053 749.181 679.257 752.081 675.892 752.081H671.152C670.347 752.081 669.73 751.431 669.73 750.581ZM672.574 749.081H675.892C677.74 749.081 679.21 747.531 679.21 745.581V735.981C679.21 734.031 677.74 732.481 675.892 732.481H672.574V749.081Z" fill="#867EA8"/>
<path d="M698.075 735.682C698.075 734.282 697.269 733.082 696.084 732.532C694.805 731.982 693.477 732.282 692.577 733.282C692.293 733.582 691.961 733.732 691.534 733.732C691.155 733.732 690.823 733.582 690.539 733.282C690.255 732.982 690.112 732.632 690.112 732.232C690.112 731.782 690.255 731.432 690.539 731.182C692.293 729.332 694.899 728.782 697.174 729.782C699.449 730.782 700.919 733.082 700.919 735.682V750.582C700.919 751.432 700.255 752.082 699.497 752.082H694.757C691.345 752.082 688.596 749.182 688.596 745.582C688.596 741.982 691.345 739.082 694.757 739.082H698.075V735.682ZM694.757 749.082H698.075V742.082H694.757C692.909 742.082 691.439 743.632 691.439 745.582C691.439 747.532 692.909 749.082 694.757 749.082Z" fill="#867EA8"/>
<path d="M709.07 723.281C709.07 722.131 709.876 721.281 710.966 721.281C712.056 721.281 712.862 722.131 712.862 723.281C712.862 724.431 712.056 725.281 710.966 725.281C709.876 725.281 709.07 724.431 709.07 723.281ZM710.966 752.281C710.208 752.281 709.544 751.631 709.544 750.781V730.781C709.544 729.931 710.208 729.281 710.966 729.281C711.772 729.281 712.388 729.931 712.388 730.781V750.781C712.388 751.631 711.772 752.281 710.966 752.281Z" fill="#867EA8"/>
<path d="M728.597 745.88C728.549 744.88 728.123 744.08 727.317 743.48L722.909 740.18C721.44 739.13 720.634 737.48 720.492 735.68C720.35 733.83 721.061 732.08 722.341 730.88C723.62 729.63 725.327 729.08 727.033 729.33C728.739 729.68 730.208 730.68 731.109 732.28C731.488 733.03 731.298 733.93 730.587 734.33C729.877 734.73 729.023 734.53 728.644 733.78C728.218 732.98 727.507 732.48 726.606 732.33C725.706 732.18 724.9 732.43 724.236 733.08C723.573 733.73 723.289 734.53 723.336 735.48C723.383 736.43 723.81 737.18 724.568 737.73L728.976 740.98C730.445 742.13 731.298 743.73 731.441 745.68C731.583 747.63 730.872 749.38 729.545 750.63C728.218 751.98 726.464 752.48 724.71 752.23C722.862 751.88 721.393 750.83 720.492 749.18C720.113 748.43 720.303 747.53 721.014 747.13C721.724 746.73 722.578 746.93 722.957 747.68C723.478 748.53 724.189 749.08 725.137 749.23C726.037 749.38 726.891 749.13 727.649 748.43C728.36 747.73 728.692 746.88 728.597 745.88Z" fill="#867EA8"/>
<path d="M746.562 745.88C746.514 744.88 746.088 744.08 745.282 743.48L740.874 740.18C739.405 739.13 738.599 737.48 738.457 735.68C738.315 733.83 739.026 732.08 740.305 730.88C741.585 729.63 743.291 729.08 744.998 729.33C746.704 729.68 748.173 730.68 749.074 732.28C749.453 733.03 749.263 733.93 748.552 734.33C747.841 734.73 746.988 734.53 746.609 733.78C746.183 732.98 745.472 732.48 744.571 732.33C743.67 732.18 742.865 732.43 742.201 733.08C741.538 733.73 741.253 734.53 741.301 735.48C741.348 736.43 741.775 737.18 742.533 737.73L746.941 740.98C748.41 742.13 749.263 743.73 749.405 745.68C749.548 747.63 748.837 749.38 747.51 750.63C746.183 751.98 744.429 752.48 742.675 752.23C740.827 751.88 739.358 750.83 738.457 749.18C738.078 748.43 738.267 747.53 738.978 747.13C739.689 746.73 740.542 746.93 740.922 747.68C741.443 748.53 742.154 749.08 743.102 749.23C744.002 749.38 744.855 749.13 745.614 748.43C746.325 747.73 746.656 746.88 746.562 745.88Z" fill="#867EA8"/>
<path d="M756.75 745.781V735.781C756.75 732.181 759.499 729.281 762.911 729.281C766.324 729.281 769.073 732.181 769.073 735.781V740.781C769.073 741.631 768.457 742.281 767.651 742.281H759.594V745.781C759.594 747.181 760.352 748.481 761.632 749.031C762.911 749.581 764.286 749.281 765.234 748.281C765.518 747.981 765.85 747.831 766.229 747.831C766.656 747.831 766.987 747.981 767.272 748.281C767.556 748.531 767.698 748.881 767.698 749.331C767.698 749.731 767.556 750.081 767.272 750.381C765.518 752.231 762.864 752.781 760.542 751.781C758.219 750.781 756.75 748.431 756.75 745.781ZM759.594 735.781V739.281H766.229V735.781C766.229 733.831 764.76 732.281 762.911 732.281C761.063 732.281 759.594 733.831 759.594 735.781Z" fill="#867EA8"/>
<path d="M515.6 805.581V795.981C515.6 792.381 518.349 789.481 521.761 789.481H525.079V780.781C525.079 779.931 525.695 779.281 526.501 779.281C527.259 779.281 527.923 779.931 527.923 780.781V810.581C527.923 811.431 527.259 812.081 526.501 812.081H521.761C518.349 812.081 515.6 809.181 515.6 805.581ZM518.443 795.981V805.581C518.443 807.531 519.913 809.081 521.761 809.081H525.079V792.481H521.761C519.913 792.481 518.443 794.031 518.443 795.981Z" fill="#867EA8"/>
<path d="M536.359 805.781V795.781C536.359 792.181 539.108 789.281 542.521 789.281C545.933 789.281 548.682 792.181 548.682 795.781V800.781C548.682 801.631 548.066 802.281 547.26 802.281H539.203V805.781C539.203 807.181 539.961 808.481 541.241 809.031C542.521 809.581 543.895 809.281 544.843 808.281C545.128 807.981 545.459 807.831 545.839 807.831C546.265 807.831 546.597 807.981 546.881 808.281C547.166 808.531 547.308 808.881 547.308 809.331C547.308 809.731 547.166 810.081 546.881 810.381C545.128 812.231 542.473 812.781 540.151 811.781C537.829 810.781 536.359 808.431 536.359 805.781ZM539.203 795.781V799.281H545.839V795.781C545.839 793.831 544.369 792.281 542.521 792.281C540.672 792.281 539.203 793.831 539.203 795.781Z" fill="#867EA8"/>
<path d="M567.262 783.581C568.352 781.631 569.916 780.331 572.049 779.681C574.087 779.081 576.172 779.381 578.021 780.431C579.917 781.481 581.196 783.131 581.812 785.381C582.381 787.531 582.192 789.731 581.244 791.681C580.154 793.931 579.064 796.081 578.021 798.131C576.267 801.681 574.134 805.781 572.997 808.181H579.869C581.149 808.181 582.144 809.231 582.144 810.581C582.144 811.931 581.149 812.981 579.869 812.981H569.253C568.447 812.981 567.783 812.581 567.309 811.831C566.883 811.081 566.883 810.331 567.215 809.481L577.215 789.481C577.642 788.581 577.689 787.681 577.452 786.731C577.168 785.781 576.646 785.081 575.841 784.631C575.035 784.181 574.134 784.081 573.234 784.331C572.381 784.581 571.717 785.131 571.196 785.981C570.58 787.131 569.205 787.531 568.115 786.881C567.025 786.131 566.646 784.731 567.262 783.581Z" fill="#867EA8"/>
<path d="M588.732 785.982V781.982C588.732 780.632 589.728 779.582 591.007 779.582H602.382C603.093 779.582 603.709 779.882 604.183 780.482C604.61 781.082 604.752 781.782 604.61 782.532L597.975 811.332C597.643 812.682 596.505 813.482 595.226 813.132C594.136 812.782 593.472 811.932 593.472 810.782C593.472 810.582 593.519 810.432 593.567 810.232C594.467 806.282 595.32 802.582 596.126 799.132C597.406 793.232 598.875 786.782 599.491 784.382H593.282V785.982C593.282 787.332 592.287 788.382 591.007 788.382C589.728 788.382 588.732 787.332 588.732 785.982Z" fill="#867EA8"/>
<path d="M612.241 812.181V811.981C611.341 811.631 610.725 810.781 610.725 809.781C610.725 808.531 611.672 807.531 612.857 807.531H614.374C615.559 807.531 616.554 808.531 616.554 809.781V812.181C616.554 814.181 615.417 815.931 613.71 816.681C612.573 817.231 611.388 816.631 610.867 815.481C610.345 814.281 610.914 813.031 612.052 812.481C612.194 812.431 612.241 812.331 612.241 812.181Z" fill="#867EA8"/>
<path d="M622.289 785.982V781.982C622.289 780.632 623.284 779.582 624.564 779.582H635.939C636.65 779.582 637.266 779.882 637.74 780.482C638.167 781.082 638.309 781.782 638.167 782.532L631.531 811.332C631.199 812.682 630.062 813.482 628.782 813.132C627.692 812.782 627.029 811.932 627.029 810.782C627.029 810.582 627.076 810.432 627.123 810.232C628.024 806.282 628.877 802.582 629.683 799.132C630.963 793.232 632.432 786.782 633.048 784.382H626.839V785.982C626.839 787.332 625.844 788.382 624.564 788.382C623.284 788.382 622.289 787.332 622.289 785.982Z" fill="#867EA8"/>
<path d="M645.228 796.282V781.982C645.228 780.632 646.224 779.582 647.504 779.582H657.362C658.641 779.582 659.637 780.632 659.637 781.982C659.637 783.332 658.641 784.382 657.362 784.382H649.778V791.382C651.343 790.832 652.907 790.732 654.518 791.182C657.978 792.132 660.395 795.482 660.395 799.282V804.782C660.395 808.632 657.978 811.932 654.518 812.882C650.963 813.882 647.409 812.332 645.56 808.982C644.849 807.832 645.276 806.432 646.366 805.682C647.456 805.032 648.783 805.432 649.494 806.582C650.252 807.982 651.816 808.682 653.333 808.282C654.802 807.832 655.845 806.432 655.845 804.782V799.282C655.845 797.682 654.802 796.232 653.333 795.832C651.816 795.382 650.252 796.082 649.494 797.482C648.973 798.432 647.93 798.932 646.935 798.582C645.939 798.332 645.228 797.432 645.228 796.282Z" fill="#867EA8"/>
<path d="M672.149 792.931C668.642 792.931 665.846 789.981 665.846 786.281C665.846 782.581 668.642 779.631 672.149 779.631C675.657 779.631 678.453 782.631 678.453 786.281C678.453 789.931 675.609 792.931 672.149 792.931ZM687.458 782.831L674.187 811.831C673.666 813.031 672.292 813.531 671.154 812.931C670.017 812.381 669.543 810.931 670.111 809.731L683.382 780.731C683.904 779.531 685.278 779.031 686.416 779.631C687.553 780.181 688.027 781.631 687.458 782.831ZM672.149 788.631C673.429 788.631 674.377 787.631 674.377 786.281C674.377 784.931 673.429 783.931 672.149 783.931C670.87 783.931 669.922 784.931 669.922 786.281C669.922 787.631 670.87 788.631 672.149 788.631ZM691.724 806.281C691.724 809.981 688.88 812.931 685.42 812.931C681.96 812.931 679.117 809.981 679.117 806.281C679.117 802.581 681.913 799.631 685.42 799.631C688.927 799.631 691.724 802.631 691.724 806.281ZM687.648 806.281C687.648 804.931 686.7 803.931 685.42 803.931C684.141 803.931 683.193 804.931 683.193 806.281C683.193 807.631 684.141 808.631 685.42 808.631C686.7 808.631 687.648 807.631 687.648 806.281Z" fill="#867EA8"/>
</g>
<defs>
<clipPath id="clip0_333_1247">
<rect width="1820" height="1080" fill="white"/>
</clipPath>
</defs>
</svg>
