<svg width="1921" height="1081" viewBox="0 0 1921 1081" fill="none" xmlns="http://www.w3.org/2000/svg">
<path d="M1920.39 0H0.00976562V803H1920.39V0Z" fill="#9794BF"/>
<path d="M1920.39 766H0V802H1920.39V766Z" fill="white"/>
<path d="M1920.39 793.62H0V1080.12H1920.39V793.62Z" fill="#7F5B4F"/>
<path d="M285.86 325.32H114.34V793.32H285.86V325.32Z" fill="#5E4237"/>
<path d="M262.106 365.82H139.092V424.82H262.106V365.82Z" fill="#7C605B"/>
<path d="M261.106 613.82H138.092V672.82H261.106V613.82Z" fill="#7C605B"/>
<path d="M261.106 693.82H138.092V752.82H261.106V693.82Z" fill="#7C605B"/>
<path d="M261.106 445.82H138.092V592.82H261.106V445.82Z" fill="#7C605B"/>
<path d="M274.108 610.57C278.251 610.57 281.609 607.212 281.609 603.07C281.609 598.928 278.251 595.57 274.108 595.57C269.966 595.57 266.607 598.928 266.607 603.07C266.607 607.212 269.966 610.57 274.108 610.57Z" fill="#3D251F"/>
<path d="M457.61 325.23H286.09V793.23H457.61V325.23Z" fill="#5E4237"/>
<path d="M432.856 365.73H309.842V424.73H432.856V365.73Z" fill="#7C605B"/>
<path d="M433.856 613.73H310.842V672.73H433.856V613.73Z" fill="#7C605B"/>
<path d="M433.856 693.73H310.842V752.73H433.856V693.73Z" fill="#7C605B"/>
<path d="M433.856 445.73H310.842V592.73H433.856V445.73Z" fill="#7C605B"/>
<path d="M299.112 610.57C303.255 610.57 306.613 607.212 306.613 603.07C306.613 598.928 303.255 595.57 299.112 595.57C294.97 595.57 291.611 598.928 291.611 603.07C291.611 607.212 294.97 610.57 299.112 610.57Z" fill="#3D251F"/>
<path d="M285.86 248.52C322.387 248.52 351.998 218.912 351.998 182.39C351.998 145.867 322.387 116.26 285.86 116.26C249.333 116.26 219.723 145.867 219.723 182.39C219.723 218.912 249.333 248.52 285.86 248.52Z" fill="#42240F"/>
<path d="M285.86 244.28C320.045 244.28 347.757 216.571 347.757 182.39C347.757 148.209 320.045 120.5 285.86 120.5C251.675 120.5 223.963 148.209 223.963 182.39C223.963 216.571 251.675 244.28 285.86 244.28Z" fill="#FAFEFF"/>
<path d="M260.351 217.674L262.422 219.146L289.444 181.141L287.373 179.669L260.351 217.674Z" fill="#42240F"/>
<path d="M267.451 160.436L265.77 162.34L288.588 182.49L290.269 180.586L267.451 160.436Z" fill="#42240F"/>
<path d="M1171.18 497.828H676.125V851.828H1171.18V497.828Z" fill="#5E4237"/>
<path d="M1698.25 495.828H1203.19V849.828H1698.25V495.828Z" fill="#5E4237"/>
<path d="M753.095 820.869C749.885 817.429 750.885 805.499 750.885 805.499H735.083C736.213 814.339 732.983 820.379 732.983 820.379C728.793 823.399 726.072 828.319 726.072 833.879C726.072 843.069 733.523 850.519 742.714 850.519C751.905 850.519 759.356 843.069 759.356 833.879C759.356 828.609 756.906 823.919 753.085 820.869H753.095Z" fill="#F6E4BD"/>
<path d="M730.253 765.449L710.641 805.169H720.442L733.923 765.449H730.253Z" fill="#EDCC73"/>
<path d="M737.483 765.449L728.912 805.499L720.441 805.169L733.923 765.449H737.483Z" fill="#FFF19C"/>
<path d="M740.494 765.449H737.483L728.912 805.499H735.663L740.494 765.449Z" fill="#EDCC73"/>
<path d="M743.594 765.449L743.124 805.499H735.664L740.494 765.449H743.594Z" fill="#FFF19C"/>
<path d="M746.175 765.619L743.595 765.449L743.125 805.499H750.335L746.175 765.619Z" fill="#EDCC73"/>
<path d="M749.556 765.619H746.176L750.336 805.499L757.277 805.659L749.556 765.619Z" fill="#FFF19C"/>
<path d="M752.705 765.619H749.555L757.276 805.659H765.777L752.705 765.619Z" fill="#EDCC73"/>
<path d="M756.516 765.619H752.705L765.777 805.659L774.648 805.979L756.516 765.619Z" fill="#FFF19C"/>
<path d="M764.197 805.819H763.066V821.099H764.197V805.819Z" fill="#F17F66"/>
<path d="M763.546 827.209C765.236 827.209 766.606 825.839 766.606 824.149C766.606 822.459 765.236 821.089 763.546 821.089C761.856 821.089 760.486 822.459 760.486 824.149C760.486 825.839 761.856 827.209 763.546 827.209Z" fill="#4F6AD0"/>
<path d="M1171.73 497.549H791.689V615.549H1171.73V497.549Z" stroke="white" stroke-width="2" stroke-miterlimit="10"/>
<path d="M942.896 526.549H930.895V614.549H942.896V526.549Z" fill="#F7A9A6"/>
<path d="M1026.91 551.549H1014.9V614.549H1026.91V551.549Z" fill="#F4928B"/>
<path d="M1038.91 526.549H1026.91V614.549H1038.91V526.549Z" fill="#CDC5B6"/>
<path d="M841.755 526.549H829.754V614.549H841.755V526.549Z" fill="#CDC5B6"/>
<path d="M853.757 551.549H841.756V614.549H853.757V551.549Z" fill="#C49A6D"/>
<path d="M913.763 551.549H901.762V614.549H913.763V551.549Z" fill="#24BAAD"/>
<path d="M738.873 556.549H750.874V614.549H738.873" fill="#E56567"/>
<path d="M762.876 555.549H750.875V614.549H762.876V555.549Z" fill="#F7A9A6"/>
<path d="M702.869 555.549H690.867V614.549H702.869V555.549Z" fill="#CDC5B6"/>
<path d="M1055.72 615.539H675.676V733.539H1055.72V615.539Z" stroke="white" stroke-width="2" stroke-miterlimit="10"/>
<path d="M796.871 644.539H784.869V732.539H796.871V644.539Z" fill="#F7A9A6"/>
<path d="M808.108 646.606L796.967 651.066L829.68 732.762L840.821 728.301L808.108 646.606Z" fill="#E56567"/>
<path d="M784.869 669.539H772.867V732.539H784.869V669.539Z" fill="#7BCDCD"/>
<path d="M1072.91 669.549H1060.91V732.549H1072.91V669.549Z" fill="#F7A9A6"/>
<path d="M1108.92 644.549H1120.92V732.549H1108.92" fill="#9A81B4"/>
<path d="M853.867 710.549H852.477C850.494 710.549 848.887 712.156 848.887 714.139V715.959C848.887 717.941 850.494 719.549 852.477 719.549H853.867C855.85 719.549 857.458 717.941 857.458 715.959V714.139C857.458 712.156 855.85 710.549 853.867 710.549Z" fill="#8BC985"/>
<path d="M865.289 710.549H863.899C861.916 710.549 860.309 712.156 860.309 714.139V715.959C860.309 717.941 861.916 719.549 863.899 719.549H865.289C867.272 719.549 868.879 717.941 868.879 715.959V714.139C868.879 712.156 867.272 710.549 865.289 710.549Z" fill="#8BC985"/>
<path d="M859.578 704.549H858.188C856.205 704.549 854.598 706.156 854.598 708.139V715.959C854.598 717.941 856.205 719.549 858.188 719.549H859.578C861.561 719.549 863.169 717.941 863.169 715.959V708.139C863.169 706.156 861.561 704.549 859.578 704.549Z" fill="#8BC985"/>
<path d="M848.887 717.549V722.549C848.887 728.069 853.367 732.549 858.888 732.549C864.409 732.549 868.889 728.069 868.889 722.549V717.549H848.887Z" fill="#F6EEDA"/>
<path d="M934.896 644.549H922.895V732.549H934.896V644.549Z" fill="#CDC5B6"/>
<path d="M946.898 669.549H934.896V732.549H946.898V669.549Z" fill="#C49A6D"/>
<path d="M958.9 669.549H946.898V732.549H958.9V669.549Z" fill="#E56567"/>
<path d="M922.894 659.549H910.893V732.549H922.894V659.549Z" fill="#24BAAD"/>
<path d="M910.894 671.549H898.893V732.549H910.894V671.549Z" fill="#7BCDCD"/>
<path d="M1171.73 733.539H674.676V851.539H1171.73V733.539Z" stroke="white" stroke-width="2" stroke-miterlimit="10"/>
<path d="M1146.91 787.539H1134.91V850.539H1146.91V787.539Z" fill="#7BCDCD"/>
<path d="M1110.92 762.549H1098.92V850.549H1110.92" fill="#E56567"/>
<path d="M1098.91 787.539H1086.9V850.539H1098.91V787.539Z" fill="#F6E4BD"/>
<path d="M1086.9 787.539H1074.9V850.539H1086.9V787.539Z" fill="#4D4A5B"/>
<path d="M867.888 788.549H855.887V851.549H867.888V788.549Z" fill="#80C07C"/>
<path d="M879.89 763.549H867.889V851.549H879.89V763.549Z" fill="#CDC5B6"/>
<path d="M831.884 788.549H819.883V851.549H831.884V788.549Z" fill="#7BCDCD"/>
<path d="M891.882 792.539H879.881V851.539H891.882V792.539Z" fill="#9A81B4"/>
<path d="M998.904 839.539H935.896V851.539H998.904V839.539Z" fill="#F6E4BD"/>
<path d="M1699.05 614.549H1319V732.549H1699.05V614.549Z" stroke="white" stroke-width="2" stroke-miterlimit="10"/>
<path d="M1367.82 643.539H1355.81V731.539H1367.82V643.539Z" fill="#E56567"/>
<path d="M1343.81 668.539H1331.81V731.539H1343.81V668.539Z" fill="#F6E4BD"/>
<path d="M1331.81 668.539H1319.81V731.539H1331.81V668.539Z" fill="#4D4A5B"/>
<path d="M1303.81 668.539H1291.81V731.539H1303.81V668.539Z" fill="#F7A9A6"/>
<path d="M1291.81 668.539H1279.81V731.539H1291.81V668.539Z" fill="#24BAAD"/>
<path d="M1407.23 711.539H1405.84C1403.86 711.539 1402.25 713.146 1402.25 715.129V716.949C1402.25 718.932 1403.86 720.539 1405.84 720.539H1407.23C1409.22 720.539 1410.82 718.932 1410.82 716.949V715.129C1410.82 713.146 1409.22 711.539 1407.23 711.539Z" fill="#8BC985"/>
<path d="M1395.8 711.539H1394.41C1392.43 711.539 1390.82 713.146 1390.82 715.129V716.949C1390.82 718.932 1392.43 720.539 1394.41 720.539H1395.8C1397.78 720.539 1399.39 718.932 1399.39 716.949V715.129C1399.39 713.146 1397.78 711.539 1395.8 711.539Z" fill="#8BC985"/>
<path d="M1401.51 705.539H1400.12C1398.14 705.539 1396.53 707.146 1396.53 709.129V716.949C1396.53 718.932 1398.14 720.539 1400.12 720.539H1401.51C1403.49 720.539 1405.1 718.932 1405.1 716.949V709.129C1405.1 707.146 1403.49 705.539 1401.51 705.539Z" fill="#8BC985"/>
<path d="M1410.82 718.549V723.549C1410.82 729.069 1406.34 733.549 1400.82 733.549C1395.3 733.549 1390.82 729.069 1390.82 723.549V718.549H1410.82Z" fill="#F6EEDA"/>
<path d="M1458.24 591.539H1456.85C1454.87 591.539 1453.26 593.146 1453.26 595.129V596.949C1453.26 598.932 1454.87 600.539 1456.85 600.539H1458.24C1460.22 600.539 1461.83 598.932 1461.83 596.949V595.129C1461.83 593.146 1460.22 591.539 1458.24 591.539Z" fill="#8BC985"/>
<path d="M1446.81 591.539H1445.42C1443.43 591.539 1441.83 593.146 1441.83 595.129V596.949C1441.83 598.932 1443.43 600.539 1445.42 600.539H1446.81C1448.79 600.539 1450.4 598.932 1450.4 596.949V595.129C1450.4 593.146 1448.79 591.539 1446.81 591.539Z" fill="#8BC985"/>
<path d="M1452.52 585.539H1451.13C1449.14 585.539 1447.54 587.146 1447.54 589.129V596.949C1447.54 598.932 1449.14 600.539 1451.13 600.539H1452.52C1454.5 600.539 1456.11 598.932 1456.11 596.949V589.129C1456.11 587.146 1454.5 585.539 1452.52 585.539Z" fill="#8BC985"/>
<path d="M1461.83 598.549V603.549C1461.83 609.069 1457.35 613.549 1451.83 613.549C1446.31 613.549 1441.83 609.069 1441.83 603.549V598.549H1461.83Z" fill="#F6EEDA"/>
<path d="M1451.83 643.539H1439.83V731.539H1451.83V643.539Z" fill="#CDC5B6"/>
<path d="M1487.83 680.539H1475.83V731.539H1487.83V680.539Z" fill="#F4928B"/>
<path d="M1499.83 685.539H1487.83V731.539H1499.83V685.539Z" fill="#E56567"/>
<path d="M1582.28 495.799H1202.24V613.799H1582.28V495.799Z" stroke="white" stroke-width="2" stroke-miterlimit="10"/>
<path d="M1238.8 524.539H1226.8V612.539H1238.8V524.539Z" fill="#CDC5B6"/>
<path d="M1226.8 549.539H1214.8V612.539H1226.8V549.539Z" fill="#C49A6D"/>
<path d="M1250.8 566.539H1238.8V612.539H1250.8V566.539Z" fill="#24BAAD"/>
<path d="M1261.81 566.539H1249.8V612.539H1261.81V566.539Z" fill="#7BCDCD"/>
<path d="M1699.05 732.549H1201.99V850.549H1699.05V732.549Z" stroke="white" stroke-width="2" stroke-miterlimit="10"/>
<path d="M1214.8 785.549H1202.8V848.549H1214.8V785.549Z" fill="#4D4A5B"/>
<path d="M1226.8 785.549H1214.8V848.549H1226.8V785.549Z" fill="#80C07C"/>
<path d="M1238.8 785.549H1226.8V848.549H1238.8V785.549Z" fill="#7BCDCD"/>
<path d="M1250.8 785.549H1238.8V848.549H1250.8V785.549Z" fill="#F7A9A6"/>
<path d="M1262.81 760.549H1250.8V848.549H1262.81V760.549Z" fill="#E56567"/>
<path d="M1274.81 760.549H1262.81V848.549H1274.81V760.549Z" fill="#E56567"/>
<path d="M1286.81 785.549H1274.81V848.549H1286.81V785.549Z" fill="#F6E4BD"/>
<path d="M1298.81 785.549H1286.81V848.549H1298.81V785.549Z" fill="#4D4A5B"/>
<path d="M1517.84 786.538H1505.83V849.538H1517.84V786.538Z" fill="#80C07C"/>
<path d="M1505.83 761.538H1493.83V849.538H1505.83V761.538Z" fill="#CDC5B6"/>
<path d="M1541.84 776.538H1529.84V849.538H1541.84V776.538Z" fill="#24BAAD"/>
<path d="M1632.24 600.208V595.438C1632.24 595.098 1632.52 594.818 1632.86 594.818H1653.24C1654.9 594.818 1656.24 596.168 1656.24 597.818C1656.24 599.468 1654.9 600.818 1653.24 600.818H1632.85C1632.51 600.818 1632.23 600.538 1632.23 600.198H1632.24V600.208Z" fill="#8BC985"/>
<path d="M1649.24 589.398V594.268C1649.24 594.578 1648.99 594.838 1648.67 594.838H1627.24C1625.58 594.838 1624.24 593.488 1624.24 591.838C1624.24 590.188 1625.58 588.838 1627.24 588.838H1648.68C1648.99 588.838 1649.25 589.088 1649.25 589.408H1649.24V589.398Z" fill="#8BC985"/>
<path d="M1650.24 613.828H1644.24V578.828C1644.24 577.168 1645.59 575.828 1647.24 575.828C1648.89 575.828 1650.24 577.168 1650.24 578.828V613.828Z" fill="#81C07C"/>
<path d="M1632.24 594.258V589.388C1632.24 589.078 1632.49 588.818 1632.81 588.818H1654.24C1655.9 588.818 1657.24 590.168 1657.24 591.818C1657.24 593.468 1655.9 594.818 1654.24 594.818H1632.8C1632.49 594.818 1632.23 594.568 1632.23 594.248H1632.24V594.258Z" fill="#81C07C"/>
<path d="M1650.24 583.398V588.268C1650.24 588.578 1649.99 588.838 1649.67 588.838H1628.24C1626.58 588.838 1625.24 587.488 1625.24 585.838C1625.24 584.188 1626.58 582.838 1628.24 582.838H1649.68C1649.99 582.838 1650.25 583.088 1650.25 583.408H1650.24V583.398Z" fill="#81C07C"/>
<path d="M1644.24 613.828H1638.24V578.828C1638.24 577.168 1639.59 575.828 1641.24 575.828C1642.89 575.828 1644.24 577.168 1644.24 578.828V613.828Z" fill="#8BC985"/>
<path d="M1638.24 613.828H1632.24V578.828C1632.24 577.168 1633.59 575.828 1635.24 575.828C1636.89 575.828 1638.24 577.168 1638.24 578.828V613.828Z" fill="#81C07C"/>
<path d="M1493.83 790.549H1481.83V849.549H1493.83V790.549Z" fill="#9A81B4"/>
<path d="M1437.83 837.549H1374.82V849.549H1437.83V837.549Z" fill="#F6E4BD"/>
<path d="M1427.83 825.549H1364.82V837.549H1427.83V825.549Z" fill="#4D4A5B"/>
<path d="M1417.82 813.549H1354.82V825.549H1417.82V813.549Z" fill="#80C07C"/>
<path d="M1348.06 802.888L1304.08 840.674L1311.9 849.776L1355.88 811.99L1348.06 802.888Z" fill="#E56567"/>
<path d="M675.676 615.549V497.549H791.689" stroke="white" stroke-width="2" stroke-miterlimit="10"/>
<path d="M1202.19 613.828L1201.99 732.548" stroke="white" stroke-width="2" stroke-miterlimit="10"/>
<path d="M1582.28 495.799H1699.05V614.549" stroke="white" stroke-width="2" stroke-miterlimit="10"/>
<path d="M1171.73 615.549V733.549" stroke="white" stroke-width="2" stroke-miterlimit="10"/>
</svg>
