<svg width="1921" height="1081" viewBox="0 0 1921 1081" fill="none" xmlns="http://www.w3.org/2000/svg">
<path d="M1920.38 0H0V803H1920.38V0Z" fill="#9794BF"/>
<path d="M1920.39 766H0V802H1920.39V766Z" fill="white"/>
<path d="M1920.39 793.62H0V1080.12H1920.39V793.62Z" fill="#7F5B4F"/>
<path d="M1751.48 497.639H1257.42V851.639H1751.48V497.639Z" fill="#5E4237"/>
<path d="M540.332 378.639H41.2734V852.639H540.332V378.639Z" fill="#5E4237"/>
<path d="M539.375 733.91H159.33V851.91H539.375V733.91Z" stroke="white" stroke-width="2" stroke-miterlimit="10"/>
<path d="M159.02 733.91H42.5059V851.91H159.02V733.91Z" stroke="white" stroke-width="2" stroke-miterlimit="10"/>
<path d="M196.525 787.91H184.523V850.91H196.525V787.91Z" fill="#80C07C"/>
<path d="M208.527 762.91H196.525V850.91H208.527V762.91Z" fill="#CDC5B6"/>
<path d="M244.531 762.91H232.529V850.91H244.531V762.91Z" fill="#9A81B4"/>
<path d="M268.533 762.91H256.531V850.91H268.533V762.91Z" fill="#CDC5B6"/>
<path d="M280.535 787.91H268.533V850.91H280.535V787.91Z" fill="#24BAAD"/>
<path d="M447.533 829.91H446.143C444.16 829.91 442.553 831.518 442.553 833.5V835.32C442.553 837.303 444.16 838.91 446.143 838.91H447.533C449.516 838.91 451.124 837.303 451.124 835.32V833.5C451.124 831.518 449.516 829.91 447.533 829.91Z" fill="#8BC985"/>
<path d="M458.965 829.91H457.575C455.592 829.91 453.984 831.518 453.984 833.5V835.32C453.984 837.303 455.592 838.91 457.575 838.91H458.965C460.948 838.91 462.555 837.303 462.555 835.32V833.5C462.555 831.518 460.948 829.91 458.965 829.91Z" fill="#8BC985"/>
<path d="M453.244 823.91H451.854C449.871 823.91 448.264 825.518 448.264 827.5V835.32C448.264 837.303 449.871 838.91 451.854 838.91H453.244C455.227 838.91 456.835 837.303 456.835 835.32V827.5C456.835 825.518 455.227 823.91 453.244 823.91Z" fill="#8BC985"/>
<path d="M442.553 836.91V841.91C442.553 847.43 447.033 851.91 452.554 851.91C458.075 851.91 462.555 847.43 462.555 841.91V836.91H442.553Z" fill="#F6EEDA"/>
<path d="M423.371 497.91H43.3262V615.91H423.371V497.91Z" stroke="white" stroke-width="2" stroke-miterlimit="10"/>
<path d="M539.565 497.91H423.361V615.91H539.565V497.91Z" stroke="white" stroke-width="2" stroke-miterlimit="10"/>
<path d="M164.519 526.91H152.518V614.91H164.519V526.91Z" fill="#F7A9A6"/>
<path d="M175.712 528.852L164.57 533.312L197.283 615.008L208.425 610.548L175.712 528.852Z" fill="#E56567"/>
<path d="M152.519 551.91H140.518V614.91H152.519V551.91Z" fill="#7BCDCD"/>
<path d="M140.517 551.91H128.516V614.91H140.517V551.91Z" fill="#80C07C"/>
<path d="M528.564 551.91H516.562V614.91H528.564V551.91Z" fill="#E56567"/>
<path d="M221.508 592.91H220.118C218.135 592.91 216.527 594.518 216.527 596.5V598.32C216.527 600.303 218.135 601.91 220.118 601.91H221.508C223.491 601.91 225.098 600.303 225.098 598.32V596.5C225.098 594.518 223.491 592.91 221.508 592.91Z" fill="#8BC985"/>
<path d="M232.94 592.91H231.549C229.566 592.91 227.959 594.518 227.959 596.5V598.32C227.959 600.303 229.566 601.91 231.549 601.91H232.94C234.923 601.91 236.53 600.303 236.53 598.32V596.5C236.53 594.518 234.923 592.91 232.94 592.91Z" fill="#8BC985"/>
<path d="M227.219 586.91H225.829C223.846 586.91 222.238 588.518 222.238 590.5V598.32C222.238 600.303 223.846 601.91 225.829 601.91H227.219C229.202 601.91 230.809 600.303 230.809 598.32V590.5C230.809 588.518 229.202 586.91 227.219 586.91Z" fill="#8BC985"/>
<path d="M216.527 599.91V604.91C216.527 610.43 221.008 614.91 226.529 614.91C232.049 614.91 236.53 610.43 236.53 604.91V599.91H216.527Z" fill="#F6EEDA"/>
<path d="M302.537 526.91H290.535V614.91H302.537V526.91Z" fill="#CDC5B6"/>
<path d="M314.539 551.91H302.537V614.91H314.539V551.91Z" fill="#C49A6D"/>
<path d="M326.54 551.91H314.539V614.91H326.54V551.91Z" fill="#E56567"/>
<path d="M290.535 541.91H278.533V614.91H290.535V541.91Z" fill="#24BAAD"/>
<path d="M423.121 380.16H43.0762V498.16H423.121V380.16Z" stroke="white" stroke-width="2" stroke-miterlimit="10"/>
<path d="M539.565 380.16H422.611V498.16H539.565V380.16Z" stroke="white" stroke-width="2" stroke-miterlimit="10"/>
<path d="M176.523 433.91H164.521V496.91H176.523V433.91Z" fill="#80C07C"/>
<path d="M188.525 433.91H176.523V496.91H188.525V433.91Z" fill="#80C07C"/>
<path d="M200.525 433.91H188.523V496.91H200.525V433.91Z" fill="#7BCDCD"/>
<path d="M212.527 433.91H200.525V496.91H212.527V433.91Z" fill="#F7A9A6"/>
<path d="M224.529 408.91H212.527V496.91H224.529V408.91Z" fill="#E56567"/>
<path d="M236.531 408.91H224.529V496.91H236.531V408.91Z" fill="#E56567"/>
<path d="M248.531 433.91H236.529V496.91H248.531V433.91Z" fill="#F6E4BD"/>
<path d="M260.533 433.91H248.531V496.91H260.533V433.91Z" fill="#4D4A5B"/>
<path d="M452.554 433.91H440.553V496.91H452.554V433.91Z" fill="#4D4A5B"/>
<path d="M488.558 433.91H476.557V496.91H488.558V433.91Z" fill="#7BCDCD"/>
<path d="M440.552 408.91H428.551V496.91H440.552V408.91Z" fill="#9980B3"/>
<path d="M307.998 468.25C304.787 464.81 305.788 452.88 305.788 452.88H289.986C291.116 461.72 287.885 467.76 287.885 467.76C283.695 470.78 280.975 475.7 280.975 481.26C280.975 490.45 288.425 497.9 297.617 497.9C306.808 497.9 314.259 490.45 314.259 481.26C314.259 475.99 311.808 471.3 307.988 468.25H307.998Z" fill="#F6E4BD"/>
<path d="M285.156 412.84L265.533 452.56H275.344L288.826 412.84H285.156Z" fill="#EDCC73"/>
<path d="M292.376 412.84L283.805 452.88L275.344 452.56L288.825 412.84H292.376Z" fill="#FFF19C"/>
<path d="M295.386 412.84H292.376L283.805 452.88H290.555L295.386 412.84Z" fill="#EDCC73"/>
<path d="M298.487 412.84L298.017 452.88H290.557L295.387 412.84H298.487Z" fill="#FFF19C"/>
<path d="M301.078 413L298.488 412.84L298.018 452.88H305.238L301.078 413Z" fill="#EDCC73"/>
<path d="M304.449 413H301.078L305.239 452.88L312.169 453.04L304.449 413Z" fill="#FFF19C"/>
<path d="M307.598 413H304.447L312.168 453.04H320.669L307.598 413Z" fill="#EDCC73"/>
<path d="M311.418 413H307.598L320.669 453.04L329.54 453.37L311.418 413Z" fill="#FFF19C"/>
<path d="M319.089 453.2H317.959V468.48H319.089V453.2Z" fill="#F17F66"/>
<path d="M318.439 474.6C320.129 474.6 321.499 473.231 321.499 471.541C321.499 469.851 320.129 468.48 318.439 468.48C316.749 468.48 315.379 469.851 315.379 471.541C315.379 473.231 316.749 474.6 318.439 474.6Z" fill="#4F6AD0"/>
<path d="M464.556 433.91H452.555V496.91H464.556V433.91Z" fill="#CDC5B6"/>
<path d="M476.558 433.91H464.557V496.91H476.558V433.91Z" fill="#C49A6D"/>
<path d="M539.385 615.91H42.3262V733.91H539.385V615.91Z" stroke="white" stroke-width="2" stroke-miterlimit="10"/>
<path d="M223.527 669.91H211.525V732.91H223.527V669.91Z" fill="#F7A9A6"/>
<path d="M235.529 669.91H223.527V732.91H235.529V669.91Z" fill="#80C07C"/>
<path d="M247.531 644.91H235.529V732.91H247.531V644.91Z" fill="#CDC5B6"/>
<path d="M211.527 659.91H199.525V732.91H211.527V659.91Z" fill="#24BAAD"/>
<path d="M199.525 669.91H187.523V732.91H199.525V669.91Z" fill="#7BCDCD"/>
<path d="M112.283 716.641C112.283 714.981 113.634 713.641 115.284 713.641H135.666C136.006 713.641 136.286 713.921 136.286 714.261V719.031C136.286 719.371 136.006 719.651 135.666 719.651H115.274C113.624 719.651 112.273 718.311 112.273 716.651H112.283V716.641Z" fill="#8BC985"/>
<path d="M144.288 710.641C144.288 712.301 142.938 713.641 141.288 713.641H119.855C119.545 713.641 119.285 713.391 119.285 713.071V708.201C119.285 707.891 119.535 707.631 119.855 707.631H141.298C142.948 707.631 144.298 708.971 144.298 710.631H144.288V710.641Z" fill="#8BC985"/>
<path d="M121.285 694.641C122.945 694.641 124.285 695.991 124.285 697.641V732.641H118.285V697.641C118.285 695.991 119.625 694.641 121.285 694.641Z" fill="#81C07C"/>
<path d="M111.283 710.641C111.283 708.981 112.634 707.641 114.284 707.641H135.716C136.026 707.641 136.286 707.891 136.286 708.211V713.081C136.286 713.391 136.036 713.651 135.716 713.651H114.274C112.624 713.651 111.273 712.311 111.273 710.651H111.283V710.641Z" fill="#81C07C"/>
<path d="M143.288 704.641C143.288 706.301 141.938 707.641 140.288 707.641H118.855C118.545 707.641 118.285 707.391 118.285 707.071V702.201C118.285 701.891 118.535 701.631 118.855 701.631H140.298C141.948 701.631 143.298 702.971 143.298 704.631H143.288V704.641Z" fill="#81C07C"/>
<path d="M127.285 694.641C128.945 694.641 130.285 695.991 130.285 697.641V732.641H124.285V697.641C124.285 695.991 125.625 694.641 127.285 694.641Z" fill="#8BC985"/>
<path d="M133.285 694.641C134.945 694.641 136.285 695.991 136.285 697.641V732.641H130.285V697.641C130.285 695.991 131.625 694.641 133.285 694.641Z" fill="#81C07C"/>
<path d="M283.535 673.91H271.533V732.91H283.535V673.91Z" fill="#F7A9A6"/>
<path d="M271.533 673.91H259.531V732.91H271.533V673.91Z" fill="#F7A9A6"/>
<path d="M259.533 673.91H247.531V732.91H259.533V673.91Z" fill="#9A81B4"/>
<path d="M366.545 720.91H303.537V732.91H366.545V720.91Z" fill="#F6E4BD"/>
<path d="M376.546 708.91H313.539V720.91H376.546V708.91Z" fill="#4D4A5B"/>
<path d="M386.546 696.91H323.539V708.91H386.546V696.91Z" fill="#80C07C"/>
<path d="M393.48 686.285L385.658 695.387L429.64 733.172L437.461 724.071L393.48 686.285Z" fill="#E56567"/>
<path d="M1636.76 497.91H1256.72V615.91H1636.76V497.91Z" stroke="white" stroke-width="2" stroke-miterlimit="10"/>
<path d="M1413.54 551.91H1401.54V614.91H1413.54V551.91Z" fill="#F4928B"/>
<path d="M1401.54 526.91H1389.54V614.91H1401.54V526.91Z" fill="#CDC5B6"/>
<path d="M1389.53 568.91H1377.53V614.91H1389.53V568.91Z" fill="#24BAAD"/>
<path d="M1725.57 556.91H1713.57V614.91H1725.57V556.91Z" fill="#F7A9A6"/>
<path d="M1713.57 556.91H1701.57V614.91H1713.57V556.91Z" fill="#7BCDCD"/>
<path d="M1701.57 556.91H1689.57V614.91H1701.57V556.91Z" fill="#80C07C"/>
<path d="M1689.57 556.91H1677.57V614.91H1689.57V556.91Z" fill="#E56567"/>
<path d="M1677.57 555.91H1665.57V614.91H1677.57V555.91Z" fill="#F7A9A6"/>
<path d="M1665.57 555.91H1653.57V614.91H1665.57V555.91Z" fill="#F7A9A6"/>
<path d="M1737.58 555.91H1725.57V614.91H1737.58V555.91Z" fill="#CDC5B6"/>
<path d="M1725.57 502.91H1713.57V556.91H1725.57V502.91Z" fill="#F7A9A6"/>
<path d="M1713.57 524.91H1701.57V556.91H1713.57V524.91Z" fill="#7BCDCD"/>
<path d="M1701.57 505.91H1689.57V556.91H1701.57V505.91Z" fill="#80C07C"/>
<path d="M1689.57 539.91H1677.57V556.91H1689.57V539.91Z" fill="#E56567"/>
<path d="M1752.77 615.91H1372.72V733.91H1752.77V615.91Z" stroke="white" stroke-width="2" stroke-miterlimit="10"/>
<path d="M1643.58 644.91H1631.57V732.91H1643.58V644.91Z" fill="#F7A9A6"/>
<path d="M1620.27 646.9L1587.56 728.596L1598.7 733.056L1631.41 651.361L1620.27 646.9Z" fill="#E56567"/>
<path d="M1655.58 669.91H1643.58V732.91H1655.58V669.91Z" fill="#7BCDCD"/>
<path d="M1667.58 669.91H1655.58V732.91H1667.58V669.91Z" fill="#80C07C"/>
<path d="M1367.53 669.91H1355.53V732.91H1367.53V669.91Z" fill="#F7A9A6"/>
<path d="M1331.53 644.91H1319.53V732.91H1331.53V644.91Z" fill="#24BAAD"/>
<path d="M1343.53 669.91H1331.53V732.91H1343.53V669.91Z" fill="#E56567"/>
<path d="M1319.53 644.91H1307.53V732.91H1319.53V644.91Z" fill="#9A81B4"/>
<path d="M1575.97 710.91H1574.58C1572.59 710.91 1570.99 712.518 1570.99 714.5V716.32C1570.99 718.303 1572.59 719.91 1574.58 719.91H1575.97C1577.95 719.91 1579.56 718.303 1579.56 716.32V714.5C1579.56 712.518 1577.95 710.91 1575.97 710.91Z" fill="#8BC985"/>
<path d="M1564.54 710.91H1563.15C1561.16 710.91 1559.55 712.518 1559.55 714.5V716.32C1559.55 718.303 1561.16 719.91 1563.15 719.91H1564.54C1566.52 719.91 1568.13 718.303 1568.13 716.32V714.5C1568.13 712.518 1566.52 710.91 1564.54 710.91Z" fill="#8BC985"/>
<path d="M1570.26 704.91H1568.87C1566.88 704.91 1565.28 706.518 1565.28 708.5V716.32C1565.28 718.303 1566.88 719.91 1568.87 719.91H1570.26C1572.24 719.91 1573.85 718.303 1573.85 716.32V708.5C1573.85 706.518 1572.24 704.91 1570.26 704.91Z" fill="#8BC985"/>
<path d="M1579.57 717.91V722.91C1579.57 728.43 1575.09 732.91 1569.57 732.91C1564.04 732.91 1559.56 728.43 1559.56 722.91V717.91H1579.57Z" fill="#F6EEDA"/>
<path d="M1505.55 644.91H1493.55V732.91H1505.55V644.91Z" fill="#CDC5B6"/>
<path d="M1493.55 669.91H1481.55V732.91H1493.55V669.91Z" fill="#C49A6D"/>
<path d="M1481.55 669.91H1469.54V732.91H1481.55V669.91Z" fill="#E56567"/>
<path d="M1517.55 659.91H1505.55V732.91H1517.55V659.91Z" fill="#24BAAD"/>
<path d="M1529.55 671.91H1517.55V732.91H1529.55V671.91Z" fill="#7BCDCD"/>
<path d="M1753.77 733.91H1256.71V851.91H1753.77V733.91Z" stroke="white" stroke-width="2" stroke-miterlimit="10"/>
<path d="M1317.54 762.91H1305.54V850.91H1317.54V762.91Z" fill="#E56567"/>
<path d="M1329.54 762.91H1317.54V850.91H1329.54V762.91Z" fill="#E56567"/>
<path d="M1341.54 787.91H1329.54V850.91H1341.54V787.91Z" fill="#F6E4BD"/>
<path d="M1353.54 787.91H1341.54V850.91H1353.54V787.91Z" fill="#4D4A5B"/>
<path d="M1584.56 788.91H1572.56V851.91H1584.56V788.91Z" fill="#F7A9A6"/>
<path d="M1596.56 778.91H1584.56V851.91H1596.56V778.91Z" fill="#24BAAD"/>
<path d="M1608.56 788.91H1596.56V851.91H1608.56V788.91Z" fill="#7BCDCD"/>
<path d="M1492.56 839.9H1429.55V851.9H1492.56V839.9Z" fill="#F6E4BD"/>
<path d="M1482.56 827.9H1419.55V839.9H1482.56V827.9Z" fill="#4D4A5B"/>
<path d="M1472.55 815.9H1409.55V827.9H1472.55V815.9Z" fill="#F7A9A6"/>
<path d="M1402.71 805.33L1358.73 843.115L1366.55 852.217L1410.53 814.431L1402.71 805.33Z" fill="#E56567"/>
<path d="M1328.39 468.679C1325.18 465.239 1326.18 453.31 1326.18 453.31H1310.37C1311.5 462.15 1308.27 468.189 1308.27 468.189C1304.08 471.209 1301.36 476.129 1301.36 481.689C1301.36 490.879 1308.81 498.329 1318.01 498.329C1327.2 498.329 1334.65 490.879 1334.65 481.689C1334.65 476.419 1332.2 471.729 1328.38 468.679H1328.39Z" fill="#F6E4BD"/>
<path d="M1305.54 413.26L1285.93 452.98H1295.73L1309.21 413.26H1305.54Z" fill="#EDCC73"/>
<path d="M1312.77 413.26L1304.2 453.31L1295.73 452.98L1309.21 413.26H1312.77Z" fill="#FFF19C"/>
<path d="M1315.78 413.26H1312.77L1304.2 453.31H1310.95L1315.78 413.26Z" fill="#EDCC73"/>
<path d="M1318.89 413.26L1318.42 453.31H1310.96L1315.79 413.26H1318.89Z" fill="#FFF19C"/>
<path d="M1321.47 413.43L1318.89 413.26L1318.42 453.31H1325.63L1321.47 413.43Z" fill="#EDCC73"/>
<path d="M1324.85 413.43H1321.47L1325.63 453.31L1332.57 453.47L1324.85 413.43Z" fill="#FFF19C"/>
<path d="M1327.99 413.43H1324.85L1332.57 453.47H1341.07L1327.99 413.43Z" fill="#EDCC73"/>
<path d="M1331.81 413.43H1327.99L1341.07 453.47L1349.94 453.79L1331.81 413.43Z" fill="#FFF19C"/>
<path d="M1339.49 453.63H1338.36V468.91H1339.49V453.63Z" fill="#F17F66"/>
<path d="M1338.84 475.02C1340.53 475.02 1341.9 473.649 1341.9 471.959C1341.9 470.269 1340.53 468.899 1338.84 468.899C1337.15 468.899 1335.78 470.269 1335.78 471.959C1335.78 473.649 1337.15 475.02 1338.84 475.02Z" fill="#4F6AD0"/>
<path d="M256.449 281.199L130.275 291.999C126.234 292.349 122.764 289.159 122.764 285.099V101.559C122.764 97.7388 125.864 94.6387 129.684 94.6387H255.859C259.68 94.6387 262.78 97.7388 262.78 101.559V274.299C262.78 277.889 260.03 280.889 256.449 281.199Z" fill="#7BCDCD"/>
<path d="M268.622 281.409L395.867 292.319C399.597 292.639 402.798 289.699 402.798 285.959V101.019C402.798 97.4888 399.937 94.6387 396.417 94.6387H269.172C265.641 94.6387 262.791 97.4988 262.791 101.019V275.039C262.791 278.349 265.331 281.119 268.632 281.399L268.622 281.409Z" fill="#7BCDCD"/>
<path d="M257.309 276.449L136.394 286.619C132.284 286.969 128.773 283.609 128.773 279.349V106.939C128.773 102.909 131.934 99.6387 135.824 99.6387H252.298C254.298 99.6387 263.299 99.6387 263.299 108.639L263.789 269.169C263.789 272.969 260.969 276.139 257.309 276.439V276.449Z" fill="#EDEDED"/>
<path d="M270.272 276.459L389.166 286.609C393.276 286.959 396.807 283.599 396.807 279.329V106.949C396.807 102.909 393.646 99.6387 389.746 99.6387H273.302C265.301 99.6387 263.301 102.639 263.301 110.639L263.791 269.179C263.791 272.979 266.611 276.149 270.272 276.459Z" fill="#EDEDED"/>
<path d="M167.051 146.429H172.331C176.022 146.429 179.012 149.419 179.012 153.109V154.689C179.012 156.849 178.002 158.739 176.422 159.969C178.002 161.199 179.012 163.089 179.012 165.249V167.709C179.012 171.399 176.022 174.389 172.331 174.389H167.051C166.261 174.389 165.641 173.769 165.641 172.979V147.829C165.641 147.039 166.261 146.419 167.051 146.419V146.429ZM172.321 149.239H168.451V158.559H172.321C174.432 158.559 176.192 156.849 176.192 154.689V153.109C176.192 150.999 174.432 149.239 172.321 149.239ZM172.321 161.379H168.451V171.579H172.321C174.432 171.579 176.192 169.859 176.192 167.709V165.249C176.192 163.139 174.432 161.379 172.321 161.379Z" fill="#407C79"/>
<path d="M184.113 148.979C184.113 148.009 184.903 147.219 185.873 147.219C186.843 147.219 187.633 148.009 187.633 148.979C187.633 149.949 186.843 150.739 185.873 150.739C184.903 150.739 184.113 149.949 184.113 148.979ZM185.873 174.489C185.173 174.489 184.553 173.919 184.553 173.169V155.579C184.553 154.829 185.173 154.259 185.873 154.259C186.623 154.259 187.193 154.829 187.193 155.579V173.169C187.193 173.919 186.623 174.489 185.873 174.489Z" fill="#407C79"/>
<path d="M192.824 168.769V159.969C192.824 156.799 195.375 154.249 198.545 154.249C201.715 154.249 204.266 156.799 204.266 159.969V164.369C204.266 165.119 203.695 165.689 202.945 165.689H195.465V168.769C195.465 169.999 196.215 171.139 197.355 171.629C198.495 172.109 199.815 171.849 200.695 170.969C201.225 170.439 202.055 170.439 202.585 170.969C203.115 171.449 203.115 172.289 202.585 172.819C200.955 174.449 198.495 174.929 196.345 174.049C194.194 173.169 192.824 171.099 192.824 168.769ZM195.465 159.969V163.049H201.625V159.969C201.625 158.259 200.265 156.889 198.545 156.889C196.825 156.889 195.465 158.249 195.465 159.969Z" fill="#407C79"/>
<path d="M209.535 173.169V155.76C209.535 155.01 210.105 154.439 210.855 154.439H215.256C218.376 154.439 220.977 156.989 220.977 160.159V173.179C220.977 173.929 220.356 174.5 219.656 174.5C218.906 174.5 218.336 173.929 218.336 173.179V160.159C218.336 158.439 216.926 157.079 215.256 157.079H212.175V173.169C212.175 173.919 211.555 174.49 210.855 174.49C210.105 174.49 209.535 173.919 209.535 173.169Z" fill="#407C79"/>
<path d="M225.277 155.969C225.097 155.269 225.497 154.519 226.197 154.299C226.858 154.119 227.608 154.519 227.828 155.179C227.828 155.179 230.378 163.709 231.828 168.589C233.278 163.709 235.829 155.179 235.829 155.179C236.049 154.519 236.799 154.119 237.499 154.299C238.199 154.519 238.599 155.269 238.379 155.969L233.098 173.559C232.918 174.089 232.398 174.479 231.818 174.479C231.238 174.479 230.718 174.079 230.538 173.559L225.257 155.969H225.277Z" fill="#407C79"/>
<path d="M242.08 168.769V159.969C242.08 156.799 244.63 154.249 247.801 154.249C250.971 154.249 253.521 156.799 253.521 159.969V164.369C253.521 165.119 252.951 165.689 252.201 165.689H244.72V168.769C244.72 169.999 245.47 171.139 246.611 171.629C247.751 172.109 249.071 171.849 249.951 170.969C250.481 170.439 251.311 170.439 251.841 170.969C252.371 171.449 252.371 172.289 251.841 172.819C250.211 174.449 247.751 174.929 245.6 174.049C243.45 173.169 242.08 171.099 242.08 168.769ZM244.72 159.969V163.049H250.881V159.969C250.881 158.259 249.521 156.889 247.801 156.889C246.081 156.889 244.72 158.249 244.72 159.969Z" fill="#407C79"/>
<path d="M258.801 173.169V155.76C258.801 155.01 259.371 154.439 260.121 154.439H264.521C267.642 154.439 270.242 156.989 270.242 160.159V173.179C270.242 173.929 269.622 174.5 268.922 174.5C268.172 174.5 267.602 173.929 267.602 173.179V160.159C267.602 158.439 266.192 157.079 264.521 157.079H261.441V173.169C261.441 173.919 260.821 174.49 260.121 174.49C259.371 174.49 258.801 173.919 258.801 173.169Z" fill="#407C79"/>
<path d="M275.693 168.589V155.569C275.693 154.819 276.263 154.249 277.014 154.249C277.764 154.249 278.334 154.819 278.334 155.569V168.589C278.334 170.299 279.694 171.669 281.414 171.669H284.494V155.569C284.494 154.819 285.064 154.249 285.815 154.249C286.565 154.249 287.135 154.819 287.135 155.569V172.979C287.135 173.729 286.565 174.299 285.815 174.299H281.414C278.244 174.299 275.693 171.749 275.693 168.579V168.589Z" fill="#407C79"/>
<path d="M292.756 168.769V159.969C292.756 156.799 295.306 154.249 298.477 154.249C301.647 154.249 304.197 156.799 304.197 159.969V164.369C304.197 165.119 303.627 165.689 302.877 165.689H295.396V168.769C295.396 169.999 296.146 171.139 297.286 171.629C298.427 172.109 299.747 171.849 300.627 170.969C301.157 170.439 301.987 170.439 302.517 170.969C303.047 171.449 303.047 172.289 302.517 172.819C300.887 174.449 298.427 174.929 296.276 174.049C294.126 173.169 292.756 171.099 292.756 168.769ZM295.396 159.969V163.049H301.557V159.969C301.557 158.259 300.197 156.889 298.477 156.889C296.756 156.889 295.396 158.249 295.396 159.969Z" fill="#407C79"/>
<path d="M316.158 168.589C316.158 165.419 318.709 162.869 321.879 162.869H324.959V159.879C324.959 158.649 324.209 157.589 323.109 157.109C321.969 156.669 320.689 156.889 319.859 157.769C319.329 158.299 318.498 158.299 317.968 157.769C317.438 157.239 317.438 156.409 317.968 155.919C319.599 154.289 322.019 153.809 324.129 154.689C326.239 155.569 327.6 157.589 327.6 159.879V172.979C327.6 173.729 326.979 174.299 326.279 174.299H321.879C318.709 174.299 316.158 171.749 316.158 168.579V168.589ZM318.799 168.589C318.799 170.299 320.159 171.669 321.879 171.669H324.959V165.509H321.879C320.159 165.509 318.799 166.869 318.799 168.589ZM325.829 149.769C326.359 150.249 326.399 151.089 325.919 151.619C325.439 152.149 324.599 152.189 324.069 151.709L319.669 147.749C319.099 147.269 319.049 146.429 319.539 145.899C320.019 145.369 320.859 145.329 321.429 145.809L325.829 149.769Z" fill="#407C79"/>
<path d="M341.711 170.129V146.779C341.711 146.029 342.331 145.459 343.031 145.459C343.781 145.459 344.351 146.029 344.351 146.779V170.129C344.351 170.919 344.791 171.629 345.451 172.019C346.111 172.369 346.331 173.209 345.931 173.819C345.581 174.439 344.791 174.659 344.131 174.299C342.681 173.419 341.711 171.839 341.711 170.119V170.129Z" fill="#407C79"/>
<path d="M357.674 162.879V159.889C357.674 158.659 356.924 157.599 355.824 157.119C354.684 156.679 353.404 156.899 352.573 157.779C352.043 158.309 351.213 158.309 350.683 157.779C350.153 157.249 350.153 156.419 350.683 155.929C352.313 154.299 354.734 153.819 356.844 154.699C358.954 155.579 360.314 157.599 360.314 159.889V172.989C360.314 173.739 359.694 174.309 358.994 174.309H354.594C351.423 174.309 348.873 171.759 348.873 168.589C348.873 165.419 351.423 162.869 354.594 162.869H357.674V162.879ZM354.594 171.669H357.674V165.509H354.594C352.874 165.509 351.513 166.869 351.513 168.589C351.513 170.309 352.874 171.669 354.594 171.669Z" fill="#407C79"/>
<path d="M179.361 195.579H184.642C188.332 195.579 191.323 198.569 191.323 202.259V203.839C191.323 205.999 190.313 207.889 188.732 209.119C190.313 210.349 191.323 212.239 191.323 214.399V216.859C191.323 220.549 188.332 223.539 184.642 223.539H179.361C178.571 223.539 177.951 222.919 177.951 222.129V196.979C177.951 196.189 178.571 195.569 179.361 195.569V195.579ZM184.642 198.399H180.772V207.719H184.642C186.752 207.719 188.512 206.009 188.512 203.849V202.269C188.512 200.159 186.752 198.399 184.642 198.399ZM184.642 210.539H180.772V220.739H184.642C186.752 220.739 188.512 219.019 188.512 216.869V214.409C188.512 212.299 186.752 210.539 184.642 210.539Z" fill="#407C79"/>
<path d="M196.424 198.129C196.424 197.159 197.214 196.369 198.184 196.369C199.154 196.369 199.944 197.159 199.944 198.129C199.944 199.099 199.154 199.889 198.184 199.889C197.214 199.889 196.424 199.099 196.424 198.129ZM198.184 223.639C197.484 223.639 196.864 223.069 196.864 222.319V204.729C196.864 203.979 197.484 203.409 198.184 203.409C198.934 203.409 199.504 203.979 199.504 204.729V222.319C199.504 223.069 198.934 223.639 198.184 223.639Z" fill="#407C79"/>
<path d="M205.664 222.149V195.939C205.664 195.189 206.234 194.619 206.984 194.619C207.684 194.619 208.304 195.189 208.304 195.939V203.589H211.385C214.505 203.589 217.105 206.139 217.105 209.309V217.749C217.105 220.919 214.515 223.469 211.385 223.469H206.984C206.234 223.469 205.664 222.899 205.664 222.149ZM208.304 206.229V220.829H211.385C213.055 220.829 214.465 219.469 214.465 217.749V209.309C214.465 207.589 213.055 206.229 211.385 206.229H208.304Z" fill="#407C79"/>
<path d="M222.596 219.289V195.939C222.596 195.189 223.216 194.619 223.916 194.619C224.666 194.619 225.236 195.189 225.236 195.939V219.289C225.236 220.079 225.676 220.789 226.336 221.179C226.996 221.529 227.216 222.369 226.816 222.979C226.466 223.599 225.676 223.819 225.016 223.459C223.566 222.579 222.596 220.999 222.596 219.279V219.289Z" fill="#407C79"/>
<path d="M231.088 198.129C231.088 197.159 231.878 196.369 232.848 196.369C233.818 196.369 234.608 197.159 234.608 198.129C234.608 199.099 233.818 199.889 232.848 199.889C231.878 199.889 231.088 199.099 231.088 198.129ZM232.848 223.639C232.148 223.639 231.528 223.069 231.528 222.319V204.729C231.528 203.979 232.148 203.409 232.848 203.409C233.598 203.409 234.168 203.979 234.168 204.729V222.319C234.168 223.069 233.598 223.639 232.848 223.639Z" fill="#407C79"/>
<path d="M239.799 217.919V209.119C239.799 205.949 242.349 203.399 245.52 203.399C248.69 203.399 251.24 205.949 251.24 209.119V217.919C251.24 221.089 248.65 223.639 245.52 223.639C242.389 223.639 239.799 221.089 239.799 217.919ZM242.439 209.129V217.929C242.439 219.649 243.799 221.01 245.52 221.01C247.24 221.01 248.6 219.649 248.6 217.929V209.129C248.6 207.419 247.19 206.05 245.52 206.05C243.849 206.05 242.439 207.409 242.439 209.129Z" fill="#407C79"/>
<path d="M254.93 204.909C254.93 204.159 255.5 203.589 256.25 203.589H258.45V195.939C258.45 195.189 259.02 194.619 259.77 194.619C260.52 194.619 261.09 195.189 261.09 195.939V203.589H264.171C264.921 203.589 265.491 204.159 265.491 204.909C265.491 205.659 264.921 206.229 264.171 206.229H261.09V217.929C261.09 219.649 262.451 221.009 264.171 221.009C264.921 221.009 265.491 221.579 265.491 222.329C265.491 223.079 264.921 223.649 264.171 223.649C261 223.649 258.45 221.099 258.45 217.929V206.229H256.25C255.5 206.229 254.93 205.659 254.93 204.909Z" fill="#407C79"/>
<path d="M269.883 222.319V195.939C269.883 195.189 270.503 194.619 271.203 194.619C271.953 194.619 272.523 195.189 272.523 195.939V203.589H275.603C278.774 203.589 281.324 206.139 281.324 209.309V222.329C281.324 223.079 280.754 223.649 280.004 223.649C279.304 223.649 278.684 223.079 278.684 222.329V209.309C278.684 207.589 277.324 206.229 275.603 206.229H272.523V222.319C272.523 223.069 271.953 223.639 271.203 223.639C270.503 223.639 269.883 223.069 269.883 222.319Z" fill="#407C79"/>
<path d="M290.114 223.199C288.004 222.319 286.594 220.249 286.594 217.919V209.119C286.594 205.949 289.184 203.399 292.314 203.399C295.445 203.399 298.035 205.949 298.035 209.119V213.519C298.035 214.269 297.465 214.839 296.715 214.839H289.234V217.919C289.234 219.149 289.984 220.289 291.124 220.779C292.314 221.259 293.635 220.999 294.515 220.119C294.995 219.589 295.835 219.589 296.365 220.119C296.895 220.599 296.895 221.439 296.365 221.969C294.735 223.599 292.274 224.079 290.124 223.199H290.114ZM295.395 198.929C295.965 199.409 296.015 200.249 295.485 200.779C295.005 201.309 294.165 201.349 293.635 200.869L289.234 196.909C288.704 196.429 288.664 195.589 289.144 195.059C289.624 194.529 290.464 194.489 290.994 194.969L295.395 198.929ZM289.234 209.129V212.209H295.395V209.129C295.395 207.419 294.035 206.049 292.314 206.049C290.594 206.049 289.234 207.409 289.234 209.129Z" fill="#407C79"/>
<path d="M302.785 217.749V209.309C302.785 206.139 305.335 203.589 308.506 203.589H312.906C313.606 203.589 314.227 204.159 314.227 204.909V231.119C314.227 231.869 313.606 232.439 312.906 232.439C312.156 232.439 311.586 231.869 311.586 231.119V223.469H308.506C305.335 223.469 302.785 220.919 302.785 217.749ZM305.415 209.309V217.749C305.415 219.459 306.776 220.829 308.496 220.829H311.576V206.229H308.496C306.776 206.229 305.415 207.589 305.415 209.309Z" fill="#407C79"/>
<path d="M320.027 217.749V204.729C320.027 203.979 320.597 203.409 321.348 203.409C322.098 203.409 322.668 203.979 322.668 204.729V217.749C322.668 219.459 324.028 220.829 325.748 220.829H328.828V204.729C328.828 203.979 329.398 203.409 330.149 203.409C330.899 203.409 331.469 203.979 331.469 204.729V222.139C331.469 222.889 330.899 223.459 330.149 223.459H325.748C322.578 223.459 320.027 220.909 320.027 217.739V217.749Z" fill="#407C79"/>
<path d="M337.09 217.919V209.119C337.09 205.949 339.64 203.399 342.811 203.399C345.981 203.399 348.531 205.949 348.531 209.119V213.52C348.531 214.27 347.961 214.839 347.211 214.839H339.73V217.919C339.73 219.149 340.48 220.29 341.62 220.78C342.761 221.26 344.081 220.999 344.961 220.119C345.491 219.589 346.321 219.589 346.851 220.119C347.381 220.599 347.381 221.439 346.851 221.969C345.221 223.599 342.761 224.079 340.61 223.199C338.45 222.319 337.09 220.249 337.09 217.919ZM339.73 209.129V212.209H345.891V209.129C345.891 207.419 344.531 206.05 342.811 206.05C341.09 206.05 339.73 207.409 339.73 209.129Z" fill="#407C79"/>
<path d="M1636.75 497.91H1751.59L1752.77 615.91" stroke="white" stroke-width="2" stroke-miterlimit="10"/>
<path d="M720.355 695.639H708.354V783.639H720.355V695.639Z" fill="#F7A9A6"/>
<path d="M732.357 720.639H720.355V783.639H732.357V720.639Z" fill="#7BCDCD"/>
<path d="M744.357 720.639H732.355V783.639H744.357V720.639Z" fill="#80C07C"/>
<path d="M756.359 695.639H744.357V783.639H756.359V695.639Z" fill="#CDC5B6"/>
<path d="M768.361 720.639H756.359V783.639H768.361V720.639Z" fill="#C49A6D"/>
<path d="M780.363 695.639H768.361V783.639H780.363V695.639Z" fill="#E56567"/>
<path d="M792.363 673.639H780.361V783.639H792.363V673.639Z" fill="#E56567"/>
<path d="M804.365 720.639H792.363V783.639H804.365V720.639Z" fill="#F4928B"/>
<path d="M816.367 695.639H804.365V783.639H816.367V695.639Z" fill="#CDC5B6"/>
<path d="M950.382 695.639H938.381V783.639H950.382V695.639Z" fill="#F7A9A6"/>
<path d="M938.38 720.639H926.379V783.639H938.38V720.639Z" fill="#7BCDCD"/>
<path d="M926.378 720.639H914.377V783.639H926.378V720.639Z" fill="#80C07C"/>
<path d="M902.376 720.639H890.375V783.639H902.376V720.639Z" fill="#C49A6D"/>
<path d="M890.374 695.639H878.373V783.639H890.374V695.639Z" fill="#E56567"/>
<path d="M866.373 720.639H854.371V783.639H866.373V720.639Z" fill="#F4928B"/>
<path d="M854.371 695.639H842.369V783.639H854.371V695.639Z" fill="#CDC5B6"/>
<path d="M991.386 689.639H979.385V752.639H991.386V689.639Z" fill="#7BCDCD"/>
<path d="M1003.39 689.639H991.387V752.639H1003.39V689.639Z" fill="#80C07C"/>
<path d="M1039.39 689.639H1027.39V777.639H1039.39V689.639Z" fill="#E56567"/>
<path d="M1063.39 689.639H1051.39V752.639H1063.39V689.639Z" fill="#F4928B"/>
<path d="M786.363 745.639H774.361V791.639H786.363V745.639Z" fill="#24BAAD"/>
<path d="M1078.4 733.639H698.352V851.639H1078.4V733.639Z" fill="white" stroke="white" stroke-width="2" stroke-miterlimit="10"/>
<path d="M1074.4 738.639H703.354V846.639H1074.4V738.639Z" fill="#CCCCCC" stroke="white" stroke-width="2" stroke-miterlimit="10"/>
<path d="M1256.71 615.91V733.91" stroke="white" stroke-width="2" stroke-miterlimit="10"/>
</svg>
