<svg width="171" height="492" viewBox="0 0 171 492" fill="none" xmlns="http://www.w3.org/2000/svg">
<path d="M130.93 193.961C126.99 187.231 119.83 182.791 112.03 182.911C105.27 183.011 98.7701 188.631 100.29 197.031C105.98 228.331 129.14 271.981 139.48 292.071C142.8 298.521 149.5 305.061 156.48 303.071C163.46 301.081 168.48 297.071 164.48 278.071C155.71 236.401 142.76 214.191 130.92 193.961H130.93Z" fill="#8E6857"/>
<path d="M108.83 182.8C108.83 182.8 117.37 179.95 128.75 188.49C138.28 195.64 145.07 214.77 155.44 231.28C156.11 232.35 155.31 233.73 154.05 233.61C148.3 233.09 134.55 232.7 111.68 236.85C111.68 236.85 100.87 217.04 97.8901 201.77C96.3201 193.72 100.83 185.54 108.58 182.87L108.83 182.78V182.8Z" fill="#F4F77C"/>
<path d="M133.82 388.711C135.69 392.791 136.91 456.581 132.74 477.371C128.47 498.641 97.3999 494.381 91.2699 468.331C88.6399 457.141 90.4799 402.291 90.8699 388.201C90.9399 385.651 91.9199 380.401 94.0599 378.671C101.79 372.411 120.25 359.131 133.82 388.711Z" fill="#8E6857"/>
<path d="M87.6499 474.621C87.6499 474.621 88.2099 450.041 87.7799 430.451C87.7199 427.641 89.8399 425.281 92.6399 425.061C102.45 424.271 124.18 422.941 134.75 425.581C137.18 426.191 138.76 428.521 138.46 431.001L135.16 458.671C134.67 462.771 135.05 466.931 136.28 470.881L140.82 485.461C141.67 488.201 139.66 490.991 136.79 491.041L97.8799 491.741C92.3299 491.841 87.7599 487.401 87.7099 481.851L87.6399 474.621H87.6499Z" fill="#56423C"/>
<path d="M103.74 491.641L134.69 491.291C134.69 491.291 142.87 492.191 140.83 485.461L135.69 468.641C135.69 468.641 124.61 451.411 109.27 470.491C101.71 479.901 103.73 491.641 103.73 491.641H103.74Z" fill="#513E3A"/>
<path d="M33.19 391.21C30.91 394.96 23.56 452.66 25.18 473.78C26.83 495.4 57.34 495.71 66.28 470.89C70.12 460.23 75.12 405.82 76.37 391.86C76.6 389.34 74.39 383.14 72.53 381.13C65.79 373.83 49.74 364 33.19 391.21Z" fill="#8E6857"/>
<path d="M23.0901 473.11C23.0901 473.11 24.4001 448.57 24.5701 428.98C24.5901 426.16 26.8001 423.87 29.6101 423.73C39.4301 423.24 61.1301 422.58 71.6201 425.53C74.0501 426.21 75.5801 428.58 75.2101 431.08L71.0701 458.63C70.4601 462.72 70.7101 466.89 71.8201 470.87L75.9101 485.58C76.6801 488.34 74.5801 491.07 71.7101 491.03L32.9901 490.55C27.3301 490.48 22.8101 485.81 22.9301 480.15L23.0801 473.12L23.0901 473.11Z" fill="#56423C"/>
<path d="M38.65 490.61L69.6 491.2C69.6 491.2 77.75 492.35 75.92 485.56L71.3 468.59C71.3 468.59 60.75 451.03 44.84 469.63C36.99 478.8 38.66 490.6 38.66 490.6L38.65 490.61Z" fill="#513E3A"/>
<path d="M131.75 324.341C136.18 325.051 136.49 383.421 133.22 404.371C129.87 425.811 98.65 422.881 91.4 397.111C87.78 384.231 87.05 317.631 87.05 317.631C87.05 317.631 106.8 320.341 131.75 324.341Z" fill="#8E6857"/>
<path d="M137.8 326.521L136.27 396.451C136.25 397.44 135.26 398.11 134.34 397.74C128.44 395.37 109.57 388.78 89.8401 392.32C88.9501 392.48 88.1401 391.82 88.1401 390.92L87.1101 317.271L137.8 326.521Z" fill="#7D93C9"/>
<path d="M41.4502 325.301C37.0602 325.351 31.6402 383.311 32.9602 404.451C34.3102 426.091 64.8102 426.821 74.1002 402.121C78.7502 389.771 85.3202 323.851 85.3202 323.851C85.3202 323.851 69.2802 325.001 41.4402 325.301H41.4502Z" fill="#8E6857"/>
<path d="M37.0401 326.601L30.4501 396.231C30.3601 397.221 31.2601 398.001 32.2201 397.741C38.3501 396.071 57.8601 391.711 77.0501 397.521C77.9101 397.781 78.8001 397.221 78.9001 396.331L87.7801 317.631L37.0401 326.601Z" fill="#7D93C9"/>
<path d="M133.49 262.07C136.34 301.21 137.64 299.8 140.49 318.07C140.63 320.22 141.82 326.87 139.49 327.07C102.04 325.28 72.1 332.53 33.49 341.07C30.49 341.33 30.82 338.76 31.49 336.07C40.49 303.07 45.49 273.07 46.39 248.24L133.49 262.07Z" fill="#F4F77C"/>
<path d="M68.25 181.24C68.25 181.24 10.49 179.07 45.49 259.07C65.05 303.78 139.49 302.07 133.49 258.07C126.15 204.21 136.14 181.24 106.93 181.24C81.15 181.24 68.26 181.24 68.26 181.24H68.25Z" fill="#F4F77C"/>
<path d="M77.13 164.681C77.13 164.681 78.38 179.111 73.49 181.071H102.49C102.49 181.071 97.43 174.571 99.3 167.031L77.13 164.681Z" fill="#7C5B4E"/>
<path d="M73.49 181.071C81.51 178.211 91.75 179.041 102.49 180.911C102.49 180.911 98.73 192.071 87.49 192.071C77.61 192.071 73.49 181.071 73.49 181.071Z" fill="#7C5B4E"/>
<path d="M41.37 193.961C45.31 187.231 52.47 182.791 60.27 182.911C67.03 183.011 73.53 188.631 72.01 197.031C66.32 228.331 40.7 283.351 30.36 303.441C27.04 309.891 22.54 318.131 15.28 318.391C8.13996 318.641 0.30996 319.391 0.87996 308.001C2.90996 267.421 29.53 214.201 41.38 193.961H41.37Z" fill="#8E6857"/>
<path d="M63.46 182.8C63.46 182.8 54.92 179.95 43.54 188.49C34.01 195.63 27.22 214.76 16.87 231.26C16.19 232.34 17 233.73 18.27 233.61C24.04 233.09 37.78 232.7 60.61 236.85C60.61 236.85 71.42 217.04 74.4 201.77C75.97 193.72 71.46 185.54 63.71 182.87L63.46 182.78V182.8Z" fill="#F4F77C"/>
<path d="M156.93 108.711C156.93 108.711 163.04 116.761 160.2 126.221C157.35 135.681 152.04 138.401 152.04 138.401V116.041L156.93 108.711Z" fill="#7C5B4E"/>
<path d="M26.4799 110.451C26.4799 110.451 8.75992 101.651 6.14992 121.701C3.14992 144.701 26.4799 143.441 26.4799 143.441C26.4799 143.441 89.0699 208.201 146.56 149.691C150.04 146.151 152.03 141.151 152.33 135.921C152.72 128.841 153.84 118.061 156.94 108.701C159.91 99.7508 161.03 90.0808 159.03 80.8008C157.55 73.9108 146.05 51.2108 140.29 47.3808C126.06 37.9208 109.57 14.7308 57.7799 31.6108C9.40992 47.3808 26.4799 110.441 26.4799 110.441V110.451Z" fill="#8E6857"/>
<path d="M27.59 128.491C28 128.371 28.24 127.911 28.11 127.461C27.28 124.511 24.05 114.741 18.83 118.591C14.75 121.604 12.71 123.111 12.71 123.111C12.71 123.111 13.29 125.661 14.75 125.371C16 125.111 17.96 121.901 20.17 122.991C22.57 124.191 23.25 125.921 23.33 127.351C23.4 128.561 24.38 129.441 25.44 129.131L27.59 128.491Z" fill="#7C5B4E"/>
<path d="M86.2298 130.901C89.3723 130.901 91.9198 128.353 91.9198 125.211C91.9198 122.068 89.3723 119.521 86.2298 119.521C83.0873 119.521 80.5398 122.068 80.5398 125.211C80.5398 128.353 83.0873 130.901 86.2298 130.901Z" fill="#56423C"/>
<path d="M126.06 130.901C129.202 130.901 131.75 128.353 131.75 125.211C131.75 122.068 129.202 119.521 126.06 119.521C122.917 119.521 120.37 122.068 120.37 125.211C120.37 128.353 122.917 130.901 126.06 130.901Z" fill="#56423C"/>
<path d="M93.6 143.72C97.58 146.79 108.07 152.99 118.84 143.7C119.69 142.97 119.73 141.65 118.93 140.85C118.2 140.12 117.02 140.08 116.25 140.78C113.5 143.3 106.38 147.87 96.07 140.44C95.29 139.88 94.23 139.96 93.55 140.64L93.39 140.8C92.56 141.63 92.65 143.01 93.58 143.73L93.6 143.72Z" fill="#56423C"/>
<path d="M145.97 136.591H143.13C141.556 136.591 140.28 137.865 140.28 139.436C140.28 141.007 141.556 142.281 143.13 142.281H145.97C147.544 142.281 148.82 141.007 148.82 139.436C148.82 137.865 147.544 136.591 145.97 136.591Z" fill="#B7686E"/>
<path d="M69.1499 136.591H63.4699C61.8959 136.591 60.6199 137.865 60.6199 139.436C60.6199 141.007 61.8959 142.281 63.4699 142.281H69.1499C70.7239 142.281 71.9999 141.007 71.9999 139.436C71.9999 137.865 70.7239 136.591 69.1499 136.591Z" fill="#B7686E"/>
<path d="M49.1899 100.961C49.1899 100.961 37.8499 110.991 35.0099 122.371C35.0099 122.371 18.6699 112.271 23.9999 97.401C23.9999 97.401 40.6199 90.9309 49.1999 100.961H49.1899Z" fill="#56423C"/>
<path d="M59.23 101.93C59.23 101.93 132.39 120.53 157.68 107.23C157.68 107.23 163.05 99.6105 160.2 88.2305L69.15 93.9205L59.22 101.93H59.23Z" fill="#56423C"/>
<path d="M154.89 65.8C160.2 76.84 167.29 80.1 170 85.14C170.92 86.84 170.32 88.98 168.63 89.91C117.75 117.85 32.2701 101.71 13.24 97.61C11.15 97.16 9.95005 94.99 10.6801 92.99C12.7501 87.35 20.79 79.68 23.45 72.1C23.45 72.1 109.74 91.74 154.89 65.79V65.8Z" fill="#F4F77C"/>
<path d="M23.4501 72.1101C23.4501 72.1101 20.7801 31.3201 32.1601 14.2501C35.5501 9.16014 69.3501 -9.59985 132.39 6.41015C137.72 7.76015 142.13 11.4801 144.42 16.4701C148.83 26.0601 155.13 43.7201 154.89 65.8101C154.89 65.8101 120.01 95.8401 23.4501 72.1201V72.1101Z" fill="#F4F77C"/>
<path d="M32.1702 14.2504C32.1702 14.2504 92.6102 30.6604 140.63 11.0704C140.63 11.0704 131.55 0.120444 84.7102 0.070444C37.8702 0.020444 32.1702 14.2504 32.1702 14.2504Z" fill="#F4DF62"/>
<path d="M23.45 72.1101C23.15 68.7901 22.69 65.5601 23.18 61.8701C23.18 61.8701 114.68 79.6801 154.51 54.0801C155.23 58.7801 155.38 62.8901 154.89 65.8001C154.89 65.8001 114.68 91.0701 23.45 72.1101Z" fill="#F4DF62"/>
</svg>
