<svg width="182" height="496" viewBox="0 0 182 496" fill="none" xmlns="http://www.w3.org/2000/svg">
<path d="M121.65 191.28C116.05 185.86 107.95 183.51 100.48 185.73C93.9998 187.65 89.2498 194.81 92.9798 202.49C106.89 231.1 140.94 266.91 156.31 283.47C161.25 288.79 169.46 293.29 175.64 289.49C181.84 285.68 185.58 280.48 176.61 263.26C156.95 225.49 138.5 207.59 121.65 191.29V191.28Z" fill="#8E6857"/>
<path d="M97.3599 186.49C97.3599 186.49 104.81 181.45 118.07 186.61C129.17 190.93 140.87 207.53 155.29 220.64C156.23 221.49 155.83 223.03 154.58 223.26C148.9 224.31 135.55 227.63 114.65 237.79C114.65 237.79 98.9099 221.62 91.9299 207.72C88.2499 200.39 90.39 191.3 97.14 186.64L97.3599 186.49Z" fill="#F4F77C"/>
<path d="M142.29 381.89C145.08 385.4 161.59 447.03 162.53 468.22C163.49 489.9 132.31 493.22 120.1 469.4C114.86 459.17 103.47 405.48 100.47 391.71C99.9299 389.22 99.6199 383.88 101.27 381.69C107.27 373.76 122 356.43 142.28 381.89H142.29Z" fill="#8E6857"/>
<path d="M118.11 476.37C118.11 476.37 112.75 452.38 107.63 433.46C106.9 430.75 108.39 427.95 111.06 427.06C120.39 423.94 141.17 417.43 152.06 417.45C154.56 417.45 156.66 419.34 156.97 421.82L160.41 449.47C160.92 453.57 162.29 457.52 164.43 461.05L172.34 474.11C173.83 476.56 172.54 479.76 169.77 480.49L132.17 490.52C126.81 491.95 121.3 488.73 119.92 483.36L118.12 476.36L118.11 476.37Z" fill="#56423C"/>
<path d="M137.81 489.03L167.77 481.26C167.77 481.26 175.93 480.17 172.33 474.13L163.31 459.04C163.31 459.04 148.42 444.98 138.11 467.18C133.03 478.13 137.81 489.04 137.81 489.04V489.03Z" fill="#513E3A"/>
<path d="M31.4898 391.64C28.7298 395.05 13.7598 451.25 12.5498 472.41C11.3098 494.05 41.4998 498.43 53.6698 475.02C58.8998 464.97 71.0998 411.7 74.1998 398.04C74.7598 395.57 73.3998 389.14 71.8198 386.89C66.1098 378.75 51.5098 366.87 31.4898 391.64Z" fill="#8E6857"/>
<path d="M10.5699 471.46C10.5699 471.46 15.1399 447.32 17.9199 427.92C18.3199 425.13 20.8099 423.15 23.6099 423.38C33.4099 424.2 55.0099 426.44 65.0099 430.76C67.3299 431.76 68.5299 434.31 67.8299 436.74L60.0599 463.5C58.9099 467.47 58.5999 471.63 59.1699 475.73L61.2699 490.86C61.6599 493.7 59.2199 496.12 56.3799 495.71L18.0699 490.07C12.4699 489.25 8.61989 484.02 9.48989 478.42L10.5699 471.47V471.46Z" fill="#56423C"/>
<path d="M23.6602 490.88L54.2502 495.59C54.2502 495.59 62.1702 497.82 61.2602 490.84L58.9402 473.41C58.9402 473.41 50.8202 454.6 32.5802 470.91C23.5802 478.95 23.6602 490.87 23.6602 490.87V490.88Z" fill="#513E3A"/>
<path d="M122.419 314.62C126.879 314.16 142.239 370.48 144.479 391.56C146.769 413.14 115.849 418.36 102.199 395.33C95.379 383.82 77.499 319.66 77.499 319.66C77.499 319.66 97.279 317.18 122.419 314.62Z" fill="#8E6857"/>
<path d="M128.84 315.16L145.4 383.11C145.64 384.07 144.849 384.97 143.859 384.86C137.549 384.09 117.619 382.6 99.4695 391.11C98.6595 391.49 97.6995 391.07 97.4695 390.2L77.4795 319.31L128.84 315.17V315.16Z" fill="#7D93C9"/>
<path d="M36.5797 324.33C32.1997 324.56 29.1697 382.69 31.3597 403.76C33.5997 425.32 64.0997 424.8 72.3697 399.74C76.4997 387.21 80.3597 321.07 80.3597 321.07C80.3597 321.07 64.3797 322.88 36.5797 324.33Z" fill="#8E6857"/>
<path d="M32.2197 325.81L28.5097 395.66C28.4597 396.65 29.3997 397.39 30.3397 397.09C36.3997 395.17 55.7097 390.01 75.1197 395.02C75.9897 395.24 76.8497 394.65 76.9197 393.75L82.5497 314.76L32.2197 325.82V325.81Z" fill="#7D93C9"/>
<path d="M128.35 262.37C131.2 301.51 132.5 300.1 135.35 318.37C135.49 320.52 136.68 327.17 134.35 327.37C96.9001 325.58 66.9601 332.83 28.3501 341.37C25.3501 341.63 25.6801 339.06 26.3501 336.37C35.3501 303.37 40.3501 273.37 41.2501 248.54L128.35 262.37Z" fill="#F4F77C"/>
<path d="M63.1103 181.54C63.1103 181.54 5.35034 179.37 40.3503 259.37C59.9103 304.08 134.35 302.37 128.35 258.37C121.01 204.51 131 181.54 101.79 181.54C76.0103 181.54 63.1203 181.54 63.1203 181.54H63.1103Z" fill="#F4F77C"/>
<path d="M71.9799 164.98C71.9799 164.98 73.2298 179.41 68.3398 181.37H97.3398C97.3398 181.37 92.2798 174.87 94.1498 167.33L71.9799 164.98Z" fill="#7C5B4E"/>
<path d="M68.3496 181.37C76.3696 178.51 86.6096 179.34 97.3496 181.21C97.3496 181.21 93.5896 192.37 82.3496 192.37C72.4696 192.37 68.3496 181.37 68.3496 181.37Z" fill="#7C5B4E"/>
<path d="M36.0699 195.15C39.4999 188.15 46.3198 183.2 54.1098 182.74C60.8598 182.35 67.7599 187.47 66.8499 195.96C63.4699 227.59 41.9699 284.35 33.1199 305.14C30.2799 311.82 26.3899 320.37 19.1799 321.16C12.0799 321.93 4.31986 323.25 4.05986 311.85C3.09986 271.23 25.7499 216.2 36.0699 195.15Z" fill="#8E6857"/>
<path d="M57.2903 182.4C57.2903 182.4 48.5703 180.19 37.8503 189.54C28.8703 197.36 23.5103 216.93 14.3903 234.15C13.7903 235.28 14.7003 236.6 15.9603 236.39C21.6703 235.45 35.3503 234.05 58.4303 236.52C58.4303 236.52 67.7503 215.97 69.6103 200.53C70.5903 192.39 65.4903 184.56 57.5603 182.47L57.3003 182.4H57.2903Z" fill="#F4F77C"/>
<path d="M151.789 109.01C151.789 109.01 157.899 117.06 155.059 126.52C152.209 135.98 146.899 138.7 146.899 138.7V116.34L151.789 109.01Z" fill="#7C5B4E"/>
<path d="M21.3298 110.75C21.3298 110.75 3.60977 101.95 0.999773 122C-2.00023 145 21.3298 143.74 21.3298 143.74C21.3298 143.74 83.9197 208.5 141.41 149.99C144.89 146.45 146.88 141.45 147.18 136.22C147.57 129.14 148.69 118.36 151.79 109C154.76 100.05 155.88 90.3803 153.88 81.1003C152.4 74.2103 140.9 51.5102 135.14 47.6802C120.91 38.2202 104.42 15.0303 52.6298 31.9103C4.25978 47.6803 21.3298 110.74 21.3298 110.74V110.75Z" fill="#8E6857"/>
<path d="M22.4396 128.79C22.8496 128.67 23.0896 128.21 22.9596 127.76C22.1296 124.81 18.8996 115.04 13.6796 118.89C9.59957 121.904 7.55957 123.41 7.55957 123.41C7.55957 123.41 8.13958 125.96 9.59958 125.67C10.8496 125.41 12.8096 122.2 15.0196 123.29C17.4196 124.49 18.0996 126.22 18.1796 127.65C18.2496 128.86 19.2296 129.74 20.2896 129.43L22.4396 128.79Z" fill="#7C5B4E"/>
<path d="M81.0796 131.2C84.2221 131.2 86.7696 128.653 86.7696 125.51C86.7696 122.368 84.2221 119.82 81.0796 119.82C77.9371 119.82 75.3896 122.368 75.3896 125.51C75.3896 128.653 77.9371 131.2 81.0796 131.2Z" fill="#56423C"/>
<path d="M120.91 131.2C124.052 131.2 126.6 128.653 126.6 125.51C126.6 122.368 124.052 119.82 120.91 119.82C117.767 119.82 115.22 122.368 115.22 125.51C115.22 128.653 117.767 131.2 120.91 131.2Z" fill="#56423C"/>
<path d="M88.4598 144.02C92.4398 147.09 102.93 153.29 113.7 144C114.55 143.27 114.59 141.95 113.79 141.15C113.06 140.42 111.88 140.38 111.11 141.08C108.36 143.6 101.24 148.17 90.9298 140.74C90.1498 140.18 89.0898 140.26 88.4098 140.94L88.2498 141.1C87.4198 141.93 87.5098 143.31 88.4398 144.03L88.4598 144.02Z" fill="#56423C"/>
<path d="M140.83 136.89H137.99C136.416 136.89 135.14 138.164 135.14 139.735C135.14 141.306 136.416 142.58 137.99 142.58H140.83C142.404 142.58 143.68 141.306 143.68 139.735C143.68 138.164 142.404 136.89 140.83 136.89Z" fill="#B7686E"/>
<path d="M63.9997 136.89H58.3197C56.7457 136.89 55.4697 138.164 55.4697 139.735C55.4697 141.306 56.7457 142.58 58.3197 142.58H63.9997C65.5737 142.58 66.8497 141.306 66.8497 139.735C66.8497 138.164 65.5737 136.89 63.9997 136.89Z" fill="#B7686E"/>
<path d="M44.0497 101.26C44.0497 101.26 32.7097 111.29 29.8697 122.67C29.8697 122.67 13.5297 112.57 18.8597 97.7003C18.8597 97.7003 35.4797 91.2303 44.0597 101.26H44.0497Z" fill="#56423C"/>
<path d="M54.0793 102.23C54.0793 102.23 127.239 120.83 152.529 107.53C152.529 107.53 157.899 99.9102 155.049 88.5302L63.9993 94.2202L54.0693 102.23H54.0793Z" fill="#56423C"/>
<path d="M149.75 66.1003C155.06 77.1403 162.15 80.4002 164.86 85.4402C165.78 87.1402 165.18 89.2802 163.49 90.2102C112.61 118.15 27.1299 102.01 8.09991 97.9102C6.00991 97.4602 4.80992 95.2903 5.53992 93.2903C7.60992 87.6503 15.6499 79.9802 18.3099 72.4002C18.3099 72.4002 104.6 92.0402 149.75 66.0902V66.1003Z" fill="#F4F77C"/>
<path d="M18.3095 72.4102C18.3095 72.4102 15.6394 31.6202 27.0194 14.5502C30.4094 9.46022 64.2095 -9.29977 127.249 6.71023C132.579 8.06023 136.989 11.7802 139.279 16.7702C143.689 26.3602 149.989 44.0202 149.749 66.1102C149.749 66.1102 114.869 96.1403 18.3095 72.4202V72.4102Z" fill="#F4F77C"/>
<path d="M27.0195 14.5502C27.0195 14.5502 87.4595 30.9602 135.48 11.3702C135.48 11.3702 126.4 0.420249 79.5595 0.370249C32.7195 0.320249 27.0195 14.5502 27.0195 14.5502Z" fill="#F4DF62"/>
<path d="M18.3101 72.4102C18.0101 69.0902 17.5502 65.8603 18.0402 62.1703C18.0402 62.1703 109.54 79.9802 149.37 54.3802C150.09 59.0802 150.24 63.1903 149.75 66.1003C149.75 66.1003 109.54 91.3702 18.3101 72.4102Z" fill="#F4DF62"/>
</svg>
