<svg width="361" height="573" viewBox="0 0 361 573" fill="none" xmlns="http://www.w3.org/2000/svg">
<path d="M182.26 266.57C177.78 272.95 176.71 281.31 180.06 288.35C182.96 294.45 190.78 298.04 197.78 293.16C223.89 274.98 253.98 235.79 267.95 218.03C272.44 212.33 275.61 203.52 270.89 198C266.17 192.48 260.45 189.58 244.83 201.11C210.57 226.4 195.75 247.4 182.26 266.58V266.57Z" fill="#8E6857"/>
<path d="M181.29 291.3C181.29 291.3 175.16 284.72 178.19 270.82C180.73 259.18 196.28 247.28 206.99 231C207.69 229.94 209.57 229.8 209.99 231C211.87 236.33 232.07 266.62 223.61 290.4C223.36 291.11 222.45 291.34 221.91 290.8C219.21 288.13 211.75 282.75 203.1 293.37C197.92 299.73 187.12 297.44 181.47 291.49L181.29 291.29V291.3Z" fill="#F4F77C"/>
<path d="M287.7 399.99C291.83 401.73 335.86 447.92 346.84 466.05C358.07 484.61 332.29 502.47 310.16 487.42C300.66 480.96 264.93 439.29 255.7 428.64C254.03 426.72 251.2 422.18 251.6 419.46C253.07 409.62 257.69 387.36 287.69 399.98L287.7 399.99Z" fill="#8E6857"/>
<path d="M311.75 494.51C311.75 494.51 295.55 476.02 281.99 461.87C280.05 459.84 280.02 456.67 281.93 454.61C288.62 447.4 303.74 431.73 313.31 426.53C315.51 425.34 318.25 425.98 319.71 428.02L335.98 450.64C338.39 453.99 341.49 456.8 345.06 458.88L358.26 466.55C360.74 467.99 361.14 471.41 359.06 473.39L330.86 500.21C326.84 504.04 320.47 503.85 316.68 499.79L311.74 494.51H311.75Z" fill="#56423C"/>
<path d="M335.109 496.18L357.679 475C357.679 475 364.319 470.13 358.269 466.55L343.119 457.63C343.119 457.63 323.309 452.43 324.899 476.85C325.689 488.9 335.109 496.18 335.109 496.18Z" fill="#513E3A"/>
<path d="M175.449 479.07C174.709 483.4 189.089 539.75 198.359 558.8C207.839 578.29 236.329 567.37 235.519 541C235.169 529.68 219.809 477.24 215.849 463.8C215.129 461.37 210.799 456.42 208.329 455.23C199.369 450.92 180.829 447.68 175.459 479.07H175.449Z" fill="#8E6857"/>
<path d="M196.169 558.95C196.169 558.95 188.359 535.65 181.319 517.37C180.309 514.74 181.509 511.8 184.069 510.63C193.019 506.56 212.959 497.97 223.799 496.85C226.309 496.59 228.609 498.23 229.179 500.69L235.459 527.83C236.389 531.86 238.159 535.64 240.659 538.93L249.879 551.11C251.609 553.4 250.659 556.7 247.979 557.73L211.799 571.52C206.509 573.54 200.589 570.85 198.619 565.55L196.169 558.96V558.95Z" fill="#56423C"/>
<path d="M217.069 569.5L246.069 558.67C246.069 558.67 254.069 556.74 249.869 551.1L239.339 537.02C239.339 537.02 223.069 524.57 215.109 547.72C211.179 559.13 217.069 569.49 217.069 569.49V569.5Z" fill="#513E3A"/>
<path d="M209.849 364.5C212.289 360.74 265.799 384.07 283.629 395.54C301.879 407.28 286.559 434.65 260.059 430.85C246.809 428.95 185.619 402.66 185.619 402.66C185.619 402.66 196.089 385.69 209.849 364.5Z" fill="#8E6857"/>
<path d="M214.289 359.84L277.619 389.54C278.519 389.96 278.729 391.14 278.019 391.83C273.469 396.27 259.809 410.85 255.059 430.33C254.849 431.2 253.909 431.68 253.089 431.32L185.319 402.45L214.289 359.84Z" fill="#7D93C9"/>
<path d="M157.899 409.74C153.829 411.4 170.109 467.29 179.109 486.47C188.319 506.09 216.949 495.56 216.509 469.18C216.289 455.99 198.169 392.26 198.169 392.26C198.169 392.26 183.679 399.23 157.899 409.74Z" fill="#8E6857"/>
<path d="M154.27 412.58L173.75 479.76C174.03 480.71 175.16 481.1 175.95 480.51C181.04 476.7 197.58 465.48 217.56 463.82C218.46 463.75 219.08 462.9 218.84 462.03L198.159 385.58L154.27 412.58Z" fill="#7D93C9"/>
<path d="M209.999 330C227.039 365.36 242.639 356.06 251.999 372C252.919 373.94 254.099 374.95 251.999 376C206.999 371 174.759 422.86 141.999 445C139.309 446.34 138.369 445.75 137.999 443C134.239 409 134.999 369 116.999 318L209.999 330Z" fill="#F4F77C"/>
<path d="M136.849 275.92C136.849 275.92 82.3295 295.14 144.299 356.67C178.929 391.06 217.479 366.6 208.999 323C201.999 287 199.989 250.96 172.819 261.7C148.846 271.18 136.859 275.92 136.859 275.92H136.849Z" fill="#F4F77C"/>
<path d="M139.02 257.26C139.02 257.26 145.479 270.22 141.659 273.84L168.63 263.18C168.63 263.18 161.53 258.99 160.5 251.3L139.02 257.27V257.26Z" fill="#7C5B4E"/>
<path d="M141.659 273.83C148.069 268.23 157.899 265.23 168.569 263.02C168.569 263.02 169.169 274.78 158.719 278.91C149.539 282.54 141.659 273.83 141.659 273.83Z" fill="#7C5B4E"/>
<path d="M129.51 285.95C136.89 288.47 142.66 294.62 144.09 302.28C145.33 308.92 141.11 316.42 132.58 316.59C100.78 317.23 41.7598 303.05 20.0198 296.89C13.0398 294.91 4.06977 292.14 2.36977 285.08C0.709766 278.14 -1.58022 270.61 9.69978 268.9C49.8798 262.83 107.32 278.36 129.51 285.95Z" fill="#8E6857"/>
<path d="M144.83 305.4C144.83 305.4 145.92 296.47 135.3 287.01C126.41 279.09 108.23 279.87 89.9999 273C88.7999 272.55 86.6399 272.77 86.9999 274C88.5799 279.32 92.6499 308.48 91.2099 324.09C91.1399 324.89 91.9699 325.45 92.6899 325.08C97.8599 322.38 114.02 315.03 128.4 319.9C136.17 322.53 143.72 313.8 144.8 305.67L144.83 305.4Z" fill="#F4F77C"/>
<path d="M192.65 175.86C192.65 175.86 201.29 181.1 202.13 190.94C202.96 200.78 199.03 205.27 199.03 205.27L190.81 184.47L192.66 175.85L192.65 175.86Z" fill="#7C5B4E"/>
<path d="M71.97 225.45C71.97 225.45 52.26 223.78 57.2 243.39C62.87 265.88 84.1 256.13 84.1 256.13C84.1 256.13 166.12 293.34 198.07 217.79C200 213.22 200.02 207.83 198.37 202.87C196.13 196.14 193.21 185.71 192.65 175.87C192.12 166.45 189.61 157.05 184.34 149.16C180.42 143.29 161.39 126.41 154.62 124.97C137.91 121.4 114.05 105.9 72.09 140.65C32.91 173.1 71.97 225.47 71.97 225.47V225.45Z" fill="#8E6857"/>
<path d="M79.6401 241.81C79.9801 241.55 80.0301 241.03 79.7501 240.66C77.8901 238.22 71.3 230.32 67.86 235.82C65.1734 240.12 63.8301 242.27 63.8301 242.27C63.8301 242.27 65.3101 244.43 66.5601 243.62C67.6301 242.92 68.27 239.21 70.72 239.42C73.39 239.65 74.6601 241.01 75.2601 242.31C75.7701 243.41 77.0001 243.87 77.8701 243.19L79.6301 241.81H79.6401Z" fill="#7C5B4E"/>
<path d="M89.6101 208.27C89.6101 208.27 82.7501 221.76 84.2901 233.39C84.2901 233.39 65.3801 230 64.8701 214.22C64.8701 214.22 77.9501 202.1 89.6101 208.27Z" fill="#56423C"/>
<path d="M99.2998 205.48C99.2998 205.48 174.18 195.88 192.8 174.21C192.8 174.21 194.99 165.15 188.16 155.61L105.58 194.38L99.2998 205.48Z" fill="#56423C"/>
<path d="M137.01 53.53C144.66 63.1 152.3 64.69 156.07 68.99C157.34 70.44 157.24 72.66 155.8 73.95C112.48 112.59 25.55 116.01 6.08998 116.29C3.95998 116.32 2.28995 114.48 2.55995 112.36C3.30995 106.4 9.42997 97.12 10.33 89.14C10.33 89.14 98.83 88.94 137.01 53.53Z" fill="#F4F77C"/>
<path d="M10.3397 89.14C10.3397 89.14 -1.40031 49.98 5.85969 30.8C8.01969 25.08 36.7597 -0.780012 101.78 0.689988C107.27 0.809988 112.41 3.44997 115.76 7.79997C122.2 16.16 132.31 31.96 137.02 53.53C137.02 53.53 109.76 90.62 10.3397 89.14Z" fill="#F4F77C"/>
<path d="M5.86035 30.8C5.86035 30.8 68.4403 33.24 110.85 3.39002C110.85 3.39002 99.5504 -5.25 53.8804 5.21C8.21037 15.66 5.86035 30.8 5.86035 30.8Z" fill="#F4DF62"/>
<path d="M10.3403 89.14C9.30027 85.97 8.13027 82.93 7.78027 79.22C7.78027 79.22 100.94 76.07 134.02 42.19C135.78 46.61 136.84 50.58 137.02 53.53C137.02 53.53 103.49 87.17 10.3403 89.14Z" fill="#F4DF62"/>
<path d="M64.8698 214.22C64.8698 214.22 33.6998 166.09 69.9998 140C102 117 112 117 139 119C163.09 120.78 178.31 135.22 188.16 155.61L99.2998 205.48L89.6098 208.27L64.8698 214.22Z" fill="#56423C"/>
<path d="M54.7 190.56C54.7 190.56 57 216 47 216C47 216 57.74 222.44 64.87 214.22C64.87 214.22 60.41 192.13 54.7 190.56Z" fill="#56423C"/>
<path d="M107.73 120.26C107.73 120.26 82.5197 124.37 81.8097 114.4C81.8097 114.4 76.1497 125.57 84.8597 132.1C84.8597 132.1 106.58 126.07 107.73 120.27V120.26Z" fill="#56423C"/>
<path d="M178.08 140C178.08 140 196.8 157.37 202.92 149.46C202.92 149.46 201.45 161.89 190.59 162.51C190.59 162.51 175.84 145.47 178.09 140H178.08Z" fill="#56423C"/>
<path d="M187.99 153.87C187.99 153.87 194.13 167.83 200.56 165.41C200.56 165.41 189.99 171.99 184.99 163.99C179.99 155.99 187.98 153.86 187.98 153.86L187.99 153.87Z" fill="#56423C"/>
<path d="M133.6 209.64C129.95 209.28 126.01 209.6 122.87 211.68C120.04 213.56 118.19 216.55 118.23 220C118.27 223.45 119.96 226.93 122.08 229.66C124.2 232.39 127.42 234.24 131.09 233.99C137.39 233.56 145.9 227.89 143.49 220.56C141.32 213.96 131.75 211.44 127.69 217.7C125.71 220.74 126.6 224.75 129.51 226.84C130.92 227.85 132.82 228.26 134.47 227.63C136.25 226.95 137.48 225.28 137 223.35C136.52 221.42 133.64 222.27 134.11 224.15C134.28 224.84 132.81 224.98 132.41 224.91C131.41 224.73 130.58 223.98 130.09 223.12C129.06 221.31 129.84 219.23 131.42 218.03C135.2 215.17 141.47 218.97 140.82 223.62C140.17 228.27 133.85 231.5 129.48 230.98C127 230.69 125.19 229 123.84 227.01C122.49 225.02 121.27 222.54 121.24 220.02C121.21 217.5 122.64 215.33 124.8 214.03C127.44 212.44 130.62 212.36 133.61 212.65C135.53 212.84 135.52 209.84 133.61 209.65L133.6 209.64Z" fill="#56423C"/>
<path d="M163.78 204.12C166.78 200.46 172.37 196.32 177.02 199.93C178.84 201.35 179.87 203.61 180.47 205.78C181.14 208.19 181.55 210.99 180.26 213.27C179.17 215.18 177.2 216.5 175.19 217.29C172.79 218.23 169.88 218.75 167.46 217.58C165.04 216.41 164.15 214.02 164.51 211.51C164.82 209.34 166.17 207.21 168.35 206.56C170.53 205.91 173.08 206.75 173.7 209.12C173.95 210.06 173.86 211.17 173.28 211.98C173.04 212.31 171.92 213.22 171.56 212.6C170.59 210.93 168 212.44 168.97 214.11C170.68 217.05 174.73 215.62 176.08 213.14C177.52 210.5 176.82 206.88 174.5 204.97C171.91 202.83 167.93 202.84 165.23 204.79C162.53 206.74 161.21 210.08 161.48 213.31C161.8 217.03 164.22 219.94 167.84 220.9C171.46 221.86 175.4 220.81 178.51 219C181.62 217.19 183.63 214.55 184.02 211.09C184.41 207.63 183.37 203.71 181.6 200.76C179.59 197.4 176.1 195.29 172.11 195.67C167.79 196.08 164.33 198.75 161.66 202.01C160.45 203.49 162.56 205.63 163.78 204.13V204.12Z" fill="#56423C"/>
</svg>
