<svg width="500" height="500" viewBox="0 0 500 500" fill="none" xmlns="http://www.w3.org/2000/svg">
<path d="M170.079 197.89C166.139 191.16 158.979 186.72 151.179 186.84C144.419 186.94 137.919 192.56 139.439 200.96C145.129 232.26 168.289 275.91 178.629 296C181.949 302.45 188.649 308.99 195.629 307C202.609 305.01 207.629 301 203.629 282C194.859 240.33 181.909 218.12 170.069 197.89H170.079Z" fill="#8E6857"/>
<path d="M147.979 186.73C147.979 186.73 156.519 183.88 167.899 192.42C177.429 199.57 184.219 218.7 194.589 235.21C195.259 236.28 194.459 237.66 193.199 237.54C187.449 237.02 173.699 236.63 150.829 240.78C150.829 240.78 140.019 220.97 137.039 205.7C135.469 197.65 139.979 189.47 147.729 186.8L147.979 186.71V186.73Z" fill="#F4F77C"/>
<path d="M172.969 392.64C174.839 396.72 176.059 460.51 171.889 481.3C167.619 502.57 136.549 498.31 130.419 472.26C127.789 461.07 129.629 406.22 130.019 392.13C130.089 389.58 131.069 384.33 133.209 382.6C140.939 376.34 159.399 363.06 172.969 392.64Z" fill="#8E6857"/>
<path d="M126.799 478.55C126.799 478.55 127.359 453.97 126.929 434.38C126.869 431.57 128.989 429.21 131.789 428.99C141.599 428.2 163.329 426.87 173.899 429.51C176.329 430.12 177.909 432.45 177.609 434.93L174.309 462.6C173.819 466.7 174.199 470.86 175.429 474.81L179.969 489.39C180.819 492.13 178.809 494.92 175.939 494.97L137.029 495.67C131.479 495.77 126.909 491.33 126.859 485.78L126.789 478.55H126.799Z" fill="#56423C"/>
<path d="M142.889 495.57L173.839 495.22C173.839 495.22 182.019 496.12 179.979 489.39L174.839 472.57C174.839 472.57 163.759 455.34 148.419 474.42C140.859 483.83 142.879 495.57 142.879 495.57H142.889Z" fill="#513E3A"/>
<path d="M72.3397 395.14C70.0597 398.89 62.7097 456.59 64.3297 477.71C65.9797 499.33 96.4897 499.64 105.43 474.82C109.27 464.16 114.27 409.75 115.52 395.79C115.75 393.27 113.54 387.07 111.68 385.06C104.94 377.76 88.8897 367.93 72.3397 395.14Z" fill="#8E6857"/>
<path d="M62.2395 477.04C62.2395 477.04 63.5495 452.5 63.7195 432.91C63.7395 430.09 65.9495 427.8 68.7595 427.66C78.5795 427.17 100.279 426.51 110.769 429.46C113.199 430.14 114.729 432.51 114.359 435.01L110.219 462.56C109.609 466.65 109.859 470.82 110.969 474.8L115.059 489.51C115.829 492.27 113.729 495 110.859 494.96L72.1395 494.48C66.4795 494.41 61.9595 489.74 62.0795 484.08L62.2295 477.05L62.2395 477.04Z" fill="#56423C"/>
<path d="M77.7999 494.54L108.75 495.13C108.75 495.13 116.9 496.28 115.07 489.49L110.45 472.52C110.45 472.52 99.8999 454.96 83.9899 473.56C76.1399 482.73 77.8099 494.53 77.8099 494.53L77.7999 494.54Z" fill="#513E3A"/>
<path d="M170.899 328.27C175.329 328.98 175.639 387.35 172.369 408.3C169.019 429.74 137.799 426.81 130.549 401.04C126.929 388.16 126.199 321.56 126.199 321.56C126.199 321.56 145.949 324.27 170.899 328.27Z" fill="#8E6857"/>
<path d="M176.949 330.45L175.419 400.38C175.399 401.37 174.409 402.04 173.489 401.67C167.589 399.3 148.719 392.71 128.989 396.25C128.099 396.41 127.289 395.75 127.289 394.85L126.259 321.2L176.949 330.45Z" fill="#7D93C9"/>
<path d="M80.5991 329.23C76.2091 329.28 70.7891 387.24 72.1091 408.38C73.4591 430.02 103.959 430.75 113.249 406.05C117.899 393.7 124.469 327.78 124.469 327.78C124.469 327.78 108.429 328.93 80.5891 329.23H80.5991Z" fill="#8E6857"/>
<path d="M76.189 330.53L69.599 400.16C69.509 401.15 70.409 401.93 71.369 401.67C77.499 400 97.009 395.64 116.199 401.45C117.059 401.71 117.949 401.15 118.049 400.26L126.929 321.56L76.189 330.53Z" fill="#7D93C9"/>
<path d="M172.639 266C175.489 305.14 176.789 303.73 179.639 322C179.779 324.15 180.969 330.8 178.639 331C141.189 329.21 111.249 336.46 72.6392 345C69.6392 345.26 69.9692 342.69 70.6392 340C79.6392 307 84.6392 277 85.5392 252.17L172.639 266Z" fill="#F4F77C"/>
<path d="M107.399 185.17C107.399 185.17 49.6394 183 84.6394 263C104.199 307.71 178.639 306 172.639 262C165.299 208.14 175.289 185.17 146.079 185.17C120.299 185.17 107.409 185.17 107.409 185.17H107.399Z" fill="#F4F77C"/>
<path d="M116.28 168.61C116.28 168.61 117.53 183.04 112.64 185H141.64C141.64 185 136.58 178.5 138.45 170.96L116.28 168.61Z" fill="#7C5B4E"/>
<path d="M112.64 185C120.66 182.14 130.9 182.97 141.64 184.84C141.64 184.84 137.88 196 126.64 196C116.76 196 112.64 185 112.64 185Z" fill="#7C5B4E"/>
<path d="M80.5194 197.89C84.4594 191.16 91.6194 186.72 99.4194 186.84C106.179 186.94 112.679 192.56 111.159 200.96C105.469 232.26 79.8494 287.28 69.5094 307.37C66.1894 313.82 61.6894 322.06 54.4294 322.32C47.2894 322.57 39.4594 323.32 40.0294 311.93C42.0594 271.35 68.6794 218.13 80.5294 197.89H80.5194Z" fill="#8E6857"/>
<path d="M102.609 186.73C102.609 186.73 94.0692 183.88 82.6892 192.42C73.1592 199.56 66.3692 218.69 56.0192 235.19C55.3392 236.27 56.1492 237.66 57.4192 237.54C63.1892 237.02 76.9292 236.63 99.7592 240.78C99.7592 240.78 110.569 220.97 113.549 205.7C115.119 197.65 110.609 189.47 102.859 186.8L102.609 186.71V186.73Z" fill="#F4F77C"/>
<path d="M196.079 112.64C196.079 112.64 202.189 120.69 199.349 130.15C196.499 139.61 191.189 142.33 191.189 142.33V119.97L196.079 112.64Z" fill="#7C5B4E"/>
<path d="M65.6296 114.38C65.6296 114.38 47.9096 105.58 45.2996 125.63C42.2996 148.63 65.6296 147.37 65.6296 147.37C65.6296 147.37 128.22 212.13 185.71 153.62C189.19 150.08 191.18 145.08 191.48 139.85C191.87 132.77 192.99 121.99 196.09 112.63C199.06 103.68 200.18 94.0101 198.18 84.7301C196.7 77.8401 185.2 55.1401 179.44 51.3101C165.21 41.8501 148.72 18.6601 96.9296 35.5401C48.5596 51.3101 65.6296 114.37 65.6296 114.37V114.38Z" fill="#8E6857"/>
<path d="M66.7394 132.42C67.1494 132.3 67.3894 131.84 67.2594 131.39C66.4294 128.44 63.1994 118.67 57.9794 122.52C53.8994 125.533 51.8594 127.04 51.8594 127.04C51.8594 127.04 52.4394 129.59 53.8994 129.3C55.1494 129.04 57.1094 125.83 59.3194 126.92C61.7194 128.12 62.3994 129.85 62.4794 131.28C62.5494 132.49 63.5294 133.37 64.5894 133.06L66.7394 132.42Z" fill="#7C5B4E"/>
<path d="M125.379 134.83C128.522 134.83 131.069 132.283 131.069 129.14C131.069 125.998 128.522 123.45 125.379 123.45C122.237 123.45 119.689 125.998 119.689 129.14C119.689 132.283 122.237 134.83 125.379 134.83Z" fill="#56423C"/>
<path d="M165.21 134.83C168.352 134.83 170.9 132.283 170.9 129.14C170.9 125.998 168.352 123.45 165.21 123.45C162.067 123.45 159.52 125.998 159.52 129.14C159.52 132.283 162.067 134.83 165.21 134.83Z" fill="#56423C"/>
<path d="M132.75 147.65C136.73 150.72 147.22 156.92 157.99 147.63C158.84 146.9 158.88 145.58 158.08 144.78C157.35 144.05 156.17 144.01 155.4 144.71C152.65 147.23 145.53 151.8 135.22 144.37C134.44 143.81 133.38 143.89 132.7 144.57L132.54 144.73C131.71 145.56 131.8 146.94 132.73 147.66L132.75 147.65Z" fill="#56423C"/>
<path d="M185.12 140.52H182.28C180.706 140.52 179.43 141.794 179.43 143.365C179.43 144.936 180.706 146.21 182.28 146.21H185.12C186.694 146.21 187.97 144.936 187.97 143.365C187.97 141.794 186.694 140.52 185.12 140.52Z" fill="#B7686E"/>
<path d="M108.3 140.52H102.62C101.046 140.52 99.7695 141.794 99.7695 143.365C99.7695 144.936 101.046 146.21 102.62 146.21H108.3C109.874 146.21 111.15 144.936 111.15 143.365C111.15 141.794 109.874 140.52 108.3 140.52Z" fill="#B7686E"/>
<path d="M88.3398 104.89C88.3398 104.89 76.9998 114.92 74.1598 126.3C74.1598 126.3 57.8198 116.2 63.1498 101.33C63.1498 101.33 79.7698 94.8601 88.3498 104.89H88.3398Z" fill="#56423C"/>
<path d="M98.3801 105.86C98.3801 105.86 171.54 124.46 196.83 111.16C196.83 111.16 202.2 103.54 199.35 92.1602L108.3 97.8502L98.3701 105.86H98.3801Z" fill="#56423C"/>
<path d="M194.039 69.7301C199.349 80.7701 206.439 84.0301 209.149 89.0701C210.069 90.7701 209.469 92.9101 207.779 93.8401C156.899 121.78 71.419 105.64 52.389 101.54C50.299 101.09 49.099 98.9201 49.829 96.9201C51.899 91.2801 59.939 83.6101 62.599 76.0301C62.599 76.0301 148.889 95.6701 194.039 69.7201V69.7301Z" fill="#F4F77C"/>
<path d="M62.5985 76.0401C62.5985 76.0401 59.9285 35.2501 71.3085 18.1801C74.6985 13.0901 108.499 -5.66992 171.539 10.3401C176.869 11.6901 181.279 15.4101 183.569 20.4001C187.979 29.9901 194.279 47.6501 194.039 69.7401C194.039 69.7401 159.159 99.7701 62.5985 76.0501V76.0401Z" fill="#F4F77C"/>
<path d="M71.3193 18.1801C71.3193 18.1801 131.759 34.5901 179.779 15.0001C179.779 15.0001 170.699 4.05013 123.859 4.00013C77.0193 3.95013 71.3193 18.1801 71.3193 18.1801Z" fill="#F4DF62"/>
<path d="M62.5992 76.0401C62.2992 72.7201 61.8392 69.4901 62.3292 65.8001C62.3292 65.8001 153.829 83.6101 193.659 58.0101C194.379 62.7101 194.529 66.8201 194.039 69.7301C194.039 69.7301 153.829 95.0001 62.5992 76.0401Z" fill="#F4DF62"/>
<g clip-path="url(#clip0_267_382)">
<path d="M405.799 196.91C400.199 191.49 392.099 189.14 384.629 191.36C378.149 193.28 373.399 200.44 377.129 208.12C391.039 236.73 425.089 272.54 440.459 289.1C445.399 294.42 453.609 298.92 459.789 295.12C465.989 291.31 469.729 286.11 460.759 268.89C441.099 231.12 422.649 213.22 405.799 196.92V196.91Z" fill="#8E6857"/>
<path d="M381.509 192.12C381.509 192.12 388.959 187.08 402.219 192.24C413.319 196.56 425.019 213.16 439.439 226.27C440.379 227.12 439.979 228.66 438.729 228.89C433.049 229.94 419.699 233.26 398.799 243.42C398.799 243.42 383.059 227.25 376.079 213.35C372.399 206.02 374.539 196.93 381.289 192.27L381.509 192.12Z" fill="#F4F77C"/>
<path d="M426.439 387.52C429.229 391.03 445.739 452.66 446.679 473.85C447.639 495.53 416.459 498.85 404.249 475.03C399.009 464.8 387.619 411.11 384.619 397.34C384.079 394.85 383.769 389.51 385.419 387.32C391.419 379.39 406.149 362.06 426.429 387.52H426.439Z" fill="#8E6857"/>
<path d="M402.26 482C402.26 482 396.9 458.01 391.78 439.09C391.05 436.38 392.54 433.58 395.21 432.69C404.54 429.57 425.32 423.06 436.21 423.08C438.71 423.08 440.81 424.97 441.12 427.45L444.56 455.1C445.07 459.2 446.44 463.15 448.58 466.68L456.49 479.74C457.98 482.19 456.69 485.39 453.92 486.12L416.32 496.15C410.96 497.58 405.45 494.36 404.07 488.99L402.27 481.99L402.26 482Z" fill="#56423C"/>
<path d="M421.96 494.66L451.92 486.89C451.92 486.89 460.08 485.8 456.48 479.76L447.46 464.67C447.46 464.67 432.57 450.61 422.26 472.81C417.18 483.76 421.96 494.67 421.96 494.67V494.66Z" fill="#513E3A"/>
<path d="M315.639 397.27C312.879 400.68 297.909 456.88 296.699 478.04C295.459 499.68 325.649 504.06 337.819 480.65C343.049 470.6 355.249 417.33 358.349 403.67C358.909 401.2 357.549 394.77 355.969 392.52C350.259 384.38 335.659 372.5 315.639 397.27Z" fill="#8E6857"/>
<path d="M294.719 477.09C294.719 477.09 299.289 452.95 302.069 433.55C302.469 430.76 304.959 428.78 307.759 429.01C317.559 429.83 339.159 432.07 349.159 436.39C351.479 437.39 352.679 439.94 351.979 442.37L344.209 469.13C343.059 473.1 342.749 477.26 343.319 481.36L345.419 496.49C345.809 499.33 343.369 501.75 340.529 501.34L302.219 495.7C296.619 494.88 292.769 489.65 293.639 484.05L294.719 477.1V477.09Z" fill="#56423C"/>
<path d="M307.81 496.51L338.4 501.22C338.4 501.22 346.32 503.45 345.41 496.47L343.09 479.04C343.09 479.04 334.97 460.23 316.73 476.54C307.73 484.58 307.81 496.5 307.81 496.5V496.51Z" fill="#513E3A"/>
<path d="M406.568 320.25C411.028 319.79 426.388 376.11 428.628 397.19C430.918 418.77 399.998 423.99 386.348 400.96C379.528 389.45 361.648 325.29 361.648 325.29C361.648 325.29 381.428 322.81 406.568 320.25Z" fill="#8E6857"/>
<path d="M412.989 320.79L429.549 388.74C429.789 389.7 428.999 390.6 428.009 390.49C421.699 389.72 401.769 388.23 383.619 396.74C382.809 397.12 381.849 396.7 381.619 395.83L361.629 324.94L412.989 320.8V320.79Z" fill="#7D93C9"/>
<path d="M320.729 329.96C316.349 330.19 313.319 388.32 315.509 409.39C317.749 430.95 348.249 430.43 356.519 405.37C360.649 392.84 364.509 326.7 364.509 326.7C364.509 326.7 348.529 328.51 320.729 329.96Z" fill="#8E6857"/>
<path d="M316.369 331.44L312.659 401.29C312.609 402.28 313.549 403.02 314.489 402.72C320.549 400.8 339.859 395.64 359.269 400.65C360.139 400.87 360.999 400.28 361.069 399.38L366.699 320.39L316.369 331.45V331.44Z" fill="#7D93C9"/>
<path d="M412.499 268C415.349 307.14 416.649 305.73 419.499 324C419.639 326.15 420.829 332.8 418.499 333C381.049 331.21 351.11 338.46 312.5 347C309.5 347.26 309.83 344.69 310.5 342C319.5 309 324.5 279 325.4 254.17L412.499 268Z" fill="#F4F77C"/>
<path d="M347.26 187.17C347.26 187.17 289.5 185 324.5 265C344.06 309.71 418.5 308 412.5 264C405.16 210.14 415.15 187.17 385.94 187.17C360.16 187.17 347.27 187.17 347.27 187.17H347.26Z" fill="#F4F77C"/>
<path d="M356.129 170.61C356.129 170.61 357.379 185.04 352.489 187H381.489C381.489 187 376.429 180.5 378.299 172.96L356.129 170.61Z" fill="#7C5B4E"/>
<path d="M352.499 187C360.519 184.14 370.759 184.97 381.499 186.84C381.499 186.84 377.739 198 366.499 198C356.619 198 352.499 187 352.499 187Z" fill="#7C5B4E"/>
<path d="M320.219 200.78C323.649 193.78 330.469 188.83 338.259 188.37C345.009 187.98 351.909 193.1 350.999 201.59C347.619 233.22 326.119 289.98 317.269 310.77C314.429 317.45 310.539 326 303.329 326.79C296.229 327.56 288.469 328.88 288.209 317.48C287.249 276.86 309.899 221.83 320.219 200.78Z" fill="#8E6857"/>
<path d="M341.44 188.03C341.44 188.03 332.72 185.82 322 195.17C313.02 202.99 307.66 222.56 298.54 239.78C297.94 240.91 298.85 242.23 300.11 242.02C305.82 241.08 319.5 239.68 342.58 242.15C342.58 242.15 351.9 221.6 353.76 206.16C354.74 198.02 349.64 190.19 341.71 188.1L341.45 188.03H341.44Z" fill="#F4F77C"/>
<path d="M435.939 114.64C435.939 114.64 442.049 122.69 439.209 132.15C436.359 141.61 431.049 144.33 431.049 144.33V121.97L435.939 114.64Z" fill="#7C5B4E"/>
<path d="M305.479 116.38C305.479 116.38 287.759 107.58 285.149 127.63C282.149 150.63 305.479 149.37 305.479 149.37C305.479 149.37 368.069 214.13 425.559 155.62C429.039 152.08 431.029 147.08 431.329 141.85C431.719 134.77 432.839 123.99 435.939 114.63C438.909 105.68 440.029 96.0101 438.029 86.7301C436.549 79.8401 425.049 57.1401 419.289 53.3101C405.059 43.8501 388.569 20.6601 336.779 37.5401C288.409 53.3101 305.479 116.37 305.479 116.37V116.38Z" fill="#8E6857"/>
<path d="M306.589 134.42C306.999 134.3 307.239 133.84 307.109 133.39C306.279 130.44 303.049 120.67 297.829 124.52C293.749 127.533 291.709 129.04 291.709 129.04C291.709 129.04 292.289 131.59 293.749 131.3C294.999 131.04 296.959 127.83 299.169 128.92C301.569 130.12 302.249 131.85 302.329 133.28C302.399 134.49 303.379 135.37 304.439 135.06L306.589 134.42Z" fill="#7C5B4E"/>
<path d="M365.229 136.83C368.372 136.83 370.919 134.283 370.919 131.14C370.919 127.998 368.372 125.45 365.229 125.45C362.087 125.45 359.539 127.998 359.539 131.14C359.539 134.283 362.087 136.83 365.229 136.83Z" fill="#56423C"/>
<path d="M405.059 136.83C408.202 136.83 410.749 134.283 410.749 131.14C410.749 127.998 408.202 125.45 405.059 125.45C401.917 125.45 399.369 127.998 399.369 131.14C399.369 134.283 401.917 136.83 405.059 136.83Z" fill="#56423C"/>
<path d="M372.609 149.65C376.589 152.72 387.079 158.92 397.849 149.63C398.699 148.9 398.739 147.58 397.939 146.78C397.209 146.05 396.029 146.01 395.259 146.71C392.509 149.23 385.389 153.8 375.079 146.37C374.299 145.81 373.239 145.89 372.559 146.57L372.399 146.73C371.569 147.56 371.659 148.94 372.589 149.66L372.609 149.65Z" fill="#56423C"/>
<path d="M424.979 142.52H422.139C420.565 142.52 419.289 143.794 419.289 145.365C419.289 146.936 420.565 148.21 422.139 148.21H424.979C426.553 148.21 427.829 146.936 427.829 145.365C427.829 143.794 426.553 142.52 424.979 142.52Z" fill="#B7686E"/>
<path d="M348.149 142.52H342.469C340.895 142.52 339.619 143.794 339.619 145.365C339.619 146.936 340.895 148.21 342.469 148.21H348.149C349.723 148.21 350.999 146.936 350.999 145.365C350.999 143.794 349.723 142.52 348.149 142.52Z" fill="#B7686E"/>
<path d="M328.199 106.89C328.199 106.89 316.859 116.92 314.019 128.3C314.019 128.3 297.679 118.2 303.009 103.33C303.009 103.33 319.629 96.8601 328.209 106.89H328.199Z" fill="#56423C"/>
<path d="M338.229 107.86C338.229 107.86 411.389 126.46 436.679 113.16C436.679 113.16 442.049 105.54 439.199 94.1602L348.149 99.8502L338.219 107.86H338.229Z" fill="#56423C"/>
<path d="M433.899 71.7301C439.209 82.7701 446.299 86.0301 449.009 91.0701C449.929 92.7701 449.329 94.9101 447.639 95.8401C396.759 123.78 311.279 107.64 292.249 103.54C290.159 103.09 288.959 100.92 289.689 98.9201C291.759 93.2801 299.799 85.6101 302.459 78.0301C302.459 78.0301 388.749 97.6701 433.899 71.7201V71.7301Z" fill="#F4F77C"/>
<path d="M302.459 78.0401C302.459 78.0401 299.789 37.2501 311.169 20.1801C314.559 15.0901 348.359 -3.66992 411.399 12.3401C416.729 13.6901 421.139 17.4101 423.429 22.4001C427.839 31.9901 434.139 49.6501 433.899 71.7401C433.899 71.7401 399.019 101.77 302.459 78.0501V78.0401Z" fill="#F4F77C"/>
<path d="M311.169 20.1801C311.169 20.1801 371.609 36.5901 419.629 17.0001C419.629 17.0001 410.549 6.05013 363.709 6.00013C316.869 5.95013 311.169 20.1801 311.169 20.1801Z" fill="#F4DF62"/>
<path d="M302.46 78.0401C302.16 74.7201 301.7 71.4901 302.19 67.8001C302.19 67.8001 393.69 85.6101 433.52 60.0101C434.24 64.7101 434.39 68.8201 433.9 71.7301C433.9 71.7301 393.69 97.0001 302.46 78.0401Z" fill="#F4DF62"/>
</g>
<defs>
<clipPath id="clip0_267_382">
<rect width="250" height="500" fill="white" transform="translate(250)"/>
</clipPath>
</defs>
</svg>
