<svg width="1920" height="1080" viewBox="0 0 1920 1080" fill="none" xmlns="http://www.w3.org/2000/svg">
<path d="M1920 0H0V1080H1920V0Z" fill="#B7E0EA"/>
<path d="M1920 800H0V1080H1920V800Z" fill="#979599"/>
<path d="M1920 764H0V800H1920V764Z" fill="white"/>
<path d="M1355.84 100H574.16C565.235 100 558 107.235 558 116.16V471.84C558 480.765 565.235 488 574.16 488H1355.84C1364.76 488 1372 480.765 1372 471.84V116.16C1372 107.235 1364.76 100 1355.84 100Z" fill="#3C2D4C"/>
<path d="M968.5 482C971.538 482 974 479.538 974 476.5C974 473.462 971.538 471 968.5 471C965.462 471 963 473.462 963 476.5C963 479.538 965.462 482 968.5 482Z" fill="white"/>
<path d="M1812.1 529.95C1812.1 563.9 1784.58 591.42 1750.63 591.42C1716.68 591.42 1689.16 563.9 1689.16 529.95C1689.16 496 1715.48 479.33 1749.42 479.33C1783.36 479.33 1812.1 496 1812.1 529.95Z" fill="#D67D3A"/>
<path d="M1835 616.741C1835 656.011 1796.89 677.001 1750.63 677.001C1704.37 677.001 1667.46 656.011 1667.46 616.741C1667.46 577.471 1704.96 545.631 1751.23 545.631C1797.5 545.631 1835 577.471 1835 616.741Z" fill="#D67D3A"/>
<path d="M1751.23 557.68C1764.88 557.68 1775.94 546.617 1775.94 532.97C1775.94 519.323 1764.88 508.26 1751.23 508.26C1737.58 508.26 1726.52 519.323 1726.52 532.97C1726.52 546.617 1737.58 557.68 1751.23 557.68Z" fill="#201814"/>
<path d="M1786.79 616.74H1714.47V631.2H1786.79V616.74Z" fill="#201814"/>
<path d="M1763.89 378.09H1738.58V514.29H1763.89V378.09Z" fill="#201814"/>
<path d="M1738.58 378.09C1738.58 378.09 1715.68 334.04 1738.58 318.19C1761.02 302.65 1771.12 327 1771.12 327C1771.12 327 1781.97 344.62 1763.89 378.09H1738.58Z" fill="#201814"/>
<path d="M1781 378H1724V387H1781V378Z" fill="#979599"/>
<mask id="mask0_307_148" style="mask-type:luminance" maskUnits="userSpaceOnUse" x="194" y="249" width="39" height="54">
<path d="M232.39 249H194.32V302.19H232.39V249Z" fill="white"/>
</mask>
<g mask="url(#mask0_307_148)">
<path d="M222.92 277.491H225.57C229.34 277.491 232.4 274.441 232.4 270.671V267.211C232.4 263.441 229.34 260.391 225.57 260.391H222.92C219.15 260.391 216.09 263.441 216.09 267.211V270.671C216.09 274.441 219.15 277.491 222.92 277.491Z" fill="#8BC985"/>
<path d="M201.16 277.491H203.81C207.58 277.491 210.64 274.441 210.64 270.671V267.211C210.64 263.441 207.58 260.391 203.81 260.391H201.16C197.39 260.391 194.33 263.441 194.33 267.211V270.671C194.33 274.441 197.39 277.491 201.16 277.491Z" fill="#8BC985"/>
<path d="M212.05 277.49H214.7C218.47 277.49 221.53 274.44 221.53 270.67V255.81C221.53 252.04 218.47 248.99 214.7 248.99H212.05C208.28 248.99 205.22 252.04 205.22 255.81V270.67C205.22 274.44 208.28 277.49 212.05 277.49Z" fill="#8BC985"/>
<path d="M232.4 273.701V283.201C232.4 293.691 223.87 302.201 213.36 302.201C202.85 302.201 194.32 293.691 194.32 283.201V273.701H232.39H232.4Z" fill="#F6EEDA"/>
</g>
<path d="M329 185H305V302H329V185Z" fill="#FF7B7B"/>
<path d="M305 203H282V302H305V203Z" fill="#51A4C4"/>
<path d="M447.5 302H113.5C108.253 302 104 306.253 104 311.5C104 316.747 108.253 321 113.5 321H447.5C452.747 321 457 316.747 457 311.5C457 306.253 452.747 302 447.5 302Z" fill="#B7937B"/>
<path d="M673.54 587.039H933.66C954.68 587.039 971.75 604.109 971.75 625.129V752.729C971.75 756.469 968.71 759.509 964.97 759.509H644.25C640.51 759.509 637.47 756.469 637.47 752.729V623.129C637.47 603.209 653.64 587.049 673.55 587.049L673.54 587.039Z" fill="#735F82"/>
<path d="M1003.68 587.039H1263.91C1283.63 587.039 1299.64 603.049 1299.64 622.769V757.579C1299.64 758.639 1298.78 759.499 1297.72 759.499H973.67C972.61 759.499 971.75 758.639 971.75 757.579V618.969C971.75 601.339 986.06 587.039 1003.68 587.039Z" fill="#735F82"/>
<path d="M687.72 749.35H1247.46C1253.93 749.35 1259.18 754.39 1259.18 760.62V818.73C1259.18 824.95 1253.93 830 1247.46 830H687.72C681.25 830 676 824.96 676 818.73V760.62C676 754.4 681.25 749.35 687.72 749.35Z" fill="#594868"/>
<path d="M1281.73 805.639H1236.63C1233.8 805.639 1231.5 807.935 1231.5 810.769V855.869C1231.5 858.702 1233.8 860.999 1236.63 860.999H1281.73C1284.56 860.999 1286.86 858.702 1286.86 855.869V810.769C1286.86 807.935 1284.56 805.639 1281.73 805.639Z" fill="#594868"/>
<path d="M697.2 805.639H652.1C649.267 805.639 646.97 807.935 646.97 810.769V855.869C646.97 858.702 649.267 860.999 652.1 860.999H697.2C700.033 860.999 702.33 858.702 702.33 855.869V810.769C702.33 807.935 700.033 805.639 697.2 805.639Z" fill="#594868"/>
<path d="M637 668L637.36 739.69C637.41 750.65 646.32 759.51 657.28 759.51H1286.27C1298.04 759.51 1307.25 749.35 1306.09 737.63L1301.42 690.32C1300.41 680.13 1291.84 672.36 1281.6 672.36H1274.66C1269.38 672.36 1264.31 674.46 1260.58 678.19L1214.23 724.54C1210.49 728.28 1205.43 730.37 1200.15 730.37H732.91C727.25 730.37 721.87 727.97 718.09 723.76L668.03 668" fill="#594868"/>
<path d="M609 816.859V676.679C609 671.859 613.18 667.949 618.34 667.949H666.81C671.97 667.949 676.15 671.859 676.15 676.679V816.859C676.15 821.679 671.97 825.589 666.81 825.589H618.34C613.18 825.589 609 821.679 609 816.859Z" fill="#735F82"/>
<path d="M1259 821.269V681.089C1259 676.269 1263.18 672.359 1268.34 672.359H1316.81C1321.97 672.359 1326.15 676.269 1326.15 681.089V821.269C1326.15 826.089 1321.97 829.999 1316.81 829.999H1268.34C1263.18 829.999 1259 826.089 1259 821.269Z" fill="#735F82"/>
<path d="M687.72 743H1247.67C1254.15 743 1259.39 746.7 1259.39 751.26V793.86C1259.39 798.42 1254.14 802.12 1247.67 802.12H687.72C681.24 802.12 676 798.42 676 793.86V751.26C676 746.7 681.25 743 687.72 743Z" fill="#735F82"/>
<path d="M981.6 736.998H971V624.338C971.6 603.058 980.6 586.038 1007.6 587.108C969.03 592.408 970.5 658.528 981.6 736.998Z" fill="#594868"/>
<path d="M960.4 736.998H971V624.338C970.4 603.058 961.4 586.038 934.4 587.108C972.97 592.408 971.5 658.528 960.4 736.998Z" fill="#594868"/>
<path d="M1340 125H588V458H1340V125Z" fill="#565656"/>
</svg>
