<svg width="1920" height="1080" viewBox="0 0 1920 1080" fill="none" xmlns="http://www.w3.org/2000/svg">
<path d="M1920 0H0V1080H1920V0Z" fill="#EA5959"/>
<path d="M153 269.5C153 265.358 149.642 262 145.5 262C141.358 262 138 265.358 138 269.5V345.5C138 349.642 141.358 353 145.5 353C149.642 353 153 349.642 153 345.5V269.5Z" fill="#F97D7D"/>
<path d="M225 145.5C225 141.358 221.642 138 217.5 138C213.358 138 210 141.358 210 145.5V298.5C210 302.642 213.358 306 217.5 306C221.642 306 225 302.642 225 298.5V145.5Z" fill="#F97D7D"/>
<path d="M323 697.5C323 693.358 319.642 690 315.5 690C311.358 690 308 693.358 308 697.5V850.5C308 854.642 311.358 858 315.5 858C319.642 858 323 854.642 323 850.5V697.5Z" fill="#F97D7D"/>
<path d="M429 478.5C429 474.358 425.642 471 421.5 471C417.358 471 414 474.358 414 478.5V586.5C414 590.642 417.358 594 421.5 594C425.642 594 429 590.642 429 586.5V478.5Z" fill="#F97D7D"/>
<path d="M1388 174.5C1388 170.358 1384.64 167 1380.5 167C1376.36 167 1373 170.358 1373 174.5V245.5C1373 249.642 1376.36 253 1380.5 253C1384.64 253 1388 249.642 1388 245.5V174.5Z" fill="#F97D7D"/>
<path d="M1481 122.5C1481 118.358 1477.64 115 1473.5 115C1469.36 115 1466 118.358 1466 122.5V146.5C1466 150.642 1469.36 154 1473.5 154C1477.64 154 1481 150.642 1481 146.5V122.5Z" fill="#F97D7D"/>
<path d="M1843 546.5C1843 542.358 1839.64 539 1835.5 539C1831.36 539 1828 542.358 1828 546.5V749.5C1828 753.642 1831.36 757 1835.5 757C1839.64 757 1843 753.642 1843 749.5V546.5Z" fill="#F97D7D"/>
<path d="M1740 570.5C1740 566.358 1736.64 563 1732.5 563C1728.36 563 1725 566.358 1725 570.5V611.5C1725 615.642 1728.36 619 1732.5 619C1736.64 619 1740 615.642 1740 611.5V570.5Z" fill="#F97D7D"/>
<path d="M75 878.5C75 874.358 71.6421 871 67.5 871C63.3579 871 60 874.358 60 878.5V1007.5C60 1011.64 63.3579 1015 67.5 1015C71.6421 1015 75 1011.64 75 1007.5V878.5Z" fill="#F97D7D"/>
<path d="M1664 953.5C1664 949.358 1660.64 946 1656.5 946C1652.36 946 1649 949.358 1649 953.5V994.5C1649 998.642 1652.36 1002 1656.5 1002C1660.64 1002 1664 998.642 1664 994.5V953.5Z" fill="#F97D7D"/>
<path d="M1481 722.5C1481 718.358 1477.64 715 1473.5 715C1469.36 715 1466 718.358 1466 722.5V860.5C1466 864.642 1469.36 868 1473.5 868C1477.64 868 1481 864.642 1481 860.5V722.5Z" fill="#F97D7D"/>
<path d="M1519 663.5C1519 659.358 1515.64 656 1511.5 656C1507.36 656 1504 659.358 1504 663.5V732.5C1504 736.642 1507.36 740 1511.5 740C1515.64 740 1519 736.642 1519 732.5V663.5Z" fill="#F97D7D"/>
<path d="M1725 210.5C1725 206.358 1721.64 203 1717.5 203C1713.36 203 1710 206.358 1710 210.5V279.5C1710 283.642 1713.36 287 1717.5 287C1721.64 287 1725 283.642 1725 279.5V210.5Z" fill="#F97D7D"/>
<path d="M404 610.5C404 606.358 400.642 603 396.5 603C392.358 603 389 606.358 389 610.5V648.5C389 652.642 392.358 656 396.5 656C400.642 656 404 652.642 404 648.5V610.5Z" fill="#F97D7D"/>
<path d="M301.8 154.58C305.22 157.84 307.82 161.66 309.61 166.05C311.56 170.61 312.54 175.33 312.54 180.21V292.51H312.3C311.97 296.09 311.08 299.59 309.61 303.01C307.82 307.4 305.22 311.23 301.8 314.48C299.36 316.92 297.65 318.39 296.67 318.87C293.41 321.15 286.25 326.68 275.19 335.47C274.7 335.8 274.13 336.53 273.48 337.67L272.99 339.87L272.75 468.29H279.1L278.86 341.34H312.31V499.05H239.56L239.32 344.75H239.56V339.87C239.56 334.66 240.54 329.86 242.49 325.47C243.3 323.52 244.28 321.65 245.42 319.85L250.3 313.99C254.21 309.76 263.4 302.19 277.89 291.28C278.21 291.12 278.46 290.79 278.62 290.3C278.94 289.49 279.11 289 279.11 288.84V180.2C279.11 178.41 278.13 177.35 276.18 177.03C274.55 177.03 273.49 178.09 273.01 180.2V283.96H239.56V180.2C239.56 175.32 240.54 170.6 242.49 166.04C244.44 161.65 247.04 157.82 250.3 154.57C253.72 151.15 257.62 148.55 262.02 146.76C266.57 144.81 271.3 143.83 276.18 143.83C281.06 143.83 285.78 144.81 290.34 146.76C294.73 148.55 298.56 151.15 301.81 154.57L301.8 154.58Z" fill="#B23030"/>
<path d="M399.5 302.29C395.59 306.36 392.09 308.64 389 309.13V310.11C392.74 310.44 396.65 313.12 400.72 318.17C402.18 320.61 403.08 322.89 403.41 325.01C403.73 327.13 403.9 328.67 403.9 329.65V465.88C403.9 470.76 402.92 475.49 400.97 480.04C399.99 482.48 398.77 484.84 397.31 487.12C396.01 488.75 394.62 490.29 393.16 491.76C389.74 495.18 385.92 497.78 381.69 499.57C378.76 500.71 376.64 501.44 375.34 501.77C374.2 502.26 371.68 502.5 367.77 502.5C365.33 502.5 362.48 502.17 359.23 501.52C356.46 500.7 354.51 500.06 353.37 499.57C348.98 497.62 345.07 495.02 341.65 491.76C338.39 488.34 335.79 484.44 333.84 480.04C331.89 475.49 330.91 470.76 330.91 465.88V329.65C330.91 328.67 331.07 327.13 331.4 325.01C331.72 322.9 332.62 320.62 334.09 318.17C338.48 312.96 342.63 310.28 346.54 310.11V309.38C343.12 308.89 339.38 306.53 335.31 302.3C333.36 299.7 332.14 297.22 331.65 294.85C331.16 292.49 330.92 290.82 330.92 289.85L331.41 180.47C331.41 175.59 332.3 170.87 334.1 166.31C336.05 161.92 338.65 158.01 341.91 154.59C345.33 151.17 349.23 148.57 353.63 146.78C354.93 146.29 356.88 145.64 359.49 144.83C362.74 144.18 365.59 143.85 368.03 143.85C370.47 143.85 373.07 144.18 375.84 144.83C379.75 146.13 381.78 146.78 381.94 146.78C382.43 146.94 383 147.19 383.65 147.51C387.39 149.3 390.73 151.66 393.66 154.59C396.91 158.01 399.52 161.91 401.47 166.31C403.26 170.87 404.16 175.59 404.16 180.47L403.92 289.85C403.92 290.83 403.68 292.5 403.19 294.85C402.7 297.21 401.48 299.69 399.53 302.3L399.5 302.29ZM370.45 466.1L370.69 327.92C370.53 325.97 369.71 324.59 368.25 323.77L367.52 323.53H367.28C366.95 323.69 366.63 323.77 366.3 323.77C364.84 324.75 364.1 326.13 364.1 327.92C364.1 329.06 364.18 375.04 364.34 465.86C364.34 467.49 365.4 468.55 367.51 469.03C368.49 469.03 369.3 468.63 369.95 467.81C370.27 467.16 370.44 466.59 370.44 466.1H370.45ZM370.45 289.83L370.69 180.21C370.69 178.91 370.12 178.01 368.98 177.52C368.65 177.36 368.25 177.28 367.76 177.28C366.13 177.28 365.07 178.34 364.59 180.45L364.35 289.83C364.35 291.29 364.92 292.27 366.06 292.76H368.75C369.24 292.44 369.64 292.03 369.97 291.54C370.29 290.89 370.46 290.32 370.46 289.83H370.45Z" fill="#B23030"/>
<path d="M422.5 499.06V460H455.95V499.06C452.2 509.47 448.38 519.89 444.48 530.31H422.51L433.98 499.06H422.51H422.5Z" fill="#B23030"/>
<path d="M472.84 181.921V148.471H545.84V181.921L506.29 499.301H472.84L512.63 181.921H472.84Z" fill="#B23030"/>
<path d="M673.569 499.31H640.119V199.01H639.139L629.619 499.3H608.139L598.619 199.01H597.639V499.3H564.189V148.48H608.619L617.649 431.19H620.339L629.129 148.48H673.559V499.31H673.569Z" fill="#B23030"/>
<path d="M1345.9 881.48C1347.22 882.02 1348.26 883.09 1349.01 884.7C1349.76 886.31 1350.15 888.19 1350.15 890.34V933.7C1350.15 934.04 1350.08 934.85 1349.93 936.12C1349.78 936.75 1349.56 937.37 1349.27 937.95C1348.73 939.27 1347.95 940.44 1346.93 941.47C1345.91 942.5 1344.81 943.23 1343.49 943.81C1342.12 944.4 1340.71 944.69 1339.24 944.69C1337.77 944.69 1336.36 944.4 1334.99 943.81C1333.67 943.22 1332.5 942.44 1331.47 941.47C1330.49 940.44 1329.71 939.27 1329.13 937.95C1328.54 936.58 1328.25 935.17 1328.25 933.7V848.08C1328.25 847.79 1328.35 846.98 1328.54 845.66C1328.69 845.03 1328.88 844.41 1329.13 843.83C1329.67 842.51 1330.45 841.37 1331.47 840.39C1332.45 839.36 1333.59 838.58 1334.91 838.05C1336.28 837.46 1337.69 837.17 1339.16 837.17C1340.72 837.17 1342.16 837.46 1343.48 838.05C1344.75 838.59 1345.9 839.37 1346.92 840.39C1347.95 841.37 1348.73 842.51 1349.26 843.83C1349.85 845.2 1350.14 846.61 1350.14 848.08V878.91H1340.11V848.08C1340.11 847.54 1339.79 847.25 1339.16 847.2C1338.67 847.2 1338.38 847.49 1338.28 848.08V887.26H1338.79V886.53C1339.42 883.7 1340.84 881.94 1343.04 881.26C1343.43 881.16 1343.8 881.11 1344.14 881.11C1344.58 881.11 1344.96 881.16 1345.28 881.26C1345.6 881.36 1345.8 881.43 1345.9 881.48ZM1340.18 933.84V891.58C1339.98 891.04 1339.67 890.77 1339.23 890.77C1338.79 890.82 1338.5 891.06 1338.35 891.5L1338.28 933.83C1338.47 934.42 1338.82 934.71 1339.31 934.71C1339.8 934.61 1340.09 934.32 1340.19 933.83L1340.18 933.84Z" fill="#B23030"/>
<path d="M1378.08 840.39C1379.11 841.37 1379.89 842.51 1380.42 843.83C1381.01 845.2 1381.3 846.61 1381.3 848.08V933.7C1381.3 935.16 1381.01 936.58 1380.42 937.95C1379.88 939.27 1379.1 940.44 1378.08 941.47C1377.05 942.45 1375.91 943.23 1374.64 943.81C1373.22 944.35 1371.78 944.62 1370.32 944.62C1368.86 944.62 1367.44 944.35 1366.07 943.81C1364.75 943.22 1363.6 942.44 1362.63 941.47C1361.6 940.44 1360.82 939.27 1360.29 937.95C1359.7 936.58 1359.41 935.17 1359.41 933.7V848.08C1359.41 846.62 1359.7 845.2 1360.29 843.83C1360.83 842.51 1361.61 841.37 1362.63 840.39C1363.61 839.36 1364.75 838.58 1366.07 838.05C1367.44 837.46 1368.85 837.17 1370.32 837.17C1371.79 837.17 1373.22 837.46 1374.64 838.05C1375.91 838.59 1377.06 839.37 1378.08 840.39ZM1371.27 932.6V849.32C1371.27 848.78 1370.95 848.47 1370.32 848.37C1369.83 848.37 1369.54 848.69 1369.44 849.32V932.6C1369.44 933.19 1369.73 933.5 1370.32 933.55C1370.86 933.55 1371.17 933.23 1371.27 932.6Z" fill="#B23030"/>
<path d="M1390.56 943.659V931.939H1400.59V943.659C1399.47 946.779 1398.32 949.909 1397.15 953.039H1390.56L1394 943.659H1390.56Z" fill="#B23030"/>
<path d="M1427.5 881.11C1428.82 881.65 1429.86 882.72 1430.61 884.33C1431.36 885.94 1431.75 887.82 1431.75 889.97V933.7C1431.75 935.16 1431.46 936.58 1430.87 937.95C1430.33 939.27 1429.55 940.44 1428.53 941.47C1427.51 942.5 1426.41 943.23 1425.09 943.81C1423.72 944.4 1422.31 944.69 1420.84 944.69C1419.37 944.69 1417.96 944.4 1416.59 943.81C1415.27 943.22 1414.1 942.44 1413.07 941.47C1412.09 940.44 1411.31 939.27 1410.73 937.95C1410.53 937.56 1410.34 936.95 1410.14 936.12C1409.94 934.85 1409.85 934.04 1409.85 933.7V893.27H1419.88V933.7C1419.88 934.19 1420.2 934.51 1420.83 934.65C1421.37 934.65 1421.68 934.33 1421.78 933.7V891.59C1421.49 890.56 1421 890.05 1420.32 890.05H1420.25C1419.71 890.15 1419.32 890.49 1419.08 891.08H1409.85V838.49C1417.17 838.49 1424.47 838.52 1431.75 838.56V878.99H1421.72V847.72H1419.89V886.9H1420.4V886.17C1421.03 883.29 1422.45 881.53 1424.65 880.9C1425.04 880.8 1425.41 880.75 1425.75 880.75C1426.19 880.75 1426.57 880.8 1426.89 880.9C1427.21 881 1427.41 881.07 1427.51 881.12L1427.5 881.11Z" fill="#B23030"/>
<path d="M1458.66 881.11C1459.98 881.65 1461.02 882.72 1461.77 884.33C1462.52 885.94 1462.91 887.82 1462.91 889.97V933.7C1462.91 935.16 1462.62 936.58 1462.03 937.95C1461.49 939.27 1460.71 940.44 1459.69 941.47C1458.67 942.5 1457.57 943.23 1456.25 943.81C1454.88 944.4 1453.47 944.69 1452 944.69C1450.53 944.69 1449.12 944.4 1447.75 943.81C1446.43 943.22 1445.26 942.44 1444.23 941.47C1443.25 940.44 1442.47 939.27 1441.89 937.95C1441.69 937.56 1441.5 936.95 1441.3 936.12C1441.1 934.85 1441.01 934.04 1441.01 933.7V893.27H1451.04V933.7C1451.04 934.19 1451.36 934.51 1451.99 934.65C1452.53 934.65 1452.84 934.33 1452.94 933.7V891.59C1452.65 890.56 1452.16 890.05 1451.48 890.05H1451.41C1450.87 890.15 1450.48 890.49 1450.24 891.08H1441.01V838.49C1448.33 838.49 1455.63 838.52 1462.91 838.56V878.99H1452.88V847.72H1451.05V886.9H1451.56V886.17C1452.19 883.29 1453.61 881.53 1455.81 880.9C1456.2 880.8 1456.57 880.75 1456.91 880.75C1457.35 880.75 1457.73 880.8 1458.05 880.9C1458.37 881 1458.57 881.07 1458.67 881.12L1458.66 881.11Z" fill="#B23030"/>
<path d="M1507.64 883.23C1506.71 884.16 1505.66 884.87 1504.49 885.35C1503.22 885.89 1501.93 886.16 1500.61 886.16C1499.29 886.16 1498 885.89 1496.73 885.35C1495.56 884.86 1494.51 884.15 1493.58 883.23C1492.65 882.3 1491.94 881.25 1491.46 880.08C1490.92 878.81 1490.65 877.52 1490.65 876.2V847.05C1490.65 845.73 1490.92 844.44 1491.46 843.17C1491.95 842 1492.66 840.95 1493.58 840.02C1494.51 839.14 1495.56 838.43 1496.73 837.9C1498 837.41 1499.29 837.17 1500.61 837.17C1501.93 837.17 1503.22 837.42 1504.49 837.9C1505.66 838.44 1506.71 839.15 1507.64 840.02C1508.52 840.95 1509.23 842 1509.76 843.17C1510.3 844.44 1510.57 845.73 1510.57 847.05V876.2C1510.57 877.52 1510.3 878.81 1509.76 880.08C1509.22 881.25 1508.51 882.3 1507.64 883.23ZM1501.42 876.2V847.05C1501.42 846.61 1501.15 846.34 1500.61 846.24C1500.12 846.24 1499.83 846.51 1499.73 847.05V876.2C1499.73 876.64 1500.02 876.93 1500.61 877.08C1501.05 877.08 1501.32 876.79 1501.42 876.2ZM1517.39 838.41H1524.27L1509.91 943.66H1503.03L1517.39 838.41ZM1533.72 898.98C1534.65 899.91 1535.36 900.96 1535.84 902.13C1536.38 903.4 1536.65 904.69 1536.65 906.01V935.16C1536.65 936.48 1536.38 937.77 1535.84 939.04C1535.35 940.21 1534.64 941.26 1533.72 942.19C1532.84 943.07 1531.79 943.78 1530.57 944.31C1529.3 944.85 1528.01 945.12 1526.69 945.12C1525.37 945.12 1524.08 944.85 1522.81 944.31C1521.64 943.77 1520.59 943.06 1519.66 942.19C1518.78 941.26 1518.07 940.21 1517.54 939.04C1517 937.77 1516.73 936.48 1516.73 935.16V906.01C1516.73 904.69 1517 903.4 1517.54 902.13C1518.08 900.96 1518.79 899.91 1519.66 898.98C1520.59 898.1 1521.64 897.39 1522.81 896.86C1524.08 896.32 1525.37 896.05 1526.69 896.05C1528.01 896.05 1529.3 896.32 1530.57 896.86C1531.79 897.4 1532.84 898.11 1533.72 898.98ZM1527.57 935.16V906.01C1527.57 905.57 1527.28 905.3 1526.69 905.2C1526.25 905.2 1525.96 905.47 1525.81 906.01V935.16C1525.81 935.6 1526.1 935.87 1526.69 935.97C1527.13 935.97 1527.42 935.7 1527.57 935.16Z" fill="#B23030"/>
<path d="M290.711 544.33H302.711C303.851 544.33 304.631 545.11 304.631 546.25C304.631 547.39 303.851 548.17 302.711 548.17H292.631V560.89H301.511C302.651 560.89 303.431 561.67 303.431 562.81C303.431 563.95 302.651 564.73 301.511 564.73H292.631V578.65H302.711C303.851 578.65 304.631 579.43 304.631 580.57C304.631 581.71 303.851 582.49 302.711 582.49H290.711C289.571 582.49 288.791 581.71 288.791 580.57V546.25C288.791 545.11 289.571 544.33 290.711 544.33Z" fill="#B23030"/>
<path d="M311.002 580.81V557.05C311.002 556.03 311.782 555.25 312.802 555.25H318.802C323.062 555.25 326.602 558.73 326.602 563.05V580.81C326.602 581.83 325.762 582.61 324.802 582.61C323.782 582.61 323.002 581.83 323.002 580.81V563.05C323.002 560.71 321.142 558.85 318.802 558.85H314.602V580.81C314.602 581.83 313.762 582.61 312.802 582.61C311.782 582.61 311.002 581.83 311.002 580.81Z" fill="#B23030"/>
<path d="M331.871 557.05C331.871 556.03 332.651 555.25 333.671 555.25H336.671V544.81C336.671 543.79 337.451 543.01 338.471 543.01C339.491 543.01 340.271 543.79 340.271 544.81V555.25H344.471C345.491 555.25 346.271 556.03 346.271 557.05C346.271 558.07 345.491 558.85 344.471 558.85H340.271V574.81C340.271 577.15 342.131 579.01 344.471 579.01C345.491 579.01 346.271 579.79 346.271 580.81C346.271 581.83 345.491 582.61 344.471 582.61C340.151 582.61 336.671 579.13 336.671 574.81V558.85H333.671C332.651 558.85 331.871 558.07 331.871 557.05Z" fill="#B23030"/>
<path d="M352.271 580.81V557.05C352.271 556.03 353.052 555.25 354.072 555.25H360.072C361.452 555.25 362.711 555.61 363.971 556.27C364.871 556.81 365.112 557.83 364.632 558.73C364.152 559.63 363.072 559.93 362.172 559.39C361.512 559.03 360.792 558.85 360.072 558.85H355.871V580.81C355.871 581.83 355.092 582.61 354.072 582.61C353.052 582.61 352.271 581.83 352.271 580.81Z" fill="#B23030"/>
<path d="M369.49 574.809V562.809C369.49 558.489 373.03 555.009 377.29 555.009C381.55 555.009 385.09 558.489 385.09 562.809V568.809C385.09 569.829 384.31 570.609 383.29 570.609H373.09V574.809C373.09 576.489 374.05 578.049 375.67 578.709C377.29 579.369 379.09 579.009 380.29 577.809C380.59 577.449 381.01 577.269 381.49 577.269C382.03 577.269 382.45 577.449 382.81 577.809C383.17 578.109 383.35 578.529 383.35 579.069C383.35 579.549 383.17 579.969 382.81 580.329C380.59 582.549 377.23 583.209 374.35 582.009C371.41 580.809 369.49 577.989 369.49 574.809ZM381.67 543.609C382.33 544.329 382.27 545.469 381.49 546.129L375.49 551.529C374.77 552.189 373.63 552.129 372.97 551.409C372.31 550.689 372.37 549.549 373.09 548.889L379.09 543.489C379.87 542.829 380.95 542.889 381.67 543.609ZM373.09 562.809V567.009H381.49V562.809C381.49 560.469 379.63 558.609 377.29 558.609C374.95 558.609 373.09 560.469 373.09 562.809Z" fill="#B23030"/>
<path d="M391.57 574.81V562.81C391.57 558.49 395.05 555.01 399.37 555.01C403.69 555.01 407.17 558.49 407.17 562.81V568.81C407.17 569.83 406.39 570.61 405.37 570.61H395.17V574.81C395.17 576.49 396.13 578.05 397.75 578.71C399.37 579.37 401.11 579.01 402.31 577.81C402.67 577.45 403.09 577.27 403.57 577.27C404.11 577.27 404.53 577.45 404.89 577.81C405.25 578.11 405.43 578.53 405.43 579.07C405.43 579.55 405.25 579.97 404.89 580.33C402.67 582.55 399.31 583.21 396.37 582.01C393.43 580.81 391.57 577.99 391.57 574.81ZM395.17 562.81V567.01H403.57V562.81C403.57 560.47 401.71 558.61 399.37 558.61C397.03 558.61 395.17 560.47 395.17 562.81Z" fill="#B23030"/>
<path d="M423.491 574.929C423.431 573.729 422.891 572.769 421.871 572.049L416.291 568.089C414.431 566.829 413.411 564.849 413.231 562.689C413.051 560.469 413.951 558.369 415.571 556.929C417.191 555.429 419.351 554.769 421.511 555.069C423.671 555.489 425.531 556.689 426.671 558.609C427.151 559.509 426.911 560.589 426.011 561.069C425.111 561.549 424.031 561.309 423.551 560.409C423.011 559.449 422.111 558.849 420.971 558.669C419.831 558.489 418.811 558.789 417.971 559.569C417.131 560.349 416.771 561.309 416.831 562.449C416.891 563.589 417.431 564.489 418.391 565.149L423.971 569.049C425.831 570.429 426.911 572.349 427.091 574.689C427.271 577.029 426.371 579.129 424.691 580.629C423.011 582.249 420.791 582.849 418.571 582.549C416.231 582.129 414.371 580.869 413.231 578.889C412.751 577.989 412.991 576.909 413.891 576.429C414.791 575.949 415.871 576.189 416.351 577.089C417.011 578.109 417.911 578.769 419.111 578.949C420.251 579.129 421.331 578.829 422.291 577.989C423.191 577.149 423.611 576.129 423.491 574.929Z" fill="#B23030"/>
<path d="M444.91 574.57V563.05C444.91 558.73 448.39 555.25 452.71 555.25H456.91V544.81C456.91 543.79 457.69 543.01 458.71 543.01C459.67 543.01 460.51 543.79 460.51 544.81V580.57C460.51 581.59 459.67 582.37 458.71 582.37H452.71C448.39 582.37 444.91 578.89 444.91 574.57ZM448.51 563.05V574.57C448.51 576.91 450.37 578.77 452.71 578.77H456.91V558.85H452.71C450.37 558.85 448.51 560.71 448.51 563.05Z" fill="#B23030"/>
<path d="M468.191 574.81V562.81C468.191 558.49 471.671 555.01 475.991 555.01C480.311 555.01 483.791 558.49 483.791 562.81V568.81C483.791 569.83 483.011 570.61 481.991 570.61H471.791V574.81C471.791 576.49 472.751 578.05 474.371 578.71C475.991 579.37 477.731 579.01 478.931 577.81C479.291 577.45 479.711 577.27 480.191 577.27C480.731 577.27 481.151 577.45 481.511 577.81C481.871 578.11 482.051 578.53 482.051 579.07C482.051 579.55 481.871 579.97 481.511 580.33C479.291 582.55 475.931 583.21 472.991 582.01C470.051 580.81 468.191 577.99 468.191 574.81ZM471.791 562.81V567.01H480.191V562.81C480.191 560.47 478.331 558.61 475.991 558.61C473.651 558.61 471.791 560.47 471.791 562.81Z" fill="#B23030"/>
<path d="M501.791 574.811V562.811C501.791 559.631 503.651 556.811 506.591 555.611C509.531 554.411 512.771 555.071 515.111 557.291C515.411 557.651 515.591 558.071 515.591 558.611C515.591 559.091 515.411 559.511 515.111 559.871C514.751 560.171 514.331 560.351 513.791 560.351C513.311 560.351 512.891 560.171 512.531 559.871C511.331 558.611 509.591 558.251 507.971 558.911C506.351 559.571 505.391 561.131 505.391 562.811V574.811C505.391 576.491 506.351 578.051 507.971 578.711C509.591 579.371 511.331 579.011 512.531 577.811C512.891 577.451 513.311 577.271 513.791 577.271C514.331 577.271 514.751 577.451 515.111 577.811C515.411 578.111 515.591 578.531 515.591 579.071C515.591 579.551 515.411 579.971 515.111 580.331C512.771 582.551 509.531 583.211 506.591 582.011C503.651 580.811 501.791 577.991 501.791 574.811Z" fill="#B23030"/>
<path d="M521.592 547.81C521.592 546.43 522.612 545.41 523.992 545.41C525.372 545.41 526.392 546.43 526.392 547.81C526.392 549.19 525.372 550.21 523.992 550.21C522.612 550.21 521.592 549.19 521.592 547.81ZM523.992 582.61C523.032 582.61 522.192 581.83 522.192 580.81V556.81C522.192 555.79 523.032 555.01 523.992 555.01C525.012 555.01 525.792 555.79 525.792 556.81V580.81C525.792 581.83 525.012 582.61 523.992 582.61Z" fill="#B23030"/>
<path d="M534.191 580.81V557.05C534.191 556.03 534.971 555.25 535.991 555.25H541.991C546.251 555.25 549.791 558.73 549.791 563.05V580.81C549.791 581.83 548.951 582.61 547.991 582.61C546.971 582.61 546.191 581.83 546.191 580.81V563.05C546.191 560.71 544.331 558.85 541.991 558.85H537.791V580.81C537.791 581.83 536.951 582.61 535.991 582.61C534.971 582.61 534.191 581.83 534.191 580.81Z" fill="#B23030"/>
<path d="M556.99 574.809V562.809C556.99 558.489 560.53 555.009 564.79 555.009C569.05 555.009 572.59 558.489 572.59 562.809V568.809C572.59 569.829 571.81 570.609 570.79 570.609H560.59V574.809C560.59 576.489 561.55 578.049 563.17 578.709C564.79 579.369 566.59 579.009 567.79 577.809C568.09 577.449 568.51 577.269 568.99 577.269C569.53 577.269 569.95 577.449 570.31 577.809C570.67 578.109 570.85 578.529 570.85 579.069C570.85 579.549 570.67 579.969 570.31 580.329C568.09 582.549 564.73 583.209 561.85 582.009C558.91 580.809 556.99 577.989 556.99 574.809ZM569.17 543.609C569.83 544.329 569.77 545.469 568.99 546.129L562.99 551.529C562.27 552.189 561.13 552.129 560.47 551.409C559.81 550.689 559.87 549.549 560.59 548.889L566.59 543.489C567.37 542.829 568.45 542.889 569.17 543.609ZM560.59 562.809V567.009H568.99V562.809C568.99 560.469 567.13 558.609 564.79 558.609C562.45 558.609 560.59 560.469 560.59 562.809Z" fill="#B23030"/>
<path d="M583.391 580.81C583.391 581.83 582.551 582.61 581.591 582.61C580.571 582.61 579.791 581.83 579.791 580.81V557.05C579.791 556.03 580.571 555.25 581.591 555.25H599.591C603.851 555.25 607.391 558.73 607.391 563.05V580.81C607.391 581.83 606.551 582.61 605.591 582.61C604.571 582.61 603.791 581.83 603.791 580.81V563.05C603.791 560.71 601.931 558.85 599.591 558.85H595.391V580.81C595.391 581.83 594.551 582.61 593.591 582.61C592.571 582.61 591.791 581.83 591.791 580.81V558.85H583.391V580.81Z" fill="#B23030"/>
<path d="M624.91 562.691C624.91 561.011 623.89 559.571 622.39 558.911C620.77 558.251 619.09 558.611 617.95 559.811C617.59 560.171 617.17 560.351 616.63 560.351C616.15 560.351 615.73 560.171 615.37 559.811C615.01 559.451 614.83 559.031 614.83 558.551C614.83 558.011 615.01 557.591 615.37 557.291C617.59 555.071 620.89 554.411 623.77 555.611C626.65 556.811 628.51 559.571 628.51 562.691V580.571C628.51 581.591 627.67 582.371 626.71 582.371H620.71C616.39 582.371 612.91 578.891 612.91 574.571C612.91 570.251 616.39 566.771 620.71 566.771H624.91V562.691ZM620.71 578.771H624.91V570.371H620.71C618.37 570.371 616.51 572.231 616.51 574.571C616.51 576.911 618.37 578.771 620.71 578.771Z" fill="#B23030"/>
<path d="M985.33 927.73C985.51 926.11 984.91 924.55 983.77 923.41L974.17 913.57C972.31 911.71 971.41 909.13 971.65 906.55C971.83 903.91 973.15 901.57 975.25 899.95C977.35 898.33 979.99 897.73 982.57 898.27C985.15 898.81 987.25 900.31 988.63 902.65C989.17 903.55 988.87 904.75 987.91 905.29C987.01 905.83 985.81 905.47 985.33 904.57C984.55 903.19 983.35 902.35 981.79 902.05C980.23 901.75 978.79 902.05 977.53 903.01C976.27 903.91 975.61 905.17 975.49 906.79C975.37 908.35 975.85 909.73 976.93 910.87L986.53 920.77C988.39 922.69 989.35 925.33 989.17 928.03C988.93 930.73 987.61 933.19 985.45 934.81C983.29 936.43 980.53 937.09 977.89 936.55C975.25 936.01 972.97 934.39 971.59 932.05C971.11 931.09 971.41 929.95 972.31 929.41C973.21 928.87 974.41 929.17 974.95 930.13C975.73 931.51 977.05 932.47 978.67 932.77C980.29 933.07 981.79 932.77 983.11 931.75C984.49 930.73 985.21 929.41 985.33 927.73Z" fill="#B23030"/>
<path d="M995.109 928.81V916.81C995.109 912.49 998.589 909.01 1002.91 909.01C1007.23 909.01 1010.71 912.49 1010.71 916.81V928.81C1010.71 933.13 1007.17 936.61 1002.91 936.61C998.649 936.61 995.109 933.13 995.109 928.81ZM998.709 916.81V928.81C998.709 931.15 1000.57 933.01 1002.91 933.01C1005.25 933.01 1007.11 931.15 1007.11 928.81V916.81C1007.11 914.47 1005.25 912.61 1002.91 912.61C1000.57 912.61 998.709 914.47 998.709 916.81Z" fill="#B23030"/>
<path d="M1017.79 901.81C1017.79 900.43 1018.81 899.41 1020.19 899.41C1021.57 899.41 1022.59 900.43 1022.59 901.81C1022.59 903.19 1021.57 904.21 1020.19 904.21C1018.81 904.21 1017.79 903.19 1017.79 901.81ZM1020.19 936.61C1019.23 936.61 1018.39 935.83 1018.39 934.81V910.81C1018.39 909.79 1019.23 909.01 1020.19 909.01C1021.21 909.01 1021.99 909.79 1021.99 910.81V934.81C1021.99 935.83 1021.21 936.61 1020.19 936.61Z" fill="#B23030"/>
<path d="M1027.75 911.05C1027.75 910.03 1028.53 909.25 1029.55 909.25H1032.55V898.81C1032.55 897.79 1033.33 897.01 1034.35 897.01C1035.37 897.01 1036.15 897.79 1036.15 898.81V909.25H1040.35C1041.37 909.25 1042.15 910.03 1042.15 911.05C1042.15 912.07 1041.37 912.85 1040.35 912.85H1036.15V928.81C1036.15 931.15 1038.01 933.01 1040.35 933.01C1041.37 933.01 1042.15 933.79 1042.15 934.81C1042.15 935.83 1041.37 936.61 1040.35 936.61C1036.03 936.61 1032.55 933.13 1032.55 928.81V912.85H1029.55C1028.53 912.85 1027.75 912.07 1027.75 911.05Z" fill="#B23030"/>
<path d="M1059.19 928.57V910.81C1059.19 909.79 1059.97 909.01 1060.99 909.01C1062.01 909.01 1062.79 909.79 1062.79 910.81V928.57C1062.79 930.91 1064.65 932.77 1066.99 932.77H1071.19V910.81C1071.19 909.79 1071.97 909.01 1072.99 909.01C1074.01 909.01 1074.79 909.79 1074.79 910.81V934.57C1074.79 935.59 1074.01 936.37 1072.99 936.37H1066.99C1062.67 936.37 1059.19 932.89 1059.19 928.57Z" fill="#B23030"/>
<path d="M1083.19 934.81V911.05C1083.19 910.03 1083.97 909.25 1084.99 909.25H1090.99C1095.25 909.25 1098.79 912.73 1098.79 917.05V934.81C1098.79 935.83 1097.95 936.61 1096.99 936.61C1095.97 936.61 1095.19 935.83 1095.19 934.81V917.05C1095.19 914.71 1093.33 912.85 1090.99 912.85H1086.79V934.81C1086.79 935.83 1085.95 936.61 1084.99 936.61C1083.97 936.61 1083.19 935.83 1083.19 934.81Z" fill="#B23030"/>
<path d="M1105.99 928.81V916.81C1105.99 912.49 1109.47 909.01 1113.79 909.01C1118.11 909.01 1121.59 912.49 1121.59 916.81V922.81C1121.59 923.83 1120.81 924.61 1119.79 924.61H1109.59V928.81C1109.59 930.49 1110.55 932.05 1112.17 932.71C1113.79 933.37 1115.53 933.01 1116.73 931.81C1117.09 931.45 1117.51 931.27 1117.99 931.27C1118.53 931.27 1118.95 931.45 1119.31 931.81C1119.67 932.11 1119.85 932.53 1119.85 933.07C1119.85 933.55 1119.67 933.97 1119.31 934.33C1117.09 936.55 1113.73 937.21 1110.79 936.01C1107.85 934.81 1105.99 931.99 1105.99 928.81ZM1109.59 916.81V921.01H1117.99V916.81C1117.99 914.47 1116.13 912.61 1113.79 912.61C1111.45 912.61 1109.59 914.47 1109.59 916.81Z" fill="#B23030"/>
<path d="M1140.31 934.57V898.81C1140.31 897.79 1141.09 897.01 1142.11 897.01C1143.07 897.01 1143.91 897.79 1143.91 898.81V909.25H1148.11C1152.37 909.25 1155.91 912.73 1155.91 917.05V928.57C1155.91 932.89 1152.37 936.37 1148.11 936.37H1142.11C1141.09 936.37 1140.31 935.59 1140.31 934.57ZM1143.91 932.77H1148.11C1150.45 932.77 1152.31 930.91 1152.31 928.57V917.05C1152.31 914.71 1150.45 912.85 1148.11 912.85H1143.91V932.77Z" fill="#B23030"/>
<path d="M1173.19 916.691C1173.19 915.011 1172.17 913.571 1170.67 912.911C1169.05 912.251 1167.37 912.611 1166.23 913.811C1165.87 914.171 1165.45 914.351 1164.91 914.351C1164.43 914.351 1164.01 914.171 1163.65 913.811C1163.29 913.451 1163.11 913.031 1163.11 912.551C1163.11 912.011 1163.29 911.591 1163.65 911.291C1165.87 909.071 1169.17 908.411 1172.05 909.611C1174.93 910.811 1176.79 913.571 1176.79 916.691V934.571C1176.79 935.591 1175.95 936.371 1174.99 936.371H1168.99C1164.67 936.371 1161.19 932.891 1161.19 928.571C1161.19 924.251 1164.67 920.771 1168.99 920.771H1173.19V916.691ZM1168.99 932.771H1173.19V924.371H1168.99C1166.65 924.371 1164.79 926.231 1164.79 928.571C1164.79 930.911 1166.65 932.771 1168.99 932.771Z" fill="#B23030"/>
<path d="M1184.11 901.81C1184.11 900.43 1185.13 899.41 1186.51 899.41C1187.89 899.41 1188.91 900.43 1188.91 901.81C1188.91 903.19 1187.89 904.21 1186.51 904.21C1185.13 904.21 1184.11 903.19 1184.11 901.81ZM1186.51 936.61C1185.55 936.61 1184.71 935.83 1184.71 934.81V910.81C1184.71 909.79 1185.55 909.01 1186.51 909.01C1187.53 909.01 1188.31 909.79 1188.31 910.81V934.81C1188.31 935.83 1187.53 936.61 1186.51 936.61Z" fill="#B23030"/>
<path d="M1205.83 928.929C1205.77 927.729 1205.23 926.769 1204.21 926.049L1198.63 922.089C1196.77 920.829 1195.75 918.849 1195.57 916.689C1195.39 914.469 1196.29 912.369 1197.91 910.929C1199.53 909.429 1201.69 908.769 1203.85 909.069C1206.01 909.489 1207.87 910.689 1209.01 912.609C1209.49 913.509 1209.25 914.589 1208.35 915.069C1207.45 915.549 1206.37 915.309 1205.89 914.409C1205.35 913.449 1204.45 912.849 1203.31 912.669C1202.17 912.489 1201.15 912.789 1200.31 913.569C1199.47 914.349 1199.11 915.309 1199.17 916.449C1199.23 917.589 1199.77 918.489 1200.73 919.149L1206.31 923.049C1208.17 924.429 1209.25 926.349 1209.43 928.689C1209.61 931.029 1208.71 933.129 1207.03 934.629C1205.35 936.249 1203.13 936.849 1200.91 936.549C1198.57 936.129 1196.71 934.869 1195.57 932.889C1195.09 931.989 1195.33 930.909 1196.23 930.429C1197.13 929.949 1198.21 930.189 1198.69 931.089C1199.35 932.109 1200.25 932.769 1201.45 932.949C1202.59 933.129 1203.67 932.829 1204.63 931.989C1205.53 931.149 1205.95 930.129 1205.83 928.929Z" fill="#B23030"/>
<path d="M1225.57 928.929C1225.51 927.729 1224.97 926.769 1223.95 926.049L1218.37 922.089C1216.51 920.829 1215.49 918.849 1215.31 916.689C1215.13 914.469 1216.03 912.369 1217.65 910.929C1219.27 909.429 1221.43 908.769 1223.59 909.069C1225.75 909.489 1227.61 910.689 1228.75 912.609C1229.23 913.509 1228.99 914.589 1228.09 915.069C1227.19 915.549 1226.11 915.309 1225.63 914.409C1225.09 913.449 1224.19 912.849 1223.05 912.669C1221.91 912.489 1220.89 912.789 1220.05 913.569C1219.21 914.349 1218.85 915.309 1218.91 916.449C1218.97 917.589 1219.51 918.489 1220.47 919.149L1226.05 923.049C1227.91 924.429 1228.99 926.349 1229.17 928.689C1229.35 931.029 1228.45 933.129 1226.77 934.629C1225.09 936.249 1222.87 936.849 1220.65 936.549C1218.31 936.129 1216.45 934.869 1215.31 932.889C1214.83 931.989 1215.07 930.909 1215.97 930.429C1216.87 929.949 1217.95 930.189 1218.43 931.089C1219.09 932.109 1219.99 932.769 1221.19 932.949C1222.33 933.129 1223.41 932.829 1224.37 931.989C1225.27 931.149 1225.69 930.129 1225.57 928.929Z" fill="#B23030"/>
<path d="M1235.47 928.81V916.81C1235.47 912.49 1238.95 909.01 1243.27 909.01C1247.59 909.01 1251.07 912.49 1251.07 916.81V922.81C1251.07 923.83 1250.29 924.61 1249.27 924.61H1239.07V928.81C1239.07 930.49 1240.03 932.05 1241.65 932.71C1243.27 933.37 1245.01 933.01 1246.21 931.81C1246.57 931.45 1246.99 931.27 1247.47 931.27C1248.01 931.27 1248.43 931.45 1248.79 931.81C1249.15 932.11 1249.33 932.53 1249.33 933.07C1249.33 933.55 1249.15 933.97 1248.79 934.33C1246.57 936.55 1243.21 937.21 1240.27 936.01C1237.33 934.81 1235.47 931.99 1235.47 928.81ZM1239.07 916.81V921.01H1247.47V916.81C1247.47 914.47 1245.61 912.61 1243.27 912.61C1240.93 912.61 1239.07 914.47 1239.07 916.81Z" fill="#B23030"/>
<path d="M1269.07 928.57V917.05C1269.07 912.73 1272.55 909.25 1276.87 909.25H1281.07V898.81C1281.07 897.79 1281.85 897.01 1282.87 897.01C1283.83 897.01 1284.67 897.79 1284.67 898.81V934.57C1284.67 935.59 1283.83 936.37 1282.87 936.37H1276.87C1272.55 936.37 1269.07 932.89 1269.07 928.57ZM1272.67 917.05V928.57C1272.67 930.91 1274.53 932.77 1276.87 932.77H1281.07V912.85H1276.87C1274.53 912.85 1272.67 914.71 1272.67 917.05Z" fill="#B23030"/>
<path d="M1292.35 928.81V916.81C1292.35 912.49 1295.83 909.01 1300.15 909.01C1304.47 909.01 1307.95 912.49 1307.95 916.81V922.81C1307.95 923.83 1307.17 924.61 1306.15 924.61H1295.95V928.81C1295.95 930.49 1296.91 932.05 1298.53 932.71C1300.15 933.37 1301.89 933.01 1303.09 931.81C1303.45 931.45 1303.87 931.27 1304.35 931.27C1304.89 931.27 1305.31 931.45 1305.67 931.81C1306.03 932.11 1306.21 932.53 1306.21 933.07C1306.21 933.55 1306.03 933.97 1305.67 934.33C1303.45 936.55 1300.09 937.21 1297.15 936.01C1294.21 934.81 1292.35 931.99 1292.35 928.81ZM1295.95 916.81V921.01H1304.35V916.81C1304.35 914.47 1302.49 912.61 1300.15 912.61C1297.81 912.61 1295.95 914.47 1295.95 916.81Z" fill="#B23030"/>
</svg>
