<svg width="1920" height="1080" viewBox="0 0 1920 1080" fill="none" xmlns="http://www.w3.org/2000/svg">
<path d="M1920 0H0V1080H1920V0Z" fill="#5BC8D6"/>
<path d="M153 233.5C153 229.358 149.642 226 145.5 226C141.358 226 138 229.358 138 233.5V309.5C138 313.642 141.358 317 145.5 317C149.642 317 153 313.642 153 309.5V233.5Z" fill="#6FE6EF"/>
<path d="M225 109.5C225 105.358 221.642 102 217.5 102C213.358 102 210 105.358 210 109.5V262.5C210 266.642 213.358 270 217.5 270C221.642 270 225 266.642 225 262.5V109.5Z" fill="#6FE6EF"/>
<path d="M323 661.5C323 657.358 319.642 654 315.5 654C311.358 654 308 657.358 308 661.5V814.5C308 818.642 311.358 822 315.5 822C319.642 822 323 818.642 323 814.5V661.5Z" fill="#6FE6EF"/>
<path d="M429 442.5C429 438.358 425.642 435 421.5 435C417.358 435 414 438.358 414 442.5V550.5C414 554.642 417.358 558 421.5 558C425.642 558 429 554.642 429 550.5V442.5Z" fill="#6FE6EF"/>
<path d="M1388 138.5C1388 134.358 1384.64 131 1380.5 131C1376.36 131 1373 134.358 1373 138.5V209.5C1373 213.642 1376.36 217 1380.5 217C1384.64 217 1388 213.642 1388 209.5V138.5Z" fill="#6FE6EF"/>
<path d="M1481 86.5C1481 82.3579 1477.64 79 1473.5 79C1469.36 79 1466 82.3579 1466 86.5V110.5C1466 114.642 1469.36 118 1473.5 118C1477.64 118 1481 114.642 1481 110.5V86.5Z" fill="#6FE6EF"/>
<path d="M1843 510.5C1843 506.358 1839.64 503 1835.5 503C1831.36 503 1828 506.358 1828 510.5V713.5C1828 717.642 1831.36 721 1835.5 721C1839.64 721 1843 717.642 1843 713.5V510.5Z" fill="#6FE6EF"/>
<path d="M1740 534.5C1740 530.358 1736.64 527 1732.5 527C1728.36 527 1725 530.358 1725 534.5V575.5C1725 579.642 1728.36 583 1732.5 583C1736.64 583 1740 579.642 1740 575.5V534.5Z" fill="#6FE6EF"/>
<path d="M75 842.5C75 838.358 71.6421 835 67.5 835C63.3579 835 60 838.358 60 842.5V971.5C60 975.642 63.3579 979 67.5 979C71.6421 979 75 975.642 75 971.5V842.5Z" fill="#6FE6EF"/>
<path d="M1664 917.5C1664 913.358 1660.64 910 1656.5 910C1652.36 910 1649 913.358 1649 917.5V958.5C1649 962.642 1652.36 966 1656.5 966C1660.64 966 1664 962.642 1664 958.5V917.5Z" fill="#6FE6EF"/>
<path d="M1481 686.5C1481 682.358 1477.64 679 1473.5 679C1469.36 679 1466 682.358 1466 686.5V824.5C1466 828.642 1469.36 832 1473.5 832C1477.64 832 1481 828.642 1481 824.5V686.5Z" fill="#6FE6EF"/>
<path d="M1519 627.5C1519 623.358 1515.64 620 1511.5 620C1507.36 620 1504 623.358 1504 627.5V696.5C1504 700.642 1507.36 704 1511.5 704C1515.64 704 1519 700.642 1519 696.5V627.5Z" fill="#6FE6EF"/>
<path d="M1725 174.5C1725 170.358 1721.64 167 1717.5 167C1713.36 167 1710 170.358 1710 174.5V243.5C1710 247.642 1713.36 251 1717.5 251C1721.64 251 1725 247.642 1725 243.5V174.5Z" fill="#6FE6EF"/>
<path d="M404 574.5C404 570.358 400.642 567 396.5 567C392.358 567 389 570.358 389 574.5V612.5C389 616.642 392.358 620 396.5 620C400.642 620 404 616.642 404 612.5V574.5Z" fill="#6FE6EF"/>
<path d="M289.941 121.68C293.361 124.94 295.961 128.76 297.751 133.15C299.701 137.71 300.681 142.43 300.681 147.31V259.61H300.441C300.111 263.19 299.221 266.69 297.751 270.11C295.961 274.5 293.361 278.33 289.941 281.58C287.501 284.02 285.791 285.49 284.811 285.97C281.551 288.25 274.391 293.78 263.331 302.57C262.841 302.9 262.271 303.63 261.621 304.77L261.131 306.97L260.891 435.39H267.241L267.001 308.44H300.451V466.15H227.701L227.461 311.85H227.701V306.97C227.701 301.76 228.681 296.96 230.631 292.57C231.441 290.62 232.421 288.75 233.561 286.95L238.441 281.09C242.351 276.86 251.541 269.29 266.031 258.38C266.351 258.22 266.601 257.89 266.761 257.4C267.081 256.59 267.251 256.1 267.251 255.94V147.3C267.251 145.51 266.271 144.45 264.321 144.13C262.691 144.13 261.631 145.19 261.151 147.3V251.06H227.701V147.3C227.701 142.42 228.681 137.7 230.631 133.14C232.581 128.75 235.181 124.92 238.441 121.67C241.861 118.25 245.761 115.65 250.161 113.86C254.711 111.91 259.441 110.93 264.321 110.93C269.201 110.93 273.921 111.91 278.481 113.86C282.871 115.65 286.701 118.25 289.951 121.67L289.941 121.68Z" fill="#2097A0"/>
<path d="M393.751 115.82V384.62H401.321V415.38H393.751V466.41H360.301V415.38H317.581V384.86L334.671 115.82H393.751ZM360.551 251.07L366.171 146.33H363.971L350.791 384.61H360.311V251.07H360.551Z" fill="#2097A0"/>
<path d="M474.851 264.74C471.761 267.83 468.261 270.2 464.351 271.82C460.121 273.61 455.811 274.51 451.411 274.51C447.011 274.51 442.701 273.62 438.471 271.82C434.561 270.2 431.061 267.83 427.971 264.74C424.881 261.65 422.511 258.15 420.891 254.24C419.101 250.01 418.201 245.7 418.201 241.3V144.13C418.201 139.74 419.091 135.42 420.891 131.19C422.511 127.28 424.881 123.79 427.971 120.69C431.061 117.76 434.561 115.4 438.471 113.61C442.701 111.99 447.011 111.17 451.411 111.17C455.811 111.17 460.121 111.99 464.351 113.61C468.261 115.4 471.751 117.76 474.851 120.69C477.781 123.78 480.141 127.28 481.931 131.19C483.721 135.42 484.621 139.73 484.621 144.13V241.3C484.621 245.69 483.721 250.01 481.931 254.24C480.141 258.15 477.781 261.65 474.851 264.74ZM454.101 241.31V144.14C454.101 142.68 453.201 141.78 451.411 141.45C449.781 141.45 448.801 142.35 448.481 144.14V241.31C448.481 242.77 449.461 243.75 451.411 244.24C452.871 244.24 453.771 243.26 454.101 241.31ZM507.321 115.33H530.271L482.421 466.16H459.471L507.321 115.33ZM561.771 317.23C564.861 320.32 567.221 323.82 568.851 327.73C570.641 331.96 571.541 336.27 571.541 340.67V437.84C571.541 442.23 570.641 446.55 568.851 450.78C567.221 454.69 564.861 458.19 561.771 461.28C558.841 464.21 555.341 466.57 551.271 468.36C547.041 470.15 542.731 471.05 538.331 471.05C533.931 471.05 529.621 470.15 525.391 468.36C521.481 466.57 517.981 464.21 514.891 461.28C511.961 458.19 509.601 454.69 507.811 450.78C506.021 446.55 505.121 442.24 505.121 437.84V340.67C505.121 336.28 506.011 331.96 507.811 327.73C509.601 323.82 511.961 320.33 514.891 317.23C517.981 314.3 521.481 311.94 525.391 310.15C529.621 308.36 533.931 307.46 538.331 307.46C542.731 307.46 547.041 308.36 551.271 310.15C555.341 311.94 558.841 314.3 561.771 317.23ZM541.261 437.84V340.67C541.261 339.21 540.281 338.31 538.331 337.98C536.871 337.98 535.891 338.88 535.401 340.67V437.84C535.401 439.3 536.381 440.2 538.331 440.53C539.791 440.53 540.771 439.64 541.261 437.84Z" fill="#2097A0"/>
<path d="M250.181 514.54V534.46C250.181 539.5 246.101 543.58 241.061 543.58H233.861C232.721 543.58 231.941 542.8 231.941 541.66V507.34C231.941 506.2 232.721 505.42 233.861 505.42H241.061C246.101 505.42 250.181 509.5 250.181 514.54ZM241.061 509.26H235.781V539.74H241.061C244.001 539.74 246.341 537.4 246.341 534.46V514.54C246.341 511.66 244.001 509.26 241.061 509.26Z" fill="#2097A0"/>
<path d="M257.021 535.9V523.9C257.021 519.58 260.501 516.1 264.821 516.1C269.141 516.1 272.621 519.58 272.621 523.9V529.9C272.621 530.92 271.841 531.7 270.821 531.7H260.621V535.9C260.621 537.58 261.581 539.14 263.201 539.8C264.821 540.46 266.561 540.1 267.761 538.9C268.121 538.54 268.541 538.36 269.021 538.36C269.561 538.36 269.981 538.54 270.341 538.9C270.701 539.2 270.881 539.62 270.881 540.16C270.881 540.64 270.701 541.06 270.341 541.42C268.121 543.64 264.761 544.3 261.821 543.1C258.881 541.9 257.021 539.08 257.021 535.9ZM260.621 523.9V528.1H269.021V523.9C269.021 521.56 267.161 519.7 264.821 519.7C262.481 519.7 260.621 521.56 260.621 523.9Z" fill="#2097A0"/>
<path d="M288.701 518.14C288.701 517.12 289.481 516.34 290.501 516.34H293.501V511.9C293.501 507.58 296.981 504.1 301.301 504.1C302.321 504.1 303.101 504.88 303.101 505.9C303.101 506.92 302.321 507.7 301.301 507.7C298.961 507.7 297.101 509.56 297.101 511.9V516.34H301.301C302.321 516.34 303.101 517.12 303.101 518.14C303.101 519.16 302.321 519.94 301.301 519.94H297.101V541.9C297.101 542.92 296.321 543.7 295.301 543.7C294.281 543.7 293.501 542.92 293.501 541.9V519.94H290.501C289.481 519.94 288.701 519.16 288.701 518.14Z" fill="#2097A0"/>
<path d="M309.101 541.9V518.14C309.101 517.12 309.881 516.34 310.901 516.34H316.901C318.281 516.34 319.541 516.7 320.801 517.36C321.701 517.9 321.941 518.92 321.461 519.82C320.981 520.72 319.901 521.02 319.001 520.48C318.341 520.12 317.621 519.94 316.901 519.94H312.701V541.9C312.701 542.92 311.921 543.7 310.901 543.7C309.881 543.7 309.101 542.92 309.101 541.9Z" fill="#2097A0"/>
<path d="M326.321 535.899V523.899C326.321 519.579 329.861 516.099 334.121 516.099C338.381 516.099 341.921 519.579 341.921 523.899V529.899C341.921 530.919 341.141 531.699 340.121 531.699H329.921V535.899C329.921 537.579 330.881 539.139 332.501 539.799C334.121 540.459 335.921 540.099 337.121 538.899C337.421 538.539 337.841 538.359 338.321 538.359C338.861 538.359 339.281 538.539 339.641 538.899C340.001 539.199 340.181 539.619 340.181 540.159C340.181 540.639 340.001 541.059 339.641 541.419C337.421 543.639 334.061 544.299 331.181 543.099C328.241 541.899 326.321 539.079 326.321 535.899ZM338.501 504.709C339.161 505.429 339.101 506.569 338.321 507.229L332.321 512.629C331.601 513.289 330.461 513.229 329.801 512.509C329.141 511.789 329.201 510.649 329.921 509.989L335.921 504.589C336.701 503.929 337.781 503.989 338.501 504.709ZM329.921 523.899V528.099H338.321V523.899C338.321 521.559 336.461 519.699 334.121 519.699C331.781 519.699 329.921 521.559 329.921 523.899Z" fill="#2097A0"/>
<path d="M348.401 535.66V524.14C348.401 519.82 351.881 516.34 356.201 516.34H362.201C363.161 516.34 364.001 517.12 364.001 518.14V553.9C364.001 554.92 363.161 555.7 362.201 555.7C361.181 555.7 360.401 554.92 360.401 553.9V543.46H356.201C351.881 543.46 348.401 539.98 348.401 535.66ZM352.001 524.14V535.66C352.001 538 353.861 539.86 356.201 539.86H360.401V519.94H356.201C353.861 519.94 352.001 521.8 352.001 524.14Z" fill="#2097A0"/>
<path d="M371.921 535.66V517.9C371.921 516.88 372.701 516.1 373.721 516.1C374.741 516.1 375.521 516.88 375.521 517.9V535.66C375.521 538 377.381 539.86 379.721 539.86H383.921V517.9C383.921 516.88 384.701 516.1 385.721 516.1C386.741 516.1 387.521 516.88 387.521 517.9V541.66C387.521 542.68 386.741 543.46 385.721 543.46H379.721C375.401 543.46 371.921 539.98 371.921 535.66Z" fill="#2097A0"/>
<path d="M395.201 535.9V523.9C395.201 519.58 398.681 516.1 403.001 516.1C407.321 516.1 410.801 519.58 410.801 523.9V529.9C410.801 530.92 410.021 531.7 409.001 531.7H398.801V535.9C398.801 537.58 399.761 539.14 401.381 539.8C403.001 540.46 404.741 540.1 405.941 538.9C406.301 538.54 406.721 538.36 407.201 538.36C407.741 538.36 408.161 538.54 408.521 538.9C408.881 539.2 409.061 539.62 409.061 540.16C409.061 540.64 408.881 541.06 408.521 541.42C406.301 543.64 402.941 544.3 400.001 543.1C397.061 541.9 395.201 539.08 395.201 535.9ZM398.801 523.9V528.1H407.201V523.9C407.201 521.56 405.341 519.7 403.001 519.7C400.661 519.7 398.801 521.56 398.801 523.9Z" fill="#2097A0"/>
<path d="M418.001 541.9V518.14C418.001 517.12 418.781 516.34 419.801 516.34H425.801C430.061 516.34 433.601 519.82 433.601 524.14V541.9C433.601 542.92 432.761 543.7 431.801 543.7C430.781 543.7 430.001 542.92 430.001 541.9V524.14C430.001 521.8 428.141 519.94 425.801 519.94H421.601V541.9C421.601 542.92 420.761 543.7 419.801 543.7C418.781 543.7 418.001 542.92 418.001 541.9Z" fill="#2097A0"/>
<path d="M438.881 518.14C438.881 517.12 439.661 516.34 440.681 516.34H443.681V505.9C443.681 504.88 444.461 504.1 445.481 504.1C446.501 504.1 447.281 504.88 447.281 505.9V516.34H451.481C452.501 516.34 453.281 517.12 453.281 518.14C453.281 519.16 452.501 519.94 451.481 519.94H447.281V535.9C447.281 538.24 449.141 540.1 451.481 540.1C452.501 540.1 453.281 540.88 453.281 541.9C453.281 542.92 452.501 543.7 451.481 543.7C447.161 543.7 443.681 540.22 443.681 535.9V519.94H440.681C439.661 519.94 438.881 519.16 438.881 518.14Z" fill="#2097A0"/>
<path d="M468.881 523.781C468.881 522.101 467.861 520.661 466.361 520.001C464.741 519.341 463.061 519.701 461.921 520.901C461.561 521.261 461.141 521.44 460.601 521.44C460.121 521.44 459.701 521.261 459.341 520.901C458.981 520.541 458.801 520.121 458.801 519.641C458.801 519.101 458.981 518.681 459.341 518.381C461.561 516.161 464.861 515.5 467.741 516.7C470.621 517.9 472.481 520.661 472.481 523.781V541.661C472.481 542.681 471.641 543.461 470.681 543.461H464.681C460.361 543.461 456.881 539.981 456.881 535.661C456.881 531.341 460.361 527.861 464.681 527.861H468.881V523.781ZM464.681 539.861H468.881V531.461H464.681C462.341 531.461 460.481 533.321 460.481 535.661C460.481 538.001 462.341 539.861 464.681 539.861Z" fill="#2097A0"/>
<path d="M477.751 518.14C477.751 517.12 478.531 516.34 479.551 516.34H482.551V505.9C482.551 504.88 483.331 504.1 484.351 504.1C485.371 504.1 486.151 504.88 486.151 505.9V516.34H490.351C491.371 516.34 492.151 517.12 492.151 518.14C492.151 519.16 491.371 519.94 490.351 519.94H486.151V535.9C486.151 538.24 488.011 540.1 490.351 540.1C491.371 540.1 492.151 540.88 492.151 541.9C492.151 542.92 491.371 543.7 490.351 543.7C486.031 543.7 482.551 540.22 482.551 535.9V519.94H479.551C478.531 519.94 477.751 519.16 477.751 518.14Z" fill="#2097A0"/>
<path d="M497.551 508.9C497.551 507.52 498.571 506.5 499.951 506.5C501.331 506.5 502.351 507.52 502.351 508.9C502.351 510.28 501.331 511.3 499.951 511.3C498.571 511.3 497.551 510.28 497.551 508.9ZM499.961 543.7C499.001 543.7 498.161 542.92 498.161 541.9V517.9C498.161 516.88 499.001 516.1 499.961 516.1C500.981 516.1 501.761 516.88 501.761 517.9V541.9C501.761 542.92 500.981 543.7 499.961 543.7Z" fill="#2097A0"/>
<path d="M509.431 535.9V523.9C509.431 519.58 512.911 516.1 517.231 516.1C521.551 516.1 525.031 519.58 525.031 523.9V535.9C525.031 540.22 521.491 543.7 517.231 543.7C512.971 543.7 509.431 540.22 509.431 535.9ZM513.041 523.9V535.9C513.041 538.24 514.901 540.1 517.241 540.1C519.581 540.1 521.441 538.24 521.441 535.9V523.9C521.441 521.56 519.581 519.7 517.241 519.7C514.901 519.7 513.041 521.56 513.041 523.9Z" fill="#2097A0"/>
<path d="M532.711 541.9V518.14C532.711 517.12 533.491 516.34 534.511 516.34H540.511C544.771 516.34 548.311 519.82 548.311 524.14V541.9C548.311 542.92 547.471 543.7 546.511 543.7C545.491 543.7 544.711 542.92 544.711 541.9V524.14C544.711 521.8 542.851 519.94 540.511 519.94H536.311V541.9C536.311 542.92 535.471 543.7 534.511 543.7C533.491 543.7 532.711 542.92 532.711 541.9Z" fill="#2097A0"/>
<path d="M241.661 595.781C241.661 594.101 240.641 592.661 239.141 592.001C237.521 591.341 235.841 591.701 234.701 592.901C234.341 593.261 233.921 593.44 233.381 593.44C232.901 593.44 232.481 593.261 232.121 592.901C231.761 592.541 231.581 592.121 231.581 591.641C231.581 591.101 231.761 590.681 232.121 590.381C234.341 588.161 237.641 587.5 240.521 588.7C243.401 589.9 245.261 592.661 245.261 595.781V613.661C245.261 614.681 244.421 615.461 243.461 615.461H237.461C233.141 615.461 229.661 611.981 229.661 607.661C229.661 603.341 233.141 599.861 237.461 599.861H241.661V595.781ZM237.461 611.861H241.661V603.461H237.461C235.121 603.461 233.261 605.321 233.261 607.661C233.261 610.001 235.121 611.861 237.461 611.861Z" fill="#2097A0"/>
<path d="M252.701 607.66V589.9C252.701 588.88 253.481 588.1 254.501 588.1C255.521 588.1 256.301 588.88 256.301 589.9V607.66C256.301 610 258.161 611.86 260.501 611.86H264.701V589.9C264.701 588.88 265.481 588.1 266.501 588.1C267.521 588.1 268.301 588.88 268.301 589.9V613.66C268.301 614.68 267.521 615.46 266.501 615.46H260.501C256.181 615.46 252.701 611.98 252.701 607.66Z" fill="#2097A0"/>
<path d="M291.821 613.9C291.821 614.92 290.981 615.7 290.021 615.7C289.001 615.7 288.221 614.92 288.221 613.9V590.14C288.221 589.12 289.001 588.34 290.021 588.34H308.021C312.281 588.34 315.821 591.82 315.821 596.14V613.9C315.821 614.92 314.981 615.7 314.021 615.7C313.001 615.7 312.221 614.92 312.221 613.9V596.14C312.221 593.8 310.361 591.94 308.021 591.94H303.821V613.9C303.821 614.92 302.981 615.7 302.021 615.7C301.001 615.7 300.221 614.92 300.221 613.9V591.94H291.821V613.9Z" fill="#2097A0"/>
<path d="M323.261 607.66V589.9C323.261 588.88 324.041 588.1 325.061 588.1C326.081 588.1 326.861 588.88 326.861 589.9V607.66C326.861 610 328.721 611.86 331.061 611.86H335.261V589.9C335.261 588.88 336.041 588.1 337.061 588.1C338.081 588.1 338.861 588.88 338.861 589.9V613.66C338.861 614.68 338.081 615.46 337.061 615.46H331.061C326.741 615.46 323.261 611.98 323.261 607.66Z" fill="#2097A0"/>
<path d="M356.381 608.021C356.321 606.821 355.781 605.861 354.761 605.141L349.181 601.181C347.321 599.921 346.301 597.941 346.121 595.781C345.941 593.561 346.841 591.461 348.461 590.021C350.081 588.521 352.241 587.861 354.401 588.161C356.561 588.581 358.421 589.781 359.561 591.701C360.041 592.601 359.801 593.681 358.901 594.161C358.001 594.641 356.921 594.401 356.441 593.501C355.901 592.541 355.001 591.941 353.861 591.761C352.721 591.581 351.701 591.881 350.861 592.661C350.021 593.441 349.661 594.401 349.721 595.541C349.781 596.681 350.321 597.581 351.281 598.241L356.861 602.141C358.721 603.521 359.801 605.441 359.981 607.781C360.161 610.121 359.261 612.221 357.581 613.721C355.901 615.341 353.681 615.941 351.461 615.641C349.121 615.221 347.261 613.961 346.121 611.981C345.641 611.081 345.881 610.001 346.781 609.521C347.681 609.041 348.761 609.281 349.241 610.181C349.901 611.201 350.801 611.861 352.001 612.041C353.141 612.221 354.221 611.921 355.181 611.081C356.081 610.241 356.501 609.221 356.381 608.021Z" fill="#2097A0"/>
<path d="M366.281 607.899V595.899C366.281 591.579 369.821 588.099 374.081 588.099C378.341 588.099 381.881 591.579 381.881 595.899V601.899C381.881 602.919 381.101 603.699 380.081 603.699H369.881V607.899C369.881 609.579 370.841 611.139 372.461 611.799C374.081 612.459 375.881 612.099 377.081 610.899C377.381 610.539 377.801 610.359 378.281 610.359C378.821 610.359 379.241 610.539 379.601 610.899C379.961 611.199 380.141 611.619 380.141 612.159C380.141 612.639 379.961 613.059 379.601 613.419C377.381 615.639 374.021 616.299 371.141 615.099C368.201 613.899 366.281 611.079 366.281 607.899ZM378.461 576.709C379.121 577.429 379.061 578.569 378.281 579.229L372.281 584.629C371.561 585.289 370.421 585.229 369.761 584.509C369.101 583.789 369.161 582.649 369.881 581.989L375.881 576.589C376.661 575.929 377.741 575.989 378.461 576.709ZM369.881 595.899V600.099H378.281V595.899C378.281 593.559 376.421 591.699 374.081 591.699C371.741 591.699 369.881 593.559 369.881 595.899Z" fill="#2097A0"/>
<path d="M388.361 607.9V595.9C388.361 591.58 391.841 588.1 396.161 588.1C400.481 588.1 403.961 591.58 403.961 595.9V601.9C403.961 602.92 403.181 603.7 402.161 603.7H391.961V607.9C391.961 609.58 392.921 611.14 394.541 611.8C396.161 612.46 397.901 612.1 399.101 610.9C399.461 610.54 399.881 610.36 400.361 610.36C400.901 610.36 401.321 610.54 401.681 610.9C402.041 611.2 402.221 611.62 402.221 612.16C402.221 612.64 402.041 613.06 401.681 613.42C399.461 615.64 396.101 616.3 393.161 615.1C390.221 613.9 388.361 611.08 388.361 607.9ZM391.961 595.9V600.1H400.361V595.9C400.361 593.56 398.501 591.7 396.161 591.7C393.821 591.7 391.961 593.56 391.961 595.9Z" fill="#2097A0"/>
<path d="M985.481 953.819C985.661 952.199 985.061 950.639 983.921 949.499L974.321 939.66C972.461 937.8 971.561 935.22 971.801 932.64C971.981 930 973.301 927.66 975.401 926.04C977.501 924.42 980.141 923.819 982.721 924.359C985.301 924.899 987.401 926.399 988.781 928.739C989.321 929.639 989.021 930.839 988.061 931.379C987.161 931.919 985.961 931.56 985.481 930.66C984.701 929.28 983.501 928.44 981.941 928.14C980.381 927.84 978.941 928.139 977.681 929.099C976.421 929.999 975.761 931.259 975.641 932.879C975.521 934.439 976.001 935.819 977.081 936.959L986.681 946.859C988.541 948.779 989.501 951.419 989.321 954.119C989.081 956.819 987.761 959.28 985.601 960.9C983.441 962.52 980.681 963.18 978.041 962.64C975.401 962.1 973.121 960.48 971.741 958.14C971.261 957.18 971.561 956.039 972.461 955.499C973.361 954.959 974.561 955.259 975.101 956.219C975.881 957.599 977.201 958.559 978.821 958.859C980.441 959.159 981.941 958.859 983.261 957.839C984.641 956.819 985.361 955.499 985.481 953.819Z" fill="#2097A0"/>
<path d="M995.261 954.9V942.9C995.261 938.58 998.741 935.1 1003.06 935.1C1007.38 935.1 1010.86 938.58 1010.86 942.9V954.9C1010.86 959.22 1007.32 962.7 1003.06 962.7C998.801 962.7 995.261 959.22 995.261 954.9ZM998.861 942.9V954.9C998.861 957.24 1000.72 959.1 1003.06 959.1C1005.4 959.1 1007.26 957.24 1007.26 954.9V942.9C1007.26 940.56 1005.4 938.7 1003.06 938.7C1000.72 938.7 998.861 940.56 998.861 942.9Z" fill="#2097A0"/>
<path d="M1017.94 927.9C1017.94 926.52 1018.96 925.5 1020.34 925.5C1021.72 925.5 1022.74 926.52 1022.74 927.9C1022.74 929.28 1021.72 930.3 1020.34 930.3C1018.96 930.3 1017.94 929.28 1017.94 927.9ZM1020.34 962.7C1019.38 962.7 1018.54 961.92 1018.54 960.9V936.9C1018.54 935.88 1019.38 935.1 1020.34 935.1C1021.36 935.1 1022.14 935.88 1022.14 936.9V960.9C1022.14 961.92 1021.36 962.7 1020.34 962.7Z" fill="#2097A0"/>
<path d="M1027.9 937.14C1027.9 936.12 1028.68 935.34 1029.7 935.34H1032.7V924.9C1032.7 923.88 1033.48 923.1 1034.5 923.1C1035.52 923.1 1036.3 923.88 1036.3 924.9V935.34H1040.5C1041.52 935.34 1042.3 936.12 1042.3 937.14C1042.3 938.16 1041.52 938.94 1040.5 938.94H1036.3V954.9C1036.3 957.24 1038.16 959.1 1040.5 959.1C1041.52 959.1 1042.3 959.88 1042.3 960.9C1042.3 961.92 1041.52 962.7 1040.5 962.7C1036.18 962.7 1032.7 959.22 1032.7 954.9V938.94H1029.7C1028.68 938.94 1027.9 938.16 1027.9 937.14Z" fill="#2097A0"/>
<path d="M1059.34 954.66V936.9C1059.34 935.88 1060.12 935.1 1061.14 935.1C1062.16 935.1 1062.94 935.88 1062.94 936.9V954.66C1062.94 957 1064.8 958.86 1067.14 958.86H1071.34V936.9C1071.34 935.88 1072.12 935.1 1073.14 935.1C1074.16 935.1 1074.94 935.88 1074.94 936.9V960.66C1074.94 961.68 1074.16 962.46 1073.14 962.46H1067.14C1062.82 962.46 1059.34 958.98 1059.34 954.66Z" fill="#2097A0"/>
<path d="M1083.34 960.9V937.14C1083.34 936.12 1084.12 935.34 1085.14 935.34H1091.14C1095.4 935.34 1098.94 938.82 1098.94 943.14V960.9C1098.94 961.92 1098.1 962.7 1097.14 962.7C1096.12 962.7 1095.34 961.92 1095.34 960.9V943.14C1095.34 940.8 1093.48 938.94 1091.14 938.94H1086.94V960.9C1086.94 961.92 1086.1 962.7 1085.14 962.7C1084.12 962.7 1083.34 961.92 1083.34 960.9Z" fill="#2097A0"/>
<path d="M1106.14 954.9V942.9C1106.14 938.58 1109.62 935.1 1113.94 935.1C1118.26 935.1 1121.74 938.58 1121.74 942.9V948.9C1121.74 949.92 1120.96 950.7 1119.94 950.7H1109.74V954.9C1109.74 956.58 1110.7 958.14 1112.32 958.8C1113.94 959.46 1115.68 959.1 1116.88 957.9C1117.24 957.54 1117.66 957.36 1118.14 957.36C1118.68 957.36 1119.1 957.54 1119.46 957.9C1119.82 958.2 1120 958.62 1120 959.16C1120 959.64 1119.82 960.06 1119.46 960.42C1117.24 962.64 1113.88 963.3 1110.94 962.1C1108 960.9 1106.14 958.08 1106.14 954.9ZM1109.74 942.9V947.1H1118.14V942.9C1118.14 940.56 1116.28 938.7 1113.94 938.7C1111.6 938.7 1109.74 940.56 1109.74 942.9Z" fill="#2097A0"/>
<path d="M1140.46 960.66V924.9C1140.46 923.88 1141.24 923.1 1142.26 923.1C1143.22 923.1 1144.06 923.88 1144.06 924.9V935.34H1148.26C1152.52 935.34 1156.06 938.82 1156.06 943.14V954.66C1156.06 958.98 1152.52 962.46 1148.26 962.46H1142.26C1141.24 962.46 1140.46 961.68 1140.46 960.66ZM1144.06 958.86H1148.26C1150.6 958.86 1152.46 957 1152.46 954.66V943.14C1152.46 940.8 1150.6 938.94 1148.26 938.94H1144.06V958.86Z" fill="#2097A0"/>
<path d="M1173.33 942.781C1173.33 941.101 1172.31 939.661 1170.81 939.001C1169.19 938.341 1167.51 938.701 1166.37 939.901C1166.01 940.261 1165.59 940.44 1165.05 940.44C1164.57 940.44 1164.15 940.261 1163.79 939.901C1163.43 939.541 1163.25 939.121 1163.25 938.641C1163.25 938.101 1163.43 937.681 1163.79 937.381C1166.01 935.161 1169.31 934.5 1172.19 935.7C1175.07 936.9 1176.93 939.661 1176.93 942.781V960.661C1176.93 961.681 1176.09 962.461 1175.13 962.461H1169.13C1164.81 962.461 1161.33 958.981 1161.33 954.661C1161.33 950.341 1164.81 946.861 1169.13 946.861H1173.33V942.781ZM1169.13 958.861H1173.33V950.461H1169.13C1166.79 950.461 1164.93 952.321 1164.93 954.661C1164.93 957.001 1166.79 958.861 1169.13 958.861Z" fill="#2097A0"/>
<path d="M1184.25 927.9C1184.25 926.52 1185.27 925.5 1186.65 925.5C1188.03 925.5 1189.05 926.52 1189.05 927.9C1189.05 929.28 1188.03 930.3 1186.65 930.3C1185.27 930.3 1184.25 929.28 1184.25 927.9ZM1186.65 962.7C1185.69 962.7 1184.85 961.92 1184.85 960.9V936.9C1184.85 935.88 1185.69 935.1 1186.65 935.1C1187.67 935.1 1188.45 935.88 1188.45 936.9V960.9C1188.45 961.92 1187.67 962.7 1186.65 962.7Z" fill="#2097A0"/>
<path d="M1205.97 955.021C1205.91 953.821 1205.37 952.861 1204.35 952.141L1198.77 948.181C1196.91 946.921 1195.89 944.941 1195.71 942.781C1195.53 940.561 1196.43 938.461 1198.05 937.021C1199.67 935.521 1201.83 934.861 1203.99 935.161C1206.15 935.581 1208.01 936.781 1209.15 938.701C1209.63 939.601 1209.39 940.681 1208.49 941.161C1207.59 941.641 1206.51 941.401 1206.03 940.501C1205.49 939.541 1204.59 938.941 1203.45 938.761C1202.31 938.581 1201.29 938.881 1200.45 939.661C1199.61 940.441 1199.25 941.401 1199.31 942.541C1199.37 943.681 1199.91 944.581 1200.87 945.241L1206.45 949.141C1208.31 950.521 1209.39 952.441 1209.57 954.781C1209.75 957.121 1208.85 959.221 1207.17 960.721C1205.49 962.341 1203.27 962.941 1201.05 962.641C1198.71 962.221 1196.85 960.961 1195.71 958.981C1195.23 958.081 1195.47 957.001 1196.37 956.521C1197.27 956.041 1198.35 956.281 1198.83 957.181C1199.49 958.201 1200.39 958.861 1201.59 959.041C1202.73 959.221 1203.81 958.921 1204.77 958.081C1205.67 957.241 1206.09 956.221 1205.97 955.021Z" fill="#2097A0"/>
<path d="M1225.71 955.021C1225.65 953.821 1225.11 952.861 1224.09 952.141L1218.51 948.181C1216.65 946.921 1215.63 944.941 1215.45 942.781C1215.27 940.561 1216.17 938.461 1217.79 937.021C1219.41 935.521 1221.57 934.861 1223.73 935.161C1225.89 935.581 1227.75 936.781 1228.89 938.701C1229.37 939.601 1229.13 940.681 1228.23 941.161C1227.33 941.641 1226.25 941.401 1225.77 940.501C1225.23 939.541 1224.33 938.941 1223.19 938.761C1222.05 938.581 1221.03 938.881 1220.19 939.661C1219.35 940.441 1218.99 941.401 1219.05 942.541C1219.11 943.681 1219.65 944.581 1220.61 945.241L1226.19 949.141C1228.05 950.521 1229.13 952.441 1229.31 954.781C1229.49 957.121 1228.59 959.221 1226.91 960.721C1225.23 962.341 1223.01 962.941 1220.79 962.641C1218.45 962.221 1216.59 960.961 1215.45 958.981C1214.97 958.081 1215.21 957.001 1216.11 956.521C1217.01 956.041 1218.09 956.281 1218.57 957.181C1219.23 958.201 1220.13 958.861 1221.33 959.041C1222.47 959.221 1223.55 958.921 1224.51 958.081C1225.41 957.241 1225.83 956.221 1225.71 955.021Z" fill="#2097A0"/>
<path d="M1235.61 954.9V942.9C1235.61 938.58 1239.09 935.1 1243.41 935.1C1247.73 935.1 1251.21 938.58 1251.21 942.9V948.9C1251.21 949.92 1250.43 950.7 1249.41 950.7H1239.21V954.9C1239.21 956.58 1240.17 958.14 1241.79 958.8C1243.41 959.46 1245.15 959.1 1246.35 957.9C1246.71 957.54 1247.13 957.36 1247.61 957.36C1248.15 957.36 1248.57 957.54 1248.93 957.9C1249.29 958.2 1249.47 958.62 1249.47 959.16C1249.47 959.64 1249.29 960.06 1248.93 960.42C1246.71 962.64 1243.35 963.3 1240.41 962.1C1237.47 960.9 1235.61 958.08 1235.61 954.9ZM1239.21 942.9V947.1H1247.61V942.9C1247.61 940.56 1245.75 938.7 1243.41 938.7C1241.07 938.7 1239.21 940.56 1239.21 942.9Z" fill="#2097A0"/>
<path d="M1269.21 954.66V943.14C1269.21 938.82 1272.69 935.34 1277.01 935.34H1281.21V924.9C1281.21 923.88 1281.99 923.1 1283.01 923.1C1283.97 923.1 1284.81 923.88 1284.81 924.9V960.66C1284.81 961.68 1283.97 962.46 1283.01 962.46H1277.01C1272.69 962.46 1269.21 958.98 1269.21 954.66ZM1272.81 943.14V954.66C1272.81 957 1274.67 958.86 1277.01 958.86H1281.21V938.94H1277.01C1274.67 938.94 1272.81 940.8 1272.81 943.14Z" fill="#2097A0"/>
<path d="M1292.49 954.9V942.9C1292.49 938.58 1295.97 935.1 1300.29 935.1C1304.61 935.1 1308.09 938.58 1308.09 942.9V948.9C1308.09 949.92 1307.31 950.7 1306.29 950.7H1296.09V954.9C1296.09 956.58 1297.05 958.14 1298.67 958.8C1300.29 959.46 1302.03 959.1 1303.23 957.9C1303.59 957.54 1304.01 957.36 1304.49 957.36C1305.03 957.36 1305.45 957.54 1305.81 957.9C1306.17 958.2 1306.35 958.62 1306.35 959.16C1306.35 959.64 1306.17 960.06 1305.81 960.42C1303.59 962.64 1300.23 963.3 1297.29 962.1C1294.35 960.9 1292.49 958.08 1292.49 954.9ZM1296.09 942.9V947.1H1304.49V942.9C1304.49 940.56 1302.63 938.7 1300.29 938.7C1297.95 938.7 1296.09 940.56 1296.09 942.9Z" fill="#2097A0"/>
<path d="M1361.3 904.22C1362.62 904.76 1363.66 905.83 1364.41 907.44C1365.16 909.05 1365.55 910.93 1365.55 913.08V956.44C1365.55 956.78 1365.48 957.59 1365.33 958.86C1365.18 959.49 1364.96 960.11 1364.67 960.69C1364.13 962.01 1363.35 963.18 1362.33 964.21C1361.31 965.24 1360.21 965.97 1358.89 966.55C1357.52 967.14 1356.11 967.43 1354.64 967.43C1353.17 967.43 1351.76 967.14 1350.39 966.55C1349.07 965.96 1347.9 965.18 1346.87 964.21C1345.89 963.18 1345.11 962.01 1344.53 960.69C1343.94 959.32 1343.65 957.91 1343.65 956.44V870.82C1343.65 870.53 1343.75 869.72 1343.94 868.4C1344.09 867.77 1344.28 867.15 1344.53 866.57C1345.07 865.25 1345.85 864.11 1346.87 863.13C1347.85 862.1 1348.99 861.32 1350.31 860.79C1351.68 860.2 1353.09 859.91 1354.56 859.91C1356.12 859.91 1357.56 860.2 1358.88 860.79C1360.15 861.33 1361.3 862.11 1362.32 863.13C1363.35 864.11 1364.13 865.25 1364.66 866.57C1365.25 867.94 1365.54 869.35 1365.54 870.82V901.65H1355.51V870.82C1355.51 870.28 1355.19 869.99 1354.56 869.94C1354.07 869.94 1353.78 870.23 1353.68 870.82V910H1354.19V909.27C1354.82 906.44 1356.24 904.68 1358.44 904C1358.83 903.9 1359.2 903.85 1359.54 903.85C1359.98 903.85 1360.36 903.9 1360.68 904C1361 904.1 1361.2 904.17 1361.3 904.22ZM1355.59 956.59V914.33C1355.39 913.79 1355.08 913.52 1354.64 913.52C1354.2 913.57 1353.91 913.81 1353.76 914.25L1353.69 956.58C1353.88 957.17 1354.23 957.46 1354.72 957.46C1355.21 957.36 1355.5 957.07 1355.6 956.58L1355.59 956.59Z" fill="#2097A0"/>
<path d="M1397.22 861.301V941.941H1399.49V951.171H1397.22V966.481H1387.19V951.171H1374.37V942.011L1379.5 861.301H1397.22ZM1387.26 901.881L1388.94 870.461H1388.28L1384.32 941.941H1387.18V901.881H1387.25H1387.26Z" fill="#2097A0"/>
<path d="M1408.31 966.41V954.689H1418.34V966.41C1417.22 969.53 1416.07 972.66 1414.9 975.79H1408.31L1411.75 966.41H1408.31Z" fill="#2097A0"/>
<path d="M1430.17 861.521V861.23H1440.2V966.48H1430.17V871.34H1427.17V866.36C1427.41 866.17 1427.68 865.95 1427.98 865.7C1428.27 865.46 1428.54 865.16 1428.79 864.82C1429.67 863.5 1430.13 862.401 1430.18 861.521H1430.17Z" fill="#2097A0"/>
<path d="M1470.04 907.37C1468.87 908.59 1467.82 909.27 1466.89 909.42V909.71C1468.01 909.81 1469.18 910.61 1470.41 912.13C1470.85 912.86 1471.12 913.55 1471.22 914.18C1471.32 914.81 1471.37 915.28 1471.37 915.57V956.44C1471.37 957.9 1471.08 959.32 1470.49 960.69C1470.2 961.42 1469.83 962.13 1469.39 962.81C1469 963.3 1468.58 963.76 1468.14 964.2C1467.11 965.23 1465.97 966.01 1464.7 966.54C1463.82 966.88 1463.19 967.1 1462.8 967.2C1462.46 967.35 1461.7 967.42 1460.53 967.42C1459.8 967.42 1458.94 967.32 1457.97 967.13C1457.14 966.88 1456.55 966.69 1456.21 966.54C1454.89 965.95 1453.72 965.17 1452.69 964.2C1451.71 963.17 1450.93 962 1450.35 960.68C1449.76 959.31 1449.47 957.9 1449.47 956.43V915.56C1449.47 915.27 1449.52 914.8 1449.62 914.17C1449.72 913.54 1449.99 912.85 1450.43 912.12C1451.75 910.56 1452.99 909.75 1454.17 909.7V909.48C1453.14 909.33 1452.02 908.63 1450.8 907.36C1450.21 906.58 1449.85 905.83 1449.7 905.13C1449.55 904.43 1449.48 903.92 1449.48 903.63L1449.63 870.82C1449.63 869.36 1449.9 867.94 1450.44 866.57C1451.03 865.25 1451.81 864.08 1452.78 863.05C1453.81 862.02 1454.98 861.24 1456.3 860.71C1456.69 860.56 1457.28 860.37 1458.06 860.12C1459.04 859.93 1459.89 859.83 1460.62 859.83C1461.35 859.83 1462.13 859.93 1462.96 860.12C1464.13 860.51 1464.74 860.71 1464.79 860.71C1464.94 860.76 1465.11 860.83 1465.3 860.93C1466.42 861.47 1467.42 862.18 1468.3 863.05C1469.28 864.08 1470.06 865.25 1470.64 866.57C1471.18 867.94 1471.45 869.35 1471.45 870.82L1471.38 903.63C1471.38 903.92 1471.31 904.42 1471.16 905.13C1471.01 905.84 1470.65 906.58 1470.06 907.36L1470.04 907.37ZM1461.32 956.52L1461.39 915.06C1461.34 914.47 1461.1 914.06 1460.66 913.81L1460.44 913.74H1460.37C1460.27 913.79 1460.17 913.81 1460.08 913.81C1459.64 914.1 1459.42 914.52 1459.42 915.06C1459.42 915.4 1459.44 929.2 1459.49 956.44C1459.49 956.93 1459.81 957.25 1460.44 957.39C1460.73 957.39 1460.98 957.27 1461.17 957.02C1461.27 956.83 1461.32 956.65 1461.32 956.51V956.52ZM1461.32 903.64L1461.39 870.75C1461.39 870.36 1461.22 870.09 1460.88 869.94C1460.78 869.89 1460.66 869.87 1460.51 869.87C1460.02 869.87 1459.7 870.19 1459.56 870.82L1459.49 903.63C1459.49 904.07 1459.66 904.36 1460 904.51H1460.81C1460.96 904.41 1461.08 904.29 1461.18 904.14C1461.28 903.95 1461.33 903.77 1461.33 903.63L1461.32 903.64Z" fill="#2097A0"/>
<path d="M1497.68 905.98C1496.75 906.91 1495.7 907.62 1494.53 908.1C1493.26 908.64 1491.97 908.91 1490.65 908.91C1489.33 908.91 1488.04 908.64 1486.77 908.1C1485.6 907.61 1484.55 906.9 1483.62 905.98C1482.69 905.05 1481.98 904 1481.5 902.83C1480.96 901.56 1480.69 900.27 1480.69 898.95V869.8C1480.69 868.48 1480.96 867.19 1481.5 865.92C1481.99 864.75 1482.7 863.7 1483.62 862.77C1484.55 861.89 1485.6 861.18 1486.77 860.65C1488.04 860.16 1489.33 859.92 1490.65 859.92C1491.97 859.92 1493.26 860.17 1494.53 860.65C1495.7 861.19 1496.75 861.9 1497.68 862.77C1498.56 863.7 1499.27 864.75 1499.8 865.92C1500.34 867.19 1500.61 868.48 1500.61 869.8V898.95C1500.61 900.27 1500.34 901.56 1499.8 902.83C1499.26 904 1498.55 905.05 1497.68 905.98ZM1491.46 898.95V869.8C1491.46 869.36 1491.19 869.09 1490.65 868.99C1490.16 868.99 1489.87 869.26 1489.77 869.8V898.95C1489.77 899.39 1490.06 899.68 1490.65 899.83C1491.09 899.83 1491.36 899.54 1491.46 898.95ZM1507.42 861.16H1514.3L1499.94 966.41H1493.06L1507.42 861.16ZM1523.76 921.73C1524.69 922.66 1525.4 923.71 1525.88 924.88C1526.42 926.15 1526.69 927.44 1526.69 928.76V957.91C1526.69 959.23 1526.42 960.52 1525.88 961.79C1525.39 962.96 1524.68 964.01 1523.76 964.94C1522.88 965.82 1521.83 966.53 1520.61 967.06C1519.34 967.6 1518.05 967.87 1516.73 967.87C1515.41 967.87 1514.12 967.6 1512.85 967.06C1511.68 966.52 1510.63 965.81 1509.7 964.94C1508.82 964.01 1508.11 962.96 1507.58 961.79C1507.04 960.52 1506.77 959.23 1506.77 957.91V928.76C1506.77 927.44 1507.04 926.15 1507.58 924.88C1508.12 923.71 1508.83 922.66 1509.7 921.73C1510.63 920.85 1511.68 920.14 1512.85 919.61C1514.12 919.07 1515.41 918.8 1516.73 918.8C1518.05 918.8 1519.34 919.07 1520.61 919.61C1521.83 920.15 1522.88 920.86 1523.76 921.73ZM1517.6 957.91V928.76C1517.6 928.32 1517.31 928.05 1516.72 927.95C1516.28 927.95 1515.99 928.22 1515.84 928.76V957.91C1515.84 958.35 1516.13 958.62 1516.72 958.72C1517.16 958.72 1517.45 958.45 1517.6 957.91Z" fill="#2097A0"/>
</svg>
