<svg width="1920" height="1080" viewBox="0 0 1920 1080" fill="none" xmlns="http://www.w3.org/2000/svg">
<path d="M1920 0H0V1080H1920V0Z" fill="#A491E8"/>
<path d="M153 233.5C153 229.358 149.642 226 145.5 226C141.358 226 138 229.358 138 233.5V309.5C138 313.642 141.358 317 145.5 317C149.642 317 153 313.642 153 309.5V233.5Z" fill="#C2B6FF"/>
<path d="M225 109.5C225 105.358 221.642 102 217.5 102C213.358 102 210 105.358 210 109.5V262.5C210 266.642 213.358 270 217.5 270C221.642 270 225 266.642 225 262.5V109.5Z" fill="#C2B6FF"/>
<path d="M323 661.5C323 657.358 319.642 654 315.5 654C311.358 654 308 657.358 308 661.5V814.5C308 818.642 311.358 822 315.5 822C319.642 822 323 818.642 323 814.5V661.5Z" fill="#C2B6FF"/>
<path d="M429 442.5C429 438.358 425.642 435 421.5 435C417.358 435 414 438.358 414 442.5V550.5C414 554.642 417.358 558 421.5 558C425.642 558 429 554.642 429 550.5V442.5Z" fill="#C2B6FF"/>
<path d="M1388 138.5C1388 134.358 1384.64 131 1380.5 131C1376.36 131 1373 134.358 1373 138.5V209.5C1373 213.642 1376.36 217 1380.5 217C1384.64 217 1388 213.642 1388 209.5V138.5Z" fill="#C2B6FF"/>
<path d="M1481 86.5C1481 82.3579 1477.64 79 1473.5 79C1469.36 79 1466 82.3579 1466 86.5V110.5C1466 114.642 1469.36 118 1473.5 118C1477.64 118 1481 114.642 1481 110.5V86.5Z" fill="#C2B6FF"/>
<path d="M1843 510.5C1843 506.358 1839.64 503 1835.5 503C1831.36 503 1828 506.358 1828 510.5V713.5C1828 717.642 1831.36 721 1835.5 721C1839.64 721 1843 717.642 1843 713.5V510.5Z" fill="#C2B6FF"/>
<path d="M1740 534.5C1740 530.358 1736.64 527 1732.5 527C1728.36 527 1725 530.358 1725 534.5V575.5C1725 579.642 1728.36 583 1732.5 583C1736.64 583 1740 579.642 1740 575.5V534.5Z" fill="#C2B6FF"/>
<path d="M75 842.5C75 838.358 71.6421 835 67.5 835C63.3579 835 60 838.358 60 842.5V971.5C60 975.642 63.3579 979 67.5 979C71.6421 979 75 975.642 75 971.5V842.5Z" fill="#C2B6FF"/>
<path d="M1664 917.5C1664 913.358 1660.64 910 1656.5 910C1652.36 910 1649 913.358 1649 917.5V958.5C1649 962.642 1652.36 966 1656.5 966C1660.64 966 1664 962.642 1664 958.5V917.5Z" fill="#C2B6FF"/>
<path d="M1481 686.5C1481 682.358 1477.64 679 1473.5 679C1469.36 679 1466 682.358 1466 686.5V824.5C1466 828.642 1469.36 832 1473.5 832C1477.64 832 1481 828.642 1481 824.5V686.5Z" fill="#C2B6FF"/>
<path d="M1519 627.5C1519 623.358 1515.64 620 1511.5 620C1507.36 620 1504 623.358 1504 627.5V696.5C1504 700.642 1507.36 704 1511.5 704C1515.64 704 1519 700.642 1519 696.5V627.5Z" fill="#C2B6FF"/>
<path d="M1725 174.5C1725 170.358 1721.64 167 1717.5 167C1713.36 167 1710 170.358 1710 174.5V243.5C1710 247.642 1713.36 251 1717.5 251C1721.64 251 1725 247.642 1725 243.5V174.5Z" fill="#C2B6FF"/>
<path d="M404 574.5C404 570.358 400.642 567 396.5 567C392.358 567 389 570.358 389 574.5V612.5C389 616.642 392.358 620 396.5 620C400.642 620 404 616.642 404 612.5V574.5Z" fill="#C2B6FF"/>
<path d="M190.21 162.39V162H203.59V302.33H190.21V175.47H186.21V168.83C186.54 168.57 186.89 168.28 187.28 167.95C187.67 167.63 188.03 167.24 188.35 166.78C189.52 165.02 190.14 163.56 190.21 162.39Z" fill="#7164B2"/>
<path d="M214.35 162.39V162H227.73V302.33H214.35V175.47H210.35V168.83C210.68 168.57 211.03 168.28 211.42 167.95C211.81 167.63 212.17 167.24 212.49 166.78C213.66 165.02 214.28 163.56 214.35 162.39Z" fill="#7164B2"/>
<path d="M235.08 302.241V286.621H248.46V302.241C246.96 306.411 245.43 310.571 243.87 314.741H235.08L239.67 302.241H235.08Z" fill="#7164B2"/>
<path d="M280.8 164.44C282.17 165.74 283.21 167.27 283.92 169.03C284.7 170.85 285.09 172.74 285.09 174.69V219.61H284.99C284.86 221.04 284.5 222.44 283.92 223.81C283.2 225.57 282.16 227.1 280.8 228.4C279.82 229.38 279.14 229.96 278.75 230.16C277.45 231.07 274.58 233.28 270.16 236.8C269.96 236.93 269.74 237.22 269.48 237.68L269.28 238.56L269.18 289.93H271.72L271.62 239.15H285V302.24H255.9L255.8 240.52H255.9V238.57C255.9 236.49 256.29 234.57 257.07 232.81C257.4 232.03 257.79 231.28 258.24 230.56L260.19 228.22C261.75 226.53 265.43 223.5 271.23 219.14C271.36 219.08 271.46 218.94 271.52 218.75C271.65 218.43 271.72 218.23 271.72 218.16V174.7C271.72 173.99 271.33 173.56 270.55 173.43C269.9 173.43 269.48 173.85 269.28 174.7V216.2H255.9V174.7C255.9 172.75 256.29 170.86 257.07 169.04C257.85 167.28 258.89 165.75 260.19 164.45C261.56 163.08 263.12 162.04 264.88 161.33C266.7 160.55 268.59 160.16 270.54 160.16C272.49 160.16 274.38 160.55 276.2 161.33C277.96 162.05 279.49 163.09 280.79 164.45L280.8 164.44Z" fill="#7164B2"/>
<path d="M336.19 302.33H322.81V182.21H322.42L318.61 302.33H310.02L306.21 182.21H305.82V302.33H292.44V162H310.21L313.82 275.09H314.89L318.41 162H336.18V302.33H336.19Z" fill="#7164B2"/>
<path d="M226.21 438.15V599.43H230.75V617.89H226.21V648.51H206.14V617.89H180.51V599.581L190.76 438.15H226.21ZM206.28 519.301L209.65 456.46H208.33L200.42 599.43H206.13V519.301H206.28Z" fill="#7164B2"/>
<path d="M306.51 648.5H286.44V468.32H285.85L280.14 648.5H267.25L261.54 468.32H260.95V648.5H240.88V438H267.54L272.96 607.63H274.57L279.84 438H306.5V648.5H306.51Z" fill="#7164B2"/>
<path d="M377.58 166.709V183.309C377.58 187.509 374.18 190.909 369.98 190.909H363.98C363.03 190.909 362.38 190.259 362.38 189.309V160.709C362.38 159.759 363.03 159.109 363.98 159.109H369.98C374.18 159.109 377.58 162.509 377.58 166.709ZM369.98 162.309H365.58V187.709H369.98C372.43 187.709 374.38 185.759 374.38 183.309V166.709C374.38 164.309 372.43 162.309 369.98 162.309Z" fill="#7164B2"/>
<path d="M384.43 163.109V162.259H384.38C383.53 162.259 382.83 161.559 382.83 160.709C382.83 159.859 383.53 159.209 384.38 159.209H385.98C386.78 159.209 387.48 159.859 387.48 160.709V163.109C387.48 164.759 386.48 166.259 384.93 166.909C384.18 167.259 383.28 166.859 382.93 166.109C382.58 165.309 382.98 164.459 383.78 164.109C384.23 163.959 384.43 163.609 384.43 163.109Z" fill="#7164B2"/>
<path d="M392.88 184.51V174.51C392.88 170.91 395.78 168.01 399.38 168.01C402.98 168.01 405.88 170.91 405.88 174.51V179.51C405.88 180.36 405.23 181.01 404.38 181.01H395.88V184.51C395.88 185.91 396.68 187.21 398.03 187.76C399.38 188.31 400.83 188.01 401.83 187.01C402.13 186.71 402.48 186.56 402.88 186.56C403.33 186.56 403.68 186.71 403.98 187.01C404.28 187.26 404.43 187.61 404.43 188.06C404.43 188.46 404.28 188.81 403.98 189.11C402.13 190.96 399.33 191.51 396.88 190.51C394.43 189.51 392.88 187.16 392.88 184.51ZM395.88 174.51V178.01H402.88V174.51C402.88 172.56 401.33 171.01 399.38 171.01C397.43 171.01 395.88 172.56 395.88 174.51Z" fill="#7164B2"/>
<path d="M411.88 189.509V169.709C411.88 168.859 412.53 168.209 413.38 168.209H418.38C421.93 168.209 424.88 171.109 424.88 174.709V189.509C424.88 190.359 424.18 191.009 423.38 191.009C422.53 191.009 421.88 190.359 421.88 189.509V174.709C421.88 172.759 420.33 171.209 418.38 171.209H414.88V189.509C414.88 190.359 414.18 191.009 413.38 191.009C412.53 191.009 411.88 190.359 411.88 189.509Z" fill="#7164B2"/>
<path d="M429.28 169.71C429.28 168.86 429.93 168.21 430.78 168.21H433.28V159.51C433.28 158.66 433.93 158.01 434.78 158.01C435.63 158.01 436.28 158.66 436.28 159.51V168.21H439.78C440.63 168.21 441.28 168.86 441.28 169.71C441.28 170.56 440.63 171.21 439.78 171.21H436.28V184.51C436.28 186.46 437.83 188.01 439.78 188.01C440.63 188.01 441.28 188.66 441.28 189.51C441.28 190.36 440.63 191.01 439.78 191.01C436.18 191.01 433.28 188.11 433.28 184.51V171.21H430.78C429.93 171.21 429.28 170.56 429.28 169.71Z" fill="#7164B2"/>
<path d="M446.28 189.509V169.709C446.28 168.859 446.93 168.209 447.78 168.209H452.78C453.93 168.209 454.98 168.509 456.03 169.059C456.78 169.509 456.98 170.359 456.58 171.109C456.18 171.859 455.28 172.109 454.53 171.659C453.98 171.359 453.38 171.209 452.78 171.209H449.28V189.509C449.28 190.359 448.63 191.009 447.78 191.009C446.93 191.009 446.28 190.359 446.28 189.509Z" fill="#7164B2"/>
<path d="M460.63 184.51V174.51C460.63 170.91 463.58 168.01 467.13 168.01C470.68 168.01 473.63 170.91 473.63 174.51V179.51C473.63 180.36 472.98 181.01 472.13 181.01H463.63V184.51C463.63 185.91 464.43 187.21 465.78 187.76C467.13 188.31 468.63 188.01 469.63 187.01C469.88 186.71 470.23 186.561 470.63 186.561C471.08 186.561 471.43 186.71 471.73 187.01C472.03 187.26 472.18 187.611 472.18 188.061C472.18 188.461 472.03 188.811 471.73 189.111C469.88 190.961 467.08 191.51 464.68 190.51C462.23 189.51 460.63 187.16 460.63 184.51ZM470.78 158.51C471.33 159.11 471.28 160.061 470.63 160.611L465.63 165.111C465.03 165.661 464.08 165.61 463.53 165.01C462.98 164.41 463.03 163.46 463.63 162.91L468.63 158.41C469.28 157.86 470.18 157.91 470.78 158.51ZM463.63 174.51V178.01H470.63V174.51C470.63 172.56 469.08 171.01 467.13 171.01C465.18 171.01 463.63 172.56 463.63 174.51Z" fill="#7164B2"/>
<path d="M479.03 184.51V174.51C479.03 170.91 481.93 168.01 485.53 168.01C489.13 168.01 492.03 170.91 492.03 174.51V179.51C492.03 180.36 491.38 181.01 490.53 181.01H482.03V184.51C482.03 185.91 482.83 187.21 484.18 187.76C485.53 188.31 486.98 188.01 487.98 187.01C488.28 186.71 488.63 186.56 489.03 186.56C489.48 186.56 489.83 186.71 490.13 187.01C490.43 187.26 490.58 187.61 490.58 188.06C490.58 188.46 490.43 188.81 490.13 189.11C488.28 190.96 485.48 191.51 483.03 190.51C480.58 189.51 479.03 187.16 479.03 184.51ZM482.03 174.51V178.01H489.03V174.51C489.03 172.56 487.48 171.01 485.53 171.01C483.58 171.01 482.03 172.56 482.03 174.51Z" fill="#7164B2"/>
<path d="M505.63 184.609C505.58 183.609 505.13 182.809 504.28 182.209L499.63 178.909C498.08 177.859 497.23 176.209 497.08 174.409C496.93 172.559 497.68 170.809 499.03 169.609C500.38 168.359 502.18 167.809 503.98 168.059C505.78 168.409 507.33 169.409 508.28 171.009C508.68 171.759 508.48 172.659 507.73 173.059C506.98 173.459 506.08 173.259 505.68 172.509C505.23 171.709 504.48 171.209 503.53 171.059C502.58 170.909 501.73 171.159 501.03 171.809C500.33 172.459 500.03 173.259 500.08 174.209C500.13 175.159 500.58 175.909 501.38 176.459L506.03 179.709C507.58 180.859 508.48 182.459 508.63 184.409C508.78 186.359 508.03 188.109 506.63 189.359C505.23 190.709 503.38 191.209 501.53 190.959C499.58 190.609 498.03 189.559 497.08 187.909C496.68 187.159 496.88 186.259 497.63 185.859C498.38 185.459 499.28 185.659 499.68 186.409C500.23 187.259 500.98 187.809 501.98 187.959C502.93 188.109 503.83 187.859 504.63 187.159C505.38 186.459 505.73 185.609 505.63 184.609Z" fill="#7164B2"/>
<path d="M523.48 184.31V174.71C523.48 171.11 526.38 168.21 529.98 168.21H533.48V159.51C533.48 158.66 534.13 158.01 534.98 158.01C535.78 158.01 536.48 158.66 536.48 159.51V189.31C536.48 190.16 535.78 190.81 534.98 190.81H529.98C526.38 190.81 523.48 187.91 523.48 184.31ZM526.48 174.71V184.31C526.48 186.26 528.03 187.81 529.98 187.81H533.48V171.21H529.98C528.03 171.21 526.48 172.76 526.48 174.71Z" fill="#7164B2"/>
<path d="M551.48 174.41C551.48 173.01 550.63 171.81 549.38 171.26C548.03 170.71 546.63 171.01 545.68 172.01C545.38 172.31 545.03 172.46 544.58 172.46C544.18 172.46 543.83 172.31 543.53 172.01C543.23 171.71 543.08 171.36 543.08 170.96C543.08 170.51 543.23 170.16 543.53 169.91C545.38 168.06 548.13 167.51 550.53 168.51C552.93 169.51 554.48 171.81 554.48 174.41V189.31C554.48 190.16 553.78 190.81 552.98 190.81H547.98C544.38 190.81 541.48 187.91 541.48 184.31C541.48 180.71 544.38 177.81 547.98 177.81H551.48V174.41ZM547.97 187.81H551.47V180.81H547.97C546.02 180.81 544.47 182.36 544.47 184.31C544.47 186.26 546.02 187.81 547.97 187.81Z" fill="#7164B2"/>
<path d="M561.07 189.509V169.709C561.07 168.859 561.72 168.209 562.57 168.209H567.57C571.12 168.209 574.07 171.109 574.07 174.709V189.509C574.07 190.359 573.37 191.009 572.57 191.009C571.72 191.009 571.07 190.359 571.07 189.509V174.709C571.07 172.759 569.52 171.209 567.57 171.209H564.07V189.509C564.07 190.359 563.37 191.009 562.57 191.009C561.72 191.009 561.07 190.359 561.07 189.509Z" fill="#7164B2"/>
<path d="M588.27 184.609C588.22 183.609 587.77 182.809 586.92 182.209L582.27 178.909C580.72 177.859 579.87 176.209 579.72 174.409C579.57 172.559 580.32 170.809 581.67 169.609C583.02 168.359 584.82 167.809 586.62 168.059C588.42 168.409 589.97 169.409 590.92 171.009C591.32 171.759 591.12 172.659 590.37 173.059C589.62 173.459 588.72 173.259 588.32 172.509C587.87 171.709 587.12 171.209 586.17 171.059C585.22 170.909 584.37 171.159 583.67 171.809C582.97 172.459 582.67 173.259 582.72 174.209C582.77 175.159 583.22 175.909 584.02 176.459L588.67 179.709C590.22 180.859 591.12 182.459 591.27 184.409C591.42 186.359 590.67 188.109 589.27 189.359C587.87 190.709 586.02 191.209 584.17 190.959C582.22 190.609 580.67 189.559 579.72 187.909C579.32 187.159 579.52 186.259 580.27 185.859C581.02 185.459 581.92 185.659 582.32 186.409C582.87 187.259 583.62 187.809 584.62 187.959C585.57 188.109 586.47 187.859 587.27 187.159C588.02 186.459 588.37 185.609 588.27 184.609Z" fill="#7164B2"/>
<path d="M606.12 184.31V174.71C606.12 171.11 609.02 168.21 612.62 168.21H616.12V159.51C616.12 158.66 616.77 158.01 617.62 158.01C618.42 158.01 619.12 158.66 619.12 159.51V189.31C619.12 190.16 618.42 190.81 617.62 190.81H612.62C609.02 190.81 606.12 187.91 606.12 184.31ZM609.12 174.71V184.31C609.12 186.26 610.67 187.81 612.62 187.81H616.12V171.21H612.62C610.67 171.21 609.12 172.76 609.12 174.71Z" fill="#7164B2"/>
<path d="M625.52 184.51V174.51C625.52 170.91 628.42 168.01 632.02 168.01C635.62 168.01 638.52 170.91 638.52 174.51V179.51C638.52 180.36 637.87 181.01 637.02 181.01H628.52V184.51C628.52 185.91 629.32 187.21 630.67 187.76C632.02 188.31 633.47 188.01 634.47 187.01C634.77 186.71 635.12 186.56 635.52 186.56C635.97 186.56 636.32 186.71 636.62 187.01C636.92 187.26 637.07 187.61 637.07 188.06C637.07 188.46 636.92 188.81 636.62 189.11C634.77 190.96 631.97 191.51 629.52 190.51C627.07 189.51 625.52 187.16 625.52 184.51ZM628.52 174.51V178.01H635.52V174.51C635.52 172.56 633.97 171.01 632.02 171.01C630.07 171.01 628.52 172.56 628.52 174.51Z" fill="#7164B2"/>
<path d="M652.12 184.609C652.07 183.609 651.62 182.809 650.77 182.209L646.12 178.909C644.57 177.859 643.72 176.209 643.57 174.409C643.42 172.559 644.17 170.809 645.52 169.609C646.87 168.359 648.67 167.809 650.47 168.059C652.27 168.409 653.82 169.409 654.77 171.009C655.17 171.759 654.97 172.659 654.22 173.059C653.47 173.459 652.57 173.259 652.17 172.509C651.72 171.709 650.97 171.209 650.02 171.059C649.07 170.909 648.22 171.159 647.52 171.809C646.82 172.459 646.52 173.259 646.57 174.209C646.62 175.159 647.07 175.909 647.87 176.459L652.52 179.709C654.07 180.859 654.97 182.459 655.12 184.409C655.27 186.359 654.52 188.109 653.12 189.359C651.72 190.709 649.87 191.209 648.02 190.959C646.07 190.609 644.52 189.559 643.57 187.909C643.17 187.159 643.37 186.259 644.12 185.859C644.87 185.459 645.77 185.659 646.17 186.409C646.72 187.259 647.47 187.809 648.47 187.959C649.42 188.109 650.32 187.859 651.12 187.159C651.87 186.459 652.22 185.609 652.12 184.609Z" fill="#7164B2"/>
<path d="M365.48 249.509C365.48 250.359 364.78 251.009 363.98 251.009C363.13 251.009 362.48 250.359 362.48 249.509V229.709C362.48 228.859 363.13 228.209 363.98 228.209H378.98C382.53 228.209 385.48 231.109 385.48 234.709V249.509C385.48 250.359 384.78 251.009 383.98 251.009C383.13 251.009 382.48 250.359 382.48 249.509V234.709C382.48 232.759 380.93 231.209 378.98 231.209H375.48V249.509C375.48 250.359 374.78 251.009 373.98 251.009C373.13 251.009 372.48 250.359 372.48 249.509V231.209H365.48V249.509Z" fill="#7164B2"/>
<path d="M391.48 244.51V234.51C391.48 230.91 394.38 228.01 397.98 228.01C401.58 228.01 404.48 230.91 404.48 234.51V244.51C404.48 248.11 401.53 251.01 397.98 251.01C394.43 251.01 391.48 248.11 391.48 244.51ZM394.48 234.51V244.51C394.48 246.46 396.03 248.01 397.98 248.01C399.93 248.01 401.48 246.46 401.48 244.51V234.51C401.48 232.56 399.93 231.01 397.98 231.01C396.03 231.01 394.48 232.56 394.48 234.51Z" fill="#7164B2"/>
<path d="M410.88 249.509V229.709C410.88 228.859 411.53 228.209 412.38 228.209H417.38C420.93 228.209 423.88 231.109 423.88 234.709V249.509C423.88 250.359 423.18 251.009 422.38 251.009C421.53 251.009 420.88 250.359 420.88 249.509V234.709C420.88 232.759 419.33 231.209 417.38 231.209H413.88V249.509C413.88 250.359 413.18 251.009 412.38 251.009C411.53 251.009 410.88 250.359 410.88 249.509Z" fill="#7164B2"/>
<path d="M430.08 244.31V229.51C430.08 228.66 430.73 228.01 431.58 228.01C432.43 228.01 433.08 228.66 433.08 229.51V244.31C433.08 246.26 434.63 247.81 436.58 247.81H440.08V229.51C440.08 228.66 440.73 228.01 441.58 228.01C442.43 228.01 443.08 228.66 443.08 229.51V249.31C443.08 250.16 442.43 250.81 441.58 250.81H436.58C432.98 250.81 430.08 247.91 430.08 244.31Z" fill="#7164B2"/>
<path d="M453.08 249.509C453.08 250.359 452.38 251.009 451.58 251.009C450.73 251.009 450.08 250.359 450.08 249.509V229.709C450.08 228.859 450.73 228.209 451.58 228.209H466.58C470.13 228.209 473.08 231.109 473.08 234.709V249.509C473.08 250.359 472.38 251.009 471.58 251.009C470.73 251.009 470.08 250.359 470.08 249.509V234.709C470.08 232.759 468.53 231.209 466.58 231.209H463.08V249.509C463.08 250.359 462.38 251.009 461.58 251.009C460.73 251.009 460.08 250.359 460.08 249.509V231.209H453.08V249.509Z" fill="#7164B2"/>
<path d="M479.08 244.51V234.51C479.08 230.91 481.98 228.01 485.58 228.01C489.18 228.01 492.08 230.91 492.08 234.51V239.51C492.08 240.36 491.43 241.01 490.58 241.01H482.08V244.51C482.08 245.91 482.88 247.21 484.23 247.76C485.58 248.31 487.03 248.01 488.03 247.01C488.33 246.71 488.68 246.56 489.08 246.56C489.53 246.56 489.88 246.71 490.18 247.01C490.48 247.26 490.63 247.61 490.63 248.06C490.63 248.46 490.48 248.81 490.18 249.11C488.33 250.96 485.53 251.51 483.08 250.51C480.63 249.51 479.08 247.16 479.08 244.51ZM482.08 234.51V238.01H489.08V234.51C489.08 232.56 487.53 231.01 485.58 231.01C483.63 231.01 482.08 232.56 482.08 234.51Z" fill="#7164B2"/>
<path d="M498.08 249.509V229.709C498.08 228.859 498.73 228.209 499.58 228.209H504.58C508.13 228.209 511.08 231.109 511.08 234.709V249.509C511.08 250.359 510.38 251.009 509.58 251.009C508.73 251.009 508.08 250.359 508.08 249.509V234.709C508.08 232.759 506.53 231.209 504.58 231.209H501.08V249.509C501.08 250.359 500.38 251.009 499.58 251.009C498.73 251.009 498.08 250.359 498.08 249.509Z" fill="#7164B2"/>
<path d="M515.48 229.71C515.48 228.86 516.13 228.21 516.98 228.21H519.48V219.51C519.48 218.66 520.13 218.01 520.98 218.01C521.83 218.01 522.48 218.66 522.48 219.51V228.21H525.98C526.83 228.21 527.48 228.86 527.48 229.71C527.48 230.56 526.83 231.21 525.98 231.21H522.48V244.51C522.48 246.46 524.03 248.01 525.98 248.01C526.83 248.01 527.48 248.66 527.48 249.51C527.48 250.36 526.83 251.01 525.98 251.01C522.38 251.01 519.48 248.11 519.48 244.51V231.21H516.98C516.13 231.21 515.48 230.56 515.48 229.71Z" fill="#7164B2"/>
<path d="M540.08 244.609C540.03 243.609 539.58 242.809 538.73 242.209L534.08 238.909C532.53 237.859 531.68 236.209 531.53 234.409C531.38 232.559 532.13 230.809 533.48 229.609C534.83 228.359 536.63 227.809 538.43 228.059C540.23 228.409 541.78 229.409 542.73 231.009C543.13 231.759 542.93 232.659 542.18 233.059C541.43 233.459 540.53 233.259 540.13 232.509C539.68 231.709 538.93 231.209 537.98 231.059C537.03 230.909 536.18 231.159 535.48 231.809C534.78 232.459 534.48 233.259 534.53 234.209C534.58 235.159 535.03 235.909 535.83 236.459L540.48 239.709C542.03 240.859 542.93 242.459 543.08 244.409C543.23 246.359 542.48 248.109 541.08 249.359C539.68 250.709 537.83 251.209 535.98 250.959C534.03 250.609 532.48 249.559 531.53 247.909C531.13 247.159 531.33 246.259 532.08 245.859C532.83 245.459 533.73 245.659 534.13 246.409C534.68 247.259 535.43 247.809 536.43 247.959C537.38 248.109 538.28 247.859 539.08 247.159C539.83 246.459 540.18 245.609 540.08 244.609Z" fill="#7164B2"/>
<path d="M558.53 249.509V229.709C558.53 228.859 559.18 228.209 560.03 228.209H565.03C568.58 228.209 571.53 231.109 571.53 234.709V249.509C571.53 250.359 570.83 251.009 570.03 251.009C569.18 251.009 568.53 250.359 568.53 249.509V234.709C568.53 232.759 566.98 231.209 565.03 231.209H561.53V249.509C561.53 250.359 560.83 251.009 560.03 251.009C559.18 251.009 558.53 250.359 558.53 249.509Z" fill="#7164B2"/>
<path d="M586.13 234.41C586.13 233.01 585.28 231.81 584.03 231.26C582.68 230.71 581.28 231.01 580.33 232.01C580.03 232.31 579.68 232.46 579.23 232.46C578.83 232.46 578.48 232.31 578.18 232.01C577.88 231.71 577.73 231.36 577.73 230.96C577.73 230.51 577.88 230.16 578.18 229.91C580.03 228.06 582.78 227.51 585.18 228.51C587.58 229.51 589.13 231.81 589.13 234.41V249.31C589.13 250.16 588.43 250.81 587.63 250.81H582.63C579.03 250.81 576.13 247.91 576.13 244.31C576.13 240.71 579.03 237.81 582.63 237.81H586.13V234.41ZM582.62 247.81H586.12V240.81H582.62C580.67 240.81 579.12 242.36 579.12 244.31C579.12 246.26 580.67 247.81 582.62 247.81Z" fill="#7164B2"/>
<path d="M593.52 229.71C593.52 228.86 594.17 228.21 595.02 228.21H597.52V219.51C597.52 218.66 598.17 218.01 599.02 218.01C599.87 218.01 600.52 218.66 600.52 219.51V228.21H604.02C604.87 228.21 605.52 228.86 605.52 229.71C605.52 230.56 604.87 231.21 604.02 231.21H600.52V244.51C600.52 246.46 602.07 248.01 604.02 248.01C604.87 248.01 605.52 248.66 605.52 249.51C605.52 250.36 604.87 251.01 604.02 251.01C600.42 251.01 597.52 248.11 597.52 244.51V231.21H595.02C594.17 231.21 593.52 230.56 593.52 229.71Z" fill="#7164B2"/>
<path d="M610.02 222.01C610.02 220.86 610.87 220.01 612.02 220.01C613.17 220.01 614.02 220.86 614.02 222.01C614.02 223.16 613.17 224.01 612.02 224.01C610.87 224.01 610.02 223.16 610.02 222.01ZM612.02 251.01C611.22 251.01 610.52 250.36 610.52 249.51V229.51C610.52 228.66 611.22 228.01 612.02 228.01C612.87 228.01 613.52 228.66 613.52 229.51V249.51C613.52 250.36 612.87 251.01 612.02 251.01Z" fill="#7164B2"/>
<path d="M619.92 244.51V234.51C619.92 230.91 622.82 228.01 626.42 228.01C630.02 228.01 632.92 230.91 632.92 234.51V244.51C632.92 248.11 629.97 251.01 626.42 251.01C622.87 251.01 619.92 248.11 619.92 244.51ZM622.92 234.51V244.51C622.92 246.46 624.47 248.01 626.42 248.01C628.37 248.01 629.92 246.46 629.92 244.51V234.51C629.92 232.56 628.37 231.01 626.42 231.01C624.47 231.01 622.92 232.56 622.92 234.51Z" fill="#7164B2"/>
<path d="M639.32 249.509V229.709C639.32 228.859 639.97 228.209 640.82 228.209H645.82C649.37 228.209 652.32 231.109 652.32 234.709V249.509C652.32 250.359 651.62 251.009 650.82 251.009C649.97 251.009 649.32 250.359 649.32 249.509V234.709C649.32 232.759 647.77 231.209 645.82 231.209H642.32V249.509C642.32 250.359 641.62 251.009 640.82 251.009C639.97 251.009 639.32 250.359 639.32 249.509Z" fill="#7164B2"/>
<path d="M666.92 234.41C666.92 233.01 666.07 231.81 664.82 231.26C663.47 230.71 662.07 231.01 661.12 232.01C660.82 232.31 660.47 232.46 660.02 232.46C659.62 232.46 659.27 232.31 658.97 232.01C658.67 231.71 658.52 231.36 658.52 230.96C658.52 230.51 658.67 230.16 658.97 229.91C660.82 228.06 663.57 227.51 665.97 228.51C668.37 229.51 669.92 231.81 669.92 234.41V249.31C669.92 250.16 669.22 250.81 668.42 250.81H663.42C659.82 250.81 656.92 247.91 656.92 244.31C656.92 240.71 659.82 237.81 663.42 237.81H666.92V234.41ZM663.42 247.81H666.92V240.81H663.42C661.47 240.81 659.92 242.36 659.92 244.31C659.92 246.26 661.47 247.81 663.42 247.81Z" fill="#7164B2"/>
<path d="M676.12 244.31V229.51C676.12 228.66 676.77 228.01 677.62 228.01C678.47 228.01 679.12 228.66 679.12 229.51V244.31C679.12 246.26 680.67 247.81 682.62 247.81H686.12V229.51C686.12 228.66 686.77 228.01 687.62 228.01C688.47 228.01 689.12 228.66 689.12 229.51V249.31C689.12 250.16 688.47 250.81 687.62 250.81H682.62C679.02 250.81 676.12 247.91 676.12 244.31Z" fill="#7164B2"/>
<path d="M694.72 248.809L699.92 239.309L694.92 230.259C694.52 229.509 694.77 228.609 695.52 228.209C696.27 227.809 697.17 228.059 697.57 228.809L701.62 236.209L705.72 228.809C706.12 228.059 707.02 227.809 707.77 228.209C708.52 228.609 708.77 229.509 708.37 230.259L703.37 239.309L708.57 248.809C708.97 249.559 708.72 250.409 707.97 250.809C707.22 251.209 706.32 251.009 705.92 250.259L701.62 242.459L697.37 250.259C696.97 251.009 696.07 251.209 695.32 250.809C694.57 250.409 694.32 249.559 694.72 248.809Z" fill="#7164B2"/>
<path d="M361.88 304.51V294.51C361.88 290.91 364.78 288.01 368.38 288.01C371.98 288.01 374.88 290.91 374.88 294.51V299.51C374.88 300.36 374.23 301.01 373.38 301.01H364.88V304.51C364.88 305.91 365.68 307.21 367.03 307.76C368.38 308.31 369.83 308.01 370.83 307.01C371.13 306.71 371.48 306.56 371.88 306.56C372.33 306.56 372.68 306.71 372.98 307.01C373.28 307.26 373.43 307.61 373.43 308.06C373.43 308.46 373.28 308.81 372.98 309.11C371.13 310.96 368.33 311.51 365.88 310.51C363.43 309.51 361.88 307.16 361.88 304.51ZM364.88 294.51V298.01H371.88V294.51C371.88 292.56 370.33 291.01 368.38 291.01C366.43 291.01 364.88 292.56 364.88 294.51Z" fill="#7164B2"/>
<path d="M380.88 309.509V289.709C380.88 288.859 381.53 288.209 382.38 288.209H387.38C390.93 288.209 393.88 291.109 393.88 294.709V309.509C393.88 310.359 393.18 311.009 392.38 311.009C391.53 311.009 390.88 310.359 390.88 309.509V294.709C390.88 292.759 389.33 291.209 387.38 291.209H383.88V309.509C383.88 310.359 383.18 311.009 382.38 311.009C381.53 311.009 380.88 310.359 380.88 309.509Z" fill="#7164B2"/>
<path d="M409.78 282.71C410.83 280.86 412.33 279.71 414.33 279.21C416.28 278.66 418.28 278.91 420.03 279.86C421.78 280.81 423.08 282.36 423.63 284.31C424.23 286.26 424.03 288.21 423.08 290.06C421.68 292.71 420.38 295.16 419.18 297.51C417.08 301.51 414.78 305.91 413.83 307.71H422.38C423.23 307.71 423.98 308.36 423.98 309.31C423.98 310.26 423.23 310.91 422.38 310.91H411.18C410.53 310.91 410.08 310.66 409.83 310.16C409.48 309.61 409.48 309.06 409.78 308.56L420.28 288.56C420.83 287.51 420.93 286.41 420.58 285.26C420.23 284.11 419.53 283.21 418.48 282.66C417.43 282.11 416.33 281.96 415.18 282.26C414.03 282.61 413.13 283.31 412.58 284.31C412.13 285.06 411.13 285.36 410.38 284.91C409.63 284.46 409.33 283.46 409.78 282.71Z" fill="#7164B2"/>
<path d="M430.18 303.51V286.51C430.18 282.31 433.58 278.91 437.78 278.91C441.98 278.91 445.38 282.31 445.38 286.51V303.51C445.38 307.71 441.93 311.11 437.78 311.11C433.63 311.11 430.18 307.71 430.18 303.51ZM433.38 286.51V303.51C433.38 305.96 435.33 307.91 437.78 307.91C440.23 307.91 442.18 305.96 442.18 303.51V286.51C442.18 284.11 440.18 282.11 437.78 282.11C435.38 282.11 433.38 284.11 433.38 286.51Z" fill="#7164B2"/>
<path d="M453.78 288.11C453.33 288.11 452.98 287.96 452.63 287.66C452.33 287.31 452.18 286.96 452.18 286.51C452.18 286.06 452.33 285.71 452.63 285.36L458.63 279.36C459.08 278.91 459.78 278.81 460.38 279.01C461.03 279.26 461.38 279.76 461.38 280.51V309.51C461.38 310.46 460.63 311.11 459.78 311.11C458.83 311.11 458.18 310.46 458.18 309.51V284.36L454.88 287.66C454.58 287.96 454.23 288.11 453.78 288.11Z" fill="#7164B2"/>
<path d="M471.32 291.51V286.51C471.32 282.31 474.77 278.91 478.92 278.91C483.07 278.91 486.52 282.31 486.52 286.51V303.51C486.52 306.96 484.27 309.91 480.92 310.86C477.52 311.81 474.12 310.31 472.37 307.31C471.92 306.56 472.17 305.56 472.92 305.11C473.72 304.71 474.67 304.96 475.12 305.71C476.12 307.46 478.12 308.31 480.07 307.76C482.02 307.21 483.32 305.51 483.32 303.51V297.71C482.07 298.66 480.62 299.11 478.92 299.11C474.77 299.11 471.32 295.71 471.32 291.51ZM474.52 286.51V291.51C474.52 293.96 476.52 295.91 478.92 295.91C481.32 295.91 483.32 293.96 483.32 291.51V286.51C483.32 284.11 481.37 282.11 478.92 282.11C476.47 282.11 474.52 284.11 474.52 286.51Z" fill="#7164B2"/>
<path d="M355.58 620.709V637.309C355.58 641.509 352.18 644.909 347.98 644.909H341.98C341.03 644.909 340.38 644.259 340.38 643.309V614.709C340.38 613.759 341.03 613.109 341.98 613.109H347.98C352.18 613.109 355.58 616.509 355.58 620.709ZM347.98 616.309H343.58V641.709H347.98C350.43 641.709 352.38 639.759 352.38 637.309V620.709C352.38 618.309 350.43 616.309 347.98 616.309Z" fill="#7164B2"/>
<path d="M361.48 638.31V623.51C361.48 622.66 362.13 622.01 362.98 622.01C363.83 622.01 364.48 622.66 364.48 623.51V638.31C364.48 640.26 366.03 641.81 367.98 641.81H371.48V623.51C371.48 622.66 372.13 622.01 372.98 622.01C373.83 622.01 374.48 622.66 374.48 623.51V643.31C374.48 644.16 373.83 644.81 372.98 644.81H367.98C364.38 644.81 361.48 641.91 361.48 638.31Z" fill="#7164B2"/>
<path d="M381.48 643.509V623.709C381.48 622.859 382.13 622.209 382.98 622.209H387.98C389.13 622.209 390.18 622.509 391.23 623.059C391.98 623.509 392.18 624.359 391.78 625.109C391.38 625.859 390.48 626.109 389.73 625.659C389.18 625.359 388.58 625.209 387.98 625.209H384.48V643.509C384.48 644.359 383.83 645.009 382.98 645.009C382.13 645.009 381.48 644.359 381.48 643.509Z" fill="#7164B2"/>
<path d="M403.93 628.41C403.93 627.01 403.08 625.81 401.83 625.26C400.48 624.71 399.08 625.01 398.13 626.01C397.83 626.31 397.48 626.46 397.03 626.46C396.63 626.46 396.28 626.31 395.98 626.01C395.68 625.71 395.53 625.36 395.53 624.96C395.53 624.51 395.68 624.16 395.98 623.91C397.83 622.06 400.58 621.51 402.98 622.51C405.38 623.51 406.93 625.81 406.93 628.41V643.31C406.93 644.16 406.23 644.81 405.43 644.81H400.43C396.83 644.81 393.93 641.91 393.93 638.31C393.93 634.71 396.83 631.81 400.43 631.81H403.93V628.41ZM400.43 641.81H403.93V634.81H400.43C398.48 634.81 396.93 636.36 396.93 638.31C396.93 640.26 398.48 641.81 400.43 641.81Z" fill="#7164B2"/>
<path d="M413.53 643.509V623.709C413.53 622.859 414.18 622.209 415.03 622.209H420.03C423.58 622.209 426.53 625.109 426.53 628.709V643.509C426.53 644.359 425.83 645.009 425.03 645.009C424.18 645.009 423.53 644.359 423.53 643.509V628.709C423.53 626.759 421.98 625.209 420.03 625.209H416.53V643.509C416.53 644.359 415.83 645.009 415.03 645.009C414.18 645.009 413.53 644.359 413.53 643.509Z" fill="#7164B2"/>
<path d="M430.93 623.71C430.93 622.86 431.58 622.21 432.43 622.21H434.93V613.51C434.93 612.66 435.58 612.01 436.43 612.01C437.28 612.01 437.93 612.66 437.93 613.51V622.21H441.43C442.28 622.21 442.93 622.86 442.93 623.71C442.93 624.56 442.28 625.21 441.43 625.21H437.93V638.51C437.93 640.46 439.48 642.01 441.43 642.01C442.28 642.01 442.93 642.66 442.93 643.51C442.93 644.36 442.28 645.01 441.43 645.01C437.83 645.01 434.93 642.11 434.93 638.51V625.21H432.43C431.58 625.21 430.93 624.56 430.93 623.71Z" fill="#7164B2"/>
<path d="M457.38 640.06V613.51C457.38 612.66 458.08 612.01 458.88 612.01C459.73 612.01 460.38 612.66 460.38 613.51V640.06C460.38 641.01 460.88 641.76 461.63 642.21C462.38 642.61 462.63 643.51 462.18 644.26C461.78 645.01 460.88 645.21 460.13 644.81C458.48 643.81 457.38 642.01 457.38 640.06Z" fill="#7164B2"/>
<path d="M466.93 638.51V628.51C466.93 624.91 469.83 622.01 473.43 622.01C477.03 622.01 479.93 624.91 479.93 628.51V633.51C479.93 634.36 479.28 635.01 478.43 635.01H469.93V638.51C469.93 639.91 470.73 641.21 472.08 641.76C473.43 642.31 474.88 642.01 475.88 641.01C476.18 640.71 476.53 640.56 476.93 640.56C477.38 640.56 477.73 640.71 478.03 641.01C478.33 641.26 478.48 641.61 478.48 642.06C478.48 642.46 478.33 642.81 478.03 643.11C476.18 644.96 473.38 645.51 470.93 644.51C468.48 643.51 466.93 641.16 466.93 638.51ZM469.93 628.51V632.01H476.93V628.51C476.93 626.56 475.38 625.01 473.43 625.01C471.48 625.01 469.93 626.56 469.93 628.51Z" fill="#7164B2"/>
<path d="M494.83 637.51V620.51C494.83 617.06 497.08 614.11 500.48 613.16C503.83 612.21 507.28 613.76 509.03 616.71C509.43 617.46 509.18 618.46 508.43 618.91C507.68 619.36 506.68 619.06 506.23 618.31C505.23 616.56 503.23 615.71 501.28 616.26C499.33 616.81 498.03 618.51 498.03 620.51V637.51C498.03 639.51 499.33 641.21 501.28 641.76C503.23 642.31 505.23 641.46 506.23 639.71C506.68 638.96 507.68 638.71 508.43 639.11C509.18 639.56 509.43 640.56 509.03 641.31C507.33 644.31 503.78 645.76 500.48 644.86C497.08 643.91 494.83 640.96 494.83 637.51Z" fill="#7164B2"/>
<path d="M514.18 638.51V628.51C514.18 624.91 517.08 622.01 520.68 622.01C524.28 622.01 527.18 624.91 527.18 628.51V638.51C527.18 642.11 524.23 645.01 520.68 645.01C517.13 645.01 514.18 642.11 514.18 638.51ZM517.18 628.51V638.51C517.18 640.46 518.73 642.01 520.68 642.01C522.63 642.01 524.18 640.46 524.18 638.51V628.51C524.18 626.56 522.63 625.01 520.68 625.01C518.73 625.01 517.18 626.56 517.18 628.51Z" fill="#7164B2"/>
<path d="M532.43 622.059C533.18 621.859 534.03 622.309 534.28 623.059L535.93 628.609C536.88 631.759 537.98 635.509 538.83 638.309C539.63 635.509 540.78 631.759 541.73 628.609L543.38 623.059C543.63 622.309 544.48 621.859 545.28 622.059C546.08 622.309 546.53 623.159 546.28 623.959L540.28 643.959C540.08 644.559 539.48 645.009 538.83 645.009C538.18 645.009 537.58 644.559 537.38 643.959L531.38 623.959C531.18 623.159 531.63 622.309 532.43 622.059Z" fill="#7164B2"/>
<path d="M551.08 616.01C551.08 614.86 551.93 614.01 553.08 614.01C554.23 614.01 555.08 614.86 555.08 616.01C555.08 617.16 554.23 618.01 553.08 618.01C551.93 618.01 551.08 617.16 551.08 616.01ZM553.08 645.01C552.28 645.01 551.58 644.36 551.58 643.51V623.51C551.58 622.66 552.28 622.01 553.08 622.01C553.93 622.01 554.58 622.66 554.58 623.51V643.51C554.58 644.36 553.93 645.01 553.08 645.01Z" fill="#7164B2"/>
<path d="M560.98 638.31V628.71C560.98 625.11 563.88 622.21 567.48 622.21H570.98V613.51C570.98 612.66 571.63 612.01 572.48 612.01C573.28 612.01 573.98 612.66 573.98 613.51V643.31C573.98 644.16 573.28 644.81 572.48 644.81H567.48C563.88 644.81 560.98 641.91 560.98 638.31ZM563.98 628.71V638.31C563.98 640.26 565.53 641.81 567.48 641.81H570.98V625.21H567.48C565.53 625.21 563.98 626.76 563.98 628.71Z" fill="#7164B2"/>
<path d="M988.6 944.739C988.78 943.119 988.18 941.559 987.04 940.419L977.44 930.579C975.58 928.719 974.68 926.139 974.92 923.559C975.1 920.919 976.42 918.579 978.52 916.959C980.62 915.339 983.26 914.739 985.84 915.279C988.42 915.819 990.52 917.319 991.9 919.659C992.44 920.559 992.14 921.759 991.18 922.299C990.28 922.839 989.08 922.479 988.6 921.579C987.82 920.199 986.62 919.359 985.06 919.059C983.5 918.759 982.06 919.059 980.8 920.019C979.54 920.919 978.88 922.179 978.76 923.799C978.64 925.359 979.12 926.739 980.2 927.879L989.8 937.779C991.66 939.699 992.62 942.339 992.44 945.039C992.2 947.739 990.88 950.199 988.72 951.819C986.56 953.439 983.8 954.099 981.16 953.559C978.52 953.019 976.24 951.399 974.86 949.059C974.38 948.099 974.68 946.959 975.58 946.419C976.48 945.879 977.68 946.179 978.22 947.139C979 948.519 980.32 949.479 981.94 949.779C983.56 950.079 985.06 949.779 986.38 948.759C987.76 947.739 988.48 946.419 988.6 944.739Z" fill="#7164B2"/>
<path d="M998.38 945.82V933.82C998.38 929.5 1001.86 926.02 1006.18 926.02C1010.5 926.02 1013.98 929.5 1013.98 933.82V945.82C1013.98 950.14 1010.44 953.62 1006.18 953.62C1001.92 953.62 998.38 950.14 998.38 945.82ZM1001.98 933.82V945.82C1001.98 948.16 1003.84 950.02 1006.18 950.02C1008.52 950.02 1010.38 948.16 1010.38 945.82V933.82C1010.38 931.48 1008.52 929.62 1006.18 929.62C1003.84 929.62 1001.98 931.48 1001.98 933.82Z" fill="#7164B2"/>
<path d="M1021.06 918.82C1021.06 917.44 1022.08 916.42 1023.46 916.42C1024.84 916.42 1025.86 917.44 1025.86 918.82C1025.86 920.2 1024.84 921.22 1023.46 921.22C1022.08 921.22 1021.06 920.2 1021.06 918.82ZM1023.46 953.62C1022.5 953.62 1021.66 952.84 1021.66 951.82V927.82C1021.66 926.8 1022.5 926.02 1023.46 926.02C1024.48 926.02 1025.26 926.8 1025.26 927.82V951.82C1025.26 952.84 1024.48 953.62 1023.46 953.62Z" fill="#7164B2"/>
<path d="M1031.02 928.06C1031.02 927.04 1031.8 926.26 1032.82 926.26H1035.82V915.82C1035.82 914.8 1036.6 914.02 1037.62 914.02C1038.64 914.02 1039.42 914.8 1039.42 915.82V926.26H1043.62C1044.64 926.26 1045.42 927.04 1045.42 928.06C1045.42 929.08 1044.64 929.86 1043.62 929.86H1039.42V945.82C1039.42 948.16 1041.28 950.02 1043.62 950.02C1044.64 950.02 1045.42 950.8 1045.42 951.82C1045.42 952.84 1044.64 953.62 1043.62 953.62C1039.3 953.62 1035.82 950.14 1035.82 945.82V929.86H1032.82C1031.8 929.86 1031.02 929.08 1031.02 928.06Z" fill="#7164B2"/>
<path d="M1062.46 945.58V927.82C1062.46 926.8 1063.24 926.02 1064.26 926.02C1065.28 926.02 1066.06 926.8 1066.06 927.82V945.58C1066.06 947.92 1067.92 949.78 1070.26 949.78H1074.46V927.82C1074.46 926.8 1075.24 926.02 1076.26 926.02C1077.28 926.02 1078.06 926.8 1078.06 927.82V951.58C1078.06 952.6 1077.28 953.379 1076.26 953.379H1070.26C1065.94 953.379 1062.46 949.9 1062.46 945.58Z" fill="#7164B2"/>
<path d="M1086.46 951.82V928.06C1086.46 927.04 1087.24 926.26 1088.26 926.26H1094.26C1098.52 926.26 1102.06 929.74 1102.06 934.06V951.82C1102.06 952.84 1101.22 953.62 1100.26 953.62C1099.24 953.62 1098.46 952.84 1098.46 951.82V934.06C1098.46 931.72 1096.6 929.86 1094.26 929.86H1090.06V951.82C1090.06 952.84 1089.22 953.62 1088.26 953.62C1087.24 953.62 1086.46 952.84 1086.46 951.82Z" fill="#7164B2"/>
<path d="M1109.25 945.82V933.82C1109.25 929.5 1112.73 926.02 1117.05 926.02C1121.37 926.02 1124.85 929.5 1124.85 933.82V939.82C1124.85 940.84 1124.07 941.62 1123.05 941.62H1112.85V945.82C1112.85 947.5 1113.81 949.059 1115.43 949.719C1117.05 950.379 1118.79 950.02 1119.99 948.82C1120.35 948.46 1120.77 948.28 1121.25 948.28C1121.79 948.28 1122.21 948.46 1122.57 948.82C1122.93 949.12 1123.11 949.54 1123.11 950.08C1123.11 950.56 1122.93 950.98 1122.57 951.34C1120.35 953.56 1116.99 954.22 1114.05 953.02C1111.11 951.82 1109.25 949 1109.25 945.82ZM1112.86 933.82V938.02H1121.26V933.82C1121.26 931.48 1119.4 929.62 1117.06 929.62C1114.72 929.62 1112.86 931.48 1112.86 933.82Z" fill="#7164B2"/>
<path d="M1143.58 951.58V915.82C1143.58 914.8 1144.36 914.02 1145.38 914.02C1146.34 914.02 1147.18 914.8 1147.18 915.82V926.26H1151.38C1155.64 926.26 1159.18 929.74 1159.18 934.06V945.58C1159.18 949.9 1155.64 953.379 1151.38 953.379H1145.38C1144.36 953.379 1143.58 952.6 1143.58 951.58ZM1147.17 949.78H1151.37C1153.71 949.78 1155.57 947.92 1155.57 945.58V934.06C1155.57 931.72 1153.71 929.86 1151.37 929.86H1147.17V949.78Z" fill="#7164B2"/>
<path d="M1176.45 933.7C1176.45 932.02 1175.43 930.58 1173.93 929.92C1172.31 929.26 1170.63 929.62 1169.49 930.82C1169.13 931.18 1168.71 931.36 1168.17 931.36C1167.69 931.36 1167.27 931.18 1166.91 930.82C1166.55 930.46 1166.37 930.04 1166.37 929.56C1166.37 929.02 1166.55 928.6 1166.91 928.3C1169.13 926.08 1172.43 925.42 1175.31 926.62C1178.19 927.82 1180.05 930.58 1180.05 933.7V951.58C1180.05 952.6 1179.21 953.38 1178.25 953.38H1172.25C1167.93 953.38 1164.45 949.9 1164.45 945.58C1164.45 941.26 1167.93 937.78 1172.25 937.78H1176.45V933.7ZM1172.25 949.78H1176.45V941.38H1172.25C1169.91 941.38 1168.05 943.24 1168.05 945.58C1168.05 947.92 1169.91 949.78 1172.25 949.78Z" fill="#7164B2"/>
<path d="M1187.37 918.82C1187.37 917.44 1188.39 916.42 1189.77 916.42C1191.15 916.42 1192.17 917.44 1192.17 918.82C1192.17 920.2 1191.15 921.22 1189.77 921.22C1188.39 921.22 1187.37 920.2 1187.37 918.82ZM1189.77 953.62C1188.81 953.62 1187.97 952.84 1187.97 951.82V927.82C1187.97 926.8 1188.81 926.02 1189.77 926.02C1190.79 926.02 1191.57 926.8 1191.57 927.82V951.82C1191.57 952.84 1190.79 953.62 1189.77 953.62Z" fill="#7164B2"/>
<path d="M1209.09 945.938C1209.03 944.738 1208.49 943.779 1207.47 943.059L1201.89 939.099C1200.03 937.839 1199.01 935.858 1198.83 933.698C1198.65 931.478 1199.55 929.378 1201.17 927.938C1202.79 926.438 1204.95 925.779 1207.11 926.079C1209.27 926.499 1211.13 927.699 1212.27 929.619C1212.75 930.519 1212.51 931.599 1211.61 932.079C1210.71 932.559 1209.63 932.318 1209.15 931.418C1208.61 930.458 1207.71 929.858 1206.57 929.678C1205.43 929.498 1204.41 929.799 1203.57 930.579C1202.73 931.359 1202.37 932.318 1202.43 933.458C1202.49 934.598 1203.03 935.498 1203.99 936.158L1209.57 940.059C1211.43 941.439 1212.51 943.358 1212.69 945.698C1212.87 948.038 1211.97 950.138 1210.29 951.638C1208.61 953.258 1206.39 953.859 1204.17 953.559C1201.83 953.139 1199.97 951.878 1198.83 949.898C1198.35 948.998 1198.59 947.918 1199.49 947.438C1200.39 946.958 1201.47 947.199 1201.95 948.099C1202.61 949.119 1203.51 949.778 1204.71 949.958C1205.85 950.138 1206.93 949.839 1207.89 948.999C1208.79 948.159 1209.21 947.138 1209.09 945.938Z" fill="#7164B2"/>
<path d="M1228.83 945.938C1228.77 944.738 1228.23 943.779 1227.21 943.059L1221.63 939.099C1219.77 937.839 1218.75 935.858 1218.57 933.698C1218.39 931.478 1219.29 929.378 1220.91 927.938C1222.53 926.438 1224.69 925.779 1226.85 926.079C1229.01 926.499 1230.87 927.699 1232.01 929.619C1232.49 930.519 1232.25 931.599 1231.35 932.079C1230.45 932.559 1229.37 932.318 1228.89 931.418C1228.35 930.458 1227.45 929.858 1226.31 929.678C1225.17 929.498 1224.15 929.799 1223.31 930.579C1222.47 931.359 1222.11 932.318 1222.17 933.458C1222.23 934.598 1222.77 935.498 1223.73 936.158L1229.31 940.059C1231.17 941.439 1232.25 943.358 1232.43 945.698C1232.61 948.038 1231.71 950.138 1230.03 951.638C1228.35 953.258 1226.13 953.859 1223.91 953.559C1221.57 953.139 1219.71 951.878 1218.57 949.898C1218.09 948.998 1218.33 947.918 1219.23 947.438C1220.13 946.958 1221.21 947.199 1221.69 948.099C1222.35 949.119 1223.25 949.778 1224.45 949.958C1225.59 950.138 1226.67 949.839 1227.63 948.999C1228.53 948.159 1228.95 947.138 1228.83 945.938Z" fill="#7164B2"/>
<path d="M1238.73 945.82V933.82C1238.73 929.5 1242.21 926.02 1246.53 926.02C1250.85 926.02 1254.33 929.5 1254.33 933.82V939.82C1254.33 940.84 1253.55 941.62 1252.53 941.62H1242.33V945.82C1242.33 947.5 1243.29 949.059 1244.91 949.719C1246.53 950.379 1248.27 950.02 1249.47 948.82C1249.83 948.46 1250.25 948.28 1250.73 948.28C1251.27 948.28 1251.69 948.46 1252.05 948.82C1252.41 949.12 1252.59 949.54 1252.59 950.08C1252.59 950.56 1252.41 950.98 1252.05 951.34C1249.83 953.56 1246.47 954.22 1243.53 953.02C1240.59 951.82 1238.73 949 1238.73 945.82ZM1242.33 933.82V938.02H1250.73V933.82C1250.73 931.48 1248.87 929.62 1246.53 929.62C1244.19 929.62 1242.33 931.48 1242.33 933.82Z" fill="#7164B2"/>
<path d="M1315.38 894.55C1316.7 895.09 1317.74 896.16 1318.49 897.77C1319.24 899.38 1319.63 901.26 1319.63 903.41V946.77C1319.63 947.11 1319.56 947.92 1319.41 949.19C1319.26 949.82 1319.04 950.44 1318.75 951.02C1318.21 952.34 1317.43 953.51 1316.41 954.54C1315.39 955.57 1314.29 956.3 1312.97 956.88C1311.6 957.47 1310.19 957.76 1308.72 957.76C1307.25 957.76 1305.84 957.47 1304.47 956.88C1303.15 956.29 1301.98 955.51 1300.95 954.54C1299.97 953.51 1299.19 952.34 1298.61 951.02C1298.02 949.65 1297.73 948.24 1297.73 946.77V861.15C1297.73 860.86 1297.83 860.05 1298.02 858.73C1298.17 858.1 1298.36 857.48 1298.61 856.9C1299.15 855.58 1299.93 854.44 1300.95 853.46C1301.93 852.43 1303.07 851.65 1304.39 851.12C1305.76 850.53 1307.17 850.24 1308.64 850.24C1310.2 850.24 1311.64 850.53 1312.96 851.12C1314.23 851.66 1315.38 852.44 1316.4 853.46C1317.43 854.44 1318.21 855.58 1318.74 856.9C1319.33 858.27 1319.62 859.68 1319.62 861.15V891.98H1309.59V861.15C1309.59 860.61 1309.27 860.32 1308.64 860.27C1308.15 860.27 1307.86 860.56 1307.76 861.15V900.33H1308.27V899.6C1308.9 896.77 1310.32 895.01 1312.52 894.33C1312.91 894.23 1313.28 894.18 1313.62 894.18C1314.06 894.18 1314.44 894.23 1314.76 894.33C1315.08 894.43 1315.28 894.5 1315.38 894.55ZM1309.67 946.92V904.66C1309.47 904.12 1309.16 903.85 1308.72 903.85C1308.28 903.9 1307.99 904.14 1307.84 904.58L1307.77 946.91C1307.96 947.5 1308.31 947.79 1308.8 947.79C1309.29 947.69 1309.58 947.4 1309.68 946.91L1309.67 946.92Z" fill="#7164B2"/>
<path d="M1351.3 851.629V932.269H1353.57V941.499H1351.3V956.809H1341.27V941.499H1328.45V932.339L1333.58 851.629H1351.3ZM1341.34 892.199L1343.02 860.779H1342.36L1338.4 932.259H1341.26V892.199H1341.33H1341.34Z" fill="#7164B2"/>
<path d="M1362.39 956.73V945.01H1372.42V956.73C1371.3 959.85 1370.15 962.98 1368.98 966.11H1362.39L1365.83 956.73H1362.39Z" fill="#7164B2"/>
<path d="M1400.43 853.39C1401.46 854.37 1402.24 855.51 1402.77 856.83C1403.36 858.2 1403.65 859.61 1403.65 861.08V894.77H1403.58C1403.48 895.84 1403.21 896.89 1402.77 897.92C1402.23 899.24 1401.45 900.39 1400.43 901.36C1399.7 902.09 1399.18 902.53 1398.89 902.68C1397.91 903.36 1395.77 905.02 1392.44 907.66C1392.29 907.76 1392.12 907.98 1391.93 908.32L1391.78 908.98L1391.71 947.51H1393.61L1393.54 909.42H1403.57V956.73H1381.74L1381.67 910.44H1381.74V908.98C1381.74 907.42 1382.03 905.98 1382.62 904.66C1382.86 904.07 1383.16 903.51 1383.5 902.98L1384.96 901.22C1386.13 899.95 1388.89 897.68 1393.24 894.41C1393.34 894.36 1393.41 894.26 1393.46 894.12C1393.56 893.88 1393.61 893.73 1393.61 893.68V861.09C1393.61 860.55 1393.32 860.24 1392.73 860.14C1392.24 860.14 1391.92 860.46 1391.78 861.09V892.22H1381.75V861.09C1381.75 859.63 1382.04 858.21 1382.63 856.84C1383.22 855.52 1384 854.38 1384.97 853.4C1386 852.37 1387.17 851.59 1388.49 851.06C1389.86 850.47 1391.27 850.18 1392.74 850.18C1394.21 850.18 1395.62 850.47 1396.99 851.06C1398.31 851.6 1399.45 852.38 1400.43 853.4V853.39Z" fill="#7164B2"/>
<path d="M1433.93 856.9C1434.52 858.27 1434.81 859.68 1434.81 861.15V946.77C1434.81 947.11 1434.74 947.92 1434.59 949.19C1434.44 949.82 1434.25 950.44 1434 951.02C1433.41 952.34 1432.63 953.51 1431.66 954.54C1430.63 955.52 1429.46 956.3 1428.14 956.88C1426.77 957.47 1425.36 957.76 1423.89 957.76C1422.42 957.76 1421.01 957.47 1419.64 956.88C1418.32 956.29 1417.15 955.51 1416.12 954.54C1415.14 953.51 1414.36 952.34 1413.78 951.02C1413.24 949.65 1412.97 948.24 1412.97 946.77V916.01H1422.93V946.77C1422.93 947.26 1423.25 947.58 1423.88 947.72C1424.42 947.72 1424.73 947.4 1424.83 946.77V907.59H1424.24V908.4C1423.61 911.18 1422.21 912.92 1420.07 913.6C1419.63 913.7 1419.26 913.75 1418.97 913.75C1418.09 913.75 1417.51 913.65 1417.21 913.46C1415.89 912.87 1414.84 911.78 1414.06 910.16C1413.28 908.55 1412.89 906.67 1412.89 904.52V861.16C1412.89 860.77 1412.99 859.96 1413.18 858.74C1413.33 858.11 1413.52 857.49 1413.77 856.91C1414.31 855.59 1415.09 854.45 1416.11 853.47C1417.14 852.44 1418.28 851.66 1419.55 851.13C1420.92 850.54 1422.36 850.25 1423.87 850.25C1425.38 850.25 1426.75 850.54 1428.12 851.13C1429.39 851.67 1430.54 852.45 1431.56 853.47C1432.59 854.45 1433.37 855.59 1433.9 856.91L1433.93 856.9ZM1424.7 903.41L1424.77 861.08C1424.77 860.64 1424.48 860.35 1423.89 860.2H1423.74C1423.3 860.2 1423.03 860.49 1422.93 861.08V903.34C1423.12 903.83 1423.44 904.07 1423.88 904.07C1424.27 904.07 1424.54 903.85 1424.69 903.41H1424.7Z" fill="#7164B2"/>
<path d="M1461.06 896.31C1460.13 897.24 1459.08 897.95 1457.91 898.43C1456.64 898.97 1455.35 899.24 1454.03 899.24C1452.71 899.24 1451.42 898.97 1450.15 898.43C1448.98 897.94 1447.93 897.23 1447 896.31C1446.07 895.38 1445.36 894.33 1444.88 893.16C1444.34 891.89 1444.07 890.6 1444.07 889.28V860.13C1444.07 858.81 1444.34 857.52 1444.88 856.25C1445.37 855.08 1446.08 854.03 1447 853.1C1447.93 852.22 1448.98 851.51 1450.15 850.98C1451.42 850.49 1452.71 850.25 1454.03 850.25C1455.35 850.25 1456.64 850.5 1457.91 850.98C1459.08 851.52 1460.13 852.23 1461.06 853.1C1461.94 854.03 1462.65 855.08 1463.18 856.25C1463.72 857.52 1463.99 858.81 1463.99 860.13V889.28C1463.99 890.6 1463.72 891.89 1463.18 893.16C1462.64 894.33 1461.93 895.38 1461.06 896.31ZM1454.83 889.27V860.12C1454.83 859.68 1454.56 859.41 1454.02 859.31C1453.53 859.31 1453.24 859.58 1453.14 860.12V889.27C1453.14 889.71 1453.43 890 1454.02 890.15C1454.46 890.15 1454.73 889.86 1454.83 889.27ZM1470.8 851.48H1477.68L1463.32 956.73H1456.44L1470.8 851.48ZM1487.13 912.05C1488.06 912.98 1488.77 914.03 1489.25 915.2C1489.79 916.47 1490.06 917.76 1490.06 919.08V948.23C1490.06 949.55 1489.79 950.84 1489.25 952.11C1488.76 953.28 1488.05 954.33 1487.13 955.26C1486.25 956.14 1485.2 956.85 1483.98 957.38C1482.71 957.92 1481.42 958.19 1480.1 958.19C1478.78 958.19 1477.49 957.92 1476.22 957.38C1475.05 956.84 1474 956.13 1473.07 955.26C1472.19 954.33 1471.48 953.28 1470.95 952.11C1470.41 950.84 1470.14 949.55 1470.14 948.23V919.08C1470.14 917.76 1470.41 916.47 1470.95 915.2C1471.49 914.03 1472.2 912.98 1473.07 912.05C1474 911.17 1475.05 910.46 1476.22 909.93C1477.49 909.39 1478.78 909.12 1480.1 909.12C1481.42 909.12 1482.71 909.39 1483.98 909.93C1485.2 910.47 1486.25 911.18 1487.13 912.05ZM1480.98 948.23V919.08C1480.98 918.64 1480.69 918.37 1480.1 918.27C1479.66 918.27 1479.37 918.54 1479.22 919.08V948.23C1479.22 948.67 1479.51 948.94 1480.1 949.04C1480.54 949.04 1480.83 948.77 1480.98 948.23Z" fill="#7164B2"/>
</svg>
