<svg width="1920" height="1080" viewBox="0 0 1920 1080" fill="none" xmlns="http://www.w3.org/2000/svg">
<path d="M1920 0H0V1080H1920V0Z" fill="#EA5959"/>
<path d="M153 269.5C153 265.358 149.642 262 145.5 262C141.358 262 138 265.358 138 269.5V345.5C138 349.642 141.358 353 145.5 353C149.642 353 153 349.642 153 345.5V269.5Z" fill="#F97D7D"/>
<path d="M225 145.5C225 141.358 221.642 138 217.5 138C213.358 138 210 141.358 210 145.5V298.5C210 302.642 213.358 306 217.5 306C221.642 306 225 302.642 225 298.5V145.5Z" fill="#F97D7D"/>
<path d="M323 697.5C323 693.358 319.642 690 315.5 690C311.358 690 308 693.358 308 697.5V850.5C308 854.642 311.358 858 315.5 858C319.642 858 323 854.642 323 850.5V697.5Z" fill="#F97D7D"/>
<path d="M429 478.5C429 474.358 425.642 471 421.5 471C417.358 471 414 474.358 414 478.5V586.5C414 590.642 417.358 594 421.5 594C425.642 594 429 590.642 429 586.5V478.5Z" fill="#F97D7D"/>
<path d="M1388 174.5C1388 170.358 1384.64 167 1380.5 167C1376.36 167 1373 170.358 1373 174.5V245.5C1373 249.642 1376.36 253 1380.5 253C1384.64 253 1388 249.642 1388 245.5V174.5Z" fill="#F97D7D"/>
<path d="M1481 122.5C1481 118.358 1477.64 115 1473.5 115C1469.36 115 1466 118.358 1466 122.5V146.5C1466 150.642 1469.36 154 1473.5 154C1477.64 154 1481 150.642 1481 146.5V122.5Z" fill="#F97D7D"/>
<path d="M1843 546.5C1843 542.358 1839.64 539 1835.5 539C1831.36 539 1828 542.358 1828 546.5V749.5C1828 753.642 1831.36 757 1835.5 757C1839.64 757 1843 753.642 1843 749.5V546.5Z" fill="#F97D7D"/>
<path d="M1740 570.5C1740 566.358 1736.64 563 1732.5 563C1728.36 563 1725 566.358 1725 570.5V611.5C1725 615.642 1728.36 619 1732.5 619C1736.64 619 1740 615.642 1740 611.5V570.5Z" fill="#F97D7D"/>
<path d="M75 878.5C75 874.358 71.6421 871 67.5 871C63.3579 871 60 874.358 60 878.5V1007.5C60 1011.64 63.3579 1015 67.5 1015C71.6421 1015 75 1011.64 75 1007.5V878.5Z" fill="#F97D7D"/>
<path d="M1664 953.5C1664 949.358 1660.64 946 1656.5 946C1652.36 946 1649 949.358 1649 953.5V994.5C1649 998.642 1652.36 1002 1656.5 1002C1660.64 1002 1664 998.642 1664 994.5V953.5Z" fill="#F97D7D"/>
<path d="M1481 722.5C1481 718.358 1477.64 715 1473.5 715C1469.36 715 1466 718.358 1466 722.5V860.5C1466 864.642 1469.36 868 1473.5 868C1477.64 868 1481 864.642 1481 860.5V722.5Z" fill="#F97D7D"/>
<path d="M1519 663.5C1519 659.358 1515.64 656 1511.5 656C1507.36 656 1504 659.358 1504 663.5V732.5C1504 736.642 1507.36 740 1511.5 740C1515.64 740 1519 736.642 1519 732.5V663.5Z" fill="#F97D7D"/>
<path d="M1725 210.5C1725 206.358 1721.64 203 1717.5 203C1713.36 203 1710 206.358 1710 210.5V279.5C1710 283.642 1713.36 287 1717.5 287C1721.64 287 1725 283.642 1725 279.5V210.5Z" fill="#F97D7D"/>
<path d="M404 610.5C404 606.358 400.642 603 396.5 603C392.358 603 389 606.358 389 610.5V648.5C389 652.642 392.358 656 396.5 656C400.642 656 404 652.642 404 648.5V610.5Z" fill="#F97D7D"/>
<path d="M301.8 154.58C305.22 157.84 307.82 161.66 309.61 166.05C311.56 170.61 312.54 175.33 312.54 180.21V292.51H312.3C311.97 296.09 311.08 299.59 309.61 303.01C307.82 307.4 305.22 311.23 301.8 314.48C299.36 316.92 297.65 318.39 296.67 318.87C293.41 321.15 286.25 326.68 275.19 335.47C274.7 335.8 274.13 336.53 273.48 337.67L272.99 339.87L272.75 468.29H279.1L278.86 341.34H312.31V499.05H239.56L239.32 344.75H239.56V339.87C239.56 334.66 240.54 329.86 242.49 325.47C243.3 323.52 244.28 321.65 245.42 319.85L250.3 313.99C254.21 309.76 263.4 302.19 277.89 291.28C278.21 291.12 278.46 290.79 278.62 290.3C278.94 289.49 279.11 289 279.11 288.84V180.2C279.11 178.41 278.13 177.35 276.18 177.03C274.55 177.03 273.49 178.09 273.01 180.2V283.96H239.56V180.2C239.56 175.32 240.54 170.6 242.49 166.04C244.44 161.65 247.04 157.82 250.3 154.57C253.72 151.15 257.62 148.55 262.02 146.76C266.57 144.81 271.3 143.83 276.18 143.83C281.06 143.83 285.78 144.81 290.34 146.76C294.73 148.55 298.56 151.15 301.81 154.57L301.8 154.58Z" fill="#B23030"/>
<path d="M399.5 302.29C395.59 306.36 392.09 308.64 389 309.13V310.11C392.74 310.44 396.65 313.12 400.72 318.17C402.18 320.61 403.08 322.89 403.41 325.01C403.73 327.13 403.9 328.67 403.9 329.65V465.88C403.9 470.76 402.92 475.49 400.97 480.04C399.99 482.48 398.77 484.84 397.31 487.12C396.01 488.75 394.62 490.29 393.16 491.76C389.74 495.18 385.92 497.78 381.69 499.57C378.76 500.71 376.64 501.44 375.34 501.77C374.2 502.26 371.68 502.5 367.77 502.5C365.33 502.5 362.48 502.17 359.23 501.52C356.46 500.7 354.51 500.06 353.37 499.57C348.98 497.62 345.07 495.02 341.65 491.76C338.39 488.34 335.79 484.44 333.84 480.04C331.89 475.49 330.91 470.76 330.91 465.88V329.65C330.91 328.67 331.07 327.13 331.4 325.01C331.72 322.9 332.62 320.62 334.09 318.17C338.48 312.96 342.63 310.28 346.54 310.11V309.38C343.12 308.89 339.38 306.53 335.31 302.3C333.36 299.7 332.14 297.22 331.65 294.85C331.16 292.49 330.92 290.82 330.92 289.85L331.41 180.47C331.41 175.59 332.3 170.87 334.1 166.31C336.05 161.92 338.65 158.01 341.91 154.59C345.33 151.17 349.23 148.57 353.63 146.78C354.93 146.29 356.88 145.64 359.49 144.83C362.74 144.18 365.59 143.85 368.03 143.85C370.47 143.85 373.07 144.18 375.84 144.83C379.75 146.13 381.78 146.78 381.94 146.78C382.43 146.94 383 147.19 383.65 147.51C387.39 149.3 390.73 151.66 393.66 154.59C396.91 158.01 399.52 161.91 401.47 166.31C403.26 170.87 404.16 175.59 404.16 180.47L403.92 289.85C403.92 290.83 403.68 292.5 403.19 294.85C402.7 297.21 401.48 299.69 399.53 302.3L399.5 302.29ZM370.45 466.1L370.69 327.92C370.53 325.97 369.71 324.59 368.25 323.77L367.52 323.53H367.28C366.95 323.69 366.63 323.77 366.3 323.77C364.84 324.75 364.1 326.13 364.1 327.92C364.1 329.06 364.18 375.04 364.34 465.86C364.34 467.49 365.4 468.55 367.51 469.03C368.49 469.03 369.3 468.63 369.95 467.81C370.27 467.16 370.44 466.59 370.44 466.1H370.45ZM370.45 289.83L370.69 180.21C370.69 178.91 370.12 178.01 368.98 177.52C368.65 177.36 368.25 177.28 367.76 177.28C366.13 177.28 365.07 178.34 364.59 180.45L364.35 289.83C364.35 291.29 364.92 292.27 366.06 292.76H368.75C369.24 292.44 369.64 292.03 369.97 291.54C370.29 290.89 370.46 290.32 370.46 289.83H370.45Z" fill="#B23030"/>
<path d="M422.5 499.06V460H455.951V499.06C452.201 509.47 448.38 519.89 444.48 530.31H422.51L433.98 499.06H422.51H422.5Z" fill="#B23030"/>
<path d="M472.84 181.921V148.471H545.84V181.921L506.29 499.301H472.84L512.63 181.921H472.84Z" fill="#B23030"/>
<path d="M673.57 499.31H640.12V199.01H639.14L629.62 499.3H608.14L598.62 199.01H597.64V499.3H564.19V148.48H608.62L617.65 431.19H620.34L629.13 148.48H673.56V499.31H673.57Z" fill="#B23030"/>
<path d="M1345.9 881.48C1347.22 882.02 1348.26 883.09 1349.01 884.7C1349.76 886.31 1350.15 888.19 1350.15 890.34V933.7C1350.15 934.04 1350.08 934.85 1349.93 936.12C1349.78 936.75 1349.56 937.37 1349.27 937.95C1348.73 939.27 1347.95 940.44 1346.93 941.47C1345.91 942.5 1344.81 943.23 1343.49 943.81C1342.12 944.4 1340.71 944.69 1339.24 944.69C1337.77 944.69 1336.36 944.4 1334.99 943.81C1333.67 943.22 1332.5 942.44 1331.47 941.47C1330.49 940.44 1329.71 939.27 1329.13 937.95C1328.54 936.58 1328.25 935.17 1328.25 933.7V848.08C1328.25 847.79 1328.35 846.98 1328.54 845.66C1328.69 845.03 1328.88 844.41 1329.13 843.83C1329.67 842.51 1330.45 841.37 1331.47 840.39C1332.45 839.36 1333.59 838.58 1334.91 838.05C1336.28 837.46 1337.69 837.17 1339.16 837.17C1340.72 837.17 1342.16 837.46 1343.48 838.05C1344.75 838.59 1345.9 839.37 1346.92 840.39C1347.95 841.37 1348.73 842.51 1349.26 843.83C1349.85 845.2 1350.14 846.61 1350.14 848.08V878.91H1340.11V848.08C1340.11 847.54 1339.79 847.25 1339.16 847.2C1338.67 847.2 1338.38 847.49 1338.28 848.08V887.26H1338.79V886.53C1339.42 883.7 1340.84 881.94 1343.04 881.26C1343.43 881.16 1343.8 881.11 1344.14 881.11C1344.58 881.11 1344.96 881.16 1345.28 881.26C1345.6 881.36 1345.8 881.43 1345.9 881.48ZM1340.18 933.84V891.58C1339.98 891.04 1339.67 890.77 1339.23 890.77C1338.79 890.82 1338.5 891.06 1338.35 891.5L1338.28 933.83C1338.47 934.42 1338.82 934.71 1339.31 934.71C1339.8 934.61 1340.09 934.32 1340.19 933.83L1340.18 933.84Z" fill="#B23030"/>
<path d="M1378.08 840.39C1379.11 841.37 1379.89 842.51 1380.42 843.83C1381.01 845.2 1381.3 846.61 1381.3 848.08V933.7C1381.3 935.16 1381.01 936.58 1380.42 937.95C1379.88 939.27 1379.1 940.44 1378.08 941.47C1377.05 942.45 1375.91 943.23 1374.64 943.81C1373.22 944.35 1371.78 944.62 1370.32 944.62C1368.86 944.62 1367.44 944.35 1366.07 943.81C1364.75 943.22 1363.6 942.44 1362.63 941.47C1361.6 940.44 1360.82 939.27 1360.29 937.95C1359.7 936.58 1359.41 935.17 1359.41 933.7V848.08C1359.41 846.62 1359.7 845.2 1360.29 843.83C1360.83 842.51 1361.61 841.37 1362.63 840.39C1363.61 839.36 1364.75 838.58 1366.07 838.05C1367.44 837.46 1368.85 837.17 1370.32 837.17C1371.79 837.17 1373.22 837.46 1374.64 838.05C1375.91 838.59 1377.06 839.37 1378.08 840.39ZM1371.27 932.6V849.32C1371.27 848.78 1370.95 848.47 1370.32 848.37C1369.83 848.37 1369.54 848.69 1369.44 849.32V932.6C1369.44 933.19 1369.73 933.5 1370.32 933.55C1370.86 933.55 1371.17 933.23 1371.27 932.6Z" fill="#B23030"/>
<path d="M1390.56 943.659V931.939H1400.59V943.659C1399.47 946.779 1398.32 949.909 1397.15 953.039H1390.56L1394 943.659H1390.56Z" fill="#B23030"/>
<path d="M1427.5 881.11C1428.82 881.65 1429.86 882.72 1430.61 884.33C1431.36 885.94 1431.75 887.82 1431.75 889.97V933.7C1431.75 935.16 1431.46 936.58 1430.87 937.95C1430.33 939.27 1429.55 940.44 1428.53 941.47C1427.51 942.5 1426.41 943.23 1425.09 943.81C1423.72 944.4 1422.31 944.69 1420.84 944.69C1419.37 944.69 1417.96 944.4 1416.59 943.81C1415.27 943.22 1414.1 942.44 1413.07 941.47C1412.09 940.44 1411.31 939.27 1410.73 937.95C1410.53 937.56 1410.34 936.95 1410.14 936.12C1409.94 934.85 1409.85 934.04 1409.85 933.7V893.27H1419.88V933.7C1419.88 934.19 1420.2 934.51 1420.83 934.65C1421.37 934.65 1421.68 934.33 1421.78 933.7V891.59C1421.49 890.56 1421 890.05 1420.32 890.05H1420.25C1419.71 890.15 1419.32 890.49 1419.08 891.08H1409.85V838.49C1417.17 838.49 1424.47 838.52 1431.75 838.56V878.99H1421.72V847.72H1419.89V886.9H1420.4V886.17C1421.03 883.29 1422.45 881.53 1424.65 880.9C1425.04 880.8 1425.41 880.75 1425.75 880.75C1426.19 880.75 1426.57 880.8 1426.89 880.9C1427.21 881 1427.41 881.07 1427.51 881.12L1427.5 881.11Z" fill="#B23030"/>
<path d="M1458.66 881.11C1459.98 881.65 1461.02 882.72 1461.77 884.33C1462.52 885.94 1462.91 887.82 1462.91 889.97V933.7C1462.91 935.16 1462.62 936.58 1462.03 937.95C1461.49 939.27 1460.71 940.44 1459.69 941.47C1458.67 942.5 1457.57 943.23 1456.25 943.81C1454.88 944.4 1453.47 944.69 1452 944.69C1450.53 944.69 1449.12 944.4 1447.75 943.81C1446.43 943.22 1445.26 942.44 1444.23 941.47C1443.25 940.44 1442.47 939.27 1441.89 937.95C1441.69 937.56 1441.5 936.95 1441.3 936.12C1441.1 934.85 1441.01 934.04 1441.01 933.7V893.27H1451.04V933.7C1451.04 934.19 1451.36 934.51 1451.99 934.65C1452.53 934.65 1452.84 934.33 1452.94 933.7V891.59C1452.65 890.56 1452.16 890.05 1451.48 890.05H1451.41C1450.87 890.15 1450.48 890.49 1450.24 891.08H1441.01V838.49C1448.33 838.49 1455.63 838.52 1462.91 838.56V878.99H1452.88V847.72H1451.05V886.9H1451.56V886.17C1452.19 883.29 1453.61 881.53 1455.81 880.9C1456.2 880.8 1456.57 880.75 1456.91 880.75C1457.35 880.75 1457.73 880.8 1458.05 880.9C1458.37 881 1458.57 881.07 1458.67 881.12L1458.66 881.11Z" fill="#B23030"/>
<path d="M1507.64 883.23C1506.71 884.16 1505.66 884.87 1504.49 885.35C1503.22 885.89 1501.93 886.16 1500.61 886.16C1499.29 886.16 1498 885.89 1496.73 885.35C1495.56 884.86 1494.51 884.15 1493.58 883.23C1492.65 882.3 1491.94 881.25 1491.46 880.08C1490.92 878.81 1490.65 877.52 1490.65 876.2V847.05C1490.65 845.73 1490.92 844.44 1491.46 843.17C1491.95 842 1492.66 840.95 1493.58 840.02C1494.51 839.14 1495.56 838.43 1496.73 837.9C1498 837.41 1499.29 837.17 1500.61 837.17C1501.93 837.17 1503.22 837.42 1504.49 837.9C1505.66 838.44 1506.71 839.15 1507.64 840.02C1508.52 840.95 1509.23 842 1509.76 843.17C1510.3 844.44 1510.57 845.73 1510.57 847.05V876.2C1510.57 877.52 1510.3 878.81 1509.76 880.08C1509.22 881.25 1508.51 882.3 1507.64 883.23ZM1501.42 876.2V847.05C1501.42 846.61 1501.15 846.34 1500.61 846.24C1500.12 846.24 1499.83 846.51 1499.73 847.05V876.2C1499.73 876.64 1500.02 876.93 1500.61 877.08C1501.05 877.08 1501.32 876.79 1501.42 876.2ZM1517.39 838.41H1524.27L1509.91 943.66H1503.03L1517.39 838.41ZM1533.72 898.98C1534.65 899.91 1535.36 900.96 1535.84 902.13C1536.38 903.4 1536.65 904.69 1536.65 906.01V935.16C1536.65 936.48 1536.38 937.77 1535.84 939.04C1535.35 940.21 1534.64 941.26 1533.72 942.19C1532.84 943.07 1531.79 943.78 1530.57 944.31C1529.3 944.85 1528.01 945.12 1526.69 945.12C1525.37 945.12 1524.08 944.85 1522.81 944.31C1521.64 943.77 1520.59 943.06 1519.66 942.19C1518.78 941.26 1518.07 940.21 1517.54 939.04C1517 937.77 1516.73 936.48 1516.73 935.16V906.01C1516.73 904.69 1517 903.4 1517.54 902.13C1518.08 900.96 1518.79 899.91 1519.66 898.98C1520.59 898.1 1521.64 897.39 1522.81 896.86C1524.08 896.32 1525.37 896.05 1526.69 896.05C1528.01 896.05 1529.3 896.32 1530.57 896.86C1531.79 897.4 1532.84 898.11 1533.72 898.98ZM1527.57 935.16V906.01C1527.57 905.57 1527.28 905.3 1526.69 905.2C1526.25 905.2 1525.96 905.47 1525.81 906.01V935.16C1525.81 935.6 1526.1 935.87 1526.69 935.97C1527.13 935.97 1527.42 935.7 1527.57 935.16Z" fill="#B23030"/>
<path d="M290.711 544.33H302.711C303.851 544.33 304.631 545.11 304.631 546.25C304.631 547.39 303.851 548.17 302.711 548.17H292.631V560.89H301.511C302.651 560.89 303.431 561.67 303.431 562.81C303.431 563.95 302.651 564.73 301.511 564.73H292.631V578.65H302.711C303.851 578.65 304.631 579.43 304.631 580.57C304.631 581.71 303.851 582.49 302.711 582.49H290.711C289.571 582.49 288.791 581.71 288.791 580.57V546.25C288.791 545.11 289.571 544.33 290.711 544.33Z" fill="#B23030"/>
<path d="M311 580.81V557.05C311 556.03 311.78 555.25 312.8 555.25H318.8C323.06 555.25 326.6 558.73 326.6 563.05V580.81C326.6 581.83 325.76 582.61 324.8 582.61C323.78 582.61 323 581.83 323 580.81V563.05C323 560.71 321.14 558.85 318.8 558.85H314.6V580.81C314.6 581.83 313.76 582.61 312.8 582.61C311.78 582.61 311 581.83 311 580.81Z" fill="#B23030"/>
<path d="M331.871 557.05C331.871 556.03 332.651 555.25 333.671 555.25H336.671V544.81C336.671 543.79 337.451 543.01 338.471 543.01C339.491 543.01 340.271 543.79 340.271 544.81V555.25H344.471C345.491 555.25 346.271 556.03 346.271 557.05C346.271 558.07 345.491 558.85 344.471 558.85H340.271V574.81C340.271 577.15 342.131 579.01 344.471 579.01C345.491 579.01 346.271 579.79 346.271 580.81C346.271 581.83 345.491 582.61 344.471 582.61C340.151 582.61 336.671 579.13 336.671 574.81V558.85H333.671C332.651 558.85 331.871 558.07 331.871 557.05Z" fill="#B23030"/>
<path d="M352.271 580.81V557.05C352.271 556.03 353.051 555.25 354.071 555.25H360.071C361.451 555.25 362.711 555.61 363.971 556.27C364.871 556.81 365.111 557.83 364.631 558.73C364.151 559.63 363.071 559.93 362.171 559.39C361.511 559.03 360.791 558.85 360.071 558.85H355.871V580.81C355.871 581.83 355.091 582.61 354.071 582.61C353.051 582.61 352.271 581.83 352.271 580.81Z" fill="#B23030"/>
<path d="M369.491 574.809V562.809C369.491 558.489 373.031 555.009 377.291 555.009C381.551 555.009 385.091 558.489 385.091 562.809V568.809C385.091 569.829 384.311 570.609 383.291 570.609H373.091V574.809C373.091 576.489 374.051 578.049 375.671 578.709C377.291 579.369 379.091 579.009 380.291 577.809C380.591 577.449 381.011 577.269 381.491 577.269C382.031 577.269 382.451 577.449 382.811 577.809C383.171 578.109 383.351 578.529 383.351 579.069C383.351 579.549 383.171 579.969 382.811 580.329C380.591 582.549 377.231 583.209 374.351 582.009C371.411 580.809 369.491 577.989 369.491 574.809ZM381.671 543.609C382.331 544.329 382.271 545.469 381.491 546.129L375.491 551.529C374.771 552.189 373.631 552.129 372.971 551.409C372.311 550.689 372.371 549.549 373.091 548.889L379.091 543.489C379.871 542.829 380.951 542.889 381.671 543.609ZM373.091 562.809V567.009H381.491V562.809C381.491 560.469 379.631 558.609 377.291 558.609C374.951 558.609 373.091 560.469 373.091 562.809Z" fill="#B23030"/>
<path d="M391.57 574.81V562.81C391.57 558.49 395.05 555.01 399.37 555.01C403.69 555.01 407.17 558.49 407.17 562.81V568.81C407.17 569.83 406.39 570.61 405.37 570.61H395.17V574.81C395.17 576.49 396.13 578.05 397.75 578.71C399.37 579.37 401.11 579.01 402.31 577.81C402.67 577.45 403.09 577.27 403.57 577.27C404.11 577.27 404.53 577.45 404.89 577.81C405.25 578.11 405.43 578.53 405.43 579.07C405.43 579.55 405.25 579.97 404.89 580.33C402.67 582.55 399.31 583.21 396.37 582.01C393.43 580.81 391.57 577.99 391.57 574.81ZM395.17 562.81V567.01H403.57V562.81C403.57 560.47 401.71 558.61 399.37 558.61C397.03 558.61 395.17 560.47 395.17 562.81Z" fill="#B23030"/>
<path d="M423.491 574.929C423.431 573.729 422.891 572.769 421.871 572.049L416.291 568.089C414.431 566.829 413.411 564.849 413.231 562.689C413.051 560.469 413.951 558.369 415.571 556.929C417.191 555.429 419.351 554.769 421.511 555.069C423.671 555.489 425.531 556.689 426.671 558.609C427.151 559.509 426.911 560.589 426.011 561.069C425.111 561.549 424.031 561.309 423.551 560.409C423.011 559.449 422.111 558.849 420.971 558.669C419.831 558.489 418.811 558.789 417.971 559.569C417.131 560.349 416.771 561.309 416.831 562.449C416.891 563.589 417.431 564.489 418.391 565.149L423.971 569.049C425.831 570.429 426.911 572.349 427.091 574.689C427.271 577.029 426.371 579.129 424.691 580.629C423.011 582.249 420.791 582.849 418.571 582.549C416.231 582.129 414.371 580.869 413.231 578.889C412.751 577.989 412.991 576.909 413.891 576.429C414.791 575.949 415.871 576.189 416.351 577.089C417.011 578.109 417.911 578.769 419.111 578.949C420.251 579.129 421.331 578.829 422.291 577.989C423.191 577.149 423.611 576.129 423.491 574.929Z" fill="#B23030"/>
<path d="M444.911 574.57V563.05C444.911 558.73 448.391 555.25 452.711 555.25H456.911V544.81C456.911 543.79 457.691 543.01 458.711 543.01C459.671 543.01 460.511 543.79 460.511 544.81V580.57C460.511 581.59 459.671 582.37 458.711 582.37H452.711C448.391 582.37 444.911 578.89 444.911 574.57ZM448.511 563.05V574.57C448.511 576.91 450.371 578.77 452.711 578.77H456.911V558.85H452.711C450.371 558.85 448.511 560.71 448.511 563.05Z" fill="#B23030"/>
<path d="M468.19 574.81V562.81C468.19 558.49 471.67 555.01 475.99 555.01C480.31 555.01 483.79 558.49 483.79 562.81V568.81C483.79 569.83 483.01 570.61 481.99 570.61H471.79V574.81C471.79 576.49 472.75 578.05 474.37 578.71C475.99 579.37 477.73 579.01 478.93 577.81C479.29 577.45 479.71 577.27 480.19 577.27C480.73 577.27 481.15 577.45 481.51 577.81C481.87 578.11 482.05 578.53 482.05 579.07C482.05 579.55 481.87 579.97 481.51 580.33C479.29 582.55 475.93 583.21 472.99 582.01C470.05 580.81 468.19 577.99 468.19 574.81ZM471.79 562.81V567.01H480.19V562.81C480.19 560.47 478.33 558.61 475.99 558.61C473.65 558.61 471.79 560.47 471.79 562.81Z" fill="#B23030"/>
<path d="M501.791 574.811V562.811C501.791 559.631 503.651 556.811 506.591 555.611C509.531 554.411 512.771 555.071 515.111 557.291C515.411 557.651 515.591 558.071 515.591 558.611C515.591 559.091 515.411 559.511 515.111 559.871C514.751 560.171 514.33 560.351 513.79 560.351C513.31 560.351 512.891 560.171 512.531 559.871C511.331 558.611 509.591 558.251 507.971 558.911C506.351 559.571 505.391 561.131 505.391 562.811V574.811C505.391 576.491 506.351 578.051 507.971 578.711C509.591 579.371 511.331 579.011 512.531 577.811C512.891 577.451 513.31 577.271 513.79 577.271C514.33 577.271 514.751 577.451 515.111 577.811C515.411 578.111 515.591 578.531 515.591 579.071C515.591 579.551 515.411 579.971 515.111 580.331C512.771 582.551 509.531 583.211 506.591 582.011C503.651 580.811 501.791 577.991 501.791 574.811Z" fill="#B23030"/>
<path d="M521.59 547.81C521.59 546.43 522.61 545.41 523.99 545.41C525.37 545.41 526.39 546.43 526.39 547.81C526.39 549.19 525.37 550.21 523.99 550.21C522.61 550.21 521.59 549.19 521.59 547.81ZM523.99 582.61C523.03 582.61 522.19 581.83 522.19 580.81V556.81C522.19 555.79 523.03 555.01 523.99 555.01C525.01 555.01 525.79 555.79 525.79 556.81V580.81C525.79 581.83 525.01 582.61 523.99 582.61Z" fill="#B23030"/>
<path d="M534.19 580.81V557.05C534.19 556.03 534.97 555.25 535.99 555.25H541.99C546.25 555.25 549.79 558.73 549.79 563.05V580.81C549.79 581.83 548.95 582.61 547.99 582.61C546.97 582.61 546.19 581.83 546.19 580.81V563.05C546.19 560.71 544.33 558.85 541.99 558.85H537.79V580.81C537.79 581.83 536.95 582.61 535.99 582.61C534.97 582.61 534.19 581.83 534.19 580.81Z" fill="#B23030"/>
<path d="M556.991 574.809V562.809C556.991 558.489 560.531 555.009 564.791 555.009C569.051 555.009 572.591 558.489 572.591 562.809V568.809C572.591 569.829 571.811 570.609 570.791 570.609H560.591V574.809C560.591 576.489 561.551 578.049 563.171 578.709C564.791 579.369 566.591 579.009 567.791 577.809C568.091 577.449 568.511 577.269 568.991 577.269C569.531 577.269 569.951 577.449 570.311 577.809C570.671 578.109 570.851 578.529 570.851 579.069C570.851 579.549 570.671 579.969 570.311 580.329C568.091 582.549 564.731 583.209 561.851 582.009C558.911 580.809 556.991 577.989 556.991 574.809ZM569.171 543.609C569.831 544.329 569.771 545.469 568.991 546.129L562.991 551.529C562.271 552.189 561.131 552.129 560.471 551.409C559.811 550.689 559.871 549.549 560.591 548.889L566.591 543.489C567.371 542.829 568.451 542.889 569.171 543.609ZM560.591 562.809V567.009H568.991V562.809C568.991 560.469 567.131 558.609 564.791 558.609C562.451 558.609 560.591 560.469 560.591 562.809Z" fill="#B23030"/>
<path d="M583.391 580.81C583.391 581.83 582.551 582.61 581.591 582.61C580.571 582.61 579.791 581.83 579.791 580.81V557.05C579.791 556.03 580.571 555.25 581.591 555.25H599.591C603.851 555.25 607.391 558.73 607.391 563.05V580.81C607.391 581.83 606.551 582.61 605.591 582.61C604.571 582.61 603.791 581.83 603.791 580.81V563.05C603.791 560.71 601.931 558.85 599.591 558.85H595.391V580.81C595.391 581.83 594.551 582.61 593.591 582.61C592.571 582.61 591.791 581.83 591.791 580.81V558.85H583.391V580.81Z" fill="#B23030"/>
<path d="M624.911 562.691C624.911 561.011 623.891 559.571 622.391 558.911C620.771 558.251 619.091 558.611 617.951 559.811C617.591 560.171 617.171 560.351 616.631 560.351C616.151 560.351 615.731 560.171 615.371 559.811C615.011 559.451 614.831 559.031 614.831 558.551C614.831 558.011 615.011 557.591 615.371 557.291C617.591 555.071 620.891 554.411 623.771 555.611C626.651 556.811 628.511 559.571 628.511 562.691V580.571C628.511 581.591 627.671 582.371 626.711 582.371H620.711C616.391 582.371 612.911 578.891 612.911 574.571C612.911 570.251 616.391 566.771 620.711 566.771H624.911V562.691ZM620.711 578.771H624.911V570.371H620.711C618.371 570.371 616.511 572.231 616.511 574.571C616.511 576.911 618.371 578.771 620.711 578.771Z" fill="#B23030"/>
<path d="M985.33 927.73C985.51 926.11 984.91 924.55 983.77 923.41L974.17 913.57C972.31 911.71 971.41 909.13 971.65 906.55C971.83 903.91 973.15 901.57 975.25 899.95C977.35 898.33 979.99 897.73 982.57 898.27C985.15 898.81 987.25 900.31 988.63 902.65C989.17 903.55 988.87 904.75 987.91 905.29C987.01 905.83 985.81 905.47 985.33 904.57C984.55 903.19 983.35 902.35 981.79 902.05C980.23 901.75 978.79 902.05 977.53 903.01C976.27 903.91 975.61 905.17 975.49 906.79C975.37 908.35 975.85 909.73 976.93 910.87L986.53 920.77C988.39 922.69 989.35 925.33 989.17 928.03C988.93 930.73 987.61 933.19 985.45 934.81C983.29 936.43 980.53 937.09 977.89 936.55C975.25 936.01 972.97 934.39 971.59 932.05C971.11 931.09 971.41 929.95 972.31 929.41C973.21 928.87 974.41 929.17 974.95 930.13C975.73 931.51 977.05 932.47 978.67 932.77C980.29 933.07 981.79 932.77 983.11 931.75C984.49 930.73 985.21 929.41 985.33 927.73Z" fill="#B23030"/>
<path d="M995.11 928.81V916.81C995.11 912.49 998.59 909.01 1002.91 909.01C1007.23 909.01 1010.71 912.49 1010.71 916.81V928.81C1010.71 933.13 1007.17 936.61 1002.91 936.61C998.65 936.61 995.11 933.13 995.11 928.81ZM998.71 916.81V928.81C998.71 931.15 1000.57 933.01 1002.91 933.01C1005.25 933.01 1007.11 931.15 1007.11 928.81V916.81C1007.11 914.47 1005.25 912.61 1002.91 912.61C1000.57 912.61 998.71 914.47 998.71 916.81Z" fill="#B23030"/>
<path d="M1017.79 901.81C1017.79 900.43 1018.81 899.41 1020.19 899.41C1021.57 899.41 1022.59 900.43 1022.59 901.81C1022.59 903.19 1021.57 904.21 1020.19 904.21C1018.81 904.21 1017.79 903.19 1017.79 901.81ZM1020.19 936.61C1019.23 936.61 1018.39 935.83 1018.39 934.81V910.81C1018.39 909.79 1019.23 909.01 1020.19 909.01C1021.21 909.01 1021.99 909.79 1021.99 910.81V934.81C1021.99 935.83 1021.21 936.61 1020.19 936.61Z" fill="#B23030"/>
<path d="M1027.75 911.05C1027.75 910.03 1028.53 909.25 1029.55 909.25H1032.55V898.81C1032.55 897.79 1033.33 897.01 1034.35 897.01C1035.37 897.01 1036.15 897.79 1036.15 898.81V909.25H1040.35C1041.37 909.25 1042.15 910.03 1042.15 911.05C1042.15 912.07 1041.37 912.85 1040.35 912.85H1036.15V928.81C1036.15 931.15 1038.01 933.01 1040.35 933.01C1041.37 933.01 1042.15 933.79 1042.15 934.81C1042.15 935.83 1041.37 936.61 1040.35 936.61C1036.03 936.61 1032.55 933.13 1032.55 928.81V912.85H1029.55C1028.53 912.85 1027.75 912.07 1027.75 911.05Z" fill="#B23030"/>
<path d="M1059.19 928.57V910.81C1059.19 909.79 1059.97 909.01 1060.99 909.01C1062.01 909.01 1062.79 909.79 1062.79 910.81V928.57C1062.79 930.91 1064.65 932.77 1066.99 932.77H1071.19V910.81C1071.19 909.79 1071.97 909.01 1072.99 909.01C1074.01 909.01 1074.79 909.79 1074.79 910.81V934.57C1074.79 935.59 1074.01 936.37 1072.99 936.37H1066.99C1062.67 936.37 1059.19 932.89 1059.19 928.57Z" fill="#B23030"/>
<path d="M1083.19 934.81V911.05C1083.19 910.03 1083.97 909.25 1084.99 909.25H1090.99C1095.25 909.25 1098.79 912.73 1098.79 917.05V934.81C1098.79 935.83 1097.95 936.61 1096.99 936.61C1095.97 936.61 1095.19 935.83 1095.19 934.81V917.05C1095.19 914.71 1093.33 912.85 1090.99 912.85H1086.79V934.81C1086.79 935.83 1085.95 936.61 1084.99 936.61C1083.97 936.61 1083.19 935.83 1083.19 934.81Z" fill="#B23030"/>
<path d="M1105.99 928.81V916.81C1105.99 912.49 1109.47 909.01 1113.79 909.01C1118.11 909.01 1121.59 912.49 1121.59 916.81V922.81C1121.59 923.83 1120.81 924.61 1119.79 924.61H1109.59V928.81C1109.59 930.49 1110.55 932.05 1112.17 932.71C1113.79 933.37 1115.53 933.01 1116.73 931.81C1117.09 931.45 1117.51 931.27 1117.99 931.27C1118.53 931.27 1118.95 931.45 1119.31 931.81C1119.67 932.11 1119.85 932.53 1119.85 933.07C1119.85 933.55 1119.67 933.97 1119.31 934.33C1117.09 936.55 1113.73 937.21 1110.79 936.01C1107.85 934.81 1105.99 931.99 1105.99 928.81ZM1109.59 916.81V921.01H1117.99V916.81C1117.99 914.47 1116.13 912.61 1113.79 912.61C1111.45 912.61 1109.59 914.47 1109.59 916.81Z" fill="#B23030"/>
<path d="M1140.31 934.57V898.81C1140.31 897.79 1141.09 897.01 1142.11 897.01C1143.07 897.01 1143.91 897.79 1143.91 898.81V909.25H1148.11C1152.37 909.25 1155.91 912.73 1155.91 917.05V928.57C1155.91 932.89 1152.37 936.37 1148.11 936.37H1142.11C1141.09 936.37 1140.31 935.59 1140.31 934.57ZM1143.91 932.77H1148.11C1150.45 932.77 1152.31 930.91 1152.31 928.57V917.05C1152.31 914.71 1150.45 912.85 1148.11 912.85H1143.91V932.77Z" fill="#B23030"/>
<path d="M1173.19 916.691C1173.19 915.011 1172.17 913.571 1170.67 912.911C1169.05 912.251 1167.37 912.611 1166.23 913.811C1165.87 914.171 1165.45 914.351 1164.91 914.351C1164.43 914.351 1164.01 914.171 1163.65 913.811C1163.29 913.451 1163.11 913.031 1163.11 912.551C1163.11 912.011 1163.29 911.591 1163.65 911.291C1165.87 909.071 1169.17 908.411 1172.05 909.611C1174.93 910.811 1176.79 913.571 1176.79 916.691V934.571C1176.79 935.591 1175.95 936.371 1174.99 936.371H1168.99C1164.67 936.371 1161.19 932.891 1161.19 928.571C1161.19 924.251 1164.67 920.771 1168.99 920.771H1173.19V916.691ZM1168.99 932.771H1173.19V924.371H1168.99C1166.65 924.371 1164.79 926.231 1164.79 928.571C1164.79 930.911 1166.65 932.771 1168.99 932.771Z" fill="#B23030"/>
<path d="M1184.11 901.81C1184.11 900.43 1185.13 899.41 1186.51 899.41C1187.89 899.41 1188.91 900.43 1188.91 901.81C1188.91 903.19 1187.89 904.21 1186.51 904.21C1185.13 904.21 1184.11 903.19 1184.11 901.81ZM1186.51 936.61C1185.55 936.61 1184.71 935.83 1184.71 934.81V910.81C1184.71 909.79 1185.55 909.01 1186.51 909.01C1187.53 909.01 1188.31 909.79 1188.31 910.81V934.81C1188.31 935.83 1187.53 936.61 1186.51 936.61Z" fill="#B23030"/>
<path d="M1205.83 928.929C1205.77 927.729 1205.23 926.769 1204.21 926.049L1198.63 922.089C1196.77 920.829 1195.75 918.849 1195.57 916.689C1195.39 914.469 1196.29 912.369 1197.91 910.929C1199.53 909.429 1201.69 908.769 1203.85 909.069C1206.01 909.489 1207.87 910.689 1209.01 912.609C1209.49 913.509 1209.25 914.589 1208.35 915.069C1207.45 915.549 1206.37 915.309 1205.89 914.409C1205.35 913.449 1204.45 912.849 1203.31 912.669C1202.17 912.489 1201.15 912.789 1200.31 913.569C1199.47 914.349 1199.11 915.309 1199.17 916.449C1199.23 917.589 1199.77 918.489 1200.73 919.149L1206.31 923.049C1208.17 924.429 1209.25 926.349 1209.43 928.689C1209.61 931.029 1208.71 933.129 1207.03 934.629C1205.35 936.249 1203.13 936.849 1200.91 936.549C1198.57 936.129 1196.71 934.869 1195.57 932.889C1195.09 931.989 1195.33 930.909 1196.23 930.429C1197.13 929.949 1198.21 930.189 1198.69 931.089C1199.35 932.109 1200.25 932.769 1201.45 932.949C1202.59 933.129 1203.67 932.829 1204.63 931.989C1205.53 931.149 1205.95 930.129 1205.83 928.929Z" fill="#B23030"/>
<path d="M1225.57 928.929C1225.51 927.729 1224.97 926.769 1223.95 926.049L1218.37 922.089C1216.51 920.829 1215.49 918.849 1215.31 916.689C1215.13 914.469 1216.03 912.369 1217.65 910.929C1219.27 909.429 1221.43 908.769 1223.59 909.069C1225.75 909.489 1227.61 910.689 1228.75 912.609C1229.23 913.509 1228.99 914.589 1228.09 915.069C1227.19 915.549 1226.11 915.309 1225.63 914.409C1225.09 913.449 1224.19 912.849 1223.05 912.669C1221.91 912.489 1220.89 912.789 1220.05 913.569C1219.21 914.349 1218.85 915.309 1218.91 916.449C1218.97 917.589 1219.51 918.489 1220.47 919.149L1226.05 923.049C1227.91 924.429 1228.99 926.349 1229.17 928.689C1229.35 931.029 1228.45 933.129 1226.77 934.629C1225.09 936.249 1222.87 936.849 1220.65 936.549C1218.31 936.129 1216.45 934.869 1215.31 932.889C1214.83 931.989 1215.07 930.909 1215.97 930.429C1216.87 929.949 1217.95 930.189 1218.43 931.089C1219.09 932.109 1219.99 932.769 1221.19 932.949C1222.33 933.129 1223.41 932.829 1224.37 931.989C1225.27 931.149 1225.69 930.129 1225.57 928.929Z" fill="#B23030"/>
<path d="M1235.47 928.81V916.81C1235.47 912.49 1238.95 909.01 1243.27 909.01C1247.59 909.01 1251.07 912.49 1251.07 916.81V922.81C1251.07 923.83 1250.29 924.61 1249.27 924.61H1239.07V928.81C1239.07 930.49 1240.03 932.05 1241.65 932.71C1243.27 933.37 1245.01 933.01 1246.21 931.81C1246.57 931.45 1246.99 931.27 1247.47 931.27C1248.01 931.27 1248.43 931.45 1248.79 931.81C1249.15 932.11 1249.33 932.53 1249.33 933.07C1249.33 933.55 1249.15 933.97 1248.79 934.33C1246.57 936.55 1243.21 937.21 1240.27 936.01C1237.33 934.81 1235.47 931.99 1235.47 928.81ZM1239.07 916.81V921.01H1247.47V916.81C1247.47 914.47 1245.61 912.61 1243.27 912.61C1240.93 912.61 1239.07 914.47 1239.07 916.81Z" fill="#B23030"/>
<path d="M1269.07 928.57V917.05C1269.07 912.73 1272.55 909.25 1276.87 909.25H1281.07V898.81C1281.07 897.79 1281.85 897.01 1282.87 897.01C1283.83 897.01 1284.67 897.79 1284.67 898.81V934.57C1284.67 935.59 1283.83 936.37 1282.87 936.37H1276.87C1272.55 936.37 1269.07 932.89 1269.07 928.57ZM1272.67 917.05V928.57C1272.67 930.91 1274.53 932.77 1276.87 932.77H1281.07V912.85H1276.87C1274.53 912.85 1272.67 914.71 1272.67 917.05Z" fill="#B23030"/>
<path d="M1292.35 928.81V916.81C1292.35 912.49 1295.83 909.01 1300.15 909.01C1304.47 909.01 1307.95 912.49 1307.95 916.81V922.81C1307.95 923.83 1307.17 924.61 1306.15 924.61H1295.95V928.81C1295.95 930.49 1296.91 932.05 1298.53 932.71C1300.15 933.37 1301.89 933.01 1303.09 931.81C1303.45 931.45 1303.87 931.27 1304.35 931.27C1304.89 931.27 1305.31 931.45 1305.67 931.81C1306.03 932.11 1306.21 932.53 1306.21 933.07C1306.21 933.55 1306.03 933.97 1305.67 934.33C1303.45 936.55 1300.09 937.21 1297.15 936.01C1294.21 934.81 1292.35 931.99 1292.35 928.81ZM1295.95 916.81V921.01H1304.35V916.81C1304.35 914.47 1302.49 912.61 1300.15 912.61C1297.81 912.61 1295.95 914.47 1295.95 916.81Z" fill="#B23030"/>
<path d="M295.01 642.883C290.794 642.883 287.397 639.486 287.397 635.269V624.025C287.397 619.808 290.794 616.411 295.01 616.411H299.11V606.221C299.11 605.225 299.871 604.464 300.867 604.464C301.804 604.464 302.624 605.225 302.624 606.221V641.126C302.624 642.122 301.804 642.883 300.867 642.883H295.01ZM295.01 619.925C292.726 619.925 290.911 621.741 290.911 624.025V635.269C290.911 637.553 292.726 639.369 295.01 639.369H299.11V619.925H295.01ZM317.95 642.883C313.733 642.883 310.337 639.486 310.337 635.269V617.934C310.337 616.938 311.098 616.177 312.094 616.177C313.089 616.177 313.851 616.938 313.851 617.934V635.269C313.851 637.553 315.666 639.369 317.95 639.369H322.05V617.934C322.05 616.938 322.811 616.177 323.807 616.177C324.802 616.177 325.564 616.938 325.564 617.934V641.126C325.564 642.122 324.802 642.883 323.807 642.883H317.95ZM335.497 643.117C334.501 643.117 333.74 642.356 333.74 641.36V618.168C333.74 617.173 334.501 616.411 335.497 616.411H341.353C342.7 616.411 343.93 616.763 345.16 617.407C346.038 617.934 346.273 618.93 345.804 619.808C345.336 620.686 344.281 620.979 343.403 620.452C342.759 620.101 342.056 619.925 341.353 619.925H337.254V641.36C337.254 642.356 336.492 643.117 335.497 643.117ZM360.039 627.656V623.673C360.039 622.034 359.044 620.628 357.579 619.984C355.998 619.339 354.358 619.691 353.246 620.862C352.894 621.214 352.484 621.389 351.957 621.389C351.489 621.389 351.079 621.214 350.727 620.862C350.376 620.511 350.2 620.101 350.2 619.632C350.2 619.105 350.376 618.695 350.727 618.402C352.894 616.236 356.115 615.591 358.926 616.763C361.738 617.934 363.553 620.628 363.553 623.673V641.126C363.553 642.122 362.733 642.883 361.796 642.883H355.94C351.723 642.883 348.326 639.486 348.326 635.269C348.326 631.053 351.723 627.656 355.94 627.656H360.039ZM351.84 635.269C351.84 637.553 353.656 639.369 355.94 639.369H360.039V631.17H355.94C353.656 631.17 351.84 632.985 351.84 635.269ZM373.015 643.117C372.02 643.117 371.258 642.356 371.258 641.36V618.168C371.258 617.173 372.02 616.411 373.015 616.411H378.872C383.03 616.411 386.485 619.808 386.485 624.025V641.36C386.485 642.356 385.665 643.117 384.728 643.117C383.733 643.117 382.971 642.356 382.971 641.36V624.025C382.971 621.741 381.156 619.925 378.872 619.925H374.772V641.36C374.772 642.356 373.952 643.117 373.015 643.117ZM393.373 619.925C392.377 619.925 391.616 619.164 391.616 618.168C391.616 617.173 392.377 616.411 393.373 616.411H396.301V606.221C396.301 605.225 397.062 604.464 398.058 604.464C399.054 604.464 399.815 605.225 399.815 606.221V616.411H403.914C404.91 616.411 405.671 617.173 405.671 618.168C405.671 619.164 404.91 619.925 403.914 619.925H399.815V635.504C399.815 637.788 401.63 639.603 403.914 639.603C404.91 639.603 405.671 640.365 405.671 641.36C405.671 642.356 404.91 643.117 403.914 643.117C399.698 643.117 396.301 639.72 396.301 635.504V619.925H393.373ZM425.835 642.883C423.902 641.712 422.613 639.603 422.613 637.319V606.221C422.613 605.225 423.433 604.464 424.37 604.464C425.366 604.464 426.127 605.225 426.127 606.221V637.319C426.127 638.432 426.713 639.31 427.591 639.837C428.47 640.306 428.763 641.36 428.236 642.239C427.767 643.117 426.713 643.351 425.835 642.883ZM438.496 642.531C435.626 641.36 433.811 638.608 433.811 635.504V623.79C433.811 619.574 437.208 616.177 441.424 616.177C445.641 616.177 449.038 619.574 449.038 623.79V629.647C449.038 630.643 448.277 631.404 447.281 631.404H437.325V635.504C437.325 637.143 438.262 638.666 439.843 639.31C441.424 639.955 443.123 639.603 444.294 638.432C444.646 638.08 445.055 637.905 445.524 637.905C446.051 637.905 446.461 638.08 446.812 638.432C447.164 638.725 447.34 639.135 447.34 639.662C447.34 640.13 447.164 640.54 446.812 640.892C444.646 643.059 441.366 643.703 438.496 642.531ZM441.424 619.691C439.14 619.691 437.325 621.506 437.325 623.79V627.89H445.524V623.79C445.524 621.506 443.708 619.691 441.424 619.691ZM473.14 642.941C469.158 641.829 466.523 638.373 466.523 634.332V614.42C466.523 610.379 469.158 606.924 473.14 605.811C477.064 604.698 481.105 606.514 483.155 609.969C483.624 610.847 483.331 612.019 482.452 612.546C481.574 613.073 480.403 612.722 479.875 611.843C478.704 609.793 476.362 608.798 474.077 609.442C471.793 610.086 470.271 612.077 470.271 614.42V634.332C470.271 636.675 471.793 638.666 474.077 639.31C476.362 639.955 478.704 638.959 479.875 636.909C480.403 636.031 481.574 635.738 482.452 636.206C483.331 636.733 483.624 637.905 483.155 638.783C481.164 642.297 477.006 643.996 473.14 642.941ZM496.787 643.117C492.57 643.117 489.174 639.72 489.174 635.504V623.79C489.174 619.574 492.57 616.177 496.787 616.177C500.945 616.177 504.401 619.574 504.401 623.79V635.504C504.401 639.72 500.945 643.117 496.787 643.117ZM496.787 619.691C494.503 619.691 492.688 621.506 492.688 623.79V635.504C492.688 637.788 494.503 639.603 496.787 639.603C499.071 639.603 500.887 637.788 500.887 635.504V623.79C500.887 621.506 499.071 619.691 496.787 619.691ZM509.333 618.461C509.098 617.524 509.625 616.528 510.562 616.236C511.441 616.001 512.437 616.528 512.729 617.407L514.662 623.908C515.775 627.597 517.063 631.99 518.059 635.269C518.996 631.99 520.343 627.597 521.456 623.908L523.388 617.407C523.681 616.528 524.677 616.001 525.614 616.236C526.551 616.528 527.078 617.524 526.785 618.461L519.757 641.887C519.523 642.59 518.82 643.117 518.059 643.117C517.298 643.117 516.595 642.59 516.36 641.887L509.333 618.461ZM534.757 611.492C533.41 611.492 532.414 610.496 532.414 609.149C532.414 607.802 533.41 606.806 534.757 606.806C536.104 606.806 537.1 607.802 537.1 609.149C537.1 610.496 536.104 611.492 534.757 611.492ZM536.514 641.36C536.514 642.356 535.753 643.117 534.757 643.117C533.82 643.117 533 642.356 533 641.36V617.934C533 616.938 533.82 616.177 534.757 616.177C535.753 616.177 536.514 616.938 536.514 617.934V641.36ZM551.635 642.883C547.419 642.883 544.022 639.486 544.022 635.269V624.025C544.022 619.808 547.419 616.411 551.635 616.411H555.735V606.221C555.735 605.225 556.496 604.464 557.492 604.464C558.429 604.464 559.249 605.225 559.249 606.221V641.126C559.249 642.122 558.429 642.883 557.492 642.883H551.635ZM551.635 619.925C549.351 619.925 547.536 621.741 547.536 624.025V635.269C547.536 637.553 549.351 639.369 551.635 639.369H555.735V619.925H551.635ZM584.414 626.133C584.414 627.246 583.536 628.007 582.54 628.007H568.484C567.372 628.007 566.61 627.246 566.61 626.133C566.61 625.02 567.372 624.259 568.484 624.259H582.54C583.536 624.259 584.414 625.02 584.414 626.133ZM595.543 615.767C595.191 616.118 594.781 616.294 594.254 616.294C593.727 616.294 593.317 616.118 592.907 615.767C592.556 615.357 592.38 614.947 592.38 614.42C592.38 613.893 592.556 613.483 592.907 613.073L599.935 606.045C600.462 605.518 601.282 605.401 601.985 605.635C602.746 605.928 603.156 606.514 603.156 607.392V641.36C603.156 642.473 602.278 643.234 601.282 643.234C600.169 643.234 599.408 642.473 599.408 641.36V611.902L595.543 615.767ZM623.714 629.179C618.853 629.179 614.812 625.196 614.812 620.277V614.42C614.812 609.5 618.853 605.518 623.714 605.518C628.633 605.518 632.616 609.5 632.616 614.42V634.332C632.616 638.373 629.98 641.829 626.056 642.941C622.074 644.054 618.091 642.297 616.041 638.783C615.514 637.905 615.807 636.733 616.686 636.206C617.623 635.738 618.735 636.031 619.263 636.909C620.434 638.959 622.777 639.955 625.061 639.31C627.345 638.666 628.867 636.675 628.867 634.332V627.539C627.403 628.651 625.705 629.179 623.714 629.179ZM623.714 609.266C620.902 609.266 618.56 611.609 618.56 614.42V620.277C618.56 623.146 620.902 625.43 623.714 625.43C626.583 625.43 628.867 623.146 628.867 620.277V614.42C628.867 611.609 626.583 609.266 623.714 609.266Z" fill="#B23030"/>
</svg>
