<svg width="1920" height="1080" viewBox="0 0 1920 1080" fill="none" xmlns="http://www.w3.org/2000/svg">
<path d="M1920 0H0V1080H1920V0Z" fill="#A491E8"/>
<path d="M153 233.5C153 229.358 149.642 226 145.5 226C141.358 226 138 229.358 138 233.5V309.5C138 313.642 141.358 317 145.5 317C149.642 317 153 313.642 153 309.5V233.5Z" fill="#C2B6FF"/>
<path d="M225 109.5C225 105.358 221.642 102 217.5 102C213.358 102 210 105.358 210 109.5V262.5C210 266.642 213.358 270 217.5 270C221.642 270 225 266.642 225 262.5V109.5Z" fill="#C2B6FF"/>
<path d="M323 661.5C323 657.358 319.642 654 315.5 654C311.358 654 308 657.358 308 661.5V814.5C308 818.642 311.358 822 315.5 822C319.642 822 323 818.642 323 814.5V661.5Z" fill="#C2B6FF"/>
<path d="M429 442.5C429 438.358 425.642 435 421.5 435C417.358 435 414 438.358 414 442.5V550.5C414 554.642 417.358 558 421.5 558C425.642 558 429 554.642 429 550.5V442.5Z" fill="#C2B6FF"/>
<path d="M1388 138.5C1388 134.358 1384.64 131 1380.5 131C1376.36 131 1373 134.358 1373 138.5V209.5C1373 213.642 1376.36 217 1380.5 217C1384.64 217 1388 213.642 1388 209.5V138.5Z" fill="#C2B6FF"/>
<path d="M1481 86.5C1481 82.3579 1477.64 79 1473.5 79C1469.36 79 1466 82.3579 1466 86.5V110.5C1466 114.642 1469.36 118 1473.5 118C1477.64 118 1481 114.642 1481 110.5V86.5Z" fill="#C2B6FF"/>
<path d="M1843 510.5C1843 506.358 1839.64 503 1835.5 503C1831.36 503 1828 506.358 1828 510.5V713.5C1828 717.642 1831.36 721 1835.5 721C1839.64 721 1843 717.642 1843 713.5V510.5Z" fill="#C2B6FF"/>
<path d="M1740 534.5C1740 530.358 1736.64 527 1732.5 527C1728.36 527 1725 530.358 1725 534.5V575.5C1725 579.642 1728.36 583 1732.5 583C1736.64 583 1740 579.642 1740 575.5V534.5Z" fill="#C2B6FF"/>
<path d="M75 842.5C75 838.358 71.6421 835 67.5 835C63.3579 835 60 838.358 60 842.5V971.5C60 975.642 63.3579 979 67.5 979C71.6421 979 75 975.642 75 971.5V842.5Z" fill="#C2B6FF"/>
<path d="M1664 917.5C1664 913.358 1660.64 910 1656.5 910C1652.36 910 1649 913.358 1649 917.5V958.5C1649 962.642 1652.36 966 1656.5 966C1660.64 966 1664 962.642 1664 958.5V917.5Z" fill="#C2B6FF"/>
<path d="M1481 686.5C1481 682.358 1477.64 679 1473.5 679C1469.36 679 1466 682.358 1466 686.5V824.5C1466 828.642 1469.36 832 1473.5 832C1477.64 832 1481 828.642 1481 824.5V686.5Z" fill="#C2B6FF"/>
<path d="M1519 627.5C1519 623.358 1515.64 620 1511.5 620C1507.36 620 1504 623.358 1504 627.5V696.5C1504 700.642 1507.36 704 1511.5 704C1515.64 704 1519 700.642 1519 696.5V627.5Z" fill="#C2B6FF"/>
<path d="M1725 174.5C1725 170.358 1721.64 167 1717.5 167C1713.36 167 1710 170.358 1710 174.5V243.5C1710 247.642 1713.36 251 1717.5 251C1721.64 251 1725 247.642 1725 243.5V174.5Z" fill="#C2B6FF"/>
<path d="M404 574.5C404 570.358 400.642 567 396.5 567C392.358 567 389 570.358 389 574.5V612.5C389 616.642 392.358 620 396.5 620C400.642 620 404 616.642 404 612.5V574.5Z" fill="#C2B6FF"/>
<path d="M190.209 162.39V162H203.589V302.33H190.209V175.47H186.209V168.83C186.539 168.57 186.889 168.28 187.279 167.95C187.669 167.63 188.029 167.24 188.349 166.78C189.519 165.02 190.139 163.56 190.209 162.39Z" fill="#7164B2"/>
<path d="M214.35 162.39V162H227.73V302.33H214.35V175.47H210.35V168.83C210.68 168.57 211.03 168.28 211.42 167.95C211.81 167.63 212.17 167.24 212.49 166.78C213.66 165.02 214.28 163.56 214.35 162.39Z" fill="#7164B2"/>
<path d="M235.078 302.241V286.621H248.458V302.241C246.958 306.411 245.428 310.571 243.868 314.741H235.078L239.668 302.241H235.078Z" fill="#7164B2"/>
<path d="M280.799 164.44C282.169 165.74 283.209 167.27 283.919 169.03C284.699 170.85 285.089 172.74 285.089 174.69V219.61H284.989C284.859 221.04 284.499 222.44 283.919 223.81C283.199 225.57 282.159 227.1 280.799 228.4C279.819 229.38 279.139 229.96 278.749 230.16C277.449 231.07 274.579 233.28 270.159 236.8C269.959 236.93 269.739 237.22 269.479 237.68L269.279 238.56L269.179 289.93H271.719L271.619 239.15H284.999V302.24H255.899L255.799 240.52H255.899V238.57C255.899 236.49 256.289 234.57 257.069 232.81C257.399 232.03 257.789 231.28 258.239 230.56L260.189 228.22C261.749 226.53 265.429 223.5 271.229 219.14C271.359 219.08 271.459 218.94 271.519 218.75C271.649 218.43 271.719 218.23 271.719 218.16V174.7C271.719 173.99 271.329 173.56 270.549 173.43C269.899 173.43 269.479 173.85 269.279 174.7V216.2H255.899V174.7C255.899 172.75 256.289 170.86 257.069 169.04C257.849 167.28 258.889 165.75 260.189 164.45C261.559 163.08 263.119 162.04 264.879 161.33C266.699 160.55 268.589 160.16 270.539 160.16C272.489 160.16 274.379 160.55 276.199 161.33C277.959 162.05 279.489 163.09 280.789 164.45L280.799 164.44Z" fill="#7164B2"/>
<path d="M336.189 302.33H322.809V182.21H322.419L318.609 302.33H310.019L306.209 182.21H305.819V302.33H292.439V162H310.209L313.819 275.09H314.889L318.409 162H336.179V302.33H336.189Z" fill="#7164B2"/>
<path d="M226.21 438.15V599.43H230.75V617.89H226.21V648.51H206.14V617.89H180.51V599.581L190.76 438.15H226.21ZM206.28 519.301L209.65 456.46H208.33L200.42 599.43H206.13V519.301H206.28Z" fill="#7164B2"/>
<path d="M306.509 648.5H286.439V468.32H285.849L280.139 648.5H267.249L261.539 468.32H260.949V648.5H240.879V438H267.539L272.959 607.63H274.569L279.839 438H306.499V648.5H306.509Z" fill="#7164B2"/>
<path d="M377.579 166.709V183.309C377.579 187.509 374.179 190.909 369.979 190.909H363.979C363.029 190.909 362.379 190.259 362.379 189.309V160.709C362.379 159.759 363.029 159.109 363.979 159.109H369.979C374.179 159.109 377.579 162.509 377.579 166.709ZM369.979 162.309H365.579V187.709H369.979C372.429 187.709 374.379 185.759 374.379 183.309V166.709C374.379 164.309 372.429 162.309 369.979 162.309Z" fill="#7164B2"/>
<path d="M384.428 163.109V162.259H384.378C383.528 162.259 382.828 161.559 382.828 160.709C382.828 159.859 383.528 159.209 384.378 159.209H385.978C386.778 159.209 387.478 159.859 387.478 160.709V163.109C387.478 164.759 386.478 166.259 384.928 166.909C384.178 167.259 383.278 166.859 382.928 166.109C382.578 165.309 382.978 164.459 383.778 164.109C384.228 163.959 384.428 163.609 384.428 163.109Z" fill="#7164B2"/>
<path d="M392.879 184.51V174.51C392.879 170.91 395.779 168.01 399.379 168.01C402.979 168.01 405.879 170.91 405.879 174.51V179.51C405.879 180.36 405.229 181.01 404.379 181.01H395.879V184.51C395.879 185.91 396.679 187.21 398.029 187.76C399.379 188.31 400.829 188.01 401.829 187.01C402.129 186.71 402.479 186.56 402.879 186.56C403.329 186.56 403.679 186.71 403.979 187.01C404.279 187.26 404.429 187.61 404.429 188.06C404.429 188.46 404.279 188.81 403.979 189.11C402.129 190.96 399.329 191.51 396.879 190.51C394.429 189.51 392.879 187.16 392.879 184.51ZM395.879 174.51V178.01H402.879V174.51C402.879 172.56 401.329 171.01 399.379 171.01C397.429 171.01 395.879 172.56 395.879 174.51Z" fill="#7164B2"/>
<path d="M411.879 189.509V169.709C411.879 168.859 412.529 168.209 413.379 168.209H418.379C421.929 168.209 424.879 171.109 424.879 174.709V189.509C424.879 190.359 424.179 191.009 423.379 191.009C422.529 191.009 421.879 190.359 421.879 189.509V174.709C421.879 172.759 420.329 171.209 418.379 171.209H414.879V189.509C414.879 190.359 414.179 191.009 413.379 191.009C412.529 191.009 411.879 190.359 411.879 189.509Z" fill="#7164B2"/>
<path d="M429.279 169.71C429.279 168.86 429.929 168.21 430.779 168.21H433.279V159.51C433.279 158.66 433.929 158.01 434.779 158.01C435.629 158.01 436.279 158.66 436.279 159.51V168.21H439.779C440.629 168.21 441.279 168.86 441.279 169.71C441.279 170.56 440.629 171.21 439.779 171.21H436.279V184.51C436.279 186.46 437.829 188.01 439.779 188.01C440.629 188.01 441.279 188.66 441.279 189.51C441.279 190.36 440.629 191.01 439.779 191.01C436.179 191.01 433.279 188.11 433.279 184.51V171.21H430.779C429.929 171.21 429.279 170.56 429.279 169.71Z" fill="#7164B2"/>
<path d="M446.279 189.509V169.709C446.279 168.859 446.929 168.209 447.779 168.209H452.779C453.929 168.209 454.979 168.509 456.029 169.059C456.779 169.509 456.979 170.359 456.579 171.109C456.179 171.859 455.279 172.109 454.529 171.659C453.979 171.359 453.379 171.209 452.779 171.209H449.279V189.509C449.279 190.359 448.629 191.009 447.779 191.009C446.929 191.009 446.279 190.359 446.279 189.509Z" fill="#7164B2"/>
<path d="M460.629 184.51V174.51C460.629 170.91 463.579 168.01 467.129 168.01C470.679 168.01 473.629 170.91 473.629 174.51V179.51C473.629 180.36 472.979 181.01 472.129 181.01H463.629V184.51C463.629 185.91 464.429 187.21 465.779 187.76C467.129 188.31 468.629 188.01 469.629 187.01C469.879 186.71 470.229 186.561 470.629 186.561C471.079 186.561 471.429 186.71 471.729 187.01C472.029 187.26 472.179 187.611 472.179 188.061C472.179 188.461 472.029 188.811 471.729 189.111C469.879 190.961 467.079 191.51 464.679 190.51C462.229 189.51 460.629 187.16 460.629 184.51ZM470.779 158.51C471.329 159.11 471.279 160.061 470.629 160.611L465.629 165.111C465.029 165.661 464.079 165.61 463.529 165.01C462.979 164.41 463.029 163.46 463.629 162.91L468.629 158.41C469.279 157.86 470.179 157.91 470.779 158.51ZM463.629 174.51V178.01H470.629V174.51C470.629 172.56 469.079 171.01 467.129 171.01C465.179 171.01 463.629 172.56 463.629 174.51Z" fill="#7164B2"/>
<path d="M479.029 184.51V174.51C479.029 170.91 481.929 168.01 485.529 168.01C489.129 168.01 492.029 170.91 492.029 174.51V179.51C492.029 180.36 491.379 181.01 490.529 181.01H482.029V184.51C482.029 185.91 482.829 187.21 484.179 187.76C485.529 188.31 486.979 188.01 487.979 187.01C488.279 186.71 488.629 186.56 489.029 186.56C489.479 186.56 489.829 186.71 490.129 187.01C490.429 187.26 490.579 187.61 490.579 188.06C490.579 188.46 490.429 188.81 490.129 189.11C488.279 190.96 485.479 191.51 483.029 190.51C480.579 189.51 479.029 187.16 479.029 184.51ZM482.029 174.51V178.01H489.029V174.51C489.029 172.56 487.479 171.01 485.529 171.01C483.579 171.01 482.029 172.56 482.029 174.51Z" fill="#7164B2"/>
<path d="M505.629 184.609C505.579 183.609 505.129 182.809 504.279 182.209L499.629 178.909C498.079 177.859 497.229 176.209 497.079 174.409C496.929 172.559 497.679 170.809 499.029 169.609C500.379 168.359 502.179 167.809 503.979 168.059C505.779 168.409 507.329 169.409 508.279 171.009C508.679 171.759 508.479 172.659 507.729 173.059C506.979 173.459 506.079 173.259 505.679 172.509C505.229 171.709 504.479 171.209 503.529 171.059C502.579 170.909 501.729 171.159 501.029 171.809C500.329 172.459 500.029 173.259 500.079 174.209C500.129 175.159 500.579 175.909 501.379 176.459L506.029 179.709C507.579 180.859 508.479 182.459 508.629 184.409C508.779 186.359 508.029 188.109 506.629 189.359C505.229 190.709 503.379 191.209 501.529 190.959C499.579 190.609 498.029 189.559 497.079 187.909C496.679 187.159 496.879 186.259 497.629 185.859C498.379 185.459 499.279 185.659 499.679 186.409C500.229 187.259 500.979 187.809 501.979 187.959C502.929 188.109 503.829 187.859 504.629 187.159C505.379 186.459 505.729 185.609 505.629 184.609Z" fill="#7164B2"/>
<path d="M523.479 184.31V174.71C523.479 171.11 526.379 168.21 529.979 168.21H533.479V159.51C533.479 158.66 534.129 158.01 534.979 158.01C535.779 158.01 536.479 158.66 536.479 159.51V189.31C536.479 190.16 535.779 190.81 534.979 190.81H529.979C526.379 190.81 523.479 187.91 523.479 184.31ZM526.479 174.71V184.31C526.479 186.26 528.029 187.81 529.979 187.81H533.479V171.21H529.979C528.029 171.21 526.479 172.76 526.479 174.71Z" fill="#7164B2"/>
<path d="M551.479 174.41C551.479 173.01 550.629 171.81 549.379 171.26C548.029 170.71 546.629 171.01 545.679 172.01C545.379 172.31 545.029 172.46 544.579 172.46C544.179 172.46 543.829 172.31 543.529 172.01C543.229 171.71 543.079 171.36 543.079 170.96C543.079 170.51 543.229 170.16 543.529 169.91C545.379 168.06 548.129 167.51 550.529 168.51C552.929 169.51 554.479 171.81 554.479 174.41V189.31C554.479 190.16 553.779 190.81 552.979 190.81H547.979C544.379 190.81 541.479 187.91 541.479 184.31C541.479 180.71 544.379 177.81 547.979 177.81H551.479V174.41ZM547.969 187.81H551.469V180.81H547.969C546.019 180.81 544.469 182.36 544.469 184.31C544.469 186.26 546.019 187.81 547.969 187.81Z" fill="#7164B2"/>
<path d="M561.068 189.509V169.709C561.068 168.859 561.718 168.209 562.568 168.209H567.568C571.118 168.209 574.068 171.109 574.068 174.709V189.509C574.068 190.359 573.368 191.009 572.568 191.009C571.718 191.009 571.068 190.359 571.068 189.509V174.709C571.068 172.759 569.518 171.209 567.568 171.209H564.068V189.509C564.068 190.359 563.368 191.009 562.568 191.009C561.718 191.009 561.068 190.359 561.068 189.509Z" fill="#7164B2"/>
<path d="M588.27 184.609C588.22 183.609 587.769 182.809 586.919 182.209L582.27 178.909C580.72 177.859 579.869 176.209 579.719 174.409C579.569 172.559 580.319 170.809 581.669 169.609C583.019 168.359 584.819 167.809 586.619 168.059C588.419 168.409 589.969 169.409 590.919 171.009C591.319 171.759 591.119 172.659 590.369 173.059C589.619 173.459 588.719 173.259 588.319 172.509C587.869 171.709 587.119 171.209 586.169 171.059C585.219 170.909 584.369 171.159 583.669 171.809C582.969 172.459 582.669 173.259 582.719 174.209C582.769 175.159 583.22 175.909 584.02 176.459L588.669 179.709C590.219 180.859 591.12 182.459 591.27 184.409C591.42 186.359 590.67 188.109 589.27 189.359C587.87 190.709 586.019 191.209 584.169 190.959C582.219 190.609 580.669 189.559 579.719 187.909C579.319 187.159 579.52 186.259 580.27 185.859C581.02 185.459 581.919 185.659 582.319 186.409C582.869 187.259 583.619 187.809 584.619 187.959C585.569 188.109 586.47 187.859 587.27 187.159C588.02 186.459 588.37 185.609 588.27 184.609Z" fill="#7164B2"/>
<path d="M606.119 184.31V174.71C606.119 171.11 609.019 168.21 612.619 168.21H616.119V159.51C616.119 158.66 616.769 158.01 617.619 158.01C618.419 158.01 619.119 158.66 619.119 159.51V189.31C619.119 190.16 618.419 190.81 617.619 190.81H612.619C609.019 190.81 606.119 187.91 606.119 184.31ZM609.119 174.71V184.31C609.119 186.26 610.669 187.81 612.619 187.81H616.119V171.21H612.619C610.669 171.21 609.119 172.76 609.119 174.71Z" fill="#7164B2"/>
<path d="M625.52 184.51V174.51C625.52 170.91 628.42 168.01 632.02 168.01C635.62 168.01 638.52 170.91 638.52 174.51V179.51C638.52 180.36 637.87 181.01 637.02 181.01H628.52V184.51C628.52 185.91 629.319 187.21 630.669 187.76C632.019 188.31 633.469 188.01 634.469 187.01C634.769 186.71 635.12 186.56 635.52 186.56C635.97 186.56 636.32 186.71 636.62 187.01C636.92 187.26 637.07 187.61 637.07 188.06C637.07 188.46 636.92 188.81 636.62 189.11C634.77 190.96 631.97 191.51 629.52 190.51C627.07 189.51 625.52 187.16 625.52 184.51ZM628.52 174.51V178.01H635.52V174.51C635.52 172.56 633.97 171.01 632.02 171.01C630.07 171.01 628.52 172.56 628.52 174.51Z" fill="#7164B2"/>
<path d="M652.119 184.609C652.069 183.609 651.619 182.809 650.769 182.209L646.119 178.909C644.569 177.859 643.719 176.209 643.569 174.409C643.419 172.559 644.169 170.809 645.519 169.609C646.869 168.359 648.669 167.809 650.469 168.059C652.269 168.409 653.819 169.409 654.769 171.009C655.169 171.759 654.969 172.659 654.219 173.059C653.469 173.459 652.569 173.259 652.169 172.509C651.719 171.709 650.969 171.209 650.019 171.059C649.069 170.909 648.219 171.159 647.519 171.809C646.819 172.459 646.519 173.259 646.569 174.209C646.619 175.159 647.069 175.909 647.869 176.459L652.519 179.709C654.069 180.859 654.969 182.459 655.119 184.409C655.269 186.359 654.519 188.109 653.119 189.359C651.719 190.709 649.869 191.209 648.019 190.959C646.069 190.609 644.519 189.559 643.569 187.909C643.169 187.159 643.369 186.259 644.119 185.859C644.869 185.459 645.769 185.659 646.169 186.409C646.719 187.259 647.469 187.809 648.469 187.959C649.419 188.109 650.319 187.859 651.119 187.159C651.869 186.459 652.219 185.609 652.119 184.609Z" fill="#7164B2"/>
<path d="M365.479 249.509C365.479 250.359 364.779 251.009 363.979 251.009C363.129 251.009 362.479 250.359 362.479 249.509V229.709C362.479 228.859 363.129 228.209 363.979 228.209H378.979C382.529 228.209 385.479 231.109 385.479 234.709V249.509C385.479 250.359 384.779 251.009 383.979 251.009C383.129 251.009 382.479 250.359 382.479 249.509V234.709C382.479 232.759 380.929 231.209 378.979 231.209H375.479V249.509C375.479 250.359 374.779 251.009 373.979 251.009C373.129 251.009 372.479 250.359 372.479 249.509V231.209H365.479V249.509Z" fill="#7164B2"/>
<path d="M391.479 244.51V234.51C391.479 230.91 394.379 228.01 397.979 228.01C401.579 228.01 404.479 230.91 404.479 234.51V244.51C404.479 248.11 401.529 251.01 397.979 251.01C394.429 251.01 391.479 248.11 391.479 244.51ZM394.479 234.51V244.51C394.479 246.46 396.029 248.01 397.979 248.01C399.929 248.01 401.479 246.46 401.479 244.51V234.51C401.479 232.56 399.929 231.01 397.979 231.01C396.029 231.01 394.479 232.56 394.479 234.51Z" fill="#7164B2"/>
<path d="M410.879 249.509V229.709C410.879 228.859 411.529 228.209 412.379 228.209H417.379C420.929 228.209 423.879 231.109 423.879 234.709V249.509C423.879 250.359 423.179 251.009 422.379 251.009C421.529 251.009 420.879 250.359 420.879 249.509V234.709C420.879 232.759 419.329 231.209 417.379 231.209H413.879V249.509C413.879 250.359 413.179 251.009 412.379 251.009C411.529 251.009 410.879 250.359 410.879 249.509Z" fill="#7164B2"/>
<path d="M430.078 244.31V229.51C430.078 228.66 430.728 228.01 431.578 228.01C432.428 228.01 433.078 228.66 433.078 229.51V244.31C433.078 246.26 434.628 247.81 436.578 247.81H440.078V229.51C440.078 228.66 440.728 228.01 441.578 228.01C442.428 228.01 443.078 228.66 443.078 229.51V249.31C443.078 250.16 442.428 250.81 441.578 250.81H436.578C432.978 250.81 430.078 247.91 430.078 244.31Z" fill="#7164B2"/>
<path d="M453.078 249.509C453.078 250.359 452.378 251.009 451.578 251.009C450.728 251.009 450.078 250.359 450.078 249.509V229.709C450.078 228.859 450.728 228.209 451.578 228.209H466.578C470.128 228.209 473.078 231.109 473.078 234.709V249.509C473.078 250.359 472.378 251.009 471.578 251.009C470.728 251.009 470.078 250.359 470.078 249.509V234.709C470.078 232.759 468.528 231.209 466.578 231.209H463.078V249.509C463.078 250.359 462.378 251.009 461.578 251.009C460.728 251.009 460.078 250.359 460.078 249.509V231.209H453.078V249.509Z" fill="#7164B2"/>
<path d="M479.078 244.51V234.51C479.078 230.91 481.978 228.01 485.578 228.01C489.178 228.01 492.078 230.91 492.078 234.51V239.51C492.078 240.36 491.428 241.01 490.578 241.01H482.078V244.51C482.078 245.91 482.878 247.21 484.228 247.76C485.578 248.31 487.028 248.01 488.028 247.01C488.328 246.71 488.678 246.56 489.078 246.56C489.528 246.56 489.878 246.71 490.178 247.01C490.478 247.26 490.628 247.61 490.628 248.06C490.628 248.46 490.478 248.81 490.178 249.11C488.328 250.96 485.528 251.51 483.078 250.51C480.628 249.51 479.078 247.16 479.078 244.51ZM482.078 234.51V238.01H489.078V234.51C489.078 232.56 487.528 231.01 485.578 231.01C483.628 231.01 482.078 232.56 482.078 234.51Z" fill="#7164B2"/>
<path d="M498.078 249.509V229.709C498.078 228.859 498.728 228.209 499.578 228.209H504.578C508.128 228.209 511.078 231.109 511.078 234.709V249.509C511.078 250.359 510.378 251.009 509.578 251.009C508.728 251.009 508.078 250.359 508.078 249.509V234.709C508.078 232.759 506.528 231.209 504.578 231.209H501.078V249.509C501.078 250.359 500.378 251.009 499.578 251.009C498.728 251.009 498.078 250.359 498.078 249.509Z" fill="#7164B2"/>
<path d="M515.479 229.71C515.479 228.86 516.129 228.21 516.979 228.21H519.479V219.51C519.479 218.66 520.129 218.01 520.979 218.01C521.829 218.01 522.479 218.66 522.479 219.51V228.21H525.979C526.829 228.21 527.479 228.86 527.479 229.71C527.479 230.56 526.829 231.21 525.979 231.21H522.479V244.51C522.479 246.46 524.029 248.01 525.979 248.01C526.829 248.01 527.479 248.66 527.479 249.51C527.479 250.36 526.829 251.01 525.979 251.01C522.379 251.01 519.479 248.11 519.479 244.51V231.21H516.979C516.129 231.21 515.479 230.56 515.479 229.71Z" fill="#7164B2"/>
<path d="M540.078 244.609C540.028 243.609 539.578 242.809 538.728 242.209L534.078 238.909C532.528 237.859 531.678 236.209 531.528 234.409C531.378 232.559 532.128 230.809 533.478 229.609C534.828 228.359 536.628 227.809 538.428 228.059C540.228 228.409 541.778 229.409 542.728 231.009C543.128 231.759 542.928 232.659 542.178 233.059C541.428 233.459 540.528 233.259 540.128 232.509C539.678 231.709 538.928 231.209 537.978 231.059C537.028 230.909 536.178 231.159 535.478 231.809C534.778 232.459 534.478 233.259 534.528 234.209C534.578 235.159 535.028 235.909 535.828 236.459L540.478 239.709C542.028 240.859 542.928 242.459 543.078 244.409C543.228 246.359 542.478 248.109 541.078 249.359C539.678 250.709 537.828 251.209 535.978 250.959C534.028 250.609 532.478 249.559 531.528 247.909C531.128 247.159 531.328 246.259 532.078 245.859C532.828 245.459 533.728 245.659 534.128 246.409C534.678 247.259 535.428 247.809 536.428 247.959C537.378 248.109 538.278 247.859 539.078 247.159C539.828 246.459 540.178 245.609 540.078 244.609Z" fill="#7164B2"/>
<path d="M558.529 249.509V229.709C558.529 228.859 559.179 228.209 560.029 228.209H565.029C568.579 228.209 571.529 231.109 571.529 234.709V249.509C571.529 250.359 570.829 251.009 570.029 251.009C569.179 251.009 568.529 250.359 568.529 249.509V234.709C568.529 232.759 566.979 231.209 565.029 231.209H561.529V249.509C561.529 250.359 560.829 251.009 560.029 251.009C559.179 251.009 558.529 250.359 558.529 249.509Z" fill="#7164B2"/>
<path d="M586.129 234.41C586.129 233.01 585.279 231.81 584.029 231.26C582.679 230.71 581.279 231.01 580.329 232.01C580.029 232.31 579.679 232.46 579.229 232.46C578.829 232.46 578.479 232.31 578.179 232.01C577.879 231.71 577.729 231.36 577.729 230.96C577.729 230.51 577.879 230.16 578.179 229.91C580.029 228.06 582.779 227.51 585.179 228.51C587.579 229.51 589.129 231.81 589.129 234.41V249.31C589.129 250.16 588.429 250.81 587.629 250.81H582.629C579.029 250.81 576.129 247.91 576.129 244.31C576.129 240.71 579.029 237.81 582.629 237.81H586.129V234.41ZM582.619 247.81H586.119V240.81H582.619C580.669 240.81 579.119 242.36 579.119 244.31C579.119 246.26 580.669 247.81 582.619 247.81Z" fill="#7164B2"/>
<path d="M593.52 229.71C593.52 228.86 594.17 228.21 595.02 228.21H597.52V219.51C597.52 218.66 598.17 218.01 599.02 218.01C599.87 218.01 600.52 218.66 600.52 219.51V228.21H604.02C604.87 228.21 605.52 228.86 605.52 229.71C605.52 230.56 604.87 231.21 604.02 231.21H600.52V244.51C600.52 246.46 602.07 248.01 604.02 248.01C604.87 248.01 605.52 248.66 605.52 249.51C605.52 250.36 604.87 251.01 604.02 251.01C600.42 251.01 597.52 248.11 597.52 244.51V231.21H595.02C594.17 231.21 593.52 230.56 593.52 229.71Z" fill="#7164B2"/>
<path d="M610.02 222.01C610.02 220.86 610.87 220.01 612.02 220.01C613.17 220.01 614.02 220.86 614.02 222.01C614.02 223.16 613.17 224.01 612.02 224.01C610.87 224.01 610.02 223.16 610.02 222.01ZM612.02 251.01C611.22 251.01 610.52 250.36 610.52 249.51V229.51C610.52 228.66 611.22 228.01 612.02 228.01C612.87 228.01 613.52 228.66 613.52 229.51V249.51C613.52 250.36 612.87 251.01 612.02 251.01Z" fill="#7164B2"/>
<path d="M619.918 244.51V234.51C619.918 230.91 622.818 228.01 626.418 228.01C630.018 228.01 632.918 230.91 632.918 234.51V244.51C632.918 248.11 629.968 251.01 626.418 251.01C622.868 251.01 619.918 248.11 619.918 244.51ZM622.918 234.51V244.51C622.918 246.46 624.468 248.01 626.418 248.01C628.368 248.01 629.918 246.46 629.918 244.51V234.51C629.918 232.56 628.368 231.01 626.418 231.01C624.468 231.01 622.918 232.56 622.918 234.51Z" fill="#7164B2"/>
<path d="M639.318 249.509V229.709C639.318 228.859 639.968 228.209 640.818 228.209H645.818C649.368 228.209 652.318 231.109 652.318 234.709V249.509C652.318 250.359 651.618 251.009 650.818 251.009C649.968 251.009 649.318 250.359 649.318 249.509V234.709C649.318 232.759 647.768 231.209 645.818 231.209H642.318V249.509C642.318 250.359 641.618 251.009 640.818 251.009C639.968 251.009 639.318 250.359 639.318 249.509Z" fill="#7164B2"/>
<path d="M666.918 234.41C666.918 233.01 666.068 231.81 664.818 231.26C663.468 230.71 662.068 231.01 661.118 232.01C660.818 232.31 660.468 232.46 660.018 232.46C659.618 232.46 659.268 232.31 658.968 232.01C658.668 231.71 658.518 231.36 658.518 230.96C658.518 230.51 658.668 230.16 658.968 229.91C660.818 228.06 663.568 227.51 665.968 228.51C668.368 229.51 669.918 231.81 669.918 234.41V249.31C669.918 250.16 669.218 250.81 668.418 250.81H663.418C659.818 250.81 656.918 247.91 656.918 244.31C656.918 240.71 659.818 237.81 663.418 237.81H666.918V234.41ZM663.418 247.81H666.918V240.81H663.418C661.468 240.81 659.918 242.36 659.918 244.31C659.918 246.26 661.468 247.81 663.418 247.81Z" fill="#7164B2"/>
<path d="M676.119 244.31V229.51C676.119 228.66 676.769 228.01 677.619 228.01C678.469 228.01 679.119 228.66 679.119 229.51V244.31C679.119 246.26 680.669 247.81 682.619 247.81H686.119V229.51C686.119 228.66 686.769 228.01 687.619 228.01C688.469 228.01 689.119 228.66 689.119 229.51V249.31C689.119 250.16 688.469 250.81 687.619 250.81H682.619C679.019 250.81 676.119 247.91 676.119 244.31Z" fill="#7164B2"/>
<path d="M694.719 248.809L699.919 239.309L694.919 230.259C694.519 229.509 694.769 228.609 695.519 228.209C696.269 227.809 697.169 228.059 697.569 228.809L701.619 236.209L705.719 228.809C706.119 228.059 707.019 227.809 707.769 228.209C708.519 228.609 708.769 229.509 708.369 230.259L703.369 239.309L708.569 248.809C708.969 249.559 708.719 250.409 707.969 250.809C707.219 251.209 706.319 251.009 705.919 250.259L701.619 242.459L697.369 250.259C696.969 251.009 696.069 251.209 695.319 250.809C694.569 250.409 694.319 249.559 694.719 248.809Z" fill="#7164B2"/>
<path d="M361.879 304.51V294.51C361.879 290.91 364.779 288.01 368.379 288.01C371.979 288.01 374.879 290.91 374.879 294.51V299.51C374.879 300.36 374.229 301.01 373.379 301.01H364.879V304.51C364.879 305.91 365.679 307.21 367.029 307.76C368.379 308.31 369.829 308.01 370.829 307.01C371.129 306.71 371.479 306.56 371.879 306.56C372.329 306.56 372.679 306.71 372.979 307.01C373.279 307.26 373.429 307.61 373.429 308.06C373.429 308.46 373.279 308.81 372.979 309.11C371.129 310.96 368.329 311.51 365.879 310.51C363.429 309.51 361.879 307.16 361.879 304.51ZM364.879 294.51V298.01H371.879V294.51C371.879 292.56 370.329 291.01 368.379 291.01C366.429 291.01 364.879 292.56 364.879 294.51Z" fill="#7164B2"/>
<path d="M380.879 309.509V289.709C380.879 288.859 381.529 288.209 382.379 288.209H387.379C390.929 288.209 393.879 291.109 393.879 294.709V309.509C393.879 310.359 393.179 311.009 392.379 311.009C391.529 311.009 390.879 310.359 390.879 309.509V294.709C390.879 292.759 389.329 291.209 387.379 291.209H383.879V309.509C383.879 310.359 383.179 311.009 382.379 311.009C381.529 311.009 380.879 310.359 380.879 309.509Z" fill="#7164B2"/>
<path d="M409.78 282.71C410.83 280.86 412.33 279.71 414.33 279.21C416.28 278.66 418.28 278.91 420.03 279.86C421.78 280.81 423.08 282.36 423.63 284.31C424.23 286.26 424.03 288.21 423.08 290.06C421.68 292.71 420.38 295.16 419.18 297.51C417.08 301.51 414.78 305.91 413.83 307.71H422.38C423.23 307.71 423.98 308.36 423.98 309.31C423.98 310.26 423.23 310.91 422.38 310.91H411.18C410.53 310.91 410.08 310.66 409.83 310.16C409.48 309.61 409.48 309.06 409.78 308.56L420.28 288.56C420.83 287.51 420.93 286.41 420.58 285.26C420.23 284.11 419.53 283.21 418.48 282.66C417.43 282.11 416.33 281.96 415.18 282.26C414.03 282.61 413.13 283.31 412.58 284.31C412.13 285.06 411.13 285.36 410.38 284.91C409.63 284.46 409.33 283.46 409.78 282.71Z" fill="#7164B2"/>
<path d="M430.18 303.51V286.51C430.18 282.31 433.58 278.91 437.78 278.91C441.98 278.91 445.38 282.31 445.38 286.51V303.51C445.38 307.71 441.93 311.11 437.78 311.11C433.63 311.11 430.18 307.71 430.18 303.51ZM433.38 286.51V303.51C433.38 305.96 435.33 307.91 437.78 307.91C440.23 307.91 442.18 305.96 442.18 303.51V286.51C442.18 284.11 440.18 282.11 437.78 282.11C435.38 282.11 433.38 284.11 433.38 286.51Z" fill="#7164B2"/>
<path d="M453.78 288.11C453.33 288.11 452.98 287.96 452.63 287.66C452.33 287.31 452.18 286.96 452.18 286.51C452.18 286.06 452.33 285.71 452.63 285.36L458.63 279.36C459.08 278.91 459.78 278.81 460.38 279.01C461.03 279.26 461.38 279.76 461.38 280.51V309.51C461.38 310.46 460.63 311.11 459.78 311.11C458.83 311.11 458.18 310.46 458.18 309.51V284.36L454.88 287.66C454.58 287.96 454.23 288.11 453.78 288.11Z" fill="#7164B2"/>
<path d="M471.318 291.51V286.51C471.318 282.31 474.768 278.91 478.918 278.91C483.068 278.91 486.518 282.31 486.518 286.51V303.51C486.518 306.96 484.268 309.91 480.918 310.86C477.518 311.81 474.118 310.31 472.368 307.31C471.918 306.56 472.168 305.56 472.918 305.11C473.718 304.71 474.668 304.96 475.118 305.71C476.118 307.46 478.118 308.31 480.068 307.76C482.018 307.21 483.318 305.51 483.318 303.51V297.71C482.068 298.66 480.618 299.11 478.918 299.11C474.768 299.11 471.318 295.71 471.318 291.51ZM474.518 286.51V291.51C474.518 293.96 476.518 295.91 478.918 295.91C481.318 295.91 483.318 293.96 483.318 291.51V286.51C483.318 284.11 481.368 282.11 478.918 282.11C476.468 282.11 474.518 284.11 474.518 286.51Z" fill="#7164B2"/>
<path d="M355.579 620.709V637.309C355.579 641.509 352.179 644.909 347.979 644.909H341.979C341.029 644.909 340.379 644.259 340.379 643.309V614.709C340.379 613.759 341.029 613.109 341.979 613.109H347.979C352.179 613.109 355.579 616.509 355.579 620.709ZM347.979 616.309H343.579V641.709H347.979C350.429 641.709 352.379 639.759 352.379 637.309V620.709C352.379 618.309 350.429 616.309 347.979 616.309Z" fill="#7164B2"/>
<path d="M361.479 638.31V623.51C361.479 622.66 362.129 622.01 362.979 622.01C363.829 622.01 364.479 622.66 364.479 623.51V638.31C364.479 640.26 366.029 641.81 367.979 641.81H371.479V623.51C371.479 622.66 372.129 622.01 372.979 622.01C373.829 622.01 374.479 622.66 374.479 623.51V643.31C374.479 644.16 373.829 644.81 372.979 644.81H367.979C364.379 644.81 361.479 641.91 361.479 638.31Z" fill="#7164B2"/>
<path d="M381.479 643.509V623.709C381.479 622.859 382.129 622.209 382.979 622.209H387.979C389.129 622.209 390.179 622.509 391.229 623.059C391.979 623.509 392.179 624.359 391.779 625.109C391.379 625.859 390.479 626.109 389.729 625.659C389.179 625.359 388.579 625.209 387.979 625.209H384.479V643.509C384.479 644.359 383.829 645.009 382.979 645.009C382.129 645.009 381.479 644.359 381.479 643.509Z" fill="#7164B2"/>
<path d="M403.93 628.41C403.93 627.01 403.08 625.81 401.83 625.26C400.48 624.71 399.08 625.01 398.13 626.01C397.83 626.31 397.48 626.46 397.03 626.46C396.63 626.46 396.28 626.31 395.98 626.01C395.68 625.71 395.53 625.36 395.53 624.96C395.53 624.51 395.68 624.16 395.98 623.91C397.83 622.06 400.58 621.51 402.98 622.51C405.38 623.51 406.93 625.81 406.93 628.41V643.31C406.93 644.16 406.23 644.81 405.43 644.81H400.43C396.83 644.81 393.93 641.91 393.93 638.31C393.93 634.71 396.83 631.81 400.43 631.81H403.93V628.41ZM400.43 641.81H403.93V634.81H400.43C398.48 634.81 396.93 636.36 396.93 638.31C396.93 640.26 398.48 641.81 400.43 641.81Z" fill="#7164B2"/>
<path d="M413.529 643.509V623.709C413.529 622.859 414.179 622.209 415.029 622.209H420.029C423.579 622.209 426.529 625.109 426.529 628.709V643.509C426.529 644.359 425.829 645.009 425.029 645.009C424.179 645.009 423.529 644.359 423.529 643.509V628.709C423.529 626.759 421.979 625.209 420.029 625.209H416.529V643.509C416.529 644.359 415.829 645.009 415.029 645.009C414.179 645.009 413.529 644.359 413.529 643.509Z" fill="#7164B2"/>
<path d="M430.93 623.71C430.93 622.86 431.58 622.21 432.43 622.21H434.93V613.51C434.93 612.66 435.58 612.01 436.43 612.01C437.28 612.01 437.93 612.66 437.93 613.51V622.21H441.43C442.28 622.21 442.93 622.86 442.93 623.71C442.93 624.56 442.28 625.21 441.43 625.21H437.93V638.51C437.93 640.46 439.48 642.01 441.43 642.01C442.28 642.01 442.93 642.66 442.93 643.51C442.93 644.36 442.28 645.01 441.43 645.01C437.83 645.01 434.93 642.11 434.93 638.51V625.21H432.43C431.58 625.21 430.93 624.56 430.93 623.71Z" fill="#7164B2"/>
<path d="M457.379 640.06V613.51C457.379 612.66 458.079 612.01 458.879 612.01C459.729 612.01 460.379 612.66 460.379 613.51V640.06C460.379 641.01 460.879 641.76 461.629 642.21C462.379 642.61 462.629 643.51 462.179 644.26C461.779 645.01 460.879 645.21 460.129 644.81C458.479 643.81 457.379 642.01 457.379 640.06Z" fill="#7164B2"/>
<path d="M466.93 638.51V628.51C466.93 624.91 469.83 622.01 473.43 622.01C477.03 622.01 479.93 624.91 479.93 628.51V633.51C479.93 634.36 479.28 635.01 478.43 635.01H469.93V638.51C469.93 639.91 470.73 641.21 472.08 641.76C473.43 642.31 474.88 642.01 475.88 641.01C476.18 640.71 476.53 640.56 476.93 640.56C477.38 640.56 477.73 640.71 478.03 641.01C478.33 641.26 478.48 641.61 478.48 642.06C478.48 642.46 478.33 642.81 478.03 643.11C476.18 644.96 473.38 645.51 470.93 644.51C468.48 643.51 466.93 641.16 466.93 638.51ZM469.93 628.51V632.01H476.93V628.51C476.93 626.56 475.38 625.01 473.43 625.01C471.48 625.01 469.93 626.56 469.93 628.51Z" fill="#7164B2"/>
<path d="M494.828 637.51V620.51C494.828 617.06 497.078 614.11 500.478 613.16C503.828 612.21 507.278 613.76 509.028 616.71C509.428 617.46 509.178 618.46 508.428 618.91C507.678 619.36 506.678 619.06 506.228 618.31C505.228 616.56 503.228 615.71 501.278 616.26C499.328 616.81 498.028 618.51 498.028 620.51V637.51C498.028 639.51 499.328 641.21 501.278 641.76C503.228 642.31 505.228 641.46 506.228 639.71C506.678 638.96 507.678 638.71 508.428 639.11C509.178 639.56 509.428 640.56 509.028 641.31C507.328 644.31 503.778 645.76 500.478 644.86C497.078 643.91 494.828 640.96 494.828 637.51Z" fill="#7164B2"/>
<path d="M514.18 638.51V628.51C514.18 624.91 517.08 622.01 520.68 622.01C524.28 622.01 527.18 624.91 527.18 628.51V638.51C527.18 642.11 524.23 645.01 520.68 645.01C517.13 645.01 514.18 642.11 514.18 638.51ZM517.18 628.51V638.51C517.18 640.46 518.73 642.01 520.68 642.01C522.63 642.01 524.18 640.46 524.18 638.51V628.51C524.18 626.56 522.63 625.01 520.68 625.01C518.73 625.01 517.18 626.56 517.18 628.51Z" fill="#7164B2"/>
<path d="M532.429 622.059C533.179 621.859 534.029 622.309 534.279 623.059L535.929 628.609C536.879 631.759 537.979 635.509 538.829 638.309C539.629 635.509 540.779 631.759 541.729 628.609L543.379 623.059C543.629 622.309 544.479 621.859 545.279 622.059C546.079 622.309 546.529 623.159 546.279 623.959L540.279 643.959C540.079 644.559 539.479 645.009 538.829 645.009C538.179 645.009 537.579 644.559 537.379 643.959L531.379 623.959C531.179 623.159 531.629 622.309 532.429 622.059Z" fill="#7164B2"/>
<path d="M551.078 616.01C551.078 614.86 551.928 614.01 553.078 614.01C554.228 614.01 555.078 614.86 555.078 616.01C555.078 617.16 554.228 618.01 553.078 618.01C551.928 618.01 551.078 617.16 551.078 616.01ZM553.078 645.01C552.278 645.01 551.578 644.36 551.578 643.51V623.51C551.578 622.66 552.278 622.01 553.078 622.01C553.928 622.01 554.578 622.66 554.578 623.51V643.51C554.578 644.36 553.928 645.01 553.078 645.01Z" fill="#7164B2"/>
<path d="M560.979 638.31V628.71C560.979 625.11 563.879 622.21 567.479 622.21H570.979V613.51C570.979 612.66 571.629 612.01 572.479 612.01C573.279 612.01 573.979 612.66 573.979 613.51V643.31C573.979 644.16 573.279 644.81 572.479 644.81H567.479C563.879 644.81 560.979 641.91 560.979 638.31ZM563.979 628.71V638.31C563.979 640.26 565.529 641.81 567.479 641.81H570.979V625.21H567.479C565.529 625.21 563.979 626.76 563.979 628.71Z" fill="#7164B2"/>
<path d="M988.6 944.739C988.78 943.119 988.18 941.559 987.04 940.419L977.44 930.579C975.58 928.719 974.68 926.139 974.92 923.559C975.1 920.919 976.42 918.579 978.52 916.959C980.62 915.339 983.26 914.739 985.84 915.279C988.42 915.819 990.52 917.319 991.9 919.659C992.44 920.559 992.14 921.759 991.18 922.299C990.28 922.839 989.08 922.479 988.6 921.579C987.82 920.199 986.62 919.359 985.06 919.059C983.5 918.759 982.06 919.059 980.8 920.019C979.54 920.919 978.88 922.179 978.76 923.799C978.64 925.359 979.12 926.739 980.2 927.879L989.8 937.779C991.66 939.699 992.62 942.339 992.44 945.039C992.2 947.739 990.88 950.199 988.72 951.819C986.56 953.439 983.8 954.099 981.16 953.559C978.52 953.019 976.24 951.399 974.86 949.059C974.38 948.099 974.68 946.959 975.58 946.419C976.48 945.879 977.68 946.179 978.22 947.139C979 948.519 980.32 949.479 981.94 949.779C983.56 950.079 985.06 949.779 986.38 948.759C987.76 947.739 988.48 946.419 988.6 944.739Z" fill="#7164B2"/>
<path d="M998.379 945.82V933.82C998.379 929.5 1001.86 926.02 1006.18 926.02C1010.5 926.02 1013.98 929.5 1013.98 933.82V945.82C1013.98 950.14 1010.44 953.62 1006.18 953.62C1001.92 953.62 998.379 950.14 998.379 945.82ZM1001.98 933.82V945.82C1001.98 948.16 1003.84 950.02 1006.18 950.02C1008.52 950.02 1010.38 948.16 1010.38 945.82V933.82C1010.38 931.48 1008.52 929.62 1006.18 929.62C1003.84 929.62 1001.98 931.48 1001.98 933.82Z" fill="#7164B2"/>
<path d="M1021.06 918.82C1021.06 917.44 1022.08 916.42 1023.46 916.42C1024.84 916.42 1025.86 917.44 1025.86 918.82C1025.86 920.2 1024.84 921.22 1023.46 921.22C1022.08 921.22 1021.06 920.2 1021.06 918.82ZM1023.46 953.62C1022.5 953.62 1021.66 952.84 1021.66 951.82V927.82C1021.66 926.8 1022.5 926.02 1023.46 926.02C1024.48 926.02 1025.26 926.8 1025.26 927.82V951.82C1025.26 952.84 1024.48 953.62 1023.46 953.62Z" fill="#7164B2"/>
<path d="M1031.02 928.06C1031.02 927.04 1031.8 926.26 1032.82 926.26H1035.82V915.82C1035.82 914.8 1036.6 914.02 1037.62 914.02C1038.64 914.02 1039.42 914.8 1039.42 915.82V926.26H1043.62C1044.64 926.26 1045.42 927.04 1045.42 928.06C1045.42 929.08 1044.64 929.86 1043.62 929.86H1039.42V945.82C1039.42 948.16 1041.28 950.02 1043.62 950.02C1044.64 950.02 1045.42 950.8 1045.42 951.82C1045.42 952.84 1044.64 953.62 1043.62 953.62C1039.3 953.62 1035.82 950.14 1035.82 945.82V929.86H1032.82C1031.8 929.86 1031.02 929.08 1031.02 928.06Z" fill="#7164B2"/>
<path d="M1062.46 945.58V927.82C1062.46 926.8 1063.24 926.02 1064.26 926.02C1065.28 926.02 1066.06 926.8 1066.06 927.82V945.58C1066.06 947.92 1067.92 949.78 1070.26 949.78H1074.46V927.82C1074.46 926.8 1075.24 926.02 1076.26 926.02C1077.28 926.02 1078.06 926.8 1078.06 927.82V951.58C1078.06 952.6 1077.28 953.379 1076.26 953.379H1070.26C1065.94 953.379 1062.46 949.9 1062.46 945.58Z" fill="#7164B2"/>
<path d="M1086.46 951.82V928.06C1086.46 927.04 1087.24 926.26 1088.26 926.26H1094.26C1098.52 926.26 1102.06 929.74 1102.06 934.06V951.82C1102.06 952.84 1101.22 953.62 1100.26 953.62C1099.24 953.62 1098.46 952.84 1098.46 951.82V934.06C1098.46 931.72 1096.6 929.86 1094.26 929.86H1090.06V951.82C1090.06 952.84 1089.22 953.62 1088.26 953.62C1087.24 953.62 1086.46 952.84 1086.46 951.82Z" fill="#7164B2"/>
<path d="M1109.25 945.82V933.82C1109.25 929.5 1112.73 926.02 1117.05 926.02C1121.37 926.02 1124.85 929.5 1124.85 933.82V939.82C1124.85 940.84 1124.07 941.62 1123.05 941.62H1112.85V945.82C1112.85 947.5 1113.81 949.059 1115.43 949.719C1117.05 950.379 1118.79 950.02 1119.99 948.82C1120.35 948.46 1120.77 948.28 1121.25 948.28C1121.79 948.28 1122.21 948.46 1122.57 948.82C1122.93 949.12 1123.11 949.54 1123.11 950.08C1123.11 950.56 1122.93 950.98 1122.57 951.34C1120.35 953.56 1116.99 954.22 1114.05 953.02C1111.11 951.82 1109.25 949 1109.25 945.82ZM1112.86 933.82V938.02H1121.26V933.82C1121.26 931.48 1119.4 929.62 1117.06 929.62C1114.72 929.62 1112.86 931.48 1112.86 933.82Z" fill="#7164B2"/>
<path d="M1143.58 951.58V915.82C1143.58 914.8 1144.36 914.02 1145.38 914.02C1146.34 914.02 1147.18 914.8 1147.18 915.82V926.26H1151.38C1155.64 926.26 1159.18 929.74 1159.18 934.06V945.58C1159.18 949.9 1155.64 953.379 1151.38 953.379H1145.38C1144.36 953.379 1143.58 952.6 1143.58 951.58ZM1147.17 949.78H1151.37C1153.71 949.78 1155.57 947.92 1155.57 945.58V934.06C1155.57 931.72 1153.71 929.86 1151.37 929.86H1147.17V949.78Z" fill="#7164B2"/>
<path d="M1176.45 933.7C1176.45 932.02 1175.43 930.58 1173.93 929.92C1172.31 929.26 1170.63 929.62 1169.49 930.82C1169.13 931.18 1168.71 931.36 1168.17 931.36C1167.69 931.36 1167.27 931.18 1166.91 930.82C1166.55 930.46 1166.37 930.04 1166.37 929.56C1166.37 929.02 1166.55 928.6 1166.91 928.3C1169.13 926.08 1172.43 925.42 1175.31 926.62C1178.19 927.82 1180.05 930.58 1180.05 933.7V951.58C1180.05 952.6 1179.21 953.38 1178.25 953.38H1172.25C1167.93 953.38 1164.45 949.9 1164.45 945.58C1164.45 941.26 1167.93 937.78 1172.25 937.78H1176.45V933.7ZM1172.25 949.78H1176.45V941.38H1172.25C1169.91 941.38 1168.05 943.24 1168.05 945.58C1168.05 947.92 1169.91 949.78 1172.25 949.78Z" fill="#7164B2"/>
<path d="M1187.37 918.82C1187.37 917.44 1188.39 916.42 1189.77 916.42C1191.15 916.42 1192.17 917.44 1192.17 918.82C1192.17 920.2 1191.15 921.22 1189.77 921.22C1188.39 921.22 1187.37 920.2 1187.37 918.82ZM1189.77 953.62C1188.81 953.62 1187.97 952.84 1187.97 951.82V927.82C1187.97 926.8 1188.81 926.02 1189.77 926.02C1190.79 926.02 1191.57 926.8 1191.57 927.82V951.82C1191.57 952.84 1190.79 953.62 1189.77 953.62Z" fill="#7164B2"/>
<path d="M1209.09 945.938C1209.03 944.738 1208.49 943.779 1207.47 943.059L1201.89 939.099C1200.03 937.839 1199.01 935.858 1198.83 933.698C1198.65 931.478 1199.55 929.378 1201.17 927.938C1202.79 926.438 1204.95 925.779 1207.11 926.079C1209.27 926.499 1211.13 927.699 1212.27 929.619C1212.75 930.519 1212.51 931.599 1211.61 932.079C1210.71 932.559 1209.63 932.318 1209.15 931.418C1208.61 930.458 1207.71 929.858 1206.57 929.678C1205.43 929.498 1204.41 929.799 1203.57 930.579C1202.73 931.359 1202.37 932.318 1202.43 933.458C1202.49 934.598 1203.03 935.498 1203.99 936.158L1209.57 940.059C1211.43 941.439 1212.51 943.358 1212.69 945.698C1212.87 948.038 1211.97 950.138 1210.29 951.638C1208.61 953.258 1206.39 953.859 1204.17 953.559C1201.83 953.139 1199.97 951.878 1198.83 949.898C1198.35 948.998 1198.59 947.918 1199.49 947.438C1200.39 946.958 1201.47 947.199 1201.95 948.099C1202.61 949.119 1203.51 949.778 1204.71 949.958C1205.85 950.138 1206.93 949.839 1207.89 948.999C1208.79 948.159 1209.21 947.138 1209.09 945.938Z" fill="#7164B2"/>
<path d="M1228.83 945.938C1228.77 944.738 1228.23 943.779 1227.21 943.059L1221.63 939.099C1219.77 937.839 1218.75 935.858 1218.57 933.698C1218.39 931.478 1219.29 929.378 1220.91 927.938C1222.53 926.438 1224.69 925.779 1226.85 926.079C1229.01 926.499 1230.87 927.699 1232.01 929.619C1232.49 930.519 1232.25 931.599 1231.35 932.079C1230.45 932.559 1229.37 932.318 1228.89 931.418C1228.35 930.458 1227.45 929.858 1226.31 929.678C1225.17 929.498 1224.15 929.799 1223.31 930.579C1222.47 931.359 1222.11 932.318 1222.17 933.458C1222.23 934.598 1222.77 935.498 1223.73 936.158L1229.31 940.059C1231.17 941.439 1232.25 943.358 1232.43 945.698C1232.61 948.038 1231.71 950.138 1230.03 951.638C1228.35 953.258 1226.13 953.859 1223.91 953.559C1221.57 953.139 1219.71 951.878 1218.57 949.898C1218.09 948.998 1218.33 947.918 1219.23 947.438C1220.13 946.958 1221.21 947.199 1221.69 948.099C1222.35 949.119 1223.25 949.778 1224.45 949.958C1225.59 950.138 1226.67 949.839 1227.63 948.999C1228.53 948.159 1228.95 947.138 1228.83 945.938Z" fill="#7164B2"/>
<path d="M1238.73 945.82V933.82C1238.73 929.5 1242.21 926.02 1246.53 926.02C1250.85 926.02 1254.33 929.5 1254.33 933.82V939.82C1254.33 940.84 1253.55 941.62 1252.53 941.62H1242.33V945.82C1242.33 947.5 1243.29 949.059 1244.91 949.719C1246.53 950.379 1248.27 950.02 1249.47 948.82C1249.83 948.46 1250.25 948.28 1250.73 948.28C1251.27 948.28 1251.69 948.46 1252.05 948.82C1252.41 949.12 1252.59 949.54 1252.59 950.08C1252.59 950.56 1252.41 950.98 1252.05 951.34C1249.83 953.56 1246.47 954.22 1243.53 953.02C1240.59 951.82 1238.73 949 1238.73 945.82ZM1242.33 933.82V938.02H1250.73V933.82C1250.73 931.48 1248.87 929.62 1246.53 929.62C1244.19 929.62 1242.33 931.48 1242.33 933.82Z" fill="#7164B2"/>
<path d="M1315.38 894.55C1316.7 895.09 1317.74 896.16 1318.49 897.77C1319.24 899.38 1319.63 901.26 1319.63 903.41V946.77C1319.63 947.11 1319.56 947.92 1319.41 949.19C1319.26 949.82 1319.04 950.44 1318.75 951.02C1318.21 952.34 1317.43 953.51 1316.41 954.54C1315.39 955.57 1314.29 956.3 1312.97 956.88C1311.6 957.47 1310.19 957.76 1308.72 957.76C1307.25 957.76 1305.84 957.47 1304.47 956.88C1303.15 956.29 1301.98 955.51 1300.95 954.54C1299.97 953.51 1299.19 952.34 1298.61 951.02C1298.02 949.65 1297.73 948.24 1297.73 946.77V861.15C1297.73 860.86 1297.83 860.05 1298.02 858.73C1298.17 858.1 1298.36 857.48 1298.61 856.9C1299.15 855.58 1299.93 854.44 1300.95 853.46C1301.93 852.43 1303.07 851.65 1304.39 851.12C1305.76 850.53 1307.17 850.24 1308.64 850.24C1310.2 850.24 1311.64 850.53 1312.96 851.12C1314.23 851.66 1315.38 852.44 1316.4 853.46C1317.43 854.44 1318.21 855.58 1318.74 856.9C1319.33 858.27 1319.62 859.68 1319.62 861.15V891.98H1309.59V861.15C1309.59 860.61 1309.27 860.32 1308.64 860.27C1308.15 860.27 1307.86 860.56 1307.76 861.15V900.33H1308.27V899.6C1308.9 896.77 1310.32 895.01 1312.52 894.33C1312.91 894.23 1313.28 894.18 1313.62 894.18C1314.06 894.18 1314.44 894.23 1314.76 894.33C1315.08 894.43 1315.28 894.5 1315.38 894.55ZM1309.67 946.92V904.66C1309.47 904.12 1309.16 903.85 1308.72 903.85C1308.28 903.9 1307.99 904.14 1307.84 904.58L1307.77 946.91C1307.96 947.5 1308.31 947.79 1308.8 947.79C1309.29 947.69 1309.58 947.4 1309.68 946.91L1309.67 946.92Z" fill="#7164B2"/>
<path d="M1351.3 851.629V932.269H1353.57V941.499H1351.3V956.809H1341.27V941.499H1328.45V932.339L1333.58 851.629H1351.3ZM1341.34 892.199L1343.02 860.779H1342.36L1338.4 932.259H1341.26V892.199H1341.33H1341.34Z" fill="#7164B2"/>
<path d="M1362.39 956.73V945.01H1372.42V956.73C1371.3 959.85 1370.15 962.98 1368.98 966.11H1362.39L1365.83 956.73H1362.39Z" fill="#7164B2"/>
<path d="M1400.43 853.39C1401.46 854.37 1402.24 855.51 1402.77 856.83C1403.36 858.2 1403.65 859.61 1403.65 861.08V894.77H1403.58C1403.48 895.84 1403.21 896.89 1402.77 897.92C1402.23 899.24 1401.45 900.39 1400.43 901.36C1399.7 902.09 1399.18 902.53 1398.89 902.68C1397.91 903.36 1395.77 905.02 1392.44 907.66C1392.29 907.76 1392.12 907.98 1391.93 908.32L1391.78 908.98L1391.71 947.51H1393.61L1393.54 909.42H1403.57V956.73H1381.74L1381.67 910.44H1381.74V908.98C1381.74 907.42 1382.03 905.98 1382.62 904.66C1382.86 904.07 1383.16 903.51 1383.5 902.98L1384.96 901.22C1386.13 899.95 1388.89 897.68 1393.24 894.41C1393.34 894.36 1393.41 894.26 1393.46 894.12C1393.56 893.88 1393.61 893.73 1393.61 893.68V861.09C1393.61 860.55 1393.32 860.24 1392.73 860.14C1392.24 860.14 1391.92 860.46 1391.78 861.09V892.22H1381.75V861.09C1381.75 859.63 1382.04 858.21 1382.63 856.84C1383.22 855.52 1384 854.38 1384.97 853.4C1386 852.37 1387.17 851.59 1388.49 851.06C1389.86 850.47 1391.27 850.18 1392.74 850.18C1394.21 850.18 1395.62 850.47 1396.99 851.06C1398.31 851.6 1399.45 852.38 1400.43 853.4V853.39Z" fill="#7164B2"/>
<path d="M1433.93 856.9C1434.52 858.27 1434.81 859.68 1434.81 861.15V946.77C1434.81 947.11 1434.74 947.92 1434.59 949.19C1434.44 949.82 1434.25 950.44 1434 951.02C1433.41 952.34 1432.63 953.51 1431.66 954.54C1430.63 955.52 1429.46 956.3 1428.14 956.88C1426.77 957.47 1425.36 957.76 1423.89 957.76C1422.42 957.76 1421.01 957.47 1419.64 956.88C1418.32 956.29 1417.15 955.51 1416.12 954.54C1415.14 953.51 1414.36 952.34 1413.78 951.02C1413.24 949.65 1412.97 948.24 1412.97 946.77V916.01H1422.93V946.77C1422.93 947.26 1423.25 947.58 1423.88 947.72C1424.42 947.72 1424.73 947.4 1424.83 946.77V907.59H1424.24V908.4C1423.61 911.18 1422.21 912.92 1420.07 913.6C1419.63 913.7 1419.26 913.75 1418.97 913.75C1418.09 913.75 1417.51 913.65 1417.21 913.46C1415.89 912.87 1414.84 911.78 1414.06 910.16C1413.28 908.55 1412.89 906.67 1412.89 904.52V861.16C1412.89 860.77 1412.99 859.96 1413.18 858.74C1413.33 858.11 1413.52 857.49 1413.77 856.91C1414.31 855.59 1415.09 854.45 1416.11 853.47C1417.14 852.44 1418.28 851.66 1419.55 851.13C1420.92 850.54 1422.36 850.25 1423.87 850.25C1425.38 850.25 1426.75 850.54 1428.12 851.13C1429.39 851.67 1430.54 852.45 1431.56 853.47C1432.59 854.45 1433.37 855.59 1433.9 856.91L1433.93 856.9ZM1424.7 903.41L1424.77 861.08C1424.77 860.64 1424.48 860.35 1423.89 860.2H1423.74C1423.3 860.2 1423.03 860.49 1422.93 861.08V903.34C1423.12 903.83 1423.44 904.07 1423.88 904.07C1424.27 904.07 1424.54 903.85 1424.69 903.41H1424.7Z" fill="#7164B2"/>
<path d="M1461.06 896.31C1460.13 897.24 1459.08 897.95 1457.91 898.43C1456.64 898.97 1455.35 899.24 1454.03 899.24C1452.71 899.24 1451.42 898.97 1450.15 898.43C1448.98 897.94 1447.93 897.23 1447 896.31C1446.07 895.38 1445.36 894.33 1444.88 893.16C1444.34 891.89 1444.07 890.6 1444.07 889.28V860.13C1444.07 858.81 1444.34 857.52 1444.88 856.25C1445.37 855.08 1446.08 854.03 1447 853.1C1447.93 852.22 1448.98 851.51 1450.15 850.98C1451.42 850.49 1452.71 850.25 1454.03 850.25C1455.35 850.25 1456.64 850.5 1457.91 850.98C1459.08 851.52 1460.13 852.23 1461.06 853.1C1461.94 854.03 1462.65 855.08 1463.18 856.25C1463.72 857.52 1463.99 858.81 1463.99 860.13V889.28C1463.99 890.6 1463.72 891.89 1463.18 893.16C1462.64 894.33 1461.93 895.38 1461.06 896.31ZM1454.83 889.27V860.12C1454.83 859.68 1454.56 859.41 1454.02 859.31C1453.53 859.31 1453.24 859.58 1453.14 860.12V889.27C1453.14 889.71 1453.43 890 1454.02 890.15C1454.46 890.15 1454.73 889.86 1454.83 889.27ZM1470.8 851.48H1477.68L1463.32 956.73H1456.44L1470.8 851.48ZM1487.13 912.05C1488.06 912.98 1488.77 914.03 1489.25 915.2C1489.79 916.47 1490.06 917.76 1490.06 919.08V948.23C1490.06 949.55 1489.79 950.84 1489.25 952.11C1488.76 953.28 1488.05 954.33 1487.13 955.26C1486.25 956.14 1485.2 956.85 1483.98 957.38C1482.71 957.92 1481.42 958.19 1480.1 958.19C1478.78 958.19 1477.49 957.92 1476.22 957.38C1475.05 956.84 1474 956.13 1473.07 955.26C1472.19 954.33 1471.48 953.28 1470.95 952.11C1470.41 950.84 1470.14 949.55 1470.14 948.23V919.08C1470.14 917.76 1470.41 916.47 1470.95 915.2C1471.49 914.03 1472.2 912.98 1473.07 912.05C1474 911.17 1475.05 910.46 1476.22 909.93C1477.49 909.39 1478.78 909.12 1480.1 909.12C1481.42 909.12 1482.71 909.39 1483.98 909.93C1485.2 910.47 1486.25 911.18 1487.13 912.05ZM1480.98 948.23V919.08C1480.98 918.64 1480.69 918.37 1480.1 918.27C1479.66 918.27 1479.37 918.54 1479.22 919.08V948.23C1479.22 948.67 1479.51 948.94 1480.1 949.04C1480.54 949.04 1480.83 948.77 1480.98 948.23Z" fill="#7164B2"/>
</svg>
