<svg width="1921" height="1080" viewBox="0 0 1921 1080" fill="none" xmlns="http://www.w3.org/2000/svg">
<path d="M1920 0H1V800H1920V0Z" fill="#2D1710"/>
<path d="M1920 29H848V772H1920V29Z" fill="#FFF3F3"/>
<path d="M1921 800H1V1080H1921V800Z" fill="#48281E"/>
<path d="M407.05 1080H0V800H544L407.05 1080Z" fill="#331916"/>
<path d="M1761.38 568H1642.62C1620.19 568 1602 586.186 1602 608.62V889.38C1602 911.814 1620.19 930 1642.62 930H1761.38C1783.81 930 1802 911.814 1802 889.38V608.62C1802 586.186 1783.81 568 1761.38 568Z" fill="#D35D5F"/>
<path d="M1744.38 585H1659.62C1637.19 585 1619 603.186 1619 625.62V844.84C1619 867.274 1637.19 885.46 1659.62 885.46H1744.38C1766.81 885.46 1785 867.274 1785 844.84V625.62C1785 603.186 1766.81 585 1744.38 585Z" fill="#A32F35"/>
<path d="M1762 976H1642C1619.91 976 1602 958.09 1602 936V790H1802V936C1802 958.09 1784.09 976 1762 976Z" fill="#331916"/>
<path d="M1862.62 568H1920V930H1862.62C1840.2 930 1822 911.8 1822 889.38V608.62C1822 586.2 1840.2 568 1862.62 568Z" fill="#D35D5F"/>
<path d="M1881.62 585H1920V885.46H1881.62C1859.2 885.46 1841 867.26 1841 844.84V625.62C1841 603.2 1859.2 585 1881.62 585Z" fill="#A32F35"/>
<path d="M1920 976H1862C1839.91 976 1822 958.09 1822 936V790H1920V976Z" fill="#331916"/>
<path d="M1353.38 568H1234.62C1212.19 568 1194 586.186 1194 608.62V889.38C1194 911.814 1212.19 930 1234.62 930H1353.38C1375.81 930 1394 911.814 1394 889.38V608.62C1394 586.186 1375.81 568 1353.38 568Z" fill="#D35D5F"/>
<path d="M1336.38 585H1251.62C1229.19 585 1211 603.186 1211 625.62V844.84C1211 867.274 1229.19 885.46 1251.62 885.46H1336.38C1358.81 885.46 1377 867.274 1377 844.84V625.62C1377 603.186 1358.81 585 1336.38 585Z" fill="#A32F35"/>
<path d="M1354 976H1234C1211.91 976 1194 958.09 1194 936V790H1394V936C1394 958.09 1376.09 976 1354 976Z" fill="#331916"/>
<path d="M1136.38 568H1017.62C995.186 568 977 586.186 977 608.62V889.38C977 911.814 995.186 930 1017.62 930H1136.38C1158.81 930 1177 911.814 1177 889.38V608.62C1177 586.186 1158.81 568 1136.38 568Z" fill="#D35D5F"/>
<path d="M1119.38 585H1034.62C1012.19 585 994 603.186 994 625.62V844.84C994 867.274 1012.19 885.46 1034.62 885.46H1119.38C1141.81 885.46 1160 867.274 1160 844.84V625.62C1160 603.186 1141.81 585 1119.38 585Z" fill="#A32F35"/>
<path d="M1137 976H1017C994.91 976 977 958.09 977 936V790H1177V936C1177 958.09 1159.09 976 1137 976Z" fill="#331916"/>
<path d="M912.38 568H793.62C771.186 568 753 586.186 753 608.62V889.38C753 911.814 771.186 930 793.62 930H912.38C934.814 930 953 911.814 953 889.38V608.62C953 586.186 934.814 568 912.38 568Z" fill="#D35D5F"/>
<path d="M895.38 585H810.62C788.186 585 770 603.186 770 625.62V844.84C770 867.274 788.186 885.46 810.62 885.46H895.38C917.814 885.46 936 867.274 936 844.84V625.62C936 603.186 917.814 585 895.38 585Z" fill="#A32F35"/>
<path d="M913 976H793C770.91 976 753 958.09 753 936V790H953V936C953 958.09 935.09 976 913 976Z" fill="#331916"/>
<path d="M919.38 568H800.62C778.186 568 760 586.186 760 608.62V889.38C760 911.814 778.186 930 800.62 930H919.38C941.814 930 960 911.814 960 889.38V608.62C960 586.186 941.814 568 919.38 568Z" fill="#D35D5F"/>
<path d="M902.38 585H817.62C795.186 585 777 603.186 777 625.62V844.84C777 867.274 795.186 885.46 817.62 885.46H902.38C924.814 885.46 943 867.274 943 844.84V625.62C943 603.186 924.814 585 902.38 585Z" fill="#A32F35"/>
<path d="M920 976H800C777.91 976 760 958.09 760 936V790H960V936C960 958.09 942.09 976 920 976Z" fill="#331916"/>
<path d="M544 0H0V800H544V0Z" fill="#260E09"/>
<path d="M450.54 489.14L335.81 416.72C329.81 412.93 322 417.24 322 424.34V438.02C322 442.99 317.98 447.02 313.01 447.03L110.99 447.43C106.02 447.43 102 451.47 102 456.44V537.01C102 541.98 106.03 546.02 111.01 546.02H312C316.97 546.02 321.01 550.05 321.01 555.03V565.23C321.01 572.21 328.6 576.53 334.6 572.98L450.33 504.52C456.13 501.09 456.25 492.75 450.55 489.15L450.54 489.14Z" fill="#D3A65F"/>
<path d="M437.079 490.481L344.209 435.011C339.189 432.011 332.809 435.631 332.809 441.481V450.541C332.809 454.701 329.439 458.071 325.279 458.071H120.499C116.339 458.071 112.969 461.441 112.969 465.601V527.531C112.969 531.691 116.339 535.061 120.499 535.061L322.999 534.991C327.159 534.991 331.999 538.831 331.999 542.991V551.991C331.999 557.821 336.979 561.941 341.999 558.991L437.029 503.431C441.969 500.531 441.989 493.401 437.079 490.461V490.481Z" fill="#A32F35"/>
<path style="mix-blend-mode:overlay" d="M173 471C180.732 471 187 464.732 187 457C187 449.268 180.732 443 173 443C165.268 443 159 449.268 159 457C159 464.732 165.268 471 173 471Z" fill="url(#paint0_radial_305_218)"/>
<path d="M173 465C177.418 465 181 461.418 181 457C181 452.582 177.418 449 173 449C168.582 449 165 452.582 165 457C165 461.418 168.582 465 173 465Z" fill="#FFFEEB"/>
<path style="mix-blend-mode:overlay" d="M173 548C180.732 548 187 541.732 187 534C187 526.268 180.732 520 173 520C165.268 520 159 526.268 159 534C159 541.732 165.268 548 173 548Z" fill="url(#paint1_radial_305_218)"/>
<path d="M173 542C177.418 542 181 538.418 181 534C181 529.582 177.418 526 173 526C168.582 526 165 529.582 165 534C165 538.418 168.582 542 173 542Z" fill="#FFFEEB"/>
<path style="mix-blend-mode:overlay" d="M269 472C276.732 472 283 465.732 283 458C283 450.268 276.732 444 269 444C261.268 444 255 450.268 255 458C255 465.732 261.268 472 269 472Z" fill="url(#paint2_radial_305_218)"/>
<path d="M269 466C273.418 466 277 462.418 277 458C277 453.582 273.418 450 269 450C264.582 450 261 453.582 261 458C261 462.418 264.582 466 269 466Z" fill="#FFFEEB"/>
<path style="mix-blend-mode:overlay" d="M113 511C120.732 511 127 504.732 127 497C127 489.268 120.732 483 113 483C105.268 483 99 489.268 99 497C99 504.732 105.268 511 113 511Z" fill="url(#paint3_radial_305_218)"/>
<path d="M113 505C117.418 505 121 501.418 121 497C121 492.582 117.418 489 113 489C108.582 489 105 492.582 105 497C105 501.418 108.582 505 113 505Z" fill="#FFFEEB"/>
<path style="mix-blend-mode:overlay" d="M338 450C345.732 450 352 443.732 352 436C352 428.268 345.732 422 338 422C330.268 422 324 428.268 324 436C324 443.732 330.268 450 338 450Z" fill="url(#paint4_radial_305_218)"/>
<path d="M338 444C342.418 444 346 440.418 346 436C346 431.582 342.418 428 338 428C333.582 428 330 431.582 330 436C330 440.418 333.582 444 338 444Z" fill="#FFFEEB"/>
<path style="mix-blend-mode:overlay" d="M335 571C342.732 571 349 564.732 349 557C349 549.268 342.732 543 335 543C327.268 543 321 549.268 321 557C321 564.732 327.268 571 335 571Z" fill="url(#paint5_radial_305_218)"/>
<path d="M335 565C339.418 565 343 561.418 343 557C343 552.582 339.418 549 335 549C330.582 549 327 552.582 327 557C327 561.418 330.582 565 335 565Z" fill="#FFFEEB"/>
<path style="mix-blend-mode:overlay" d="M393 541C400.732 541 407 534.732 407 527C407 519.268 400.732 513 393 513C385.268 513 379 519.268 379 527C379 534.732 385.268 541 393 541Z" fill="url(#paint6_radial_305_218)"/>
<path d="M393 535C397.418 535 401 531.418 401 527C401 522.582 397.418 519 393 519C388.582 519 385 522.582 385 527C385 531.418 388.582 535 393 535Z" fill="#FFFEEB"/>
<path style="mix-blend-mode:overlay" d="M393 478C400.732 478 407 471.732 407 464C407 456.268 400.732 450 393 450C385.268 450 379 456.268 379 464C379 471.732 385.268 478 393 478Z" fill="url(#paint7_radial_305_218)"/>
<path d="M393 472C397.418 472 401 468.418 401 464C401 459.582 397.418 456 393 456C388.582 456 385 459.582 385 464C385 468.418 388.582 472 393 472Z" fill="#FFFEEB"/>
<path style="mix-blend-mode:overlay" d="M441 509C448.732 509 455 502.732 455 495C455 487.268 448.732 481 441 481C433.268 481 427 487.268 427 495C427 502.732 433.268 509 441 509Z" fill="url(#paint8_radial_305_218)"/>
<path d="M441 503C445.418 503 449 499.418 449 495C449 490.582 445.418 487 441 487C436.582 487 433 490.582 433 495C433 499.418 436.582 503 441 503Z" fill="#FFFEEB"/>
<path style="mix-blend-mode:overlay" d="M269 549C276.732 549 283 542.732 283 535C283 527.268 276.732 521 269 521C261.268 521 255 527.268 255 535C255 542.732 261.268 549 269 549Z" fill="url(#paint9_radial_305_218)"/>
<path d="M269 543C273.418 543 277 539.418 277 535C277 530.582 273.418 527 269 527C264.582 527 261 530.582 261 535C261 539.418 264.582 543 269 543Z" fill="#FFFEEB"/>
<defs>
<radialGradient id="paint0_radial_305_218" cx="0" cy="0" r="1" gradientUnits="userSpaceOnUse" gradientTransform="translate(172.91 457) scale(14)">
<stop stop-color="white"/>
<stop offset="0.52" stop-color="#FFFEF4" stop-opacity="0.47"/>
<stop offset="1" stop-color="#FFFEEB" stop-opacity="0"/>
</radialGradient>
<radialGradient id="paint1_radial_305_218" cx="0" cy="0" r="1" gradientUnits="userSpaceOnUse" gradientTransform="translate(172.91 534) scale(14)">
<stop stop-color="white"/>
<stop offset="0.52" stop-color="#FFFEF4" stop-opacity="0.47"/>
<stop offset="1" stop-color="#FFFEEB" stop-opacity="0"/>
</radialGradient>
<radialGradient id="paint2_radial_305_218" cx="0" cy="0" r="1" gradientUnits="userSpaceOnUse" gradientTransform="translate(268.91 458) scale(14)">
<stop stop-color="white"/>
<stop offset="0.52" stop-color="#FFFEF4" stop-opacity="0.47"/>
<stop offset="1" stop-color="#FFFEEB" stop-opacity="0"/>
</radialGradient>
<radialGradient id="paint3_radial_305_218" cx="0" cy="0" r="1" gradientUnits="userSpaceOnUse" gradientTransform="translate(112.91 497) scale(14)">
<stop stop-color="white"/>
<stop offset="0.52" stop-color="#FFFEF4" stop-opacity="0.47"/>
<stop offset="1" stop-color="#FFFEEB" stop-opacity="0"/>
</radialGradient>
<radialGradient id="paint4_radial_305_218" cx="0" cy="0" r="1" gradientUnits="userSpaceOnUse" gradientTransform="translate(337.91 436) scale(14)">
<stop stop-color="white"/>
<stop offset="0.52" stop-color="#FFFEF4" stop-opacity="0.47"/>
<stop offset="1" stop-color="#FFFEEB" stop-opacity="0"/>
</radialGradient>
<radialGradient id="paint5_radial_305_218" cx="0" cy="0" r="1" gradientUnits="userSpaceOnUse" gradientTransform="translate(334.91 557) scale(14)">
<stop stop-color="white"/>
<stop offset="0.52" stop-color="#FFFEF4" stop-opacity="0.47"/>
<stop offset="1" stop-color="#FFFEEB" stop-opacity="0"/>
</radialGradient>
<radialGradient id="paint6_radial_305_218" cx="0" cy="0" r="1" gradientUnits="userSpaceOnUse" gradientTransform="translate(392.91 527) scale(14)">
<stop stop-color="white"/>
<stop offset="0.52" stop-color="#FFFEF4" stop-opacity="0.47"/>
<stop offset="1" stop-color="#FFFEEB" stop-opacity="0"/>
</radialGradient>
<radialGradient id="paint7_radial_305_218" cx="0" cy="0" r="1" gradientUnits="userSpaceOnUse" gradientTransform="translate(392.91 464) scale(14)">
<stop stop-color="white"/>
<stop offset="0.52" stop-color="#FFFEF4" stop-opacity="0.47"/>
<stop offset="1" stop-color="#FFFEEB" stop-opacity="0"/>
</radialGradient>
<radialGradient id="paint8_radial_305_218" cx="0" cy="0" r="1" gradientUnits="userSpaceOnUse" gradientTransform="translate(440.91 495) scale(14)">
<stop stop-color="white"/>
<stop offset="0.52" stop-color="#FFFEF4" stop-opacity="0.47"/>
<stop offset="1" stop-color="#FFFEEB" stop-opacity="0"/>
</radialGradient>
<radialGradient id="paint9_radial_305_218" cx="0" cy="0" r="1" gradientUnits="userSpaceOnUse" gradientTransform="translate(268.91 535) scale(14)">
<stop stop-color="white"/>
<stop offset="0.52" stop-color="#FFFEF4" stop-opacity="0.47"/>
<stop offset="1" stop-color="#FFFEEB" stop-opacity="0"/>
</radialGradient>
</defs>
</svg>
