<svg width="1920" height="1080" viewBox="0 0 1920 1080" fill="none" xmlns="http://www.w3.org/2000/svg">
<g clip-path="url(#clip0_333_874)">
<path d="M1919.49 0H-0.509766V800H1919.49V0Z" fill="#A02E2E"/>
<path d="M1919.49 0H-0.509766V798H1919.49V0Z" fill="#A02E2E"/>
<path d="M341.309 0.06V186.87C946.989 358 1577.67 186.87 1577.67 186.87V0" fill="#321D1B"/>
<path d="M1919.49 765H-0.509766V800H1919.49V765Z" fill="white"/>
<path d="M1919.49 800H-0.509766V1080H1919.49V800Z" fill="#979599"/>
<path d="M1598.84 810V535C992.161 741.53 362.48 535 362.48 535V810C778.55 914.25 1190.75 916.3 1598.84 810Z" fill="#321D1B"/>
<path d="M170.039 116H-0.960938V678H170.039V116Z" fill="white"/>
<path d="M1619.49 535.001C1631.26 554.621 1310.35 636.001 967.66 636.001C624.97 636.001 337.2 556.911 346.49 536.001C354.49 518.001 623.96 600.811 966.66 600.811C1309.36 600.811 1607.49 515.001 1619.49 535.001Z" fill="#231515"/>
<path d="M1103.16 491H858.16V615H1103.16V491Z" fill="#191113"/>
<path d="M1047.66 470.23H1029.66V594.23H1047.66V470.23Z" fill="#191113"/>
<path d="M1067.84 447H1009.44V471H1067.84V447Z" fill="#191113"/>
<path d="M1329.49 481.65V579.29H1396.49V481.65C1396.49 481.65 1363.1 495.2 1329.49 481.65Z" fill="#E8E6E6"/>
<path d="M1329.49 579.299C1329.49 579.299 1358.64 593.669 1396.49 579.299Z" fill="#E8E6E6"/>
<path d="M1342.03 583.49L1333 580.98V483.16L1342.53 485.67L1342.03 583.49Z" fill="#C41414"/>
<path d="M1360.59 586L1351.06 585V487.17L1361.1 487.67L1360.59 586Z" fill="#C41414"/>
<path d="M1378.15 584.5L1368.12 585.5V487.67L1378.15 486.67V584.5Z" fill="#C41414"/>
<path d="M1394.21 580.48L1384.67 582.99V485.16L1394.21 482.66V580.48Z" fill="#C41414"/>
<path d="M1329.49 481.65C1329.49 481.65 1366.67 472.12 1396.49 481.65C1385.18 486.17 1358.09 492.69 1329.49 481.65Z" fill="#CEC9C8"/>
<path d="M1420.49 466.65V564.29H1487.49V466.65C1487.49 466.65 1454.1 480.2 1420.49 466.65Z" fill="#E8E6E6"/>
<path d="M1420.49 564.299C1420.49 564.299 1449.64 578.669 1487.49 564.299Z" fill="#E8E6E6"/>
<path d="M1433.03 568.49L1424 565.98V468.16L1433.53 470.67L1433.03 568.49Z" fill="#C41414"/>
<path d="M1451.59 571L1442.06 570V472.17L1452.1 472.67L1451.59 571Z" fill="#C41414"/>
<path d="M1469.15 569.5L1459.12 570.5V472.67L1469.15 471.67V569.5Z" fill="#C41414"/>
<path d="M1485.21 565.48L1475.67 567.99V470.16L1485.21 467.66V565.48Z" fill="#C41414"/>
<path d="M1420.49 466.65C1420.49 466.65 1457.67 457.12 1487.49 466.65C1476.18 471.17 1449.09 477.69 1420.49 466.65Z" fill="#CEC9C8"/>
<path d="M548.68 510.539V573.329H591.77V510.539C591.77 510.539 570.3 519.249 548.68 510.539Z" fill="#C41414"/>
<path d="M548.68 573.34C548.68 573.34 567.43 582.58 591.77 573.34Z" fill="#C41414"/>
<path d="M547.78 509.54C554.58 507.52 575.19 502.51 592.98 509.44C593.63 509.69 593.67 510.99 593.03 511.3C584.12 515.65 566.51 520.5 547.7 511.42C547.03 511.1 547.09 509.75 547.78 509.54Z" fill="#E5E5E5"/>
<path d="M570.868 492.76H570.858C570.328 492.76 569.898 493.19 569.898 493.72V511.09C569.898 511.62 570.328 512.05 570.858 512.05H570.868C571.399 512.05 571.828 511.62 571.828 511.09V493.72C571.828 493.19 571.399 492.76 570.868 492.76Z" fill="white"/>
<path d="M578.917 485.126C579.284 484.636 579.185 483.94 578.695 483.572C578.204 483.204 577.508 483.304 577.141 483.794L570.103 493.178C569.735 493.669 569.834 494.364 570.325 494.732C570.815 495.1 571.511 495.001 571.879 494.51L578.917 485.126Z" fill="white"/>
<path d="M158.37 392.69C162.46 409.3 150.6 429.1 150.88 426.7C154.21 398.34 136.23 375.97 136.23 375.97C141.12 388.69 135.26 426.7 135.26 426.7C131.38 438.33 157.45 451.8 157.45 451.8C170.97 459.46 170.48 464.29 170.48 464.29C170.72 474.19 149.15 491 149.15 491C148.18 498.11 149.47 509.1 149.47 509.1C149.39 513.38 146.72 513.7 143.65 514.27C142.04 514.57 137.43 516.21 136.22 519.44L141.06 521.38C143.48 524.29 141.22 528.32 138.34 531.63C135.73 534.63 134.06 536.11 132.33 537.62C129.19 540.94 128.35 542 125.54 545.58C123.48 548.29 121.87 550.6 119.72 553.38C109.43 564.26 91.93 563.4 91.93 563.4C81.48 564.8 53.15 559.85 53.15 559.85C32.68 565.24 38.82 580.96 38.82 580.96C48.03 583.55 56.23 586.49 60.04 590.22C63.85 593.95 68.17 599.93 69.68 610.33C74.6 644.07 73.74 638.53 74.35 654.43C75.43 671.75 75.75 676.94 75.75 676.94L-95.5 678.76L-85.48 646.12C-86.77 654.2 -113.27 657.75 -113.27 657.75C-143.32 662.92 -170.46 632.22 -170.46 632.22C-163.35 635.13 -143.96 613.8 -143.96 613.8C-175.95 642.88 -185 615.09 -185 615.09C-160.44 624.14 -150.2 597.09 -144.29 576.31C-136.97 550.57 -149.46 480.34 -149.46 480.34C-197.56 240.25 13.61 251.56 13.61 251.56C192.47 260.61 163.11 412.64 163.11 412.64C163 400.04 159.19 393.54 158.37 392.69Z" fill="#213769"/>
<mask id="mask0_333_874" style="mask-type:luminance" maskUnits="userSpaceOnUse" x="-185" y="251" width="356" height="428">
<path d="M158.37 392.69C162.46 409.3 150.6 429.1 150.88 426.7C154.21 398.34 136.23 375.97 136.23 375.97C141.12 388.69 135.26 426.7 135.26 426.7C131.38 438.33 157.45 451.8 157.45 451.8C170.97 459.46 170.48 464.29 170.48 464.29C170.72 474.19 149.15 491 149.15 491C148.18 498.11 149.47 509.1 149.47 509.1C149.39 513.38 146.72 513.7 143.65 514.27C142.04 514.57 137.43 516.21 136.22 519.44L141.06 521.38C143.48 524.29 141.22 528.32 138.34 531.63C135.73 534.63 134.06 536.11 132.33 537.62C129.19 540.94 128.35 542 125.54 545.58C123.48 548.29 121.87 550.6 119.72 553.38C109.43 564.26 91.93 563.4 91.93 563.4C81.48 564.8 53.15 559.85 53.15 559.85C32.68 565.24 38.82 580.96 38.82 580.96C48.03 583.55 56.23 586.49 60.04 590.22C63.85 593.95 68.17 599.93 69.68 610.33C74.6 644.07 73.74 638.53 74.35 654.43C75.43 671.75 75.75 676.94 75.75 676.94L-95.5 678.76L-85.48 646.12C-86.77 654.2 -113.27 657.75 -113.27 657.75C-143.32 662.92 -170.46 632.22 -170.46 632.22C-163.35 635.13 -143.96 613.8 -143.96 613.8C-175.95 642.88 -185 615.09 -185 615.09C-160.44 624.14 -150.2 597.09 -144.29 576.31C-136.97 550.57 -149.46 480.34 -149.46 480.34C-197.56 240.25 13.61 251.56 13.61 251.56C192.47 260.61 163.11 412.64 163.11 412.64C163 400.04 159.19 393.54 158.37 392.69Z" fill="white"/>
</mask>
<g mask="url(#mask0_333_874)">
<path d="M59.649 321.36C86.9539 321.36 109.089 298.464 109.089 270.22C109.089 241.976 86.9539 219.08 59.649 219.08C32.344 219.08 10.209 241.976 10.209 270.22C10.209 298.464 32.344 321.36 59.649 321.36Z" fill="#83BC3F"/>
<path opacity="0.66" d="M-21.05 350.439C10.4026 350.439 35.9 324.942 35.9 293.489C35.9 262.036 10.4026 236.539 -21.05 236.539C-52.5026 236.539 -78 262.036 -78 293.489C-78 324.942 -52.5026 350.439 -21.05 350.439Z" fill="#4E8CCA"/>
</g>
<path d="M-14.6191 130.709H0.280869L5.54086 193.009L9.88086 130.709H24.7109L11.6309 239.479H-0.439133L-14.6091 130.709H-14.6191Z" fill="#1D1D1B"/>
<path d="M54.7597 238.22C52.7697 239.06 50.4897 239.48 47.9297 239.48C41.5597 239.48 36.0097 236.39 31.2797 230.21C26.5497 224.03 24.1797 213.09 24.1797 197.37V187.84C24.1797 175.13 26.0797 165.97 29.8897 160.37C32.4597 156.57 35.8197 154.68 39.9697 154.68C45.0997 154.68 48.9597 156.94 51.5497 161.47C54.1397 165.99 55.4297 171.46 55.4297 177.85C55.4297 185.53 53.8697 191.64 50.7497 196.19C47.6297 200.74 43.2297 203.89 37.5597 205.66C37.6497 212.59 39.1297 217.97 42.0097 221.81C44.0897 224.55 46.5497 225.91 49.3897 225.91C50.6697 225.91 52.4697 225.36 54.7697 224.25V238.22H54.7597ZM40.2297 167.78C39.0697 169.55 38.3097 171.09 37.9597 172.41C37.2897 174.93 36.9597 177.86 36.9597 181.22V192.01C38.8797 191.17 40.3597 189.72 41.4097 187.64C42.4597 185.57 42.9797 182.41 42.9797 178.17C42.9797 173.54 42.0597 170.07 40.2297 167.78Z" fill="#1D1D1B"/>
<path d="M73.4917 166.66C73.9817 165.91 74.4617 164.81 74.9517 163.35C76.3217 159.6 77.9117 157.13 79.7217 155.94C80.9517 155.1 82.7417 154.68 85.0817 154.68V170.37C81.8617 171.21 79.3217 172.84 77.4717 175.27C74.8217 178.76 73.5017 181.71 73.5017 184.14V238.62H60.8617V170.34C60.8617 167.69 59.9117 165.55 58.0117 163.91L65.6617 154.67C68.2117 155.64 70.0217 156.89 71.1017 158.41C72.1817 159.93 72.9817 162.68 73.5117 166.65L73.4917 166.66Z" fill="#1D1D1B"/>
<path d="M87 224.85C88.54 226.48 90.29 227.3 92.23 227.3C93.99 227.3 95.43 226.72 96.53 225.55C97.63 224.38 98.19 222.74 98.19 220.62C98.19 216.69 96.51 209.83 93.16 200.03C89.14 188.25 87.14 179.33 87.14 173.28C87.14 166.75 88.34 162.01 90.75 159.08C93.16 156.15 96.26 154.68 100.05 154.68C102.39 154.68 105.19 155.58 108.46 157.39V168.91C106.74 167.45 105.19 166.73 103.83 166.73C102.47 166.73 101.28 167.28 100.29 168.39C99.3 169.49 98.8 171.06 98.8 173.09C98.8 176.84 100.39 183.44 103.57 192.88C107.67 205.15 109.73 214.44 109.73 220.75C109.73 227.06 108.42 231.93 105.79 234.95C103.16 237.97 99.67 239.49 95.3 239.49C92.52 239.49 89.76 238.74 87.02 237.24V224.86L87 224.85Z" fill="#1D1D1B"/>
<path d="M133.55 232.4C130.79 237.12 127.93 239.48 125 239.48C122.07 239.48 119.63 237.8 117.7 234.45C114.67 229.2 113.16 218.56 113.16 202.54V192.54C113.16 179.52 115.91 169.55 121.42 162.62C125.65 157.32 131.35 154.68 138.53 154.68H144.41V216.95C144.41 220.79 144.69 223.49 145.24 225.06C145.79 226.63 146.6 227.87 147.66 228.8L140.34 239.49C138.83 239.05 137.59 238.35 136.62 237.4C135.65 236.45 134.63 234.78 133.56 232.4H133.55ZM131.75 170.63C129.72 171.73 128.22 173.58 127.25 176.16C126.28 178.74 125.79 183.92 125.79 191.68V206.91C125.79 216.58 126.44 222.82 127.73 225.65C128.29 226.84 128.98 227.44 129.8 227.44C130.66 227.44 131.31 227.15 131.74 226.58V170.64L131.75 170.63Z" fill="#1D1D1B"/>
<path d="M1920.04 121H1732.04V438H1920.04V121Z" fill="#2D90CF"/>
<path d="M1920.04 684H1732.04V438H1780.72H1920.04V684Z" fill="#F4EC87"/>
<path d="M1920.04 278.5C1915.67 285.17 1821.94 438.178 1821.94 438.178H1920.04V278.488V278.5Z" fill="#FFD100"/>
<path d="M1866.4 543.769C1869.73 563.329 1857.69 582.089 1839.5 585.679C1821.31 589.259 1803.87 576.309 1800.54 556.749C1797.21 537.189 1809.25 518.429 1827.44 514.839C1845.63 511.259 1863.07 524.209 1866.4 543.769Z" fill="#2B6C51"/>
<path d="M1820.67 517.99C1822.07 512.26 1821.01 506.05 1817.82 501.23L1835.04 497.84C1835.04 497.84 1831.36 508.72 1836.25 514.84L1820.68 517.99H1820.67Z" fill="#2B6C51"/>
<path d="M1817.81 501.229L1812.09 502.359C1812.09 502.359 1813.4 498.749 1811.12 496.689C1811.12 496.689 1837.9 493.059 1841 491.869C1841 491.869 1840.52 494.229 1841.83 496.489L1835.01 497.829L1817.79 501.219L1817.81 501.229Z" fill="#2B6C51"/>
<path d="M1817.26 518.738C1817.26 518.738 1813.68 567.638 1855.61 577.268C1855.61 577.268 1847.43 585.138 1839.5 585.668C1839.5 585.668 1801.42 536.048 1806.28 529.248C1811.99 521.238 1813.48 520.928 1817.26 518.738Z" fill="#82C07B"/>
<path d="M1839.95 514.92C1839.95 514.92 1848.75 517.13 1851.91 520.2C1851.91 520.2 1837.99 573.08 1824.06 584.82C1824.06 584.82 1815.45 582.13 1811.11 577.05C1811.11 577.05 1827.87 584.87 1839.96 514.92H1839.95Z" fill="#82C07B"/>
<path d="M1816.19 495.99L1813.66 484.86L1833.47 474.08L1835.13 493.11L1816.19 495.99Z" fill="#6F4A34"/>
<path d="M1793.05 587.609C1800.82 586.879 1808.34 585.379 1815.72 582.839C1818.61 581.839 1822.04 580.089 1825.13 581.059C1828.22 582.029 1831.02 584.049 1834.42 584.809C1850.26 588.329 1866.86 586.629 1882.79 584.749C1886.81 584.279 1890.29 581.639 1890.29 577.249C1890.29 573.559 1886.84 569.269 1882.79 569.749C1874.72 570.699 1866.62 571.579 1858.49 571.769C1851.24 571.929 1841.99 572.379 1835.16 569.459C1832.18 568.189 1829.72 566.559 1826.44 566.039C1822.86 565.469 1819.3 566.019 1815.83 567.009C1808.17 569.179 1801.06 571.869 1793.05 572.629C1783.52 573.529 1783.43 588.539 1793.05 587.629V587.609Z" fill="#F4EC87"/>
<path d="M1813.2 590.408C1826.73 587.578 1840.71 593.728 1854.29 594.038C1863.95 594.258 1863.94 579.258 1854.29 579.038C1838.97 578.688 1824.65 572.718 1809.21 575.938C1799.77 577.908 1803.76 592.378 1813.2 590.398V590.408Z" fill="#F4EC87"/>
<path d="M1835.93 587.679L1840.79 584.849C1841.67 584.339 1844.21 582.349 1845.29 582.259C1843.29 582.419 1848.17 584.079 1848.07 584.039C1849.72 584.719 1851.39 585.379 1853.07 585.979C1859.79 588.389 1866.73 589.989 1873.8 590.959C1877.84 591.509 1881.81 589.979 1883.03 585.719C1884.03 582.229 1881.8 577.039 1877.79 576.489C1868.96 575.279 1860.44 573.019 1852.2 569.619C1848.41 568.059 1844.93 566.789 1840.81 567.979C1836.4 569.259 1832.28 572.429 1828.35 574.709C1820.01 579.559 1827.55 592.529 1835.92 587.659L1835.93 587.679Z" fill="#F4EC87"/>
<path d="M1808.48 181.749H1800.5L1799.96 179.659C1799.74 179.749 1799.18 180.069 1798.28 180.619C1797.71 181.019 1797.07 181.549 1796.37 182.209L1795.54 180.309C1795.37 179.929 1795.14 179.409 1794.83 178.719L1794.04 181.749H1789.81C1790.43 179.169 1791.4 174.899 1792.7 168.949C1793.5 164.969 1794.16 161.199 1794.7 157.629H1803.47C1803.74 159.269 1804.49 163.099 1805.7 169.109C1806.37 172.249 1807.3 176.459 1808.49 181.749H1808.48ZM1799.27 176.599C1799.1 176.049 1798.81 175.149 1798.39 173.899C1798.14 173.209 1797.75 172.259 1797.24 171.039C1797.02 171.649 1796.67 172.639 1796.19 174.019C1795.93 174.819 1795.62 175.899 1795.26 177.269C1795.55 177.269 1796.21 177.209 1797.24 177.079C1797.86 176.989 1798.54 176.819 1799.27 176.589V176.599Z" fill="white"/>
<path d="M1822.92 167.508C1822.2 167.328 1821.65 167.238 1821.28 167.238C1820.82 167.238 1820.4 167.408 1820.02 167.738C1819.56 168.148 1819.33 168.678 1819.33 169.328C1819.33 169.828 1819.75 170.798 1820.59 172.228C1821.43 173.658 1821.85 174.978 1821.85 176.188C1821.85 177.938 1821.23 179.368 1820 180.488C1818.82 181.568 1817.37 182.108 1815.63 182.108C1814.03 182.108 1812.86 181.988 1812.1 181.748C1812.01 181.268 1811.86 180.478 1811.65 179.398C1811.51 178.808 1811.32 178.028 1811.08 177.058C1812.15 177.338 1812.87 177.478 1813.24 177.478C1814.69 177.478 1815.41 176.888 1815.41 175.708C1815.41 174.848 1815.12 174.078 1814.53 173.398C1813.58 172.498 1812.62 171.588 1811.67 170.678C1809.82 168.918 1808.9 166.828 1808.9 164.418C1808.9 162.008 1809.78 159.988 1811.53 158.688C1813.06 157.558 1815.09 156.988 1817.63 156.988C1819.07 156.988 1820.69 157.218 1822.48 157.668L1822.92 167.508Z" fill="white"/>
<path d="M1841.88 157.639L1841.46 167.519C1841.08 167.459 1840.47 167.379 1839.63 167.279C1839.11 167.249 1838.28 167.219 1837.12 167.189C1837.06 167.809 1836.96 169.299 1836.81 171.659C1836.7 173.949 1836.53 177.319 1836.28 181.749H1829.21C1829.13 179.639 1828.99 176.309 1828.77 171.779C1828.67 170.209 1828.57 168.679 1828.46 167.179L1826.15 167.269L1824.06 167.509L1823.69 157.629H1841.85L1841.88 157.639Z" fill="white"/>
<path d="M1858.08 157.639L1857.45 167.579C1857.09 167.519 1856.31 167.409 1855.11 167.249C1854.29 167.169 1853.4 167.109 1852.42 167.089L1852.2 170.089C1853.27 170.119 1855.02 170.089 1857.44 170.009C1857.33 170.399 1857.16 171.119 1856.93 172.179C1856.79 172.819 1856.67 173.559 1856.56 174.389C1856.28 174.319 1855.57 174.219 1854.44 174.109C1853.91 174.079 1853.14 174.069 1852.1 174.079L1851.95 177.579C1852.68 177.569 1854.02 177.499 1855.98 177.379C1856.35 177.349 1856.96 177.219 1857.8 176.999C1857.72 177.319 1857.54 178.099 1857.26 179.339C1857.12 179.979 1856.96 180.779 1856.76 181.759H1843.7L1843.28 169.449C1843.2 166.629 1843.01 162.699 1842.71 157.639H1858.05H1858.08Z" fill="white"/>
<path d="M1878.94 166.658C1878.94 168.588 1878.44 170.288 1877.44 171.778C1876.55 173.078 1875.44 174.008 1874.11 174.568C1874.39 175.038 1875.09 176.028 1876.2 177.538C1876.75 178.228 1877.6 179.138 1878.74 180.268C1878.28 180.448 1877.28 180.898 1875.72 181.618C1874.63 182.148 1873.6 182.678 1872.64 183.188C1872.36 182.808 1871.73 181.838 1870.76 180.268C1870.31 179.468 1869.66 178.128 1868.79 176.248H1868.76L1868.61 181.738H1860.39C1860.28 179.458 1860.13 175.698 1859.94 170.448C1859.85 167.358 1859.65 163.088 1859.34 157.618C1862.02 157.318 1864.46 157.158 1866.67 157.158C1874.85 157.158 1878.95 160.318 1878.95 166.638L1878.94 166.658ZM1872.32 170.048C1872.32 169.058 1871.93 168.338 1871.15 167.918C1870.58 167.608 1869.86 167.468 1868.99 167.508L1868.9 172.878C1869.71 172.878 1870.43 172.688 1871.06 172.298C1871.9 171.798 1872.32 171.048 1872.32 170.048Z" fill="white"/>
<path d="M1889.92 157.639L1889.35 170.469C1889.24 173.229 1889.12 176.999 1888.97 181.759H1880.78L1879.79 157.649H1889.92V157.639Z" fill="white"/>
<path d="M1912.31 157.639C1911.92 158.439 1910.93 160.359 1909.35 163.399C1908.45 165.079 1907.09 167.489 1905.29 170.619L1910.6 181.749H1903.81L1901.04 176.839C1899.83 178.829 1898.87 180.469 1898.16 181.749H1892.19C1892.71 180.909 1893.84 178.939 1895.59 175.829C1896.27 174.569 1897.04 173.139 1897.9 171.529C1897.26 170.399 1896.22 168.499 1894.79 165.829C1893.23 162.829 1891.86 160.089 1890.66 157.629H1900.7C1900.83 158.069 1901.1 158.929 1901.52 160.199C1901.77 160.929 1902.09 161.719 1902.47 162.569C1902.71 162.119 1903.1 161.349 1903.64 160.259C1903.95 159.579 1904.31 158.699 1904.72 157.619H1912.31V157.639Z" fill="white"/>
<path d="M1802.25 196.219C1802.11 198.419 1801.91 202.429 1801.65 208.249C1801.51 211.829 1801.41 215.859 1801.34 220.339H1796.06L1795.91 212.949L1790.76 220.929L1785.2 213.019L1785.05 220.349H1779.8C1779.73 217.949 1779.6 213.899 1779.41 208.199C1779.27 204.909 1779.03 200.929 1778.67 196.239H1787.03C1787.32 196.999 1787.82 198.239 1788.53 199.939C1789.07 201.149 1789.82 202.589 1790.76 204.239C1791.18 203.529 1791.95 202.059 1793.07 199.829C1793.47 198.999 1793.98 197.799 1794.6 196.229H1802.25V196.219Z" fill="white"/>
<path d="M1813.58 196.219L1813.01 209.049C1812.9 211.809 1812.78 215.579 1812.63 220.339H1804.44L1803.45 196.229H1813.58V196.219Z" fill="white"/>
<path d="M1828.67 206.098C1827.95 205.918 1827.4 205.828 1827.03 205.828C1826.57 205.828 1826.15 205.998 1825.77 206.328C1825.31 206.738 1825.08 207.268 1825.08 207.918C1825.08 208.418 1825.5 209.388 1826.34 210.818C1827.18 212.248 1827.6 213.568 1827.6 214.778C1827.6 216.528 1826.98 217.958 1825.75 219.078C1824.57 220.158 1823.12 220.698 1821.38 220.698C1819.78 220.698 1818.61 220.578 1817.85 220.338C1817.76 219.858 1817.61 219.068 1817.4 217.988C1817.26 217.398 1817.07 216.618 1816.83 215.648C1817.9 215.928 1818.62 216.068 1818.99 216.068C1820.44 216.068 1821.16 215.478 1821.16 214.298C1821.16 213.438 1820.87 212.668 1820.28 211.988C1819.33 211.088 1818.37 210.178 1817.42 209.268C1815.57 207.508 1814.65 205.418 1814.65 203.008C1814.65 200.598 1815.53 198.578 1817.28 197.278C1818.81 196.148 1820.84 195.578 1823.38 195.578C1824.82 195.578 1826.44 195.808 1828.23 196.258L1828.67 206.098Z" fill="white"/>
<path d="M1843.71 206.098C1842.99 205.918 1842.44 205.828 1842.07 205.828C1841.61 205.828 1841.19 205.998 1840.81 206.328C1840.35 206.738 1840.12 207.268 1840.12 207.918C1840.12 208.418 1840.54 209.388 1841.38 210.818C1842.22 212.248 1842.64 213.568 1842.64 214.778C1842.64 216.528 1842.02 217.958 1840.79 219.078C1839.61 220.158 1838.16 220.698 1836.42 220.698C1834.82 220.698 1833.65 220.578 1832.89 220.338C1832.8 219.858 1832.65 219.068 1832.44 217.988C1832.3 217.398 1832.11 216.618 1831.87 215.648C1832.94 215.928 1833.66 216.068 1834.03 216.068C1835.48 216.068 1836.2 215.478 1836.2 214.298C1836.2 213.438 1835.91 212.668 1835.32 211.988C1834.37 211.088 1833.41 210.178 1832.46 209.268C1830.61 207.508 1829.69 205.418 1829.69 203.008C1829.69 200.598 1830.57 198.578 1832.32 197.278C1833.85 196.148 1835.88 195.578 1838.42 195.578C1839.86 195.578 1841.48 195.808 1843.27 196.258L1843.71 206.098Z" fill="white"/>
<path d="M1854.97 196.219L1854.4 209.049C1854.29 211.809 1854.17 215.579 1854.02 220.339H1845.83L1844.84 196.229H1854.97V196.219Z" fill="white"/>
<path d="M1875.75 207.759C1875.75 211.449 1874.86 214.579 1873.09 217.129C1871.23 219.799 1868.85 221.129 1865.95 221.129C1863.05 221.129 1860.54 219.789 1858.7 217.099C1856.96 214.569 1856.09 211.449 1856.09 207.759C1856.09 203.809 1857.04 200.719 1858.94 198.469C1860.73 196.359 1863.07 195.299 1865.96 195.299C1868.85 195.299 1871.12 196.359 1872.91 198.489C1874.81 200.749 1875.76 203.839 1875.76 207.769L1875.75 207.759ZM1868.72 210.519C1868.72 207.609 1867.81 206.159 1865.98 206.159C1864.15 206.159 1863.31 207.629 1863.31 210.559C1863.31 211.729 1863.54 212.829 1864.01 213.839C1864.54 214.979 1865.18 215.549 1865.95 215.549C1866.72 215.549 1867.36 214.969 1867.94 213.809C1868.47 212.749 1868.73 211.659 1868.73 210.529L1868.72 210.519Z" fill="white"/>
<path d="M1894.8 196.219C1894.66 198.329 1894.47 202.019 1894.23 207.289C1894.08 211.159 1893.96 215.619 1893.86 220.649C1892.59 219.569 1890.64 217.969 1888.04 215.829C1886.91 214.979 1885.23 213.709 1882.99 212.019L1882.84 220.339H1878.14C1878.06 218.219 1877.88 214.209 1877.6 208.309C1877.36 203.539 1877.11 199.509 1876.86 196.219H1884.19L1889.62 201.749C1889.62 200.479 1889.6 199.489 1889.56 198.769C1889.53 198.129 1889.47 197.279 1889.39 196.229H1894.8V196.219Z" fill="white"/>
<path d="M1918.47 206.098C1917.93 205.918 1917.25 205.828 1916.41 205.828C1914.85 205.828 1913.59 206.268 1912.62 207.148C1911.52 208.128 1910.97 209.548 1910.97 211.398C1910.97 212.838 1911.41 214.028 1912.28 214.958C1913.15 215.888 1914.29 216.348 1915.7 216.348C1916.66 216.348 1917.58 216.088 1918.44 215.578C1918.34 216.008 1918.18 216.798 1917.94 217.948C1917.8 218.708 1917.67 219.508 1917.55 220.338C1916.46 220.788 1915.06 221.018 1913.36 221.018C1910.28 221.018 1907.64 219.898 1905.45 217.678C1903.08 215.248 1901.89 212.088 1901.89 208.198C1901.89 204.598 1902.91 201.688 1904.96 199.468C1907.14 197.098 1910.15 195.918 1914 195.918C1915.85 195.918 1917.19 196.038 1918.01 196.268L1918.48 206.108L1918.47 206.098Z" fill="white"/>
<path d="M912.49 43H385.49V348H912.49V43Z" fill="#979599"/>
<path d="M895.882 59H405.102V328.45H895.882V59Z" fill="#EFEFEF"/>
<path d="M662.059 132.74H670.059C670.819 132.74 671.339 133.26 671.339 134.02C671.339 134.78 670.819 135.3 670.059 135.3H663.339V143.78H669.259C670.019 143.78 670.539 144.3 670.539 145.06C670.539 145.82 670.019 146.34 669.259 146.34H663.339V155.62H670.059C670.819 155.62 671.339 156.14 671.339 156.9C671.339 157.66 670.819 158.18 670.059 158.18H662.059C661.299 158.18 660.779 157.66 660.779 156.9V134.02C660.779 133.26 661.299 132.74 662.059 132.74Z" fill="#A02E2E"/>
<path d="M675.578 157.05V141.21C675.578 140.53 676.098 140.01 676.778 140.01H680.778C683.618 140.01 685.978 142.33 685.978 145.21V157.05C685.978 157.73 685.418 158.25 684.778 158.25C684.098 158.25 683.578 157.73 683.578 157.05V145.21C683.578 143.65 682.338 142.41 680.778 142.41H677.978V157.05C677.978 157.73 677.418 158.25 676.778 158.25C676.098 158.25 675.578 157.73 675.578 157.05Z" fill="#A02E2E"/>
<path d="M689.498 141.219C689.498 140.539 690.018 140.019 690.698 140.019H692.698V133.059C692.698 132.379 693.218 131.859 693.898 131.859C694.578 131.859 695.098 132.379 695.098 133.059V140.019H697.898C698.578 140.019 699.098 140.539 699.098 141.219C699.098 141.899 698.578 142.419 697.898 142.419H695.098V153.059C695.098 154.619 696.338 155.859 697.898 155.859C698.578 155.859 699.098 156.379 699.098 157.059C699.098 157.739 698.578 158.259 697.898 158.259C695.018 158.259 692.698 155.939 692.698 153.059V142.419H690.698C690.018 142.419 689.498 141.899 689.498 141.219Z" fill="#A02E2E"/>
<path d="M703.098 157.05V141.21C703.098 140.53 703.618 140.01 704.298 140.01H708.298C709.218 140.01 710.058 140.25 710.898 140.69C711.498 141.05 711.658 141.73 711.338 142.33C711.018 142.93 710.298 143.13 709.698 142.77C709.258 142.53 708.778 142.41 708.298 142.41H705.498V157.05C705.498 157.73 704.978 158.25 704.298 158.25C703.618 158.25 703.098 157.73 703.098 157.05Z" fill="#A02E2E"/>
<path d="M714.578 153.05V145.05C714.578 142.17 716.938 139.85 719.778 139.85C722.618 139.85 724.978 142.17 724.978 145.05V149.05C724.978 149.73 724.458 150.25 723.778 150.25H716.978V153.05C716.978 154.17 717.618 155.21 718.698 155.65C719.778 156.09 720.978 155.85 721.778 155.05C721.978 154.81 722.258 154.69 722.578 154.69C722.938 154.69 723.218 154.81 723.458 155.05C723.698 155.25 723.818 155.53 723.818 155.89C723.818 156.21 723.698 156.49 723.458 156.73C721.978 158.21 719.738 158.65 717.818 157.85C715.858 157.05 714.578 155.17 714.578 153.05ZM722.698 132.26C723.138 132.74 723.098 133.5 722.578 133.94L718.578 137.54C718.098 137.98 717.338 137.94 716.898 137.46C716.458 136.98 716.498 136.22 716.978 135.78L720.978 132.18C721.498 131.74 722.218 131.78 722.698 132.26ZM716.978 145.05V147.85H722.578V145.05C722.578 143.49 721.338 142.25 719.778 142.25C718.218 142.25 716.978 143.49 716.978 145.05Z" fill="#A02E2E"/>
<path d="M729.299 153.05V145.05C729.299 142.17 731.619 139.85 734.499 139.85C737.379 139.85 739.699 142.17 739.699 145.05V149.05C739.699 149.73 739.179 150.25 738.499 150.25H731.699V153.05C731.699 154.17 732.339 155.21 733.419 155.65C734.499 156.09 735.659 155.85 736.459 155.05C736.699 154.81 736.979 154.69 737.299 154.69C737.659 154.69 737.939 154.81 738.179 155.05C738.419 155.25 738.539 155.53 738.539 155.89C738.539 156.21 738.419 156.49 738.179 156.73C736.699 158.21 734.459 158.65 732.499 157.85C730.539 157.05 729.299 155.17 729.299 153.05ZM731.699 145.05V147.85H737.299V145.05C737.299 143.49 736.059 142.25 734.499 142.25C732.939 142.25 731.699 143.49 731.699 145.05Z" fill="#A02E2E"/>
<path d="M750.58 153.129C750.54 152.329 750.18 151.689 749.5 151.209L745.78 148.569C744.54 147.729 743.86 146.409 743.74 144.969C743.62 143.489 744.22 142.089 745.3 141.129C746.38 140.129 747.82 139.689 749.26 139.889C750.7 140.169 751.94 140.969 752.7 142.249C753.02 142.849 752.86 143.569 752.26 143.889C751.66 144.209 750.94 144.049 750.62 143.449C750.26 142.809 749.66 142.409 748.9 142.289C748.14 142.169 747.46 142.369 746.9 142.889C746.34 143.409 746.1 144.049 746.14 144.809C746.18 145.569 746.54 146.169 747.18 146.609L750.9 149.209C752.14 150.129 752.86 151.409 752.98 152.969C753.1 154.529 752.5 155.929 751.38 156.929C750.26 158.009 748.78 158.409 747.3 158.209C745.74 157.929 744.5 157.089 743.74 155.769C743.42 155.169 743.58 154.449 744.18 154.129C744.78 153.809 745.5 153.969 745.82 154.569C746.26 155.249 746.86 155.689 747.66 155.809C748.42 155.929 749.14 155.729 749.78 155.169C750.38 154.609 750.66 153.929 750.58 153.129Z" fill="#A02E2E"/>
<path d="M764.859 152.89V145.21C764.859 142.33 767.179 140.01 770.059 140.01H772.859V133.05C772.859 132.37 773.379 131.85 774.059 131.85C774.699 131.85 775.259 132.37 775.259 133.05V156.89C775.259 157.57 774.699 158.09 774.059 158.09H770.059C767.179 158.09 764.859 155.77 764.859 152.89ZM767.259 145.21V152.89C767.259 154.45 768.499 155.69 770.059 155.69H772.859V142.41H770.059C768.499 142.41 767.259 143.65 767.259 145.21Z" fill="#A02E2E"/>
<path d="M780.379 153.05V145.05C780.379 142.17 782.699 139.85 785.579 139.85C788.459 139.85 790.779 142.17 790.779 145.05V149.05C790.779 149.73 790.259 150.25 789.579 150.25H782.779V153.05C782.779 154.17 783.419 155.21 784.499 155.65C785.579 156.09 786.739 155.85 787.539 155.05C787.779 154.81 788.059 154.69 788.379 154.69C788.739 154.69 789.019 154.81 789.259 155.05C789.499 155.25 789.619 155.53 789.619 155.89C789.619 156.21 789.499 156.49 789.259 156.73C787.779 158.21 785.539 158.65 783.579 157.85C781.619 157.05 780.379 155.17 780.379 153.05ZM782.779 145.05V147.85H788.379V145.05C788.379 143.49 787.139 142.25 785.579 142.25C784.019 142.25 782.779 143.49 782.779 145.05Z" fill="#A02E2E"/>
<path d="M660.379 201.05V193.05C660.379 190.93 661.619 189.05 663.579 188.25C665.539 187.45 667.699 187.89 669.259 189.37C669.459 189.61 669.579 189.89 669.579 190.25C669.579 190.57 669.459 190.85 669.259 191.09C669.019 191.29 668.739 191.41 668.379 191.41C668.059 191.41 667.779 191.29 667.539 191.09C666.739 190.25 665.579 190.01 664.499 190.45C663.419 190.89 662.779 191.93 662.779 193.05V201.05C662.779 202.17 663.419 203.21 664.499 203.65C665.579 204.09 666.739 203.85 667.539 203.05C667.779 202.81 668.059 202.69 668.379 202.69C668.739 202.69 669.019 202.81 669.259 203.05C669.459 203.25 669.579 203.53 669.579 203.89C669.579 204.21 669.459 204.49 669.259 204.73C667.699 206.21 665.539 206.65 663.579 205.85C661.619 205.05 660.379 203.17 660.379 201.05Z" fill="#A02E2E"/>
<path d="M673.578 183.059C673.578 182.139 674.258 181.459 675.178 181.459C676.098 181.459 676.778 182.139 676.778 183.059C676.778 183.979 676.098 184.659 675.178 184.659C674.258 184.659 673.578 183.979 673.578 183.059ZM675.178 206.249C674.538 206.249 673.978 205.729 673.978 205.049V189.049C673.978 188.369 674.538 187.849 675.178 187.849C675.858 187.849 676.378 188.369 676.378 189.049V205.049C676.378 205.729 675.858 206.249 675.178 206.249Z" fill="#A02E2E"/>
<path d="M681.979 205.05V189.21C681.979 188.53 682.499 188.01 683.179 188.01H687.179C690.019 188.01 692.379 190.33 692.379 193.21V205.05C692.379 205.73 691.819 206.25 691.179 206.25C690.499 206.25 689.979 205.73 689.979 205.05V193.21C689.979 191.65 688.739 190.41 687.179 190.41H684.379V205.05C684.379 205.73 683.819 206.25 683.179 206.25C682.499 206.25 681.979 205.73 681.979 205.05Z" fill="#A02E2E"/>
<path d="M697.18 201.05V193.05C697.18 190.17 699.54 187.85 702.38 187.85C705.22 187.85 707.58 190.17 707.58 193.05V197.05C707.58 197.73 707.06 198.25 706.38 198.25H699.58V201.05C699.58 202.17 700.22 203.21 701.3 203.65C702.38 204.09 703.58 203.85 704.38 203.05C704.58 202.81 704.86 202.69 705.18 202.69C705.54 202.69 705.82 202.81 706.06 203.05C706.3 203.25 706.42 203.53 706.42 203.89C706.42 204.21 706.3 204.49 706.06 204.73C704.58 206.21 702.34 206.65 700.42 205.85C698.46 205.05 697.18 203.17 697.18 201.05ZM705.3 180.26C705.74 180.74 705.7 181.5 705.18 181.94L701.18 185.54C700.7 185.98 699.94 185.94 699.5 185.46C699.06 184.98 699.1 184.22 699.58 183.78L703.58 180.18C704.1 179.74 704.82 179.78 705.3 180.26ZM699.58 193.05V195.85H705.18V193.05C705.18 191.49 703.94 190.25 702.38 190.25C700.82 190.25 699.58 191.49 699.58 193.05Z" fill="#A02E2E"/>
<path d="M714.779 205.05C714.779 205.73 714.219 206.25 713.579 206.25C712.899 206.25 712.379 205.73 712.379 205.05V189.21C712.379 188.53 712.899 188.01 713.579 188.01H725.579C728.419 188.01 730.779 190.33 730.779 193.21V205.05C730.779 205.73 730.219 206.25 729.579 206.25C728.899 206.25 728.379 205.73 728.379 205.05V193.21C728.379 191.65 727.139 190.41 725.579 190.41H722.779V205.05C722.779 205.73 722.219 206.25 721.579 206.25C720.899 206.25 720.379 205.73 720.379 205.05V190.41H714.779V205.05Z" fill="#A02E2E"/>
<path d="M742.459 192.97C742.459 191.85 741.779 190.89 740.779 190.45C739.699 190.01 738.579 190.25 737.819 191.05C737.579 191.29 737.299 191.41 736.939 191.41C736.619 191.41 736.339 191.29 736.099 191.05C735.859 190.81 735.739 190.53 735.739 190.21C735.739 189.85 735.859 189.57 736.099 189.37C737.579 187.89 739.779 187.45 741.699 188.25C743.619 189.05 744.859 190.89 744.859 192.97V204.89C744.859 205.57 744.299 206.09 743.659 206.09H739.659C736.779 206.09 734.459 203.77 734.459 200.89C734.459 198.01 736.779 195.69 739.659 195.69H742.459V192.97ZM739.659 203.69H742.459V198.09H739.659C738.099 198.09 736.859 199.33 736.859 200.89C736.859 202.45 738.099 203.69 739.659 203.69Z" fill="#A02E2E"/>
<path d="M757.34 201.05V193.05C757.34 190.17 759.66 187.85 762.54 187.85C765.42 187.85 767.74 190.17 767.74 193.05V197.05C767.74 197.73 767.22 198.25 766.54 198.25H759.74V201.05C759.74 202.17 760.38 203.21 761.46 203.65C762.54 204.09 763.7 203.85 764.5 203.05C764.74 202.81 765.02 202.69 765.34 202.69C765.7 202.69 765.98 202.81 766.22 203.05C766.46 203.25 766.58 203.53 766.58 203.89C766.58 204.21 766.46 204.49 766.22 204.73C764.74 206.21 762.5 206.65 760.54 205.85C758.58 205.05 757.34 203.17 757.34 201.05ZM759.74 193.05V195.85H765.34V193.05C765.34 191.49 764.1 190.25 762.54 190.25C760.98 190.25 759.74 191.49 759.74 193.05Z" fill="#A02E2E"/>
<path d="M772.539 205.05V189.21C772.539 188.53 773.059 188.01 773.739 188.01H777.739C780.579 188.01 782.939 190.33 782.939 193.21V205.05C782.939 205.73 782.379 206.25 781.739 206.25C781.059 206.25 780.539 205.73 780.539 205.05V193.21C780.539 191.65 779.299 190.41 777.739 190.41H774.939V205.05C774.939 205.73 774.379 206.25 773.739 206.25C773.059 206.25 772.539 205.73 772.539 205.05Z" fill="#A02E2E"/>
<path d="M795.66 183.62C796.5 182.14 797.7 181.22 799.3 180.82C800.86 180.38 802.46 180.58 803.86 181.34C805.26 182.1 806.3 183.34 806.74 184.9C807.22 186.46 807.06 188.02 806.3 189.5C805.18 191.62 804.14 193.58 803.18 195.46C801.5 198.66 799.66 202.18 798.9 203.62H805.74C806.42 203.62 807.02 204.14 807.02 204.9C807.02 205.66 806.42 206.18 805.74 206.18H796.78C796.26 206.18 795.9 205.98 795.7 205.58C795.42 205.14 795.42 204.7 795.66 204.3L804.06 188.3C804.5 187.46 804.58 186.58 804.3 185.66C804.02 184.74 803.46 184.02 802.62 183.58C801.78 183.14 800.9 183.02 799.98 183.26C799.06 183.54 798.34 184.1 797.9 184.9C797.54 185.5 796.74 185.74 796.14 185.38C795.54 185.02 795.3 184.22 795.66 183.62Z" fill="#A02E2E"/>
<path d="M811.979 200.25V186.65C811.979 183.29 814.699 180.57 818.059 180.57C821.419 180.57 824.138 183.29 824.138 186.65V200.25C824.138 203.61 821.379 206.33 818.059 206.33C814.739 206.33 811.979 203.61 811.979 200.25ZM814.529 186.66V200.26C814.529 202.22 816.089 203.78 818.049 203.78C820.009 203.78 821.569 202.22 821.569 200.26V186.66C821.569 184.74 819.969 183.14 818.049 183.14C816.129 183.14 814.529 184.74 814.529 186.66Z" fill="#A02E2E"/>
<path d="M828.929 183.62C829.769 182.14 830.969 181.22 832.569 180.82C834.129 180.38 835.729 180.58 837.129 181.34C838.529 182.1 839.569 183.34 840.009 184.9C840.489 186.46 840.329 188.02 839.569 189.5C838.449 191.62 837.409 193.58 836.449 195.46C834.769 198.66 832.929 202.18 832.169 203.62H839.009C839.689 203.62 840.289 204.14 840.289 204.9C840.289 205.66 839.689 206.18 839.009 206.18H830.049C829.529 206.18 829.169 205.98 828.969 205.58C828.689 205.14 828.689 204.7 828.929 204.3L837.329 188.3C837.769 187.46 837.849 186.58 837.569 185.66C837.289 184.74 836.729 184.02 835.889 183.58C835.049 183.14 834.169 183.02 833.249 183.26C832.329 183.54 831.609 184.1 831.169 184.9C830.809 185.5 830.009 185.74 829.409 185.38C828.809 185.02 828.569 184.22 828.929 183.62Z" fill="#A02E2E"/>
<path d="M845.57 183.62C846.41 182.14 847.61 181.22 849.21 180.82C850.77 180.38 852.37 180.58 853.77 181.34C855.17 182.1 856.21 183.34 856.65 184.9C857.13 186.46 856.97 188.02 856.21 189.5C855.09 191.62 854.05 193.58 853.09 195.46C851.41 198.66 849.57 202.18 848.81 203.62H855.65C856.33 203.62 856.93 204.14 856.93 204.9C856.93 205.66 856.33 206.18 855.65 206.18H846.69C846.17 206.18 845.81 205.98 845.61 205.58C845.33 205.14 845.33 204.7 845.57 204.3L853.97 188.3C854.41 187.46 854.49 186.58 854.21 185.66C853.93 184.74 853.37 184.02 852.53 183.58C851.69 183.14 850.81 183.02 849.89 183.26C848.97 183.54 848.25 184.1 847.81 184.9C847.45 185.5 846.65 185.74 846.05 185.38C845.45 185.02 845.21 184.22 845.57 183.62Z" fill="#A02E2E"/>
<path d="M451.139 281.929C451.259 280.849 450.86 279.809 450.1 279.049L443.699 272.489C442.459 271.249 441.859 269.529 442.019 267.809C442.139 266.049 443.02 264.489 444.42 263.409C445.82 262.329 447.58 261.929 449.3 262.289C451.02 262.649 452.42 263.649 453.34 265.209C453.7 265.809 453.5 266.609 452.86 266.969C452.26 267.329 451.459 267.089 451.139 266.489C450.619 265.569 449.82 265.009 448.78 264.809C447.74 264.609 446.78 264.809 445.94 265.449C445.1 266.049 444.659 266.889 444.579 267.969C444.499 269.009 444.82 269.929 445.54 270.689L451.94 277.289C453.18 278.569 453.819 280.329 453.699 282.129C453.539 283.929 452.66 285.569 451.22 286.649C449.78 287.729 447.94 288.169 446.18 287.809C444.42 287.449 442.9 286.369 441.98 284.809C441.66 284.169 441.859 283.409 442.459 283.049C443.059 282.689 443.86 282.889 444.22 283.529C444.74 284.449 445.619 285.089 446.699 285.289C447.779 285.489 448.78 285.289 449.66 284.609C450.58 283.929 451.059 283.049 451.139 281.929Z" fill="#A02E2E"/>
<path d="M457.66 282.649V274.649C457.66 271.769 459.98 269.449 462.86 269.449C465.74 269.449 468.06 271.769 468.06 274.649V282.649C468.06 285.529 465.7 287.849 462.86 287.849C460.02 287.849 457.66 285.529 457.66 282.649ZM460.06 274.649V282.649C460.06 284.209 461.3 285.449 462.86 285.449C464.42 285.449 465.66 284.209 465.66 282.649V274.649C465.66 273.089 464.42 271.849 462.86 271.849C461.3 271.849 460.06 273.089 460.06 274.649Z" fill="#A02E2E"/>
<path d="M472.779 264.659C472.779 263.739 473.459 263.059 474.379 263.059C475.299 263.059 475.979 263.739 475.979 264.659C475.979 265.579 475.299 266.259 474.379 266.259C473.459 266.259 472.779 265.579 472.779 264.659ZM474.379 287.849C473.739 287.849 473.179 287.329 473.179 286.649V270.649C473.179 269.969 473.739 269.449 474.379 269.449C475.059 269.449 475.579 269.969 475.579 270.649V286.649C475.579 287.329 475.059 287.849 474.379 287.849Z" fill="#A02E2E"/>
<path d="M479.42 270.819C479.42 270.139 479.94 269.619 480.62 269.619H482.62V262.659C482.62 261.979 483.14 261.459 483.82 261.459C484.5 261.459 485.02 261.979 485.02 262.659V269.619H487.82C488.5 269.619 489.02 270.139 489.02 270.819C489.02 271.499 488.5 272.019 487.82 272.019H485.02V282.659C485.02 284.219 486.26 285.459 487.82 285.459C488.5 285.459 489.02 285.979 489.02 286.659C489.02 287.339 488.5 287.859 487.82 287.859C484.94 287.859 482.62 285.539 482.62 282.659V272.019H480.62C479.94 272.019 479.42 271.499 479.42 270.819Z" fill="#A02E2E"/>
<path d="M499.899 264.9C500.819 263.34 502.139 262.3 503.939 261.78C505.659 261.3 507.419 261.54 508.979 262.38C510.579 263.22 511.659 264.54 512.179 266.34C512.659 268.06 512.499 269.82 511.699 271.38C510.779 273.18 509.859 274.9 508.979 276.54C507.499 279.38 505.699 282.66 504.739 284.58H510.539C511.619 284.58 512.459 285.42 512.459 286.5C512.459 287.58 511.619 288.42 510.539 288.42H501.579C500.899 288.42 500.339 288.1 499.939 287.5C499.579 286.9 499.579 286.3 499.859 285.62L508.299 269.62C508.659 268.9 508.699 268.18 508.499 267.42C508.259 266.66 507.819 266.1 507.139 265.74C506.459 265.38 505.699 265.3 504.939 265.5C504.219 265.7 503.659 266.14 503.219 266.82C502.699 267.74 501.539 268.06 500.619 267.54C499.699 266.94 499.379 265.82 499.899 264.9Z" fill="#A02E2E"/>
<path d="M515.7 285.769L519.7 278.489L515.86 271.529C515.38 270.609 515.66 269.569 516.58 269.089C517.42 268.609 518.54 268.929 519.02 269.769L521.74 274.769L524.5 269.769C524.98 268.929 526.02 268.609 526.94 269.089C527.86 269.569 528.14 270.609 527.66 271.529L523.82 278.489L527.82 285.769C528.3 286.689 528.02 287.769 527.1 288.209C526.18 288.689 525.14 288.449 524.66 287.529L521.74 282.249L518.86 287.529C518.38 288.449 517.26 288.689 516.42 288.209C515.5 287.769 515.22 286.689 515.7 285.769Z" fill="#A02E2E"/>
<path d="M539.41 294.649V270.809C539.41 270.129 539.93 269.609 540.61 269.609H544.61C547.45 269.609 549.81 271.929 549.81 274.809V282.489C549.81 285.369 547.45 287.689 544.61 287.689H541.81V294.649C541.81 295.329 541.25 295.849 540.61 295.849C539.93 295.849 539.41 295.329 539.41 294.649ZM544.61 272.009H541.81V285.289H544.61C546.17 285.289 547.41 284.049 547.41 282.489V274.809C547.41 273.249 546.17 272.009 544.61 272.009Z" fill="#A02E2E"/>
<path d="M554.809 283.889V262.649C554.809 261.969 555.369 261.449 556.009 261.449C556.689 261.449 557.209 261.969 557.209 262.649V283.889C557.209 284.649 557.609 285.249 558.209 285.609C558.809 285.929 559.009 286.649 558.649 287.249C558.329 287.849 557.609 288.009 557.009 287.689C555.689 286.889 554.809 285.449 554.809 283.889Z" fill="#A02E2E"/>
<path d="M562.609 282.489V270.649C562.609 269.969 563.129 269.449 563.809 269.449C564.489 269.449 565.009 269.969 565.009 270.649V282.489C565.009 284.049 566.249 285.289 567.809 285.289H570.609V270.649C570.609 269.969 571.129 269.449 571.809 269.449C572.489 269.449 573.009 269.969 573.009 270.649V286.489C573.009 287.169 572.489 287.689 571.809 287.689H567.809C564.929 287.689 562.609 285.369 562.609 282.489Z" fill="#A02E2E"/>
<path d="M584.689 282.729C584.649 281.929 584.289 281.289 583.609 280.809L579.889 278.169C578.649 277.329 577.969 276.009 577.849 274.569C577.729 273.089 578.329 271.689 579.409 270.729C580.489 269.729 581.929 269.289 583.369 269.489C584.809 269.769 586.049 270.569 586.809 271.849C587.129 272.449 586.969 273.169 586.369 273.489C585.769 273.809 585.049 273.649 584.729 273.049C584.369 272.409 583.769 272.009 583.009 271.889C582.249 271.769 581.569 271.969 581.009 272.489C580.449 273.009 580.209 273.649 580.249 274.409C580.289 275.169 580.649 275.769 581.289 276.209L585.009 278.809C586.249 279.729 586.969 281.009 587.089 282.569C587.209 284.129 586.609 285.529 585.489 286.529C584.369 287.609 582.889 288.009 581.409 287.809C579.849 287.529 578.609 286.689 577.849 285.369C577.529 284.769 577.689 284.049 578.289 283.729C578.889 283.409 579.609 283.569 579.929 284.169C580.369 284.849 580.969 285.289 581.769 285.409C582.529 285.529 583.249 285.329 583.889 284.769C584.489 284.209 584.769 283.529 584.689 282.729Z" fill="#A02E2E"/>
<path d="M598.969 282.489V274.809C598.969 271.929 601.289 269.609 604.169 269.609H608.169C608.809 269.609 609.369 270.129 609.369 270.809V294.649C609.369 295.329 608.809 295.849 608.169 295.849C607.489 295.849 606.969 295.329 606.969 294.649V287.689H604.169C601.289 287.689 598.969 285.369 598.969 282.489ZM601.369 274.809V282.489C601.369 284.049 602.609 285.289 604.169 285.289H606.969V272.009H604.169C602.609 272.009 601.369 273.249 601.369 274.809Z" fill="#A02E2E"/>
<path d="M614.65 282.489V270.649C614.65 269.969 615.17 269.449 615.85 269.449C616.53 269.449 617.05 269.969 617.05 270.649V282.489C617.05 284.049 618.29 285.289 619.85 285.289H622.65V270.649C622.65 269.969 623.17 269.449 623.85 269.449C624.53 269.449 625.05 269.969 625.05 270.649V286.489C625.05 287.169 624.53 287.689 623.85 287.689H619.85C616.97 287.689 614.65 285.369 614.65 282.489Z" fill="#A02E2E"/>
<path d="M631.091 265.54V264.86H631.051C630.371 264.86 629.811 264.3 629.811 263.62C629.811 262.94 630.371 262.42 631.051 262.42H632.331C632.971 262.42 633.531 262.94 633.531 263.62V265.54C633.531 266.86 632.731 268.06 631.491 268.58C630.891 268.86 630.171 268.54 629.891 267.94C629.611 267.3 629.931 266.62 630.571 266.34C630.931 266.22 631.091 265.94 631.091 265.54Z" fill="#A02E2E"/>
<path d="M637.85 282.649V274.649C637.85 271.769 640.17 269.449 643.05 269.449C645.93 269.449 648.25 271.769 648.25 274.649V278.649C648.25 279.329 647.73 279.849 647.05 279.849H640.25V282.649C640.25 283.769 640.89 284.809 641.97 285.249C643.05 285.689 644.21 285.449 645.01 284.649C645.25 284.409 645.53 284.289 645.85 284.289C646.21 284.289 646.49 284.409 646.73 284.649C646.97 284.849 647.09 285.129 647.09 285.489C647.09 285.809 646.97 286.089 646.73 286.329C645.25 287.809 643.01 288.249 641.05 287.449C639.09 286.649 637.85 284.769 637.85 282.649ZM640.25 274.649V277.449H645.85V274.649C645.85 273.089 644.61 271.849 643.05 271.849C641.49 271.849 640.25 273.089 640.25 274.649Z" fill="#A02E2E"/>
<path d="M653.051 286.649V270.809C653.051 270.129 653.571 269.609 654.251 269.609H658.251C661.091 269.609 663.451 271.929 663.451 274.809V286.649C663.451 287.329 662.891 287.849 662.251 287.849C661.571 287.849 661.051 287.329 661.051 286.649V274.809C661.051 273.249 659.811 272.009 658.251 272.009H655.451V286.649C655.451 287.329 654.891 287.849 654.251 287.849C653.571 287.849 653.051 287.329 653.051 286.649Z" fill="#A02E2E"/>
<path d="M676.169 265.22C677.009 263.74 678.209 262.82 679.809 262.42C681.369 261.98 682.969 262.18 684.369 262.94C685.769 263.7 686.809 264.94 687.249 266.5C687.729 268.06 687.569 269.62 686.809 271.1C685.689 273.22 684.649 275.18 683.689 277.06C682.009 280.26 680.169 283.78 679.409 285.22H686.249C686.929 285.22 687.529 285.74 687.529 286.5C687.529 287.26 686.929 287.78 686.249 287.78H677.289C676.769 287.78 676.409 287.58 676.209 287.18C675.929 286.74 675.929 286.3 676.169 285.9L684.569 269.9C685.009 269.06 685.089 268.18 684.809 267.26C684.529 266.34 683.969 265.62 683.129 265.18C682.289 264.74 681.409 264.62 680.489 264.86C679.569 265.14 678.849 265.7 678.409 266.5C678.049 267.1 677.249 267.34 676.649 266.98C676.049 266.62 675.809 265.82 676.169 265.22Z" fill="#A02E2E"/>
<path d="M692.488 281.85V268.25C692.488 264.89 695.208 262.17 698.568 262.17C701.928 262.17 704.648 264.89 704.648 268.25V281.85C704.648 285.21 701.888 287.93 698.568 287.93C695.248 287.93 692.488 285.21 692.488 281.85ZM695.048 268.26V281.86C695.048 283.82 696.608 285.38 698.568 285.38C700.528 285.38 702.088 283.82 702.088 281.86V268.26C702.088 266.34 700.488 264.74 698.568 264.74C696.648 264.74 695.048 266.34 695.048 268.26Z" fill="#A02E2E"/>
<path d="M709.449 265.22C710.289 263.74 711.489 262.82 713.089 262.42C714.649 261.98 716.249 262.18 717.649 262.94C719.049 263.7 720.089 264.94 720.529 266.5C721.009 268.06 720.849 269.62 720.089 271.1C718.969 273.22 717.929 275.18 716.969 277.06C715.289 280.26 713.449 283.78 712.689 285.22H719.529C720.209 285.22 720.809 285.74 720.809 286.5C720.809 287.26 720.209 287.78 719.529 287.78H710.569C710.049 287.78 709.689 287.58 709.489 287.18C709.209 286.74 709.209 286.3 709.449 285.9L717.849 269.9C718.289 269.06 718.369 268.18 718.089 267.26C717.809 266.34 717.249 265.62 716.409 265.18C715.569 264.74 714.689 264.62 713.769 264.86C712.849 265.14 712.129 265.7 711.689 266.5C711.329 267.1 710.529 267.34 709.929 266.98C709.329 266.62 709.089 265.82 709.449 265.22Z" fill="#A02E2E"/>
<path d="M725.77 281.85V268.25C725.77 264.89 728.49 262.17 731.85 262.17C735.21 262.17 737.93 264.89 737.93 268.25V281.85C737.93 285.21 735.17 287.93 731.85 287.93C728.53 287.93 725.77 285.21 725.77 281.85ZM728.33 268.26V281.86C728.33 283.82 729.89 285.38 731.85 285.38C733.81 285.38 735.37 283.82 735.37 281.86V268.26C735.37 266.34 733.77 264.74 731.85 264.74C729.93 264.74 728.33 266.34 728.33 268.26Z" fill="#A02E2E"/>
<path d="M1533.49 43H1006.49V348H1533.49V43Z" fill="#979599"/>
<path d="M1516.88 59H1026.1V328.45H1516.88V59Z" fill="#EFEFEF"/>
<path d="M1372.94 132.82V146.1C1372.94 149.46 1370.22 152.18 1366.86 152.18H1362.06C1361.3 152.18 1360.78 151.66 1360.78 150.9V128.02C1360.78 127.26 1361.3 126.74 1362.06 126.74H1366.86C1370.22 126.74 1372.94 129.46 1372.94 132.82ZM1366.86 129.3H1363.34V149.62H1366.86C1368.82 149.62 1370.38 148.06 1370.38 146.1V132.82C1370.38 130.9 1368.82 129.3 1366.86 129.3Z" fill="#A02E2E"/>
<path d="M1377.5 147.05V139.05C1377.5 136.17 1379.82 133.85 1382.7 133.85C1385.58 133.85 1387.9 136.17 1387.9 139.05V143.05C1387.9 143.73 1387.38 144.25 1386.7 144.25H1379.9V147.05C1379.9 148.17 1380.54 149.21 1381.62 149.65C1382.7 150.09 1383.86 149.85 1384.66 149.05C1384.9 148.81 1385.18 148.69 1385.5 148.69C1385.86 148.69 1386.14 148.81 1386.38 149.05C1386.62 149.25 1386.74 149.53 1386.74 149.89C1386.74 150.21 1386.62 150.49 1386.38 150.73C1384.9 152.21 1382.66 152.65 1380.7 151.85C1378.74 151.05 1377.5 149.17 1377.5 147.05ZM1379.9 139.05V141.85H1385.5V139.05C1385.5 137.49 1384.26 136.25 1382.7 136.25C1381.14 136.25 1379.9 137.49 1379.9 139.05Z" fill="#A02E2E"/>
<path d="M1400.38 151.05V135.21C1400.38 134.53 1400.9 134.01 1401.58 134.01H1405.58C1406.5 134.01 1407.34 134.25 1408.18 134.69C1408.78 135.05 1408.94 135.73 1408.62 136.33C1408.3 136.93 1407.58 137.13 1406.98 136.77C1406.54 136.53 1406.06 136.41 1405.58 136.41H1402.78V151.05C1402.78 151.73 1402.26 152.25 1401.58 152.25C1400.9 152.25 1400.38 151.73 1400.38 151.05Z" fill="#A02E2E"/>
<path d="M1411.86 147.05V139.05C1411.86 136.17 1414.18 133.85 1417.06 133.85C1419.94 133.85 1422.26 136.17 1422.26 139.05V143.05C1422.26 143.73 1421.74 144.25 1421.06 144.25H1414.26V147.05C1414.26 148.17 1414.9 149.21 1415.98 149.65C1417.06 150.09 1418.22 149.85 1419.02 149.05C1419.26 148.81 1419.54 148.69 1419.86 148.69C1420.22 148.69 1420.5 148.81 1420.74 149.05C1420.98 149.25 1421.1 149.53 1421.1 149.89C1421.1 150.21 1420.98 150.49 1420.74 150.73C1419.26 152.21 1417.02 152.65 1415.06 151.85C1413.1 151.05 1411.86 149.17 1411.86 147.05ZM1414.26 139.05V141.85H1419.86V139.05C1419.86 137.49 1418.62 136.25 1417.06 136.25C1415.5 136.25 1414.26 137.49 1414.26 139.05Z" fill="#A02E2E"/>
<path d="M1426.58 147.05V139.05C1426.58 136.93 1427.82 135.05 1429.78 134.25C1431.74 133.45 1433.9 133.89 1435.46 135.37C1435.66 135.61 1435.78 135.89 1435.78 136.25C1435.78 136.57 1435.66 136.85 1435.46 137.09C1435.22 137.29 1434.94 137.41 1434.58 137.41C1434.26 137.41 1433.98 137.29 1433.74 137.09C1432.94 136.25 1431.78 136.01 1430.7 136.45C1429.62 136.89 1428.98 137.93 1428.98 139.05V147.05C1428.98 148.17 1429.62 149.21 1430.7 149.65C1431.78 150.09 1432.94 149.85 1433.74 149.05C1433.98 148.81 1434.26 148.69 1434.58 148.69C1434.94 148.69 1435.22 148.81 1435.46 149.05C1435.66 149.25 1435.78 149.53 1435.78 149.89C1435.78 150.21 1435.66 150.49 1435.46 150.73C1433.9 152.21 1431.74 152.65 1429.78 151.85C1427.82 151.05 1426.58 149.17 1426.58 147.05Z" fill="#A02E2E"/>
<path d="M1439.7 147.05V139.05C1439.7 136.17 1442.02 133.85 1444.9 133.85C1447.78 133.85 1450.1 136.17 1450.1 139.05V143.05C1450.1 143.73 1449.58 144.25 1448.9 144.25H1442.1V147.05C1442.1 148.17 1442.74 149.21 1443.82 149.65C1444.9 150.09 1446.06 149.85 1446.86 149.05C1447.1 148.81 1447.38 148.69 1447.7 148.69C1448.06 148.69 1448.34 148.81 1448.58 149.05C1448.82 149.25 1448.94 149.53 1448.94 149.89C1448.94 150.21 1448.82 150.49 1448.58 150.73C1447.1 152.21 1444.86 152.65 1442.9 151.85C1440.94 151.05 1439.7 149.17 1439.7 147.05ZM1442.1 139.05V141.85H1447.7V139.05C1447.7 137.49 1446.46 136.25 1444.9 136.25C1443.34 136.25 1442.1 137.49 1442.1 139.05Z" fill="#A02E2E"/>
<path d="M1453.14 135.219C1453.14 134.539 1453.66 134.019 1454.34 134.019H1456.34V127.059C1456.34 126.379 1456.86 125.859 1457.54 125.859C1458.22 125.859 1458.74 126.379 1458.74 127.059V134.019H1461.54C1462.22 134.019 1462.74 134.539 1462.74 135.219C1462.74 135.899 1462.22 136.419 1461.54 136.419H1458.74V147.059C1458.74 148.619 1459.98 149.859 1461.54 149.859C1462.22 149.859 1462.74 150.379 1462.74 151.059C1462.74 151.739 1462.22 152.259 1461.54 152.259C1458.66 152.259 1456.34 149.939 1456.34 147.059V136.419H1454.34C1453.66 136.419 1453.14 135.899 1453.14 135.219Z" fill="#A02E2E"/>
<path d="M1464.98 135.219C1464.98 134.539 1465.5 134.019 1466.18 134.019H1468.18V127.059C1468.18 126.379 1468.7 125.859 1469.38 125.859C1470.06 125.859 1470.58 126.379 1470.58 127.059V134.019H1473.38C1474.06 134.019 1474.58 134.539 1474.58 135.219C1474.58 135.899 1474.06 136.419 1473.38 136.419H1470.58V147.059C1470.58 148.619 1471.82 149.859 1473.38 149.859C1474.06 149.859 1474.58 150.379 1474.58 151.059C1474.58 151.739 1474.06 152.259 1473.38 152.259C1470.5 152.259 1468.18 149.939 1468.18 147.059V136.419H1466.18C1465.5 136.419 1464.98 135.899 1464.98 135.219Z" fill="#A02E2E"/>
<path d="M1478.1 147.05V139.05C1478.1 136.17 1480.42 133.85 1483.3 133.85C1486.18 133.85 1488.5 136.17 1488.5 139.05V143.05C1488.5 143.73 1487.98 144.25 1487.3 144.25H1480.5V147.05C1480.5 148.17 1481.14 149.21 1482.22 149.65C1483.3 150.09 1484.46 149.85 1485.26 149.05C1485.5 148.81 1485.78 148.69 1486.1 148.69C1486.46 148.69 1486.74 148.81 1486.98 149.05C1487.22 149.25 1487.34 149.53 1487.34 149.89C1487.34 150.21 1487.22 150.49 1486.98 150.73C1485.5 152.21 1483.26 152.65 1481.3 151.85C1479.34 151.05 1478.1 149.17 1478.1 147.05ZM1480.49 139.05V141.85H1486.09V139.05C1486.09 137.49 1484.85 136.25 1483.29 136.25C1481.73 136.25 1480.49 137.49 1480.49 139.05Z" fill="#A02E2E"/>
<path d="M1499.37 147.129C1499.33 146.329 1498.97 145.689 1498.29 145.209L1494.57 142.569C1493.33 141.729 1492.65 140.409 1492.53 138.969C1492.41 137.489 1493.01 136.089 1494.09 135.129C1495.17 134.129 1496.61 133.689 1498.05 133.889C1499.49 134.169 1500.73 134.969 1501.49 136.249C1501.81 136.849 1501.65 137.569 1501.05 137.889C1500.45 138.209 1499.73 138.049 1499.41 137.449C1499.05 136.809 1498.45 136.409 1497.69 136.289C1496.93 136.169 1496.25 136.369 1495.69 136.889C1495.13 137.409 1494.89 138.049 1494.93 138.809C1494.97 139.569 1495.33 140.169 1495.97 140.609L1499.69 143.209C1500.93 144.129 1501.65 145.409 1501.77 146.969C1501.89 148.529 1501.29 149.929 1500.17 150.929C1499.05 152.009 1497.57 152.409 1496.09 152.209C1494.53 151.929 1493.29 151.089 1492.53 149.769C1492.21 149.169 1492.37 148.449 1492.97 148.129C1493.57 147.809 1494.29 147.969 1494.61 148.569C1495.05 149.249 1495.65 149.689 1496.45 149.809C1497.21 149.929 1497.93 149.729 1498.57 149.169C1499.17 148.609 1499.45 147.929 1499.37 147.129Z" fill="#A02E2E"/>
<path d="M1360.38 195.05V187.05C1360.38 184.17 1362.7 181.85 1365.58 181.85C1368.46 181.85 1370.78 184.17 1370.78 187.05V191.05C1370.78 191.73 1370.26 192.25 1369.58 192.25H1362.78V195.05C1362.78 196.17 1363.42 197.21 1364.5 197.65C1365.58 198.09 1366.74 197.85 1367.54 197.05C1367.78 196.81 1368.06 196.69 1368.38 196.69C1368.74 196.69 1369.02 196.81 1369.26 197.05C1369.5 197.25 1369.62 197.53 1369.62 197.89C1369.62 198.21 1369.5 198.49 1369.26 198.73C1367.78 200.21 1365.54 200.65 1363.58 199.85C1361.62 199.05 1360.38 197.17 1360.38 195.05ZM1362.78 187.05V189.85H1368.38V187.05C1368.38 185.49 1367.14 184.25 1365.58 184.25C1364.02 184.25 1362.78 185.49 1362.78 187.05Z" fill="#A02E2E"/>
<path d="M1375.58 199.05V183.21C1375.58 182.53 1376.1 182.01 1376.78 182.01H1380.78C1383.62 182.01 1385.98 184.33 1385.98 187.21V199.05C1385.98 199.73 1385.42 200.25 1384.78 200.25C1384.1 200.25 1383.58 199.73 1383.58 199.05V187.21C1383.58 185.65 1382.34 184.41 1380.78 184.41H1377.98V199.05C1377.98 199.73 1377.42 200.25 1376.78 200.25C1376.1 200.25 1375.58 199.73 1375.58 199.05Z" fill="#A02E2E"/>
<path d="M1398.7 177.62C1399.54 176.14 1400.74 175.22 1402.34 174.82C1403.9 174.38 1405.5 174.58 1406.9 175.34C1408.3 176.1 1409.34 177.34 1409.78 178.9C1410.26 180.46 1410.1 182.02 1409.34 183.5C1408.22 185.62 1407.18 187.58 1406.22 189.46C1404.54 192.66 1402.7 196.18 1401.94 197.62H1408.78C1409.46 197.62 1410.06 198.14 1410.06 198.9C1410.06 199.66 1409.46 200.18 1408.78 200.18H1399.82C1399.3 200.18 1398.94 199.98 1398.74 199.58C1398.46 199.14 1398.46 198.7 1398.7 198.3L1407.1 182.3C1407.54 181.46 1407.62 180.58 1407.34 179.66C1407.06 178.74 1406.5 178.02 1405.66 177.58C1404.82 177.14 1403.94 177.02 1403.02 177.26C1402.1 177.54 1401.38 178.1 1400.94 178.9C1400.58 179.5 1399.78 179.74 1399.18 179.38C1398.58 179.02 1398.34 178.22 1398.7 177.62Z" fill="#A02E2E"/>
<path d="M1415.02 194.25V180.65C1415.02 177.29 1417.74 174.57 1421.1 174.57C1424.46 174.57 1427.18 177.29 1427.18 180.65V194.25C1427.18 197.61 1424.42 200.33 1421.1 200.33C1417.78 200.33 1415.02 197.61 1415.02 194.25ZM1417.58 180.66V194.26C1417.58 196.22 1419.14 197.78 1421.1 197.78C1423.06 197.78 1424.62 196.22 1424.62 194.26V180.66C1424.62 178.74 1423.02 177.14 1421.1 177.14C1419.18 177.14 1417.58 178.74 1417.58 180.66Z" fill="#A02E2E"/>
<path d="M1431.98 177.62C1432.82 176.14 1434.02 175.22 1435.62 174.82C1437.18 174.38 1438.78 174.58 1440.18 175.34C1441.58 176.1 1442.62 177.34 1443.06 178.9C1443.54 180.46 1443.38 182.02 1442.62 183.5C1441.5 185.62 1440.46 187.58 1439.5 189.46C1437.82 192.66 1435.98 196.18 1435.22 197.62H1442.06C1442.74 197.62 1443.34 198.14 1443.34 198.9C1443.34 199.66 1442.74 200.18 1442.06 200.18H1433.1C1432.58 200.18 1432.22 199.98 1432.02 199.58C1431.74 199.14 1431.74 198.7 1431.98 198.3L1440.38 182.3C1440.82 181.46 1440.9 180.58 1440.62 179.66C1440.34 178.74 1439.78 178.02 1438.94 177.58C1438.1 177.14 1437.22 177.02 1436.3 177.26C1435.38 177.54 1434.66 178.1 1434.22 178.9C1433.86 179.5 1433.06 179.74 1432.46 179.38C1431.86 179.02 1431.62 178.22 1431.98 177.62Z" fill="#A02E2E"/>
<path d="M1448.62 177.62C1449.46 176.14 1450.66 175.22 1452.26 174.82C1453.82 174.38 1455.42 174.58 1456.82 175.34C1458.22 176.1 1459.26 177.34 1459.7 178.9C1460.18 180.46 1460.02 182.02 1459.26 183.5C1458.14 185.62 1457.1 187.58 1456.14 189.46C1454.46 192.66 1452.62 196.18 1451.86 197.62H1458.7C1459.38 197.62 1459.98 198.14 1459.98 198.9C1459.98 199.66 1459.38 200.18 1458.7 200.18H1449.74C1449.22 200.18 1448.86 199.98 1448.66 199.58C1448.38 199.14 1448.38 198.7 1448.62 198.3L1457.02 182.3C1457.46 181.46 1457.54 180.58 1457.26 179.66C1456.98 178.74 1456.42 178.02 1455.58 177.58C1454.74 177.14 1453.86 177.02 1452.94 177.26C1452.02 177.54 1451.3 178.1 1450.86 178.9C1450.5 179.5 1449.7 179.74 1449.1 179.38C1448.5 179.02 1448.26 178.22 1448.62 177.62Z" fill="#A02E2E"/>
<path d="M1060.14 281.929C1060.26 280.849 1059.86 279.809 1059.1 279.049L1052.7 272.489C1051.46 271.249 1050.86 269.529 1051.02 267.809C1051.14 266.049 1052.02 264.489 1053.42 263.409C1054.82 262.329 1056.58 261.929 1058.3 262.289C1060.02 262.649 1061.42 263.649 1062.34 265.209C1062.7 265.809 1062.5 266.609 1061.86 266.969C1061.26 267.329 1060.46 267.089 1060.14 266.489C1059.62 265.569 1058.82 265.009 1057.78 264.809C1056.74 264.609 1055.78 264.809 1054.94 265.449C1054.1 266.049 1053.66 266.889 1053.58 267.969C1053.5 269.009 1053.82 269.929 1054.54 270.689L1060.94 277.289C1062.18 278.569 1062.82 280.329 1062.7 282.129C1062.54 283.929 1061.66 285.569 1060.22 286.649C1058.78 287.729 1056.94 288.169 1055.18 287.809C1053.42 287.449 1051.9 286.369 1050.98 284.809C1050.66 284.169 1050.86 283.409 1051.46 283.049C1052.06 282.689 1052.86 282.889 1053.22 283.529C1053.74 284.449 1054.62 285.089 1055.7 285.289C1056.78 285.489 1057.78 285.289 1058.66 284.609C1059.58 283.929 1060.06 283.049 1060.14 281.929Z" fill="#A02E2E"/>
<path d="M1066.66 282.649V274.649C1066.66 271.769 1068.98 269.449 1071.86 269.449C1074.74 269.449 1077.06 271.769 1077.06 274.649V282.649C1077.06 285.529 1074.7 287.849 1071.86 287.849C1069.02 287.849 1066.66 285.529 1066.66 282.649ZM1069.06 274.649V282.649C1069.06 284.209 1070.3 285.449 1071.86 285.449C1073.42 285.449 1074.66 284.209 1074.66 282.649V274.649C1074.66 273.089 1073.42 271.849 1071.86 271.849C1070.3 271.849 1069.06 273.089 1069.06 274.649Z" fill="#A02E2E"/>
<path d="M1081.78 264.659C1081.78 263.739 1082.46 263.059 1083.38 263.059C1084.3 263.059 1084.98 263.739 1084.98 264.659C1084.98 265.579 1084.3 266.259 1083.38 266.259C1082.46 266.259 1081.78 265.579 1081.78 264.659ZM1083.38 287.849C1082.74 287.849 1082.18 287.329 1082.18 286.649V270.649C1082.18 269.969 1082.74 269.449 1083.38 269.449C1084.06 269.449 1084.58 269.969 1084.58 270.649V286.649C1084.58 287.329 1084.06 287.849 1083.38 287.849Z" fill="#A02E2E"/>
<path d="M1088.42 270.819C1088.42 270.139 1088.94 269.619 1089.62 269.619H1091.62V262.659C1091.62 261.979 1092.14 261.459 1092.82 261.459C1093.5 261.459 1094.02 261.979 1094.02 262.659V269.619H1096.82C1097.5 269.619 1098.02 270.139 1098.02 270.819C1098.02 271.499 1097.5 272.019 1096.82 272.019H1094.02V282.659C1094.02 284.219 1095.26 285.459 1096.82 285.459C1097.5 285.459 1098.02 285.979 1098.02 286.659C1098.02 287.339 1097.5 287.859 1096.82 287.859C1093.94 287.859 1091.62 285.539 1091.62 282.659V272.019H1089.62C1088.94 272.019 1088.42 271.499 1088.42 270.819Z" fill="#A02E2E"/>
<path d="M1117.05 281.85V279.45C1117.05 277.85 1115.77 276.57 1114.17 276.57C1113.09 276.57 1112.25 275.73 1112.25 274.65C1112.25 273.57 1113.09 272.73 1114.17 272.73C1115.77 272.73 1117.05 271.45 1117.05 269.85V268.25C1117.05 266.97 1116.17 265.81 1114.93 265.49C1113.65 265.13 1112.33 265.69 1111.69 266.81C1111.09 267.73 1109.97 268.05 1109.05 267.53C1108.13 266.93 1107.81 265.81 1108.33 264.89C1109.85 262.21 1112.97 261.01 1115.89 261.77C1118.89 262.53 1120.89 265.21 1120.89 268.25V269.85C1120.89 271.73 1120.13 273.41 1118.85 274.65C1120.13 275.89 1120.89 277.57 1120.89 279.45V281.85C1120.89 284.89 1118.89 287.57 1115.89 288.33C1112.97 289.17 1109.81 287.85 1108.33 285.21C1107.81 284.29 1108.13 283.17 1109.05 282.57C1109.97 282.05 1111.09 282.37 1111.69 283.29C1112.33 284.41 1113.65 284.97 1114.93 284.65C1116.17 284.29 1117.05 283.17 1117.05 281.85Z" fill="#A02E2E"/>
<path d="M1124.7 285.769L1128.7 278.489L1124.86 271.529C1124.38 270.609 1124.66 269.569 1125.58 269.089C1126.42 268.609 1127.54 268.929 1128.02 269.769L1130.74 274.769L1133.5 269.769C1133.98 268.929 1135.02 268.609 1135.94 269.089C1136.86 269.569 1137.14 270.609 1136.66 271.529L1132.82 278.489L1136.82 285.769C1137.3 286.689 1137.02 287.769 1136.1 288.209C1135.18 288.689 1134.14 288.449 1133.66 287.529L1130.74 282.249L1127.86 287.529C1127.38 288.449 1126.26 288.689 1125.42 288.209C1124.5 287.769 1124.22 286.689 1124.7 285.769Z" fill="#A02E2E"/>
<path d="M1148.41 294.649V270.809C1148.41 270.129 1148.93 269.609 1149.61 269.609H1153.61C1156.45 269.609 1158.81 271.929 1158.81 274.809V282.489C1158.81 285.369 1156.45 287.689 1153.61 287.689H1150.81V294.649C1150.81 295.329 1150.25 295.849 1149.61 295.849C1148.93 295.849 1148.41 295.329 1148.41 294.649ZM1153.61 272.009H1150.81V285.289H1153.61C1155.17 285.289 1156.41 284.049 1156.41 282.489V274.809C1156.41 273.249 1155.17 272.009 1153.61 272.009Z" fill="#A02E2E"/>
<path d="M1163.81 283.889V262.649C1163.81 261.969 1164.37 261.449 1165.01 261.449C1165.69 261.449 1166.21 261.969 1166.21 262.649V283.889C1166.21 284.649 1166.61 285.249 1167.21 285.609C1167.81 285.929 1168.01 286.649 1167.65 287.249C1167.33 287.849 1166.61 288.009 1166.01 287.689C1164.69 286.889 1163.81 285.449 1163.81 283.889Z" fill="#A02E2E"/>
<path d="M1171.61 282.489V270.649C1171.61 269.969 1172.13 269.449 1172.81 269.449C1173.49 269.449 1174.01 269.969 1174.01 270.649V282.489C1174.01 284.049 1175.25 285.289 1176.81 285.289H1179.61V270.649C1179.61 269.969 1180.13 269.449 1180.81 269.449C1181.49 269.449 1182.01 269.969 1182.01 270.649V286.489C1182.01 287.169 1181.49 287.689 1180.81 287.689H1176.81C1173.93 287.689 1171.61 285.369 1171.61 282.489Z" fill="#A02E2E"/>
<path d="M1193.69 282.729C1193.65 281.929 1193.29 281.289 1192.61 280.809L1188.89 278.169C1187.65 277.329 1186.97 276.009 1186.85 274.569C1186.73 273.089 1187.33 271.689 1188.41 270.729C1189.49 269.729 1190.93 269.289 1192.37 269.489C1193.81 269.769 1195.05 270.569 1195.81 271.849C1196.13 272.449 1195.97 273.169 1195.37 273.489C1194.77 273.809 1194.05 273.649 1193.73 273.049C1193.37 272.409 1192.77 272.009 1192.01 271.889C1191.25 271.769 1190.57 271.969 1190.01 272.489C1189.45 273.009 1189.21 273.649 1189.25 274.409C1189.29 275.169 1189.65 275.769 1190.29 276.209L1194.01 278.809C1195.25 279.729 1195.97 281.009 1196.09 282.569C1196.21 284.129 1195.61 285.529 1194.49 286.529C1193.37 287.609 1191.89 288.009 1190.41 287.809C1188.85 287.529 1187.61 286.689 1186.85 285.369C1186.53 284.769 1186.69 284.049 1187.29 283.729C1187.89 283.409 1188.61 283.569 1188.93 284.169C1189.37 284.849 1189.97 285.289 1190.77 285.409C1191.53 285.529 1192.25 285.329 1192.89 284.769C1193.49 284.209 1193.77 283.529 1193.69 282.729Z" fill="#A02E2E"/>
<path d="M1207.97 282.489V274.809C1207.97 271.929 1210.29 269.609 1213.17 269.609H1217.17C1217.81 269.609 1218.37 270.129 1218.37 270.809V294.649C1218.37 295.329 1217.81 295.849 1217.17 295.849C1216.49 295.849 1215.97 295.329 1215.97 294.649V287.689H1213.17C1210.29 287.689 1207.97 285.369 1207.97 282.489ZM1210.37 274.809V282.489C1210.37 284.049 1211.61 285.289 1213.17 285.289H1215.97V272.009H1213.17C1211.61 272.009 1210.37 273.249 1210.37 274.809Z" fill="#A02E2E"/>
<path d="M1223.65 282.489V270.649C1223.65 269.969 1224.17 269.449 1224.85 269.449C1225.53 269.449 1226.05 269.969 1226.05 270.649V282.489C1226.05 284.049 1227.29 285.289 1228.85 285.289H1231.65V270.649C1231.65 269.969 1232.17 269.449 1232.85 269.449C1233.53 269.449 1234.05 269.969 1234.05 270.649V286.489C1234.05 287.169 1233.53 287.689 1232.85 287.689H1228.85C1225.97 287.689 1223.65 285.369 1223.65 282.489Z" fill="#A02E2E"/>
<path d="M1240.09 265.54V264.86H1240.05C1239.37 264.86 1238.81 264.3 1238.81 263.62C1238.81 262.94 1239.37 262.42 1240.05 262.42H1241.33C1241.97 262.42 1242.53 262.94 1242.53 263.62V265.54C1242.53 266.86 1241.73 268.06 1240.49 268.58C1239.89 268.86 1239.17 268.54 1238.89 267.94C1238.61 267.3 1238.93 266.62 1239.57 266.34C1239.93 266.22 1240.09 265.94 1240.09 265.54Z" fill="#A02E2E"/>
<path d="M1246.85 282.649V274.649C1246.85 271.769 1249.17 269.449 1252.05 269.449C1254.93 269.449 1257.25 271.769 1257.25 274.649V278.649C1257.25 279.329 1256.73 279.849 1256.05 279.849H1249.25V282.649C1249.25 283.769 1249.89 284.809 1250.97 285.249C1252.05 285.689 1253.21 285.449 1254.01 284.649C1254.25 284.409 1254.53 284.289 1254.85 284.289C1255.21 284.289 1255.49 284.409 1255.73 284.649C1255.97 284.849 1256.09 285.129 1256.09 285.489C1256.09 285.809 1255.97 286.089 1255.73 286.329C1254.25 287.809 1252.01 288.249 1250.05 287.449C1248.09 286.649 1246.85 284.769 1246.85 282.649ZM1249.25 274.649V277.449H1254.85V274.649C1254.85 273.089 1253.61 271.849 1252.05 271.849C1250.49 271.849 1249.25 273.089 1249.25 274.649Z" fill="#A02E2E"/>
<path d="M1262.05 286.649V270.809C1262.05 270.129 1262.57 269.609 1263.25 269.609H1267.25C1270.09 269.609 1272.45 271.929 1272.45 274.809V286.649C1272.45 287.329 1271.89 287.849 1271.25 287.849C1270.57 287.849 1270.05 287.329 1270.05 286.649V274.809C1270.05 273.249 1268.81 272.009 1267.25 272.009H1264.45V286.649C1264.45 287.329 1263.89 287.849 1263.25 287.849C1262.57 287.849 1262.05 287.329 1262.05 286.649Z" fill="#A02E2E"/>
<path d="M1285.17 265.22C1286.01 263.74 1287.21 262.82 1288.81 262.42C1290.37 261.98 1291.97 262.18 1293.37 262.94C1294.77 263.7 1295.81 264.94 1296.25 266.5C1296.73 268.06 1296.57 269.62 1295.81 271.1C1294.69 273.22 1293.65 275.18 1292.69 277.06C1291.01 280.26 1289.17 283.78 1288.41 285.22H1295.25C1295.93 285.22 1296.53 285.74 1296.53 286.5C1296.53 287.26 1295.93 287.78 1295.25 287.78H1286.29C1285.77 287.78 1285.41 287.58 1285.21 287.18C1284.93 286.74 1284.93 286.3 1285.17 285.9L1293.57 269.9C1294.01 269.06 1294.09 268.18 1293.81 267.26C1293.53 266.34 1292.97 265.62 1292.13 265.18C1291.29 264.74 1290.41 264.62 1289.49 264.86C1288.57 265.14 1287.85 265.7 1287.41 266.5C1287.05 267.1 1286.25 267.34 1285.65 266.98C1285.05 266.62 1284.81 265.82 1285.17 265.22Z" fill="#A02E2E"/>
<path d="M1301.49 281.85V268.25C1301.49 264.89 1304.21 262.17 1307.57 262.17C1310.93 262.17 1313.65 264.89 1313.65 268.25V281.85C1313.65 285.21 1310.89 287.93 1307.57 287.93C1304.25 287.93 1301.49 285.21 1301.49 281.85ZM1304.05 268.26V281.86C1304.05 283.82 1305.61 285.38 1307.57 285.38C1309.53 285.38 1311.09 283.82 1311.09 281.86V268.26C1311.09 266.34 1309.49 264.74 1307.57 264.74C1305.65 264.74 1304.05 266.34 1304.05 268.26Z" fill="#A02E2E"/>
<path d="M1318.45 265.22C1319.29 263.74 1320.49 262.82 1322.09 262.42C1323.65 261.98 1325.25 262.18 1326.65 262.94C1328.05 263.7 1329.09 264.94 1329.53 266.5C1330.01 268.06 1329.85 269.62 1329.09 271.1C1327.97 273.22 1326.93 275.18 1325.97 277.06C1324.29 280.26 1322.45 283.78 1321.69 285.22H1328.53C1329.21 285.22 1329.81 285.74 1329.81 286.5C1329.81 287.26 1329.21 287.78 1328.53 287.78H1319.57C1319.05 287.78 1318.69 287.58 1318.49 287.18C1318.21 286.74 1318.21 286.3 1318.45 285.9L1326.85 269.9C1327.29 269.06 1327.37 268.18 1327.09 267.26C1326.81 266.34 1326.25 265.62 1325.41 265.18C1324.57 264.74 1323.69 264.62 1322.77 264.86C1321.85 265.14 1321.13 265.7 1320.69 266.5C1320.33 267.1 1319.53 267.34 1318.93 266.98C1318.33 266.62 1318.09 265.82 1318.45 265.22Z" fill="#A02E2E"/>
<path d="M1334.77 281.85V268.25C1334.77 264.89 1337.49 262.17 1340.85 262.17C1344.21 262.17 1346.93 264.89 1346.93 268.25V281.85C1346.93 285.21 1344.17 287.93 1340.85 287.93C1337.53 287.93 1334.77 285.21 1334.77 281.85ZM1337.33 268.26V281.86C1337.33 283.82 1338.89 285.38 1340.85 285.38C1342.81 285.38 1344.37 283.82 1344.37 281.86V268.26C1344.37 266.34 1342.77 264.74 1340.85 264.74C1338.93 264.74 1337.33 266.34 1337.33 268.26Z" fill="#A02E2E"/>
</g>
<defs>
<clipPath id="clip0_333_874">
<rect width="1920" height="1080" fill="white"/>
</clipPath>
</defs>
</svg>
