<svg width="1920" height="1080" viewBox="0 0 1920 1080" fill="none" xmlns="http://www.w3.org/2000/svg">
<path d="M1920 0H1V800H1920V0Z" fill="#2D1710"/>
<path d="M1072 29H0V772H1072V29Z" fill="#FFF3F3"/>
<path d="M1920 800H0V1080H1920V800Z" fill="#48281E"/>
<path d="M1512.95 1080H1920V800H1376L1512.95 1080Z" fill="#331916"/>
<path d="M57.38 929.999H0L0 567.999H57.38C79.8 567.999 98 586.199 98 608.619L98 889.379C98 911.799 79.8 929.999 57.38 929.999Z" fill="#D35D5F"/>
<path d="M38.38 885.46H0L0 585H38.38C60.8 585 79 603.2 79 625.62L79 844.84C79 867.26 60.8 885.46 38.38 885.46Z" fill="#A32F35"/>
<path d="M0 976H58C80.09 976 98 958.09 98 936V790H0V976Z" fill="#331916"/>
<path d="M282.38 568H163.62C141.186 568 123 586.186 123 608.62V889.38C123 911.814 141.186 930 163.62 930H282.38C304.814 930 323 911.814 323 889.38V608.62C323 586.186 304.814 568 282.38 568Z" fill="#D35D5F"/>
<path d="M265.38 585H180.62C158.186 585 140 603.186 140 625.62V844.84C140 867.274 158.186 885.46 180.62 885.46H265.38C287.814 885.46 306 867.274 306 844.84V625.62C306 603.186 287.814 585 265.38 585Z" fill="#A32F35"/>
<path d="M283 976H163C140.91 976 123 958.09 123 936V790H323V936C323 958.09 305.09 976 283 976Z" fill="#331916"/>
<path d="M683.38 568H564.62C542.186 568 524 586.186 524 608.62V889.38C524 911.814 542.186 930 564.62 930H683.38C705.814 930 724 911.814 724 889.38V608.62C724 586.186 705.814 568 683.38 568Z" fill="#D35D5F"/>
<path d="M666.38 585H581.62C559.186 585 541 603.186 541 625.62V844.84C541 867.274 559.186 885.46 581.62 885.46H666.38C688.814 885.46 707 867.274 707 844.84V625.62C707 603.186 688.814 585 666.38 585Z" fill="#A32F35"/>
<path d="M684 976H564C541.91 976 524 958.09 524 936V790H724V936C724 958.09 706.09 976 684 976Z" fill="#331916"/>
<path d="M904.38 568H785.62C763.186 568 745 586.186 745 608.62V889.38C745 911.814 763.186 930 785.62 930H904.38C926.814 930 945 911.814 945 889.38V608.62C945 586.186 926.814 568 904.38 568Z" fill="#D35D5F"/>
<path d="M887.38 585H802.62C780.186 585 762 603.186 762 625.62V844.84C762 867.274 780.186 885.46 802.62 885.46H887.38C909.814 885.46 928 867.274 928 844.84V625.62C928 603.186 909.814 585 887.38 585Z" fill="#A32F35"/>
<path d="M905 976H785C762.91 976 745 958.09 745 936V790H945V936C945 958.09 927.09 976 905 976Z" fill="#331916"/>
<path d="M1119.38 568H1000.62C978.186 568 960 586.186 960 608.62V889.38C960 911.814 978.186 930 1000.62 930H1119.38C1141.81 930 1160 911.814 1160 889.38V608.62C1160 586.186 1141.81 568 1119.38 568Z" fill="#D35D5F"/>
<path d="M1102.38 585H1017.62C995.186 585 977 603.186 977 625.62V844.84C977 867.274 995.186 885.46 1017.62 885.46H1102.38C1124.81 885.46 1143 867.274 1143 844.84V625.62C1143 603.186 1124.81 585 1102.38 585Z" fill="#A32F35"/>
<path d="M1120 976H1000C977.91 976 960 958.09 960 936V790H1160V936C1160 958.09 1142.09 976 1120 976Z" fill="#331916"/>
<path d="M1920 0H1376V800H1920V0Z" fill="#260E09"/>
</svg>
