<svg width="1829" height="1080" viewBox="0 0 1829 1080" fill="none" xmlns="http://www.w3.org/2000/svg">
<g clip-path="url(#clip0_333_1153)">
<path d="M1829 799.871H0V1080H1829V799.871Z" fill="#77C16F"/>
<path d="M1829 0H0V800.37H1829V0Z" fill="#A4DDDD"/>
<path d="M826.861 875.405C826.861 875.405 1201.31 1070.5 1675.67 875.405L1561.32 498.23C1561.32 498.23 1267.92 601.278 947.918 498.23L826.861 875.405Z" fill="#F44D3B"/>
<path d="M1200.79 592.034C1200.79 592.034 1205.04 723.335 1115.5 954.442C1115.5 954.442 1239.34 976.452 1401.28 950.44C1401.28 950.44 1326.98 741.343 1330.74 583.42L1272.23 498.23L1200.79 592.034Z" fill="#B53228"/>
<g style="mix-blend-mode:multiply">
<path d="M932.601 546.253L1026.91 524.243L1176.66 534.748L1248.13 541.841L1489.86 513.238L1567.98 510.236L1573.04 536.919C1573.04 536.919 1575.02 544.442 1580.36 561.26C1582.27 567.263 1572.22 570.484 1558.45 563.261C1550.95 559.319 1546.21 603.89 1477.84 592.825C1475.95 592.514 1474.06 593.435 1473.05 595.156C1465.62 607.842 1431.39 656.154 1362.37 611.283C1360.6 610.133 1358.32 610.323 1356.75 611.753C1343.25 624.079 1280.25 675.923 1235.42 615.205C1233.86 613.094 1230.98 612.684 1228.91 614.254C1213.43 625.98 1153.72 665.798 1120.04 610.913C1118.57 608.502 1115.48 607.882 1113.26 609.542C1096.8 621.858 1034.59 661.456 991.872 593.765C990.615 591.774 988.205 590.974 986.099 591.884C973.22 597.407 929.791 614.445 915.34 599.678L932.582 546.243L932.601 546.253Z" fill="#B53228"/>
</g>
<path d="M947.918 498.231L1251.72 159.074L1561.32 498.231C1561.32 498.231 1263.31 615.285 947.918 498.231Z" fill="white"/>
<path d="M1125.55 314.397C1125.55 314.397 976.268 484.386 896.421 511.798C888.181 514.63 881.57 521.373 879.122 530.107C874.454 546.725 885.342 567.114 991.567 541.222C993.768 540.682 996.035 541.842 996.969 544.003C1003.76 559.661 1034.56 616.847 1105.48 566.434C1107.73 564.833 1110.8 565.483 1112.22 567.914C1121.02 582.931 1154.74 626.361 1229.92 576.148C1231.56 575.048 1233.67 575.128 1235.24 576.328C1247.32 585.523 1299.95 620.229 1347.85 568.575C1349.53 566.764 1352.2 566.534 1354.13 568.034C1367.32 578.319 1417.13 610.994 1456.95 553.978C1458.37 551.937 1460.99 551.297 1463.1 552.507C1476.11 559.961 1520.56 580.8 1541.59 532.288C1542.57 530.017 1545.02 528.886 1547.3 529.617C1564.78 535.239 1632.78 555.178 1637.56 526.865C1638.82 519.372 1634.72 512.008 1628.06 509.017C1598.87 495.921 1489.52 441.046 1374.17 308.734L1125.56 314.397H1125.55Z" fill="white"/>
<path d="M994.52 542.252C994.52 542.252 1179.33 316.147 1251.72 159.074L1005.95 433.451C999.655 440.484 992.901 447.028 985.718 453.05C971.658 464.836 948.262 484.045 940.365 488.177C929.943 493.639 925.513 499.212 906.061 507.876C903.127 509.186 900.136 510.377 897.145 511.517C893.582 512.878 886.057 516.34 882.732 522.302C878.302 530.256 876.216 535.939 880.122 543.102C884.028 550.265 898.031 555.538 917.369 554.267C935.754 553.057 945.947 551.266 945.947 551.266C945.947 551.266 967.857 547.264 994.53 542.262L994.52 542.252Z" fill="#F44D3B"/>
<path d="M1251.72 159.074C1251.72 159.074 1166.16 482.824 1108.44 565.562C1108.44 565.562 1108.68 566.613 1109.78 567.263C1110.58 567.733 1111.72 567.303 1112.21 568.114C1118.36 578.268 1149.98 631.243 1229.41 576.467C1229.41 576.467 1230.99 575.477 1232.31 575.377C1232.31 575.377 1237.43 312.145 1251.72 159.074Z" fill="#F44D3B"/>
<path d="M1251.72 159.074C1251.72 159.074 1251.99 160.345 1252.49 162.746C1260.59 201.054 1329.87 527.335 1350.37 567.133C1350.37 567.133 1351.75 567.273 1352.7 567.273L1353.19 567.463L1353.86 567.843L1354.63 568.424C1354.63 568.424 1413 619.187 1457.58 553.227C1457.58 553.227 1458.44 552.266 1460.34 552.266C1460.34 552.266 1349.84 370.182 1251.72 159.084V159.074Z" fill="#F44D3B"/>
<path d="M1251.72 159.074C1251.72 159.074 1442.07 435.482 1544.61 529.566L1546.36 529.406L1548.29 529.916L1550.63 530.646C1550.63 530.646 1590.15 543.882 1613.37 541.571C1613.37 541.571 1623.36 542.562 1632.35 535.899C1641.35 529.236 1636.48 517.71 1636.48 517.71C1636.48 517.71 1634.58 511.397 1626.53 508.316C1612.57 502.313 1597.07 493.899 1580.29 483.544C1531.96 453.731 1487.93 416.844 1449.09 374.404C1385.71 305.142 1320.08 233.889 1251.74 159.074H1251.72Z" fill="#F44D3B"/>
<path d="M1206 208.095C1206 208.095 1250.77 233.107 1296.49 206.095C1296.49 206.095 1255.53 165.076 1251.72 141.064C1251.72 141.064 1235.53 181.083 1206 208.095Z" fill="white"/>
<path d="M1251.72 141.065C1251.72 141.065 1269.82 125.058 1289.82 138.064C1309.83 151.07 1321.26 135.063 1321.26 135.063C1321.26 135.063 1326.98 159.434 1321.26 161.255C1315.55 163.075 1304.48 170.079 1289.53 159.074C1274.58 148.069 1261.32 162.975 1261.32 162.975C1261.32 162.975 1252.67 151.07 1251.72 141.065Z" fill="#F44D3B"/>
<path d="M557.53 198.082H564.656C574.72 198.082 582.879 189.513 582.879 178.943V178.933C582.879 168.363 574.72 159.794 564.656 159.794H557.53C547.466 159.794 539.307 168.363 539.307 178.933V178.943C539.307 189.513 547.466 198.082 557.53 198.082Z" fill="white"/>
<path d="M784.85 245.305H649.285C628.483 245.305 611.619 263.016 611.619 284.863V284.873C611.619 306.72 628.483 324.431 649.285 324.431H784.85C805.653 324.431 822.516 306.72 822.516 284.873V284.863C822.516 263.016 805.653 245.305 784.85 245.305Z" fill="white"/>
<path d="M913.737 179.424H778.943C758.141 179.424 741.277 197.135 741.277 218.982V218.992C741.277 240.84 758.141 258.55 778.943 258.55H913.737C934.539 258.55 951.403 240.84 951.403 218.992V218.982C951.403 197.135 934.539 179.424 913.737 179.424Z" fill="white"/>
<path d="M0 400.526H109.73C130.526 400.526 147.396 418.254 147.396 440.084C147.396 461.924 130.516 479.642 109.73 479.642H0V400.516V400.526Z" fill="white"/>
<path d="M840.635 217.711H546.109C525.307 217.711 508.443 235.422 508.443 257.269V257.279C508.443 279.127 525.307 296.838 546.109 296.838H840.635C861.438 296.838 878.301 279.127 878.301 257.279V257.269C878.301 235.422 861.438 217.711 840.635 217.711Z" fill="white"/>
<path d="M618.525 198.082H665.745C675.81 198.082 683.969 189.513 683.969 178.943V178.933C683.969 168.363 675.81 159.794 665.745 159.794H618.525C608.46 159.794 600.302 168.363 600.302 178.933V178.943C600.302 189.513 608.46 198.082 618.525 198.082Z" fill="white"/>
<path d="M95.5463 536.238H142.767C152.831 536.238 160.99 527.67 160.99 517.099V517.089C160.99 506.519 152.831 497.951 142.767 497.951H95.5463C85.4819 497.951 77.323 506.519 77.323 517.089V517.099C77.323 527.67 85.4819 536.238 95.5463 536.238Z" fill="white"/>
<path d="M698.869 380.176H388.053C385.233 380.176 382.947 382.577 382.947 385.538V748.987C382.947 751.948 385.233 754.349 388.053 754.349H698.869C701.689 754.349 703.975 751.948 703.975 748.987V385.538C703.975 382.577 701.689 380.176 698.869 380.176Z" fill="#A57E5D"/>
<path d="M469.366 741.344H450.219C449.198 741.344 448.371 742.213 448.371 743.285V857.458C448.371 858.529 449.198 859.398 450.219 859.398H469.366C470.387 859.398 471.215 858.529 471.215 857.458V743.285C471.215 742.213 470.387 741.344 469.366 741.344Z" fill="#A57E5D"/>
<path d="M638.818 741.344H619.518C618.539 741.344 617.746 742.177 617.746 743.205V857.538C617.746 858.565 618.539 859.398 619.518 859.398H638.818C639.796 859.398 640.59 858.565 640.59 857.538V743.205C640.59 742.177 639.796 741.344 638.818 741.344Z" fill="#A57E5D"/>
<path d="M448.371 754.35H471.215V818.539L448.371 754.35Z" fill="#84634A"/>
<path d="M617.746 754.35H640.59V818.539L617.746 754.35Z" fill="#84634A"/>
</g>
<defs>
<clipPath id="clip0_333_1153">
<rect width="1829" height="1080" fill="white"/>
</clipPath>
</defs>
</svg>
