<svg width="1835" height="268" viewBox="0 0 1835 268" fill="none" xmlns="http://www.w3.org/2000/svg">
<path d="M290.16 93.9102H147.85C126.012 93.9102 108.31 111.613 108.31 133.45V133.46C108.31 155.297 126.012 173 147.85 173H290.16C311.997 173 329.7 155.297 329.7 133.46V133.45C329.7 111.613 311.997 93.9102 290.16 93.9102Z" fill="white"/>
<path d="M234.46 28.0596H92.9599C71.1226 28.0596 53.4199 45.7622 53.4199 67.5996V67.6096C53.4199 89.4469 71.1226 107.15 92.9599 107.15H234.46C256.297 107.15 274 89.4469 274 67.6096V67.5996C274 45.7622 256.297 28.0596 234.46 28.0596Z" fill="white"/>
<path d="M350.84 0H301.27C290.704 0 282.14 8.5648 282.14 19.13V19.14C282.14 29.7052 290.704 38.27 301.27 38.27H350.84C361.405 38.27 369.97 29.7052 369.97 19.14V19.13C369.97 8.5648 361.405 0 350.84 0Z" fill="white"/>
<path d="M1815.84 229H1766.27C1755.7 229 1747.14 237.565 1747.14 248.13V248.14C1747.14 258.705 1755.7 267.27 1766.27 267.27H1815.84C1826.4 267.27 1834.97 258.705 1834.97 248.14V248.13C1834.97 237.565 1826.4 229 1815.84 229Z" fill="white"/>
<path d="M414.87 0H407.39C396.825 0 388.26 8.5648 388.26 19.13V19.14C388.26 29.7052 396.825 38.27 407.39 38.27H414.87C425.435 38.27 434 29.7052 434 19.14V19.13C434 8.5648 425.435 0 414.87 0Z" fill="white"/>
<path d="M1694.87 229H1682.13C1671.56 229 1663 237.565 1663 248.13V248.14C1663 258.705 1671.56 267.27 1682.13 267.27H1694.87C1705.44 267.27 1714 258.705 1714 248.14V248.13C1714 237.565 1705.44 229 1694.87 229Z" fill="white"/>
<path d="M348.72 66.3301H39.54C17.7027 66.3301 0 84.0327 0 105.87V105.88C0 127.717 17.7027 145.42 39.54 145.42H348.72C370.557 145.42 388.26 127.717 388.26 105.88V105.87C388.26 84.0327 370.557 66.3301 348.72 66.3301Z" fill="white"/>
<path d="M1584.54 106.33H1835V185.42H1584.54C1562.71 185.42 1545 167.7 1545 145.88C1545 124.05 1562.72 106.34 1584.54 106.34V106.33Z" fill="white"/>
<path d="M1736.79 171H1513.21C1501.5 171 1492 180.496 1492 192.21C1492 203.924 1501.5 213.42 1513.21 213.42H1736.79C1748.5 213.42 1758 203.924 1758 192.21C1758 180.496 1748.5 171 1736.79 171Z" fill="white"/>
</svg>
