<svg width="1920" height="1080" viewBox="0 0 1920 1080" fill="none" xmlns="http://www.w3.org/2000/svg">
<g clip-path="url(#clip0_294_195)">
<path d="M1920 0H0V1080H1920V0Z" fill="#A4DDDD"/>
<path d="M1920 800H0V1080H1920V800Z" fill="#77C16F"/>
<path d="M1792 571H1562V689H1792V571Z" fill="#B58471"/>
<path d="M1699 689H1676V842H1699V689Z" fill="#B58471"/>
<path d="M1792 571L1870.05 630L1792 689V571Z" fill="#B58471"/>
<path d="M1613.1 648.15V601.75C1613.1 600.55 1613.9 599.51 1615.1 599.27C1616.3 599.03 1617.42 599.59 1617.98 600.63C1619.34 603.59 1620.7 606.47 1622.06 609.27C1624.3 614.07 1626.86 619.67 1628.46 622.95C1629.98 619.67 1632.54 613.99 1634.86 609.27C1636.22 606.47 1637.58 603.59 1638.94 600.63C1639.5 599.59 1640.62 599.03 1641.82 599.27C1643.02 599.51 1643.82 600.55 1643.82 601.75V648.15C1643.82 649.67 1642.62 650.71 1641.26 650.71C1639.74 650.71 1638.7 649.67 1638.7 648.15V613.19C1636.78 617.27 1634.86 621.43 1633.34 624.63C1632.46 626.47 1631.58 628.31 1630.78 630.07C1630.22 631.03 1629.5 631.51 1628.46 631.51C1627.34 631.51 1626.54 631.03 1626.14 630.07C1625.34 628.31 1624.46 626.47 1623.58 624.63C1622.06 621.43 1620.06 617.27 1618.22 613.19V648.15C1618.22 649.67 1617.02 650.71 1615.66 650.71C1614.14 650.71 1613.1 649.67 1613.1 648.15Z" fill="#6D4C41"/>
<path d="M1654.22 639.83V616.15C1654.22 614.79 1655.26 613.75 1656.62 613.75C1657.98 613.75 1659.02 614.79 1659.02 616.15V639.83C1659.02 642.95 1661.5 645.43 1664.62 645.43H1670.22V616.15C1670.22 614.79 1671.26 613.75 1672.62 613.75C1673.98 613.75 1675.02 614.79 1675.02 616.15V647.83C1675.02 649.19 1673.98 650.23 1672.62 650.23H1664.62C1658.86 650.23 1654.22 645.59 1654.22 639.83Z" fill="#6D4C41"/>
<path d="M1698.38 640.311C1698.3 638.711 1697.58 637.431 1696.22 636.471L1688.78 631.191C1686.3 629.511 1684.94 626.871 1684.7 623.991C1684.46 621.031 1685.66 618.231 1687.82 616.311C1689.98 614.311 1692.86 613.431 1695.74 613.831C1698.62 614.391 1701.1 615.991 1702.62 618.551C1703.26 619.751 1702.94 621.191 1701.74 621.831C1700.54 622.471 1699.1 622.151 1698.46 620.951C1697.74 619.671 1696.54 618.871 1695.02 618.631C1693.5 618.391 1692.14 618.791 1691.02 619.831C1689.9 620.871 1689.42 622.151 1689.5 623.671C1689.58 625.191 1690.3 626.391 1691.58 627.271L1699.02 632.471C1701.5 634.311 1702.94 636.871 1703.18 639.991C1703.42 643.111 1702.22 645.911 1699.98 647.911C1697.74 650.071 1694.78 650.871 1691.82 650.471C1688.7 649.911 1686.22 648.231 1684.7 645.591C1684.06 644.391 1684.38 642.951 1685.58 642.311C1686.78 641.671 1688.22 641.991 1688.86 643.191C1689.74 644.551 1690.94 645.431 1692.54 645.671C1694.06 645.911 1695.5 645.511 1696.78 644.391C1697.98 643.271 1698.54 641.911 1698.38 640.311Z" fill="#6D4C41"/>
<path d="M1711.58 640.15V624.15C1711.58 618.39 1716.3 613.75 1721.98 613.75C1727.66 613.75 1732.38 618.39 1732.38 624.15V632.15C1732.38 633.51 1731.34 634.55 1729.98 634.55H1716.38V640.15C1716.38 642.39 1717.66 644.47 1719.82 645.35C1721.98 646.23 1724.38 645.75 1725.98 644.15C1726.38 643.67 1726.94 643.43 1727.58 643.43C1728.3 643.43 1728.86 643.67 1729.34 644.15C1729.82 644.55 1730.06 645.11 1730.06 645.83C1730.06 646.47 1729.82 647.03 1729.34 647.51C1726.38 650.47 1721.9 651.35 1718.06 649.75C1714.14 648.15 1711.58 644.39 1711.58 640.15ZM1727.82 598.55C1728.7 599.51 1728.62 601.03 1727.58 601.91L1719.58 609.11C1718.62 609.99 1717.1 609.91 1716.22 608.95C1715.34 607.99 1715.42 606.47 1716.38 605.59L1724.38 598.39C1725.42 597.51 1726.86 597.59 1727.82 598.55ZM1716.38 624.15V629.75H1727.58V624.15C1727.58 621.03 1725.1 618.55 1721.98 618.55C1718.86 618.55 1716.38 621.03 1716.38 624.15Z" fill="#6D4C41"/>
<path d="M1741.02 640.15V624.15C1741.02 618.39 1745.66 613.75 1751.42 613.75C1757.18 613.75 1761.82 618.39 1761.82 624.15V632.15C1761.82 633.51 1760.78 634.55 1759.42 634.55H1745.82V640.15C1745.82 642.39 1747.1 644.47 1749.26 645.35C1751.42 646.23 1753.74 645.75 1755.34 644.15C1755.82 643.67 1756.38 643.43 1757.02 643.43C1757.74 643.43 1758.3 643.67 1758.78 644.15C1759.26 644.55 1759.5 645.11 1759.5 645.83C1759.5 646.47 1759.26 647.03 1758.78 647.51C1755.82 650.47 1751.34 651.35 1747.42 649.75C1743.5 648.15 1741.02 644.39 1741.02 640.15ZM1745.82 624.15V629.75H1757.02V624.15C1757.02 621.03 1754.54 618.55 1751.42 618.55C1748.3 618.55 1745.82 621.03 1745.82 624.15Z" fill="#6D4C41"/>
<path d="M1699 689H1676V803.97L1699 689Z" fill="#6D4C41"/>
<g style="mix-blend-mode:overlay" opacity="0.3">
<path d="M0 0H1920V1080H1505L0 0Z" fill="#F4F77C"/>
</g>
</g>
<defs>
<clipPath id="clip0_294_195">
<rect width="1920" height="1080" fill="white"/>
</clipPath>
</defs>
</svg>
