<svg width="1920" height="1080" viewBox="0 0 1920 1080" fill="none" xmlns="http://www.w3.org/2000/svg">
<path d="M1920 0H0V1080H1920V0Z" fill="#D35D5F"/>
<path d="M923 392H513V537H923V392Z" fill="#F489BE"/>
<path d="M903 412H533V517H903V412Z" fill="white"/>
<path d="M373 260H108V537H373V260Z" fill="#F489BE"/>
<path d="M353 280H128V516H353V280Z" fill="white"/>
<path d="M1479 153H1245V455H1479V153Z" fill="#8BBA83"/>
<path d="M1853 515H1600V660H1853V515Z" fill="#F9B25B"/>
<path d="M1263 533H1050V643H1263V533Z" fill="white"/>
<path d="M1462.24 172H1263V438H1462.24V172Z" fill="#D5A563"/>
<path d="M1263 172H1462.24V196.56C1462.24 196.56 1310.24 167.18 1263 199.37V172Z" fill="#C8B783"/>
<path d="M1263 199.371V240.76C1263 240.76 1349.27 259.29 1387.27 235.67C1425.27 212.05 1462.24 223.52 1462.24 223.52V196.55C1462.24 196.55 1307.16 167.171 1263 199.36V199.371Z" fill="#DE551E"/>
<path d="M1368.78 266.49C1377.48 264.72 1425.87 260.33 1437.59 264.44L1435.19 272.95L1432.46 313.74L1263 311.22V265.47" fill="#AC9853"/>
<path d="M1263 256.64H1462.24V322.75C1462.24 322.75 1345.34 350.7 1399.68 438H1263V305C1263 305 1378.03 313.73 1393.43 300.38C1408.84 287.03 1417.05 291.14 1420.13 286C1425.52 277.02 1393.43 287.03 1389.32 280.86C1385.21 274.7 1392.67 271.62 1415 272.64C1437.33 273.67 1436.57 262.37 1436.57 262.37C1356.46 262.37 1302.03 274.69 1263 269.56V256.63V256.64Z" fill="#375458"/>
<path d="M1414.71 344.52C1414.71 344.52 1418.22 322.61 1442.26 309.82C1444.46 308.65 1446.82 307.79 1449.21 307.07C1452.98 305.93 1460.7 301.67 1462.24 285.71V322.75C1462.24 322.75 1412.94 336.99 1437.59 373.12C1462.24 409.24 1441.51 438 1441.51 438H1389.75C1389.33 438 1362.62 376.74 1362.62 376.74L1414.71 344.52Z" fill="#AC9853"/>
<path d="M1366.32 343.57C1366.32 343.57 1370.83 330.16 1370.83 325.02C1370.83 319.88 1361.8 311.29 1366.32 299.15C1366.32 299.15 1369.81 292.13 1370.83 291.11C1371.86 290.1 1372.88 291.12 1371.86 295.23C1371.86 295.23 1371.86 312.69 1375.97 315.77C1380.08 318.85 1373.23 346.31 1373.23 346.31L1372.27 346.83C1371.33 347.34 1370.28 347.61 1369.21 347.61H1368.79C1367.02 347.02 1366.58 345.41 1366.33 343.56L1366.32 343.57Z" fill="#A89D81"/>
<path d="M1263 240.77C1263 240.77 1319.82 250.929 1347.38 246.899C1374.94 242.869 1379.44 239.7 1379.44 239.7C1379.44 239.7 1399.85 225.01 1426.42 221.61C1452.99 218.22 1462.23 223.53 1462.23 223.53V269.57C1462.23 269.57 1408.82 261.35 1381.09 265.46C1362.39 268.23 1348.64 266.14 1341.72 263.52C1336.24 261.44 1330.54 259.989 1324.74 259.149C1308.52 256.799 1279.93 254.77 1262.98 265.82V240.77H1263Z" fill="#EE9338"/>
<path d="M1263 269.57L1462.24 390.2V409.49L1263 275.73V269.57Z" fill="#A06A46"/>
<path d="M1263 438H1408.2L1263 285.71V438Z" fill="#846A47"/>
<path d="M1263 285.709L1408.2 438H1428.7L1263 280.35V285.709Z" fill="#654433"/>
<path d="M1462.24 425.031V438H1448.79L1263 280.351V275.73L1462.24 425.031Z" fill="#705041"/>
<path d="M1402.68 321.95L1377.28 320.22L1375.08 325.06L1377.28 333.63L1385.22 344.54L1402.68 331.22V321.95Z" fill="#8E856E"/>
<path d="M1345.85 438C1345.85 438 1330.33 403.94 1355.21 368.08C1380.08 332.22 1362.62 318.53 1362.62 318.53H1370.96C1370.96 318.53 1381.23 330.52 1384.83 336.99C1385.55 338.28 1387.23 338.67 1388.42 337.8C1392.88 334.54 1401.9 327.35 1402.67 321.95L1408.2 323.89C1408.2 323.89 1412.94 376.38 1400.62 385.63C1388.3 394.87 1399.68 438.01 1399.68 438.01H1345.85V438Z" fill="#0A150F"/>
<path d="M1412.77 337.71L1408.55 321.03C1408.55 321.03 1412.6 316.19 1412.77 310.85C1412.94 305.51 1414.53 298.6 1410.66 293.84C1406.78 289.08 1411.42 303.1 1407.05 307.9C1402.68 312.7 1402.05 319.22 1403.39 322.63C1404.73 326.05 1405.57 338.56 1405.57 338.56L1408.98 343.63L1411.92 341.45L1412.77 337.7V337.71Z" fill="#A89D81"/>
<path d="M1355.9 359.169L1365.71 340.429L1366.95 344.649C1368.19 348.869 1375.09 344.25 1375.09 344.25C1374.2 353.2 1358.52 380.489 1350.3 381.219C1342.08 381.949 1344.14 366.11 1348.67 361.85C1353.2 357.59 1352.36 342.48 1350.3 332.99C1348.25 323.5 1362.62 318.52 1362.62 318.52C1362.62 318.52 1367.22 321.24 1368.52 332.37C1369.82 343.5 1367.76 345.56 1367.76 345.56" fill="#13292C"/>
<path d="M1365.7 340.43L1356.23 358.54L1358.54 347.32L1362 342L1365.7 340.43Z" fill="#0A150F"/>
<path d="M1403.26 382.371C1403.26 382.371 1408.26 392.471 1413.68 382.371C1419.11 372.271 1413.68 336.48 1413.68 336.48C1413.68 336.48 1412.51 340.321 1404.73 338.371C1400.62 337.341 1399.59 372.261 1403.26 382.361V382.371Z" fill="#13292C"/>
<path d="M1380.36 315.44C1380.36 315.44 1363.24 296.99 1382.59 283.38C1382.59 283.38 1394.28 279.59 1401.44 284.69C1408.6 289.79 1409.93 303.69 1401.12 314.58C1401.12 314.58 1396.29 318.22 1396.67 320.86C1397.05 323.5 1396.71 333.09 1389.08 332.93C1381.45 332.77 1381.33 324.08 1382.56 319.88C1382.56 319.88 1382.56 316.74 1380.36 315.44Z" fill="#A89D81"/>
<path d="M1388.73 329.99C1386.36 329.65 1386.39 327.78 1386.05 324.92C1385.75 322.47 1385.93 319.55 1387.65 317.25C1389.47 314.82 1391.03 315.58 1392.13 316.96C1393.41 318.56 1393.83 320.93 1393.41 323.19C1393.18 324.44 1393 325.62 1392.74 326.68C1392.22 328.84 1390.48 330.25 1388.74 330L1388.73 329.99Z" fill="#8E856E"/>
<path d="M1394.52 284.1C1394.26 284.02 1390.73 283.49 1390.46 283.45C1387.27 282.92 1382.43 284.03 1382.1 287.96C1381.73 292.44 1386.28 291.21 1388.29 295.24C1389.32 297.29 1393.15 298.07 1394.17 297.04C1394.48 296.72 1394.85 296.47 1395.27 296.31C1396.4 295.88 1398.77 295.09 1401.11 295.1C1403.45 295.11 1405.15 292.38 1403.76 290.53C1402.67 289.08 1400.61 285.99 1394.51 284.09L1394.52 284.1Z" fill="#B7A181"/>
<path d="M1276.92 313.729C1276.37 311.419 1274.41 279.4 1275.84 269.57C1276.43 265.46 1276.43 261.35 1277.82 261.35C1280.01 261.35 1280.59 268.54 1280.59 268.54C1280.59 268.54 1284.82 309.129 1282.01 312.969C1282.01 312.969 1277.41 315.779 1276.92 313.729Z" fill="#13292C"/>
<path d="M1267.19 311.68C1266.45 309.37 1263.82 277.35 1265.73 267.52C1266.53 263.41 1266.53 259.3 1268.39 259.3C1271.33 259.3 1272.11 266.49 1272.11 266.49C1272.11 266.49 1277.79 307.08 1274.02 310.92C1274.02 310.92 1267.84 313.73 1267.18 311.68H1267.19Z" fill="#0A150F"/>
<path d="M1920 766H0V800H1920V766Z" fill="white"/>
<path d="M1920 800H0V1080H1920V800Z" fill="#7F5B4F"/>
<path d="M1280 955H1020L1043 854H1253L1280 955Z" fill="#331A0F"/>
<path d="M1096 715H1078V910H1096V715Z" fill="#281008"/>
<path d="M1219 692H1201V910H1219V692Z" fill="#281008"/>
<path d="M1292 742H1001L1033 617H1261L1292 742Z" fill="#FFDCDC"/>
<path d="M1273 728H1022L1045 632H1249L1273 728Z" fill="white"/>
</svg>
