<svg width="1920" height="1080" viewBox="0 0 1920 1080" fill="none" xmlns="http://www.w3.org/2000/svg">
<path d="M1920 0H0V1080H1920V0Z" fill="#D35D5F"/>
<path d="M1920 766H0V800H1920V766Z" fill="white"/>
<path d="M1402.85 809.25V320.07C1402.85 320.07 1384.63 144.76 1590.73 143.75C1796.83 142.75 1784.87 320.07 1784.87 320.07L1785 809.25H1402.85Z" fill="#AE4D4F"/>
<path d="M1402.85 809.25H1785L1682 725H1506L1402.85 809.25Z" fill="#934243"/>
<path d="M1506.36 725H1682V403.23C1682 382.34 1676.36 361.76 1665.17 344.12C1652.45 324.06 1630.67 304.49 1594.06 304.01C1557.45 303.53 1535.64 321.88 1522.89 340.92C1511.68 357.67 1506 377.52 1506.02 397.68L1506.36 725Z" fill="#934243"/>
<path d="M1327.59 526H1192V603H1327.59V526Z" fill="white"/>
<path d="M1315.87 535.371H1204.05V593.801H1315.87V535.371Z" fill="#D4D4D4"/>
<path d="M1920 800H0V1080H1920V800Z" fill="#7F5B4F"/>
<path d="M272 565H112V874H272V565Z" fill="#ED8D64"/>
<path d="M309 836H78V886H309V836Z" fill="#ED8D64"/>
<path d="M116.15 563L128 518L116.15 468.07L170 411V394.18L121 396L124 296L153 251L233 243L272 290L244 360L295 444L258.5 488.03L267 544L292 537L290.85 563L93 598V569.88L116.15 563Z" fill="#C8C2B4"/>
<path d="M93 569.88L116.15 563L128 518L116.15 468.07L251 431L295 444L258.5 488.03L267 544L292 537L290.85 563L93 598V569.88Z" fill="#A9A099"/>
<path d="M116.15 468.07L238 379L185 345L183 272L124 296L121 396L170 394.18V411L116.15 468.07Z" fill="#A9A099"/>
<path d="M272 290L244 360L211 307L272 290Z" fill="#A9A099"/>
<path d="M266 540L116.15 563L93 569.88V598L290.85 563L292 537L266 540Z" fill="#C6C3B4"/>
<path d="M292 537L246.939 570.77L290.85 563L292 537Z" fill="#A9A099"/>
<path d="M112 594.64L272 567.5V588.91L112 646.43V594.64Z" fill="#D98864"/>
<path d="M650.32 357.57V410.84C650.32 412.14 651.96 412.7 652.75 411.68C660.34 401.78 684.61 376.04 709.98 411.96C710.64 412.89 712.11 412.44 712.11 411.3V357.58H707.37L708.1 402.31C708.1 402.31 685.74 372.49 655.92 402.31V357.58H650.33L650.32 357.57Z" fill="#A85F4E"/>
<path d="M682 406.02C704.644 406.02 723 387.663 723 365.02C723 342.376 704.644 324.02 682 324.02C659.356 324.02 641 342.376 641 365.02C641 387.663 659.356 406.02 682 406.02Z" fill="white"/>
<path d="M682 391.11C696.409 391.11 708.09 379.429 708.09 365.02C708.09 350.611 696.409 338.93 682 338.93C667.591 338.93 655.91 350.611 655.91 365.02C655.91 379.429 667.591 391.11 682 391.11Z" fill="#E3E3E3"/>
<path d="M655.91 402.299L664.1 394.11C664.72 393.49 665.73 393.49 666.35 394.11L667.79 395.549C668.42 396.179 668.4 397.22 667.74 397.83L652.74 411.679L655.9 402.309L655.91 402.299Z" fill="#A85F4E"/>
<path d="M703.359 403.891C700.659 401.261 698.139 398.681 696.349 396.271C695.669 395.531 695.839 394.361 696.689 393.841L698.069 393.001C698.719 392.601 699.559 392.731 700.069 393.301L708.079 402.301L703.349 403.891H703.359Z" fill="#A85F4E"/>
<path d="M863.461 402.599C863.461 402.599 861.091 405.268 863.671 408.948C866.251 412.638 883.201 412.639 887.261 412.269C891.311 411.899 898.421 410.649 900.031 408.329C901.631 406.009 900.031 402.059 900.031 402.059L863.461 402.609V402.599Z" fill="#672C1C"/>
<path d="M870.67 399C869.93 399 855.19 403.05 869.93 406C882.45 408.5 893.91 405.96 897.08 405.13C897.88 404.92 898.63 404.53 899.23 403.96C900.4 402.84 901.14 400.96 895 399.73C885.79 397.89 870.68 398.99 870.68 398.99L870.67 399Z" fill="#8E432E"/>
<path d="M870.331 398.049C870.331 398.049 841.411 374.629 845.131 344.509C847.821 322.699 900.631 326.909 910.471 333.759C918.951 339.659 916.741 353.659 916.741 353.659C916.741 353.659 916.371 368.399 905.321 383.139C894.261 397.879 893.131 398.039 893.131 398.039H870.331V398.049Z" fill="#8E432E"/>
<path d="M870.332 400.139H893.131C893.351 400.139 893.521 399.969 893.521 399.759V398.419C893.521 398.209 893.341 398.039 893.131 398.039H870.332C870.112 398.039 869.941 398.209 869.941 398.419V399.759C869.941 399.969 870.122 400.139 870.332 400.139Z" fill="#672C1C"/>
<path d="M847.1 339.45C847.1 339.45 850.03 326.76 846.35 316.07C842.66 305.38 857.41 302.8 863.67 310.54L864.78 316.07C864.78 316.07 857.78 311.28 853.36 312.02C848.94 312.76 851.79 317.31 852.99 322.71C853.73 326.03 855.2 332.29 854.1 333.77C853 335.25 847.11 339.46 847.11 339.46L847.1 339.45Z" fill="#8E432E"/>
<path d="M914.899 338.929C914.899 338.929 910.999 326.769 914.689 316.079C918.379 305.389 902.369 303.919 896.109 311.659V316.819C896.109 316.819 903.269 311.289 907.689 312.029C912.109 312.769 908.879 320.669 908.059 322.719C907.169 324.929 906.799 330.829 907.169 333.039C907.469 334.859 914.909 338.939 914.909 338.939L914.899 338.929Z" fill="#8E432E"/>
<path d="M863.67 329.879C863.67 329.879 870.301 317.919 855.561 299.119C855.561 299.119 902.001 299.119 903.841 298.379C903.841 298.379 892.721 307.439 897.361 329.629L863.67 329.879Z" fill="#8E432E"/>
<path d="M855.56 299.119C855.56 299.119 878.04 301.329 903.84 298.379C904.75 298.279 903.49 298.059 901.73 297.849C898.53 297.459 895.3 297.269 892.08 297.259C884.16 297.229 866.73 297.229 859.98 297.649C854.08 298.019 855.56 299.119 855.56 299.119Z" fill="#672C1C"/>
<path d="M579 119H574V709H579V119Z" fill="#A5DDD6"/>
<path d="M996.51 417V412H577.59V417H996.51Z" fill="#A5DDD6"/>
<path d="M996.51 709V704H577.59V709H996.51Z" fill="#A5DDD6"/>
<path d="M996.51 124V119L577.59 119V124L996.51 124Z" fill="#A5DDD6"/>
<path d="M996.51 272V267H577.59V272H996.51Z" fill="#A5DDD6"/>
<path d="M1000 119H995V709H1000V119Z" fill="#A5DDD6"/>
<path opacity="0.2" d="M999.6 53H574V886H999.6V53Z" fill="white"/>
<path d="M999.6 708.539H574V885.999H999.6V708.539Z" fill="#2F182E"/>
<path d="M999.6 56H574V118.82H999.6V56Z" fill="#2F182E"/>
</svg>
