<svg width="1920" height="1080" viewBox="0 0 1920 1080" fill="none" xmlns="http://www.w3.org/2000/svg">
<g clip-path="url(#clip0_332_36)">
<path d="M1920 799.75H0V1079.75H1920V799.75Z" fill="#7F5B4F"/>
<path d="M1920 0.25H0V800.25H1920V0.25Z" fill="#D35D5F"/>
<path d="M1920 766.529H0V800.529H1920V766.529Z" fill="white"/>
<path d="M800 162.529H330V629.529H800V162.529Z" fill="white"/>
<path d="M327 162.529H802L850 116.529H283.34L327 162.529Z" fill="#FFC973"/>
<path d="M850 116.529V677.529L800 632.529V157.529L850 116.529Z" fill="#FFC973"/>
<path d="M802 629.529H327L281.67 677.859L850 677.499L802 629.529Z" fill="#FFC973"/>
<path d="M283.45 116.529L281.67 677.859L330 632.529V157.529L283.45 116.529Z" fill="#FFC973"/>
<path d="M283.34 116.529L317 172.529V618.029L281.67 677.859L283.34 116.529Z" fill="#FFB673"/>
<path d="M850 116.529L815.67 172.529V618.029L850 677.529V116.529Z" fill="#FFB673"/>
<path d="M283 116.529L345.33 151.189H790.83L850 116.529H283Z" fill="#FFB673"/>
<path d="M282 677.529L343.33 642.529H788.83L850 677.529H282Z" fill="#FFB673"/>
<path d="M1920 628.529L1858.83 628.799V161.799L1920 161.529V628.529Z" fill="white"/>
<path d="M1855.83 161.799L1920 161.529V115.529L1812.17 115.799L1855.83 161.799Z" fill="#FFC973"/>
<path d="M1920 628.529L1855.83 628.799L1810.5 677.129L1920 677.529V628.529Z" fill="#FFC973"/>
<path d="M1812.28 115.799L1810.5 677.129L1858.83 631.799V156.799L1812.28 115.799Z" fill="#FFC973"/>
<path d="M1812.17 115.799L1845.83 171.799V617.299L1810.5 677.129L1812.17 115.799Z" fill="#FFB673"/>
<path d="M1811.83 115.799L1874.16 150.459L1920 150.529V115.529L1811.83 115.799Z" fill="#FFB673"/>
<path d="M1810.83 676.799L1869 641.529H1920V677.529L1810.83 676.799Z" fill="#FFB673"/>
<path d="M1118.97 775.53H1127.03C1129.22 775.53 1131 777.31 1131 779.5V844.07C1131 847.63 1128.11 850.52 1124.55 850.52H1119.46C1116.45 850.52 1114 848.07 1114 845.06V780.49C1114 777.75 1116.23 775.52 1118.97 775.52V775.53Z" fill="#321D1B"/>
<path d="M1620.97 775.53H1629.03C1631.22 775.53 1633 777.31 1633 779.5V844.07C1633 847.63 1630.11 850.52 1626.55 850.52H1621.46C1618.45 850.52 1616 848.07 1616 845.06V780.49C1616 777.75 1618.23 775.52 1620.97 775.52V775.53Z" fill="#321D1B"/>
<path d="M1117.5 728.529H1631.25C1644.91 728.529 1656 739.619 1656 753.279V775.529H1092V754.029C1092 739.959 1103.43 728.529 1117.5 728.529Z" fill="#3F0303"/>
<path d="M1630 737.529H1118C1103.64 737.529 1092 749.17 1092 763.529V775.529C1092 789.889 1103.64 801.529 1118 801.529H1630C1644.36 801.529 1656 789.889 1656 775.529V763.529C1656 749.17 1644.36 737.529 1630 737.529Z" fill="#680505"/>
<path d="M1619.06 574.529H1128.94C1108.54 574.529 1092 591.068 1092 611.469V653.589C1092 673.991 1108.54 690.529 1128.94 690.529H1619.06C1639.46 690.529 1656 673.991 1656 653.589V611.469C1656 591.068 1639.46 574.529 1619.06 574.529Z" fill="#3F0303"/>
<path d="M1610.46 585.529H1139.54C1121.02 585.529 1106 600.546 1106 619.069V645.989C1106 664.513 1121.02 679.529 1139.54 679.529H1610.46C1628.98 679.529 1644 664.513 1644 645.989V619.069C1644 600.546 1628.98 585.529 1610.46 585.529Z" fill="#680505"/>
<path d="M1106 758.529H1636V789.529H1106.75C1106.34 789.529 1106 789.189 1106 788.779V758.529Z" fill="#3F0303"/>
<path d="M1656 687.529H1636V724.529H1656V687.529Z" fill="#231515"/>
<path d="M1640.97 707.53H1652.03C1654.22 707.53 1656 709.31 1656 711.5V903.07C1656 906.63 1653.11 909.52 1649.55 909.52H1641.46C1638.45 909.52 1636 907.07 1636 904.06V712.49C1636 709.75 1638.23 707.52 1640.97 707.52V707.53Z" fill="#321D1B"/>
<path d="M1642.43 548.529H1649.77C1653.21 548.529 1656 551.319 1656 554.759V687.529H1636V554.959C1636 551.409 1638.88 548.529 1642.43 548.529Z" fill="#321D1B"/>
<path d="M1111 687.529H1091V724.529H1111V687.529Z" fill="#231515"/>
<path d="M1095.97 707.53H1107.03C1109.22 707.53 1111 709.31 1111 711.5V903.07C1111 906.63 1108.11 909.52 1104.55 909.52H1096.46C1093.45 909.52 1091 907.07 1091 904.06V712.49C1091 709.75 1093.23 707.52 1095.97 707.52V707.53Z" fill="#321D1B"/>
<path d="M1636 861.529V881.529H1106C1105.45 881.529 1105 881.079 1105 880.529V861.529H1636Z" fill="#321D1B"/>
<path d="M1616 808.529V828.529H1132C1131.45 828.529 1131 828.079 1131 827.529V808.529H1616Z" fill="#321D1B"/>
<path d="M1636 787.529V801.529H1106C1105.45 801.529 1105 801.079 1105 800.529V787.529H1636Z" fill="#321D1B"/>
<path d="M1097.43 548.529H1104.77C1108.21 548.529 1111 551.319 1111 554.759V687.529H1091V554.959C1091 551.409 1093.88 548.529 1097.43 548.529Z" fill="#321D1B"/>
<path d="M244 605.529H150V652.529H244V605.529Z" fill="white"/>
<path d="M238.33 611.199H155.67V647.669H238.33V611.199Z" fill="#EFEFEF"/>
</g>
<defs>
<clipPath id="clip0_332_36">
<rect width="1920" height="1079.5" fill="white" transform="translate(0 0.25)"/>
</clipPath>
</defs>
</svg>
