<svg width="1920" height="1080" viewBox="0 0 1920 1080" fill="none" xmlns="http://www.w3.org/2000/svg">
<path d="M1920 0H0V1080H1920V0Z" fill="#D35D5F"/>
<path d="M432 193H167V588H432V193Z" fill="#F9B25B"/>
<path d="M412 213H187V568H412V213Z" fill="white"/>
<path d="M1630 300H1398V609H1630V300Z" fill="#BF88BF"/>
<path d="M1189 543H779V688H1189V543Z" fill="#9798C6"/>
<path d="M1169 563H799V668H1169V563Z" fill="white"/>
<path d="M1920 766H0V800H1920V766Z" fill="white"/>
<path d="M1920 800H0V1080H1920V800Z" fill="#7F5B4F"/>
<path d="M244 680C244 680 448.81 772.2 604 680L607 704C607 704 463 791 242 703L244 680Z" fill="#990000"/>
<path d="M641 927.17H572V945H641V927.17Z" fill="#331A0F"/>
<path d="M277 940H208V957.83H277V940Z" fill="#331A0F"/>
<path d="M616.199 927.181V675.211H596.819V927.181H616.199Z" fill="#331A0F"/>
<path d="M606.111 679.85C620.239 679.85 631.691 668.397 631.691 654.27C631.691 640.142 620.239 628.689 606.111 628.689C591.984 628.689 580.531 640.142 580.531 654.27C580.531 668.397 591.984 679.85 606.111 679.85Z" fill="#331A0F"/>
<path d="M251.668 945.491L251.668 693.521H232.288V945.491H251.668Z" fill="#331A0F"/>
<path d="M241.58 698.16C255.707 698.16 267.16 686.708 267.16 672.58C267.16 658.453 255.707 647 241.58 647C227.453 647 216 658.453 216 672.58C216 686.708 227.453 698.16 241.58 698.16Z" fill="#331A0F"/>
</svg>
