<svg width="1920" height="1079" viewBox="0 0 1920 1079" fill="none" xmlns="http://www.w3.org/2000/svg">
<g clip-path="url(#clip0_333_1055)">
<path d="M1920 797H1V1079H1920V797Z" fill="#77C16F"/>
<path d="M1920 0H0V798H1920V0Z" fill="#A4DDDD"/>
<path d="M750 84H532C514.327 84 500 98.3269 500 116C500 133.673 514.327 148 532 148H750C767.673 148 782 133.673 782 116C782 98.3269 767.673 84 750 84Z" fill="white"/>
<path d="M678 126H563C546.984 126 534 138.984 534 155C534 171.016 546.984 184 563 184H678C694.016 184 707 171.016 707 155C707 138.984 694.016 126 678 126Z" fill="white"/>
<path d="M726 55H591C579.402 55 570 64.402 570 76C570 87.598 579.402 97 591 97H726C737.598 97 747 87.598 747 76C747 64.402 737.598 55 726 55Z" fill="white"/>
<path d="M843.5 154H772.5C766.149 154 761 159.149 761 165.5C761 171.851 766.149 177 772.5 177H843.5C849.851 177 855 171.851 855 165.5C855 159.149 849.851 154 843.5 154Z" fill="white"/>
<path d="M168.5 212H97.5C91.1487 212 86 217.149 86 223.5C86 229.851 91.1487 235 97.5 235H168.5C174.851 235 180 229.851 180 223.5C180 217.149 174.851 212 168.5 212Z" fill="white"/>
<path d="M541.5 39H515.5C509.149 39 504 44.1487 504 50.5C504 56.8513 509.149 62 515.5 62H541.5C547.851 62 553 56.8513 553 50.5C553 44.1487 547.851 39 541.5 39Z" fill="white"/>
<path d="M1759.5 147H1413.5C1401.07 147 1391 157.074 1391 169.5C1391 181.926 1401.07 192 1413.5 192H1759.5C1771.93 192 1782 181.926 1782 169.5C1782 157.074 1771.93 147 1759.5 147Z" fill="white"/>
<path d="M1713.5 117H1541.5C1527.42 117 1516 128.417 1516 142.5C1516 156.583 1527.42 168 1541.5 168H1713.5C1727.58 168 1739 156.583 1739 142.5C1739 128.417 1727.58 117 1713.5 117Z" fill="white"/>
<path d="M1656.5 82H1627.5C1621.15 82 1616 87.1487 1616 93.5C1616 99.8513 1621.15 105 1627.5 105H1656.5C1662.85 105 1668 99.8513 1668 93.5C1668 87.1487 1662.85 82 1656.5 82Z" fill="white"/>
<path d="M1563.5 83H1439.5C1433.7 83 1429 87.701 1429 93.5C1429 99.299 1433.7 104 1439.5 104H1563.5C1569.3 104 1574 99.299 1574 93.5C1574 87.701 1569.3 83 1563.5 83Z" fill="white"/>
<path d="M1818.5 207H1694.5C1688.7 207 1684 211.701 1684 217.5C1684 223.299 1688.7 228 1694.5 228H1818.5C1824.3 228 1829 223.299 1829 217.5C1829 211.701 1824.3 207 1818.5 207Z" fill="white"/>
<path d="M216 449.999C216 449.999 299.62 707.479 240.81 801.239C323.19 802.759 340 801.239 340 801.239C340 801.239 288.51 451.189 310.26 441.099C332.01 431.009 216 449.999 216 449.999Z" fill="#F4A76E"/>
<path d="M452 456C452 425.12 431.71 398.98 403.74 390.18C400.78 354.8 371.15 327 335 327C316.03 327 298.86 334.66 286.38 347.04C277.21 342.54 266.9 340 256 340C243.43 340 231.65 343.38 221.5 349.25C211.35 343.38 199.57 340 187 340C148.89 340 118 370.89 118 409C118 412.96 118.35 416.83 118.99 420.6C85.14 425.02 59 453.94 59 489C59 526.95 89.64 557.74 127.53 557.99C139.53 578.34 161.66 592 187 592C208.74 592 228.12 581.93 240.77 566.22C248.59 569.29 257.09 571 266 571C281.81 571 296.37 565.67 308 556.73C319.63 565.67 334.19 571 350 571C383.43 571 411.3 547.23 417.64 515.66C438.18 503.71 452 481.47 452 456Z" fill="#6ED35F"/>
<path d="M1269 523C1315.39 523 1353 485.392 1353 439C1353 392.608 1315.39 355 1269 355C1222.61 355 1185 392.608 1185 439C1185 485.392 1222.61 523 1269 523Z" fill="#00BD50"/>
<path d="M1240 446.03C1249.51 483.99 1311.34 755.1 1240 798C1302 799 1342 799.07 1342 799.07C1342 799.07 1285.18 539.76 1313.72 473.83C1342.26 407.9 1240 446.03 1240 446.03Z" fill="#F4A76E"/>
<path d="M1462 408.5C1462 379.83 1443 355.61 1416.9 347.72C1410.82 312.11 1379.84 285 1342.5 285C1323.25 285 1305.69 292.22 1292.36 304.07C1286.08 277.65 1262.34 258 1234 258C1200.86 258 1174 284.86 1174 318C1174 323.61 1174.79 329.03 1176.22 334.17C1174.99 334.06 1173.75 334 1172.5 334C1149.58 334 1131 352.58 1131 375.5C1131 386.03 1134.93 395.63 1141.39 402.95C1134.81 413.57 1131 426.09 1131 439.5C1131 467.28 1147.3 491.24 1170.86 502.37C1165.85 511.63 1163 522.23 1163 533.5C1163 569.67 1192.33 599 1228.5 599C1264.67 599 1294 569.67 1294 533.5C1294 530.55 1293.79 527.65 1293.41 524.81C1304.44 533.09 1318.15 538 1333 538C1369.45 538 1399 508.45 1399 472C1399 472 1399 472 1399 471.99C1433.84 471.72 1462 443.41 1462 408.5Z" fill="#6ED35F"/>
<path d="M1741 503.07C1741 503.07 1818 778 1749 798C1804 798 1885 798.24 1885 798.24C1885 798.24 1775 542 1833 496C1771.67 500.667 1741 503.023 1741 503.07Z" fill="#F4A76E"/>
<path d="M1949 384C1949 345.89 1918.11 315 1880 315C1876.52 315 1873.09 315.26 1869.75 315.76C1857.3 297.78 1836.53 286 1813 286C1797.82 286 1783.8 290.91 1772.41 299.22C1766.85 297.77 1761.02 297 1755 297C1740.14 297 1726.39 301.71 1715.12 309.71C1709.04 307.96 1702.63 307 1696 307C1668.14 307 1644.15 323.52 1633.26 347.3C1631.2 347.11 1629.11 347 1627 347C1588.89 347 1558 377.89 1558 416C1558 454.11 1588.89 485 1627 485C1633.82 485 1640.4 484 1646.62 482.15C1645.57 486.93 1645 491.9 1645 497C1645 535.11 1675.89 566 1714 566C1726.24 566 1737.73 562.8 1747.7 557.21C1760.29 570.62 1778.16 579 1798 579C1826.93 579 1851.68 561.19 1861.94 535.95C1899.15 534.92 1929 504.46 1929 467C1929 456.71 1926.74 446.95 1922.7 438.18C1938.71 425.54 1949 405.98 1949 384Z" fill="#6ED35F"/>
<path d="M714.8 727.801H704.15V747.501H714.8V727.801Z" fill="#231515"/>
<path d="M706.8 738.45H712.69C713.86 738.45 714.8 739.4 714.8 740.56V842.56C714.8 844.46 713.26 845.99 711.37 845.99H707.06C705.46 845.99 704.15 844.69 704.15 843.08V741.08C704.15 739.62 705.34 738.43 706.8 738.43V738.45Z" fill="#321D1B"/>
<path d="M707.57 653.779H711.48C713.31 653.779 714.8 655.269 714.8 657.099V727.799H704.15V657.209C704.15 655.319 705.68 653.789 707.57 653.789V653.779Z" fill="#321D1B"/>
<path d="M424.65 727.801H414V747.501H424.65V727.801Z" fill="#231515"/>
<path d="M417.43 653.779H421.34C423.17 653.779 424.66 655.269 424.66 657.099V727.799H414.01V657.209C414.01 655.319 415.54 653.789 417.43 653.789V653.779Z" fill="#321D1B"/>
<path d="M428.89 778.651H433.18C434.35 778.651 435.29 779.601 435.29 780.761V815.141C435.29 817.041 433.75 818.571 431.86 818.571H429.15C427.55 818.571 426.24 817.271 426.24 815.661V781.281C426.24 779.821 427.43 778.631 428.89 778.631V778.651Z" fill="#321D1B"/>
<path d="M696.15 778.651H700.44C701.61 778.651 702.55 779.601 702.55 780.761V815.141C702.55 817.041 701.01 818.571 699.12 818.571H696.41C694.81 818.571 693.5 817.271 693.5 815.661V781.281C693.5 779.821 694.69 778.631 696.15 778.631V778.651Z" fill="#321D1B"/>
<path d="M416.65 742.45H422.54C423.71 742.45 424.65 743.4 424.65 744.56V846.56C424.65 848.46 423.11 849.99 421.22 849.99H416.91C415.31 849.99 414 848.69 414 847.08V745.08C414 743.62 415.19 742.43 416.65 742.43V742.45Z" fill="#321D1B"/>
<path d="M705 666H424V686.05H705V666Z" fill="#CE803A"/>
<path d="M705 690.539H424V710.589H705V690.539Z" fill="#CE803A"/>
<path d="M705 714.949H424V734.999H705V714.949Z" fill="#CE803A"/>
<path d="M705 757H424V773.51H705V757Z" fill="#A87042"/>
<path d="M705 775.561H424V785.001H705V775.561Z" fill="#A87042"/>
<path d="M1066.52 646.811H854.66V847.001H1066.52V646.811Z" fill="white"/>
<path d="M960.53 169.301L855 339.001H1066L960.53 169.301Z" fill="white"/>
<path d="M989.18 217.391H932.25L854.66 339.071V646.811H1066.52V338.681L989.18 217.391Z" fill="white"/>
<path d="M1039 372H882.35V540.43H1039V372Z" fill="#E8E8E8"/>
<path d="M961.36 597.4L1097 597L1066.42 623.5H855.5L823 597L960.55 597.4" fill="#E8E8E8"/>
<path d="M960.55 597.401L823 597.001L855.5 571.291H1066.42L1097 597.001H949.36" fill="#E8E8E8"/>
<path d="M929 766L955 741L959 745L933 770L929 766Z" fill="#E8E8E8"/>
<path d="M955 741C955 741 937 715 1007 691C1007 691 987.96 759.96 958.98 744.98L955 741Z" fill="#E8E8E8"/>
</g>
<defs>
<clipPath id="clip0_333_1055">
<rect width="1920" height="1079" fill="white"/>
</clipPath>
</defs>
</svg>
