<svg width="1921" height="1080" viewBox="0 0 1921 1080" fill="none" xmlns="http://www.w3.org/2000/svg">
<path d="M1920 794H0V1080H1920V794Z" fill="#7F5B4F"/>
<path d="M1920 0H0V794H1920V0Z" fill="#B7E0EA"/>
<path d="M1920 766H0V794H1920V766Z" fill="white"/>
<path d="M1691 46.6191H159V718.999H1691V46.6191Z" fill="#EDBA77"/>
<path d="M1662.03 74H188V695.5H1662.03V74Z" fill="#178744"/>
<path d="M1680.76 584.873L1656.45 560.562L1598.84 618.17L1623.15 642.481L1680.76 584.873Z" fill="#603A1E"/>
<path d="M248 688H216V696H248V688Z" fill="white"/>
<path d="M1179 689H1147V696H1179V689Z" fill="#62A3FF"/>
<path d="M1280 689H1248V696H1280V689Z" fill="#62A3FF"/>
<path d="M1667.01 585.998L1655.51 574.5L1612.51 617.499L1624.01 628.997L1667.01 585.998Z" fill="#442713"/>
<path d="M156.465 798.446L13.877 773.176L8.63824 802.735L151.226 828.006L156.465 798.446Z" fill="#88A9FF"/>
<path d="M151.396 828.08L8.86719 802.82L5.96513 819.195L148.494 844.455L151.396 828.08Z" fill="#FBB03B"/>
<path d="M1920.8 672.51H1815.52V856H1920.8V672.51Z" fill="#808080"/>
<path d="M159.239 422.85L141.516 419.709L76.4243 786.986L94.1481 790.127L159.239 422.85Z" fill="#88A9FF"/>
<path d="M1921 643H1801V675H1921V643Z" fill="#808080"/>
<path d="M1920 683H1835V837H1920V683Z" fill="#5E5E5E"/>
<g style="mix-blend-mode:multiply">
<path d="M1921 716L1816 687V675H1921V716Z" fill="#D6D6D6"/>
</g>
</svg>
